<?xml version="1.0" encoding="utf-8"?>
<!-- Generator: Adobe Illustrator 19.1.0, SVG Export Plug-In . SVG Version: 6.00 Build 0)  -->
<svg version="1.1" id="Vrstva_1" xmlns="http://www.w3.org/2000/svg" xmlns:xlink="http://www.w3.org/1999/xlink" x="0px" y="0px"
	 viewBox="0 0 152 50" style="enable-background:new 0 0 152 50;" xml:space="preserve">
<style type="text/css">
	.st0{fill:#FFFFFF;}
</style>
<g>
	<path class="st0" d="M1.1,1.4h8.6V3H3.1v5.4h6.4v1.6H3.1l0,7.3H1L1.1,1.4z"/>
	<path class="st0" d="M11.5,7.4c2.4-1.6,3.2-1.9,4.6-1.9c1.2,0,2.1,0.5,2.6,1.4C18.9,7.5,19,8,19,9.1v1l-0.1,4.3v0.3
		c0,1.2,0.2,1.7,0.7,1.7c0.3,0,0.5-0.1,1-0.4l0.5,1c-1.1,0.6-1.4,0.8-2,0.8c-1.1,0-1.6-0.6-1.8-1.8c-1.1,1.3-2.2,1.9-3.6,1.9
		c-1.8,0-3.2-1.4-3.2-3.3c0-2.4,2.3-3.9,6.7-4.2V9.5c0-0.9-0.1-1.4-0.3-1.8C16.7,7.3,16.2,7,15.6,7c-0.9,0-1.8,0.4-3.4,1.5L11.5,7.4
		z M17.2,11.3c-1.7,0.3-2.5,0.5-3.1,0.7c-1.1,0.5-1.7,1.2-1.7,2.3c0,1.1,0.8,1.9,1.9,1.9c1,0,1.6-0.4,2.9-1.6V11.3z"/>
	<path class="st0" d="M30.8,15.8c-1.5,1.5-2.4,2-4,2c-2.8,0-5-2.6-5-6c0-3.5,2.3-6.2,5.3-6.2c1.4,0,2.3,0.4,3.7,1.9l-1.1,1
		c-0.9-1-1.6-1.4-2.5-1.4c-1.9,0-3.4,2-3.4,4.7c0,2.7,1.4,4.6,3.3,4.6c1,0,1.7-0.4,2.7-1.5L30.8,15.8z"/>
	<path class="st0" d="M39.7,17.4l0-1.8c-1.6,1.6-2.6,2.1-4,2.1c-1.5,0-2.7-0.8-3.1-2.1c-0.1-0.4-0.2-1.2-0.2-2.2l0-7.6h1.9l0,7.8
		c0,0.8,0.1,1.3,0.3,1.7c0.3,0.5,0.9,0.8,1.5,0.8c1.1,0,1.9-0.5,3.5-2.1l0-8.2h1.8l0,11.5H39.7z"/>
	<path class="st0" d="M44.8,0h1.9l-0.1,17.4h-1.9L44.8,0z"/>
	<path class="st0" d="M48.3,5.9h2.1V1.5h1.9v4.4h3.1v1.3h-3.1l0,6.8c0,1.5,0.3,2.1,1.1,2.1c0.4,0,0.9-0.2,1.8-0.7l0.6,1.2
		c-1.2,0.7-1.9,1-2.9,1c-1.8,0-2.7-1.3-2.6-3.5V14l0-6.8h-2V5.9z"/>
	<path class="st0" d="M56.8,21.6c1.7,0,2.2-0.3,2.8-1.6l1.2-2.8L56.5,6l1.9-0.5l3.4,9.5l3.4-9.5L67.1,6l-5.2,13.1
		c-1.4,3.3-2,3.8-5.1,3.8V21.6z"/>
	<path class="st0" d="M11.1,37.4c0,1.8-0.6,3.4-1.6,4.6c-1,1.1-2.3,1.7-4.1,1.7c-3.2,0-5.4-2.4-5.4-6.1c0-3.6,2.3-6.1,5.6-6.1
		C8.9,31.5,11.1,33.9,11.1,37.4z M2.1,37.6c0,2.8,1.4,4.6,3.5,4.6c2.1,0,3.6-1.9,3.6-4.8c0-2.7-1.4-4.5-3.5-4.5
		C3.6,32.9,2.1,34.9,2.1,37.6z"/>
	<path class="st0" d="M14.3,33.3h-2.2v-1.3h2.2v-1c0-1.5,0.3-2.7,0.8-3.4c0.7-1,1.9-1.5,3.3-1.5c0.1,0,0.5,0,0.8,0v1.3h-0.5
		c-0.8,0-1.5,0.3-1.9,0.8c-0.4,0.6-0.6,1.4-0.6,2.8v1h3v1.3h-3l0,10.1h-1.9L14.3,33.3z"/>
	<path class="st0" d="M27.4,41.4c1.4,0.7,1.8,0.8,2.6,0.8c1.2,0,2.2-0.8,2.2-1.8c0-0.9-0.6-1.5-2-2l-0.4-0.1c-2-0.7-3-1.8-3-3.4
		c0-2,1.6-3.4,3.8-3.4c1.2,0,2,0.2,3.3,1l-0.8,1.2c-0.9-0.5-1.6-0.7-2.4-0.7c-1.2,0-2.1,0.8-2.1,1.8c0,0.8,0.5,1.4,1.6,1.8l1,0.4
		c1.9,0.7,2.7,1.7,2.7,3.2c0,2-1.6,3.4-3.9,3.4c-1.2,0-2.3-0.3-3.5-1L27.4,41.4z"/>
	<path class="st0" d="M46.5,37.4c0,1.8-0.6,3.4-1.6,4.6c-1,1.1-2.3,1.7-4.1,1.7c-3.2,0-5.4-2.4-5.4-6.1c0-3.6,2.3-6.1,5.6-6.1
		C44.3,31.5,46.5,33.9,46.5,37.4z M37.4,37.6c0,2.8,1.4,4.6,3.5,4.6c2.1,0,3.6-1.9,3.6-4.8c0-2.7-1.4-4.5-3.5-4.5
		C38.9,32.9,37.4,34.9,37.4,37.6z"/>
	<path class="st0" d="M57.2,41.8c-1.5,1.5-2.4,2-4,2c-2.8,0-5-2.6-5-6c0-3.5,2.3-6.2,5.3-6.2c1.4,0,2.3,0.4,3.7,1.9l-1.1,1
		c-0.9-1-1.6-1.4-2.5-1.4c-1.9,0-3.4,2-3.4,4.7c0,2.7,1.4,4.6,3.3,4.6c1,0,1.7-0.4,2.7-1.5L57.2,41.8z"/>
	<path class="st0" d="M59.1,31.9h2l0,11.5h-2L59.1,31.9z M59,27.2h2v2.1h-2V27.2z"/>
	<path class="st0" d="M64.4,33.4c2.4-1.6,3.2-1.9,4.6-1.9c1.2,0,2.1,0.5,2.6,1.4c0.3,0.6,0.4,1.1,0.4,2.3v1l-0.1,4.3v0.3
		c0,1.2,0.2,1.7,0.7,1.7c0.3,0,0.5-0.1,1-0.4l0.5,1c-1.1,0.6-1.4,0.8-2,0.8c-1.1,0-1.6-0.6-1.8-1.8c-1.1,1.3-2.2,1.9-3.6,1.9
		c-1.8,0-3.2-1.4-3.2-3.3c0-2.4,2.3-3.9,6.7-4.2v-0.7c0-0.9-0.1-1.4-0.3-1.8c-0.2-0.5-0.8-0.7-1.4-0.7c-0.9,0-1.8,0.4-3.4,1.5
		L64.4,33.4z M70.1,37.3c-1.7,0.3-2.5,0.5-3.1,0.7c-1.1,0.5-1.7,1.2-1.7,2.3c0,1.1,0.8,1.9,1.9,1.9c1,0,1.6-0.4,2.9-1.6V37.3z"/>
	<path class="st0" d="M75.5,26h1.9l-0.1,17.4h-1.9L75.5,26z"/>
	<path class="st0" d="M87.3,41.4c1.4,0.7,1.8,0.8,2.6,0.8c1.2,0,2.2-0.8,2.2-1.8c0-0.9-0.6-1.5-2-2l-0.4-0.1c-2-0.7-3-1.8-3-3.4
		c0-2,1.6-3.4,3.8-3.4c1.2,0,2,0.2,3.3,1l-0.8,1.2c-0.9-0.5-1.6-0.7-2.4-0.7c-1.2,0-2.1,0.8-2.1,1.8c0,0.8,0.5,1.4,1.6,1.8l1,0.4
		c1.9,0.7,2.7,1.7,2.7,3.2c0,2-1.6,3.4-3.9,3.4c-1.2,0-2.3-0.3-3.5-1L87.3,41.4z"/>
	<path class="st0" d="M95.1,31.9h2.1v-4.4h1.9v4.4h3.1v1.3h-3.1l0,6.8c0,1.5,0.3,2.1,1.1,2.1c0.4,0,0.9-0.2,1.8-0.7l0.6,1.2
		c-1.2,0.7-1.9,1-2.9,1c-1.8,0-2.7-1.3-2.6-3.5V40l0-6.8h-2V31.9z"/>
	<path class="st0" d="M111.2,43.4l0-1.8c-1.6,1.6-2.6,2.1-4,2.1c-1.5,0-2.7-0.8-3.1-2.1c-0.1-0.4-0.2-1.2-0.2-2.2l0-7.6h1.9l0,7.8
		c0,0.8,0.1,1.3,0.3,1.7c0.3,0.5,0.9,0.8,1.5,0.8c1.1,0,1.9-0.5,3.5-2.1l0-8.2h1.8l0,11.5H111.2z"/>
	<path class="st0" d="M123.8,43.4l0.1-1.7c-0.4,0.7-0.7,1-1.1,1.3c-0.7,0.5-1.5,0.7-2.4,0.7c-2.8,0-4.8-2.5-4.8-5.9
		c0-3.5,2.3-6.3,5.2-6.3c1.3,0,2.3,0.5,3.1,1.6l0-7.1h1.9l-0.1,17.4H123.8z M123.8,35c-0.8-1.4-1.6-1.9-2.8-1.9c-2,0-3.5,2-3.5,4.7
		c0,2.6,1.3,4.5,3.2,4.5c1.2,0,2.1-0.7,3.1-2.3V35z"/>
	<path class="st0" d="M128.9,31.9h2l0,11.5h-2L128.9,31.9z M128.9,27.2h2v2.1h-2V27.2z"/>
	<path class="st0" d="M142.7,41.6c-1.7,1.6-2.8,2.1-4.4,2.1c-3,0-5-2.4-5-5.9c0-3.7,2.2-6.4,5.3-6.4c1.7,0,3,0.9,3.7,2.4
		c0.5,1,0.6,1.8,0.6,3.5h-7.7c0,0.1,0,0.3,0,0.3c0,2.6,1.4,4.5,3.2,4.5c1.2,0,2.1-0.5,3.3-1.6L142.7,41.6z M141.1,36.1
		c-0.2-2.2-1.1-3.2-2.4-3.2c-1,0-1.9,0.5-2.5,1.4c-0.3,0.4-0.5,0.9-0.7,1.8H141.1z"/>
	<path class="st0" d="M145.2,41.4c1.4,0.7,1.8,0.8,2.6,0.8c1.2,0,2.2-0.8,2.2-1.8c0-0.9-0.6-1.5-2-2l-0.4-0.1c-2-0.7-3-1.8-3-3.4
		c0-2,1.6-3.4,3.8-3.4c1.2,0,2,0.2,3.3,1l-0.8,1.2c-0.9-0.5-1.6-0.7-2.4-0.7c-1.2,0-2.1,0.8-2.1,1.8c0,0.8,0.5,1.4,1.6,1.8l1,0.4
		c1.9,0.7,2.7,1.7,2.7,3.2c0,2-1.6,3.4-3.9,3.4c-1.2,0-2.3-0.3-3.5-1L145.2,41.4z"/>
</g>
</svg>
