<?xml version="1.0" encoding="utf-8"?>
<!-- Generator: Adobe Illustrator 19.1.0, SVG Export Plug-In . SVG Version: 6.00 Build 0)  -->
<svg version="1.1" id="Layer_1" xmlns="http://www.w3.org/2000/svg" xmlns:xlink="http://www.w3.org/1999/xlink" x="0px" y="0px"
	 viewBox="-281 404.9 32 32" style="enable-background:new -281 404.9 32 32;" xml:space="preserve">
<style type="text/css">
	.st0{fill:#FFFFFF;}
</style>
<g transform="translate(576 192)">
	<path class="st0" d="M-825.9,239.8l-7.3-7.3c-1.1,1.7-2.5,3.1-4.2,4.2l7.3,7.3c1.2,1.2,3.1,1.2,4.2,0
		C-824.7,242.9-824.7,241-825.9,239.8z"/>
	<path class="st0" d="M-833,224.9c0-6.6-5.4-12-12-12s-12,5.4-12,12s5.4,12,12,12S-833,231.5-833,224.9z M-845,233.9c-5,0-9-4-9-9
		s4-9,9-9s9,4,9,9S-840,233.9-845,233.9z"/>
	<path class="st0" d="M-852,224.9h2c0-2.8,2.2-5,5-5v-2C-848.9,217.9-852,221-852,224.9z"/>
</g>
</svg>
