<?xml version="1.0" encoding="utf-8"?>
<!-- Generator: Adobe Illustrator 18.1.1, SVG Export Plug-In . SVG Version: 6.00 Build 0)  -->
<!DOCTYPE svg PUBLIC "-//W3C//DTD SVG 1.1//EN" "http://www.w3.org/Graphics/SVG/1.1/DTD/svg11.dtd">
<svg version="1.1" id="Vrstva_1" xmlns="http://www.w3.org/2000/svg" xmlns:xlink="http://www.w3.org/1999/xlink" x="0px" y="0px"
	 viewBox="0 0 141.7 141.7" enable-background="new 0 0 141.7 141.7" xml:space="preserve">
<g id="FSS">
</g>
<g id="export">
	<path fill="#CBCBCB" d="M99.1,23.1c-4.7,7.6-9.4,14.9-11.3,18.3c-3.5,5.9,0.4,7.1,0.4,10.1c0,2.3-1.2,3.7-3,6.9
		c-1.9,3.2-2.8,4.5-6.3,9.7c-1.8,2.6-2.1,3.8-2.1,5.4c0,1.5,1,2.5,2.8,3.4c2.7,1.4,3.2,1.9,3.2,3c0,1.3-1.3,2.8-1.3,4.4
		c0,1.6,2.1,2.4,2.1,3.8c0,1.9-1.4,2.4-1.4,3.8c0,2.6,3.8,2.9,3.8,5c0,1.9-1.7,3.9-1.7,6.9c0,2.6,2.3,5,9.1,5.9
		c5.2,0.7,6.7,3.5,8.8,6.8c14.6-10,24.3-26.8,24.3-45.8C126.2,50.5,115.3,32.8,99.1,23.1z M56.4,58.5c-1.9-3.2-3-4.6-3-6.9
		c0-3,3.9-4.3,0.4-10.1c-2-3.4-6.7-10.7-11.3-18.3c-16.3,9.7-27.1,27.4-27.1,47.6c0,19.1,9.6,35.9,24.3,45.8
		c2.1-3.3,3.5-6.1,8.8-6.8c6.8-1,9.1-3.4,9.1-5.9c0-2.9-1.7-4.9-1.7-6.9c0-2.1,3.8-2.4,3.8-5c0-1.4-1.4-1.9-1.4-3.8
		c0-1.4,2.1-2.1,2.1-3.8c0-1.6-1.3-3.1-1.3-4.4c0-1.1,0.5-1.6,3.2-3c1.8-0.9,2.8-1.9,2.8-3.4c0-1.5-0.4-2.8-2.1-5.4
		C59.2,63,58.3,61.7,56.4,58.5z M70.8,17.5c8.1,0,15.7,1.8,22.6,5l1.2-1.9c-7.2-3.4-15.2-5.3-23.8-5.3S54.2,17.3,47,20.7l1.2,1.9
		C55,19.3,62.7,17.5,70.8,17.5z M97.2,118.7c-0.3-0.5-0.6-0.9-0.8-1.2c-7.6,4.2-16.3,6.5-25.6,6.5s-18-2.4-25.6-6.5
		c-0.2,0.4-0.5,0.7-0.8,1.2l-0.4,0.6c7.9,4.4,17,6.9,26.8,6.9s18.8-2.5,26.8-6.9L97.2,118.7z M6.8,76.4c1.1-0.1,2.1,0.6,2.2,1.8
		c0.1,1.1-0.6,2.1-1.8,2.2c-1.1,0.1-2.1-0.6-2.2-1.8C4.9,77.6,5.7,76.6,6.8,76.4z M11.9,83.5l1,4.2l-0.8,0.2l-0.8-3.2l-2.6,0.6
		l0.8,3.1l-0.8,0.2l-0.8-3.1l-3.5,0.8l-0.2-1L11.9,83.5z M13.7,90.2l0.3,0.9l-6.4,5.6l-0.6-0.9l2.3-1.9l-1.1-3.1l-3.1-0.2l0-1
		L13.7,90.2z M13,90.9L13,90.9l-3.8-0.1l0.9,2.5L13,90.9z M16.6,100c0.1-0.8,0-1.4-0.4-2.1c-0.8-1.7-2.7-2.2-4.4-1.4
		c-1.7,0.8-2.5,2.6-1.6,4.3c0.3,0.6,0.8,1.2,1.4,1.6l-0.5,0.6c-0.7-0.5-1.4-1.1-1.8-1.9c-1-2.1-0.4-4.5,1.9-5.6
		c2.2-1.1,4.6-0.1,5.6,2c0.4,0.9,0.5,1.6,0.5,2.5L16.6,100z M21.5,105.6l-4.3,2.6c-2.2,1.3-3.6,0.3-4.4-1.1c-0.9-1.5-1-3.1,1.1-4.4
		c0.6-0.3,1.2-0.7,1.9-1.2l2.4-1.5l0.5,0.8l-2.5,1.6c-0.6,0.4-1.3,0.8-1.9,1.2c-1.3,0.8-1.4,1.8-0.6,3c0.6,1,1.7,1.5,3.2,0.6
		l4.2-2.6L21.5,105.6z M15.9,111.3l6.3-4.9l0.6,0.8l-5.7,4.4l2.1,2.7l-0.6,0.5L15.9,111.3z M24.1,108.9l4.1,4.5l-0.6,0.6l-1.7-1.9
		l-5.4,4.8l-0.6-0.7l5.4-4.8l-1.7-1.9L24.1,108.9z M29.7,114.8l0.7,0.6l-3,7.9l-1-0.4l1.1-2.8l-2.5-2.2l-2.8,1.3l-0.5-0.8
		L29.7,114.8z M29.4,115.8L29.4,115.8l-3.5,1.7l1.9,1.8L29.4,115.8z M28.7,123.1c0.1,0.5,0.5,1.1,1,1.5c0.7,0.6,1.6,0.5,2.1-0.2
		c1.3-1.6-2.1-3.1-0.4-5.3c0.7-1,2.1-1.1,3.2-0.2c0.6,0.5,1,1.1,1.3,1.8l-0.7,0.4c-0.2-0.6-0.4-1.1-1-1.5c-0.6-0.4-1.4-0.6-2,0.2
		c-1.1,1.4,2,3.2,0.6,5.3c-0.7,1-2,1.3-3.5,0.3c-0.7-0.5-1.1-1.1-1.4-1.9L28.7,123.1z M35.8,128c0.2,0.5,0.6,1.1,1.2,1.3
		c0.8,0.5,1.7,0.3,2.1-0.5c1-1.8-2.5-2.8-1.1-5.2c0.6-1.1,1.9-1.3,3.1-0.6c0.7,0.4,1.2,0.9,1.5,1.6l-0.7,0.5c-0.3-0.5-0.5-1-1.2-1.3
		c-0.6-0.3-1.5-0.4-2,0.5c-0.9,1.5,2.5,3,1.2,5.1c-0.6,1-1.9,1.6-3.4,0.7c-0.7-0.4-1.2-0.9-1.6-1.7L35.8,128z M42.8,124.2l5.5,2.5
		l-0.4,0.7l-2.3-1.1l-3.1,6.5l-0.9-0.4l3.1-6.5l-2.3-1.1L42.8,124.2z M54.6,128.9l-1.6,4.7c-0.8,2.4-2.6,2.5-4.1,2
		c-1.6-0.6-2.7-1.7-1.9-4c0.2-0.6,0.5-1.3,0.7-2.1l0.9-2.6l0.9,0.3l-1,2.8c-0.2,0.7-0.5,1.4-0.7,2.1c-0.5,1.4,0,2.3,1.4,2.7
		c1.1,0.4,2.3,0.1,2.8-1.6l1.6-4.7L54.6,128.9z M55.5,129.1l2.4,0.5c3,0.6,3.8,2.8,3.5,4.7c-0.6,2.7-2.8,3.6-5.3,3.1l-2.2-0.5
		L55.5,129.1z M54.9,136.4l1.1,0.2c2.2,0.5,3.9-0.3,4.4-2.5c0.4-2-0.7-3.4-2.8-3.8l-1.2-0.2L54.9,136.4z M63,130.5l1,0.1l-1,8
		l-1-0.1L63,130.5z M64.7,134.9c0-2.5,2-4.1,4.4-4c2.4,0,4.2,1.7,4.1,4.3c0,2.5-2,4.1-4.4,4C66.5,139.1,64.6,137.5,64.7,134.9z
		 M65.8,134.9c0,1.9,1.3,3.4,3.1,3.4c1.9,0,3.2-1.4,3.3-3.2c0-1.9-1.3-3.4-3.1-3.4C67.2,131.6,65.8,133,65.8,134.9z M73.9,131
		l2.4-0.2c1.5-0.1,2.6,0.6,2.7,1.9s-0.7,2.1-1.8,2.4l0,0c0.6,0,1.1,0.7,1.4,1.1l1.8,2l-0.8,0.6l-2.1-2.4c-0.6-0.6-0.8-1-1.6-1
		l-0.6,0l0.3,3.4l-1,0.1L73.9,131z M75.2,134.7l1-0.1c1-0.1,1.9-0.6,1.9-1.7c-0.1-0.8-0.6-1.6-1.9-1.4l-1.2,0.1L75.2,134.7z
		 M86.1,129.1l1,4.9c0.5,2.5-1,3.5-2.5,3.8c-1.7,0.3-3.2-0.1-3.7-2.5c-0.1-0.6-0.3-1.3-0.4-2.1l-0.6-2.7l1-0.2l0.6,2.9
		c0.1,0.7,0.3,1.5,0.4,2.2c0.3,1.4,1.2,1.9,2.6,1.7c1.1-0.2,2-1,1.7-2.8l-1-4.8L86.1,129.1z M87.8,128.7l1-0.3l4.5,5.6l0.2-7.2
		l1-0.4l3.9,7.1l-0.9,0.5l-3.2-6.1l0,0l-0.1,7.1l-0.9,0.3l-4.4-5.5l0,0l1.3,6.8l-1,0.2L87.8,128.7z M101.8,130.3
		c0.5,0,1.2,0,1.8-0.3c0.8-0.5,1.1-1.3,0.7-2c-1-1.8-3.7,0.7-5-1.8c-0.6-1.1-0.1-2.3,1.1-3c0.7-0.4,1.4-0.5,2.2-0.5v0.8
		c-0.6,0-1.1,0-1.8,0.3c-0.6,0.3-1.1,1.1-0.6,1.9c0.9,1.5,3.8-0.6,5,1.6c0.6,1,0.4,2.4-1.2,3.3c-0.8,0.4-1.4,0.6-2.2,0.5
		L101.8,130.3z M104.7,125.5c-1.4-2-0.9-4.5,1-5.9c1.9-1.4,4.4-1.2,5.9,0.9c1.4,2,0.9,4.5-1,5.9
		C108.6,127.8,106.2,127.7,104.7,125.5z M105.5,124.9c1.1,1.5,3,1.9,4.5,0.9c1.5-1.1,1.7-3.1,0.6-4.6c-1.1-1.5-3-1.9-4.5-0.9
		C104.7,121.4,104.5,123.4,105.5,124.9z M114.8,113.9c-0.8,0.1-1.3,0.4-1.9,1c-1.3,1.3-1.3,3.2-0.1,4.6c1.3,1.3,3.2,1.5,4.6,0.3
		c0.5-0.5,0.9-1.2,1.1-1.9l0.8,0.2c-0.2,0.8-0.6,1.7-1.3,2.2c-1.8,1.6-4.2,1.8-5.9-0.2c-1.7-1.8-1.4-4.4,0.3-5.9
		c0.7-0.6,1.4-1,2.3-1.2L114.8,113.9z M114.7,112l0.7-0.7l5.8,5.5l-0.7,0.7L114.7,112z M117.9,108.3l0.6-0.7l8.1,2.4l-0.4,1
		l-2.9-0.9l-2,2.6l1.5,2.7l-0.8,0.6L117.9,108.3z M118.8,108.6L118.8,108.6l2,3.3l1.6-2.1L118.8,108.6z M127.2,109.2l-6.7-4.4
		l0.6-0.8l6,3.9l1.9-2.9l0.7,0.5L127.2,109.2z M123.3,100.4l0.5-0.9l6.9,3.9l-0.5,0.9L123.3,100.4z M127.1,92.6l4.5,2.1
		c2.3,1.1,2.2,2.8,1.6,4.3c-0.7,1.6-2,2.5-4.2,1.5c-0.6-0.3-1.3-0.6-2-0.9l-2.5-1.2l0.4-0.9l2.7,1.3c0.7,0.3,1.4,0.6,2,0.9
		c1.3,0.6,2.3,0.2,2.8-1.1c0.5-1.1,0.4-2.2-1.3-3l-4.5-2L127.1,92.6z M127.7,91l0.3-1l7.2-0.4l-5.7-4.4l0.3-1l8.1,1l-0.1,1l-6.9-0.9
		l0,0l5.7,4.3l-0.3,0.9l-7.1,0.4l0,0l6.3,3l-0.4,0.9L127.7,91z M134.3,80.4c-1.1-0.1-1.9-1.1-1.8-2.2c0.1-1.1,1.1-1.9,2.2-1.8
		c1.1,0.1,1.9,1.1,1.8,2.2C136.4,79.8,135.5,80.6,134.3,80.4z M2.8,65.7l5,0.2c2.5,0.1,3.1,1.8,3.1,3.3c0,1.7-0.8,3.1-3.3,3
		c-0.6,0-1.3,0-2.2-0.1l-2.8-0.1l0-1l3,0.1c0.7,0,1.5,0,2.3,0.1c1.5,0,2.1-0.7,2.2-2.1c0-1.2-0.6-2.2-2.4-2.2l-4.9-0.2L2.8,65.7z
		 M3.1,63.7l-0.2-0.9l7.1-3.4l0,0l-6.3-1l0.1-1l7.7,1.3l0.2,0.9l-7.1,3.4l0,0l6.3,1l-0.1,1L3.1,63.7z M4.4,55.2l0.2-1l7.8,1.9
		l-0.2,1L4.4,55.2z M5.1,53l0-1.1l7.5-0.3l-5.7-5l0.6-0.8l6.4,5.7l-0.3,0.9L5.1,53z M7.8,44.7l1.7-3.8l0.7,0.3l-1.3,2.9l2.5,1.1
		l1.3-2.8l0.7,0.3l-1.3,2.8l2.5,1.2l1.3-2.9l0.7,0.3L14.9,48L7.8,44.7z M10.3,39.4l1.2-2.1c0.7-1.3,1.9-1.9,3.1-1.2
		c1.2,0.6,1.3,1.8,0.9,2.9l0,0c0.3-0.4,1.2-0.5,1.7-0.6l2.6-0.4l0,1l-3.1,0.4c-0.8,0.1-1.3,0.1-1.7,0.7l-0.3,0.6l3,1.7l-0.5,0.9
		L10.3,39.4z M14.1,40.4l0.5-0.9c0.5-0.8,0.7-1.9-0.3-2.5c-0.7-0.4-1.6-0.4-2.3,0.7l-0.6,1L14.1,40.4z M19.4,37.2
		c0.5-0.2,1.1-0.5,1.5-1.1c0.6-0.8,0.5-1.6-0.3-2.1c-1.7-1.2-3,2.2-5.3,0.6c-1-0.7-1.2-2-0.3-3.2c0.5-0.6,1.1-1.1,1.7-1.4l0.4,0.7
		c-0.5,0.2-1,0.4-1.5,1.1c-0.4,0.6-0.5,1.5,0.3,2c1.4,1,3.2-2.2,5.2-0.7c1,0.7,1.4,2,0.4,3.4c-0.5,0.7-1.1,1.1-1.8,1.4L19.4,37.2z
		 M17.4,28.3l0.6-0.8l6.2,5.1l-0.6,0.8L17.4,28.3z M18.9,26.5L23,22l0.6,0.6l-1.7,1.9l5.2,5l-0.7,0.7l-5.2-5L19.5,27L18.9,26.5z
		 M25.2,20.1l0.7-0.6l7.6,3.8L33,24.1l-2.7-1.4L27.9,25l1,2.9L28,28.2L25.2,20.1z M26.2,20.5L26.2,20.5l1.4,3.6l1.9-1.8L26.2,20.5z
		 M33.3,22.2c0.5,0,1.2-0.1,1.7-0.5c0.7-0.6,1-1.4,0.4-2.1c-1.2-1.7-3.6,1.1-5.2-1.2c-0.7-1-0.4-2.3,0.7-3.1
		c0.6-0.5,1.3-0.7,2.1-0.7l0.1,0.8c-0.6,0-1.1,0.1-1.7,0.5c-0.6,0.4-0.9,1.2-0.4,2c1,1.4,3.7-1,5.2,1c0.7,1,0.7,2.4-0.7,3.4
		c-0.7,0.5-1.3,0.7-2.2,0.8L33.3,22.2z M37.9,11l0.9-0.5l5.1,5l-0.6-7.2l1-0.5l4.7,6.6L48.2,15l-3.9-5.7l0,0l0.7,7.1l-0.8,0.4l-5-5
		l0,0l2,6.6l-0.9,0.3L37.9,11z M49.3,6.1l0.9-0.3l5.5,6.5l-0.8,0.6l-1.9-2.4l-3.1,1l-0.2,3.1h-1L49.3,6.1z M50,6.8L50,6.8l-0.2,3.8
		l2.5-0.8L50,6.8z M55.9,11.2c0.5,0.2,1.2,0.4,1.8,0.2c0.9-0.2,1.4-0.9,1.3-1.8c-0.4-2-3.7-0.4-4.3-3.1c-0.3-1.2,0.6-2.3,1.9-2.6
		c0.8-0.2,1.5-0.1,2.2,0.1l-0.2,0.8c-0.5-0.2-1.1-0.4-1.8-0.2c-0.7,0.1-1.3,0.7-1.2,1.7c0.4,1.7,3.8,0.6,4.4,3
		c0.2,1.2-0.3,2.4-2,2.8c-0.9,0.2-1.5,0.1-2.3-0.1L55.9,11.2z M62.7,3.1L63.6,3l4,7.5l-1,0.4l-1.4-2.7L62,8.6l-0.8,2.9l-1-0.2
		L62.7,3.1z M63.2,3.9L63.2,3.9l-1,3.8l2.6-0.3L63.2,3.9z M68.1,2.6l2.4,0c1.5,0,2.5,0.7,2.6,2.1c0,1.3-0.9,2.1-2,2.3l0,0
		c0.6,0.1,1,0.8,1.3,1.2l1.6,2.1l-0.9,0.6l-1.9-2.5c-0.5-0.6-0.7-1.1-1.5-1.1h-0.6v3.4h-1L68.1,2.6z M69.1,6.4h1c1,0,2-0.4,2-1.5
		c0-0.8-0.5-1.6-1.8-1.6h-1.2L69.1,6.4z M76.5,7.5L74.1,3L75,2.5l2.1,4.2l3-3.7l0.8,0.6l-3.4,3.9L77,11l-1-0.1L76.5,7.5z M82.2,3.5
		l1,0.2l-0.8,3.8l-0.8,4l-1-0.2L82.2,3.5z M82.3,7.5L87,4.4l0.6,0.7l-4.1,2.7l2.7,4.2l-0.9,0.5L82.3,7.5z M89.2,5.1l1,0.3L88,13.1
		l-1-0.3L89.2,5.1z M94.7,6.9l0.9,0.3l0.2,8.5l-1.1,0v-3l-3.1-1.2l-2.1,2.2l-0.7-0.6L94.7,6.9z M94.8,7.9L94.8,7.9l-2.5,2.9l2.5,0.9
		L94.8,7.9z M99.6,9.1l0.9,0.1l0.9,7.8l0,0l3-5.6l0.9,0.5l-3.7,6.9l-0.9-0.1l-0.8-7.8l0,0l-3,5.6L95.9,16L99.6,9.1z M109.1,14.4
		l0.8,0.6l-1.9,8.3l-1-0.3l0.7-3l-2.7-1.9l-2.5,1.7l-0.6-0.7L109.1,14.4z M108.9,15.4L108.9,15.4l-3.2,2.2l2.2,1.5L108.9,15.4z
		 M116,19.7l1.6,1.5c1.3,1.2,1,2.4,0.4,3.1c-0.7,0.7-1.4,0.8-2.3,0.4l0,0c0.6,0.8,0.5,1.8-0.2,2.5c-1,1-2.3,0.9-3.4-0.2l-1.6-1.5
		L116,19.7z M111.7,25.6l0.8,0.8c0.7,0.7,1.5,0.8,2.3,0c0.6-0.7,0.5-1.6-0.3-2.4l-0.7-0.6L111.7,25.6z M114.3,22.9l0.6,0.5
		c1,0.9,1.7,0.9,2.3,0.3c0.6-0.6,0.6-1.3-0.4-2.2l-0.6-0.6L114.3,22.9z M120.7,24.3l1.6,1.8c1,1.2,1.1,2.5,0.1,3.3
		c-1,0.9-2.1,0.7-3,0l0,0c0.3,0.5,0,1.3-0.1,1.8l-0.6,2.6l-1-0.3l0.7-3.1c0.2-0.8,0.3-1.3-0.1-1.9l-0.4-0.5l-2.6,2.2l-0.6-0.7
		L120.7,24.3z M118.4,27.5l0.6,0.7c0.6,0.7,1.6,1.3,2.5,0.5c0.6-0.6,0.9-1.4,0-2.4l-0.8-0.9L118.4,27.5z M128.9,35l-4.1,2.8
		c-2.1,1.4-3.6,0.4-4.4-0.9c-1-1.4-1.1-3,0.9-4.4c0.6-0.4,1.1-0.7,1.8-1.2l2.3-1.5l0.6,0.8l-2.5,1.7c-0.6,0.4-1.3,0.8-1.9,1.3
		c-1.2,0.8-1.3,1.9-0.5,3c0.6,1,1.7,1.5,3.2,0.4l4.1-2.8L128.9,35z M129.8,36.9l0.7,0.6l-3.8,6.9l0,0l5.6-2.9l0.5,0.9l-7,3.5
		l-0.7-0.6l3.8-6.9l0,0l-5.7,2.9l-0.5-0.9L129.8,36.9z M133.7,44.4l1.5,3.8l-0.8,0.3l-1.1-2.9l-2.5,1l1.1,2.9l-0.8,0.3l-1.1-2.8
		l-2.6,1l1.2,3l-0.8,0.3l-1.5-3.9L133.7,44.4z M135.6,50l0.6,0.7l-5.1,6l0,0l6.1-1.6l0.3,1l-7.6,2l-0.6-0.7l5.2-6l0,0l-6.2,1.6
		l-0.3-1L135.6,50z M131.1,59.1c-0.2,0.5-0.4,1.2-0.3,1.8c0.1,0.9,0.8,1.5,1.7,1.3c2-0.3,0.6-3.7,3.4-4.1c1.2-0.2,2.2,0.6,2.5,2.1
		c0.1,0.8,0,1.5-0.3,2.2l-0.8-0.3c0.2-0.5,0.4-1,0.3-1.8c-0.1-0.7-0.6-1.4-1.6-1.3c-1.8,0.3-0.8,3.8-3.2,4.2
		c-1.2,0.2-2.4-0.5-2.7-2.2c-0.1-0.9,0-1.5,0.3-2.3L131.1,59.1z M138.6,64.1l0.1,1l-8,0.6l-0.1-1L138.6,64.1z M132.1,67.4
		c-0.3,0.4-0.6,1.1-0.6,1.7c0,0.9,0.6,1.6,1.5,1.6c2,0,1.1-3.6,3.9-3.6c1.3,0,2.1,1,2.2,2.4c0,0.8-0.2,1.5-0.6,2.1l-0.7-0.4
		c0.3-0.5,0.6-1,0.6-1.7c0-0.7-0.5-1.5-1.4-1.4c-1.8,0-1.3,3.6-3.8,3.7c-1.2,0-2.3-0.8-2.4-2.5c0-0.9,0.2-1.5,0.6-2.2L132.1,67.4z"
		/>
</g>
</svg>
