<?xml version="1.0" encoding="utf-8"?>
<!-- Generator: Adobe Illustrator 19.1.0, SVG Export Plug-In . SVG Version: 6.00 Build 0)  -->
<svg version="1.1" id="svg5522" xmlns="http://www.w3.org/2000/svg" xmlns:xlink="http://www.w3.org/1999/xlink" x="0px" y="0px"
	 viewBox="35.4 36 227 97" style="enable-background:new 35.4 36 227 97;" xml:space="preserve">
<style type="text/css">
	.st0{fill:#CBCBCB;}
</style>
<g id="layer1" transform="translate(-303.71236,-156.4139)" inkscape:label="kypo-wires-color" inkscape:groupmode="layer">
	<g id="g3568">
		<g id="g444" transform="translate(-2626.8111,-120.62169)">
			<path id="path446" inkscape:connector-curvature="0" class="st0" d="M3083.1,347.4h3.7v13.7h0.1c0.8-1.1,1.5-2.1,2.2-3l8.7-10.6
				h4.5l-10.2,12l11,16.3h-4.3l-9.3-13.9l-2.7,3.1v10.8h-3.7L3083.1,347.4L3083.1,347.4z"/>
			<path id="path448" inkscape:connector-curvature="0" class="st0" d="M3116.9,375.7v-12l-9-16.3h4.2l4,7.8c1,2.1,1.9,3.9,2.8,5.8
				h0.1c0.8-1.8,1.8-3.7,2.9-5.8l4.1-7.8h4.1l-9.4,16.3v12.1H3116.9L3116.9,375.7z"/>
			<path id="path450" inkscape:connector-curvature="0" class="st0" d="M3136.7,347.8c1.8-0.3,4.1-0.5,7-0.5c3.6,0,6.3,0.8,7.9,2.4
				c1.5,1.3,2.5,3.4,2.5,5.9c0,2.6-0.8,4.6-2.2,6c-2,2.1-5.1,3.1-8.7,3.1c-1.1,0-2.1,0-2.9-0.3v11.3h-3.7L3136.7,347.8L3136.7,347.8
				z M3140.3,361.4c0.8,0.2,1.8,0.3,3,0.3c4.4,0,7.1-2.2,7.1-6c0-3.8-2.7-5.6-6.7-5.6c-1.6,0-2.8,0.1-3.4,0.3V361.4L3140.3,361.4z"
				/>
			<path id="path452" inkscape:connector-curvature="0" class="st0" d="M3186.4,361.3c0,9.7-5.9,14.9-13.1,14.9
				c-7.5,0-12.7-5.8-12.7-14.4c0-9,5.5-14.9,13.1-14.9C3181.4,346.9,3186.4,352.8,3186.4,361.3z M3164.4,361.7
				c0,6.1,3.3,11.5,9.1,11.5c5.8,0,9.1-5.3,9.1-11.8c0-5.7-2.9-11.6-9-11.6C3167.4,349.9,3164.4,355.5,3164.4,361.7z"/>
		</g>
		<g id="g476" transform="translate(-2626.8111,-120.62169)">
			<g id="XMLID_43_">
				<g id="g479">
					<path id="path481" inkscape:connector-curvature="0" class="st0" d="M3036.7,385.7C3036.7,385.7,3036.6,385.7,3036.7,385.7
						l-20.4-1.6c-0.3,0-0.5-0.3-0.5-0.6c0-0.3,0.3-0.5,0.6-0.5l20.4,1.6c0.3,0,0.5,0.3,0.5,0.6
						C3037.2,385.5,3036.9,385.7,3036.7,385.7L3036.7,385.7z"/>
				</g>
				<g id="g483">
					<path id="path485" inkscape:connector-curvature="0" class="st0" d="M3036.7,385.7c0,0-0.1,0-0.1,0c-0.2-0.1-0.3-0.2-0.4-0.4
						l-15.3-65.6c-0.1-0.3,0.1-0.5,0.3-0.6c0.2-0.1,0.5-0.1,0.7,0.1l35.6,43.7c0.2,0.2,0.2,0.5,0,0.7l-20.3,21.9
						C3037,385.7,3036.8,385.7,3036.7,385.7L3036.7,385.7z M3022.4,321.8l14.5,62.3l19.3-20.8L3022.4,321.8z"/>
				</g>
				<g id="g487">
					<path id="path489" inkscape:connector-curvature="0" class="st0" d="M3000.4,404.1c-0.1,0-0.3-0.1-0.4-0.2l-27.3-27.1
						c-0.2-0.2-0.2-0.6,0-0.8c0.2-0.2,0.6-0.2,0.8,0l27.3,27.1c0.2,0.2,0.2,0.6,0,0.8C3000.7,404,3000.5,404.1,3000.4,404.1
						L3000.4,404.1z"/>
				</g>
				<g id="g491">
					<path id="path493" inkscape:connector-curvature="0" class="st0" d="M2975,343.4c-0.2,0-0.4-0.1-0.5-0.3
						c-0.1-0.3,0-0.6,0.2-0.7l46.4-23.2c0.3-0.1,0.6,0,0.7,0.3c0.1,0.3,0,0.6-0.2,0.7l-46.4,23.2
						C2975.1,343.3,2975,343.4,2975,343.4L2975,343.4z"/>
				</g>
				<g id="g495">
					<path id="path497" inkscape:connector-curvature="0" class="st0" d="M2973.1,376.9C2973.1,376.9,2973.1,376.9,2973.1,376.9
						c-0.3,0-0.6-0.3-0.5-0.6l1.9-33.6c0-0.3,0.3-0.5,0.6-0.5c0.3,0,0.5,0.3,0.5,0.6l-1.9,33.6
						C2973.6,376.7,2973.4,376.9,2973.1,376.9z"/>
				</g>
				<g id="g499">
					<path id="path501" inkscape:connector-curvature="0" class="st0" d="M3000.4,404.1C3000.4,404.1,3000.3,404.1,3000.4,404.1
						c-0.3,0-0.4-0.2-0.5-0.3l-25.4-60.7c-0.1-0.3,0-0.6,0.3-0.7c0.3-0.1,0.6,0,0.7,0.3l25.1,59.9l15.4-19.2
						c0.2-0.2,0.5-0.3,0.8-0.1c0.2,0.2,0.3,0.5,0.1,0.8l-15.9,19.9C3000.7,404,3000.5,404.1,3000.4,404.1L3000.4,404.1z"/>
				</g>
				<g id="g503">
					<path id="path505" inkscape:connector-curvature="0" class="st0" d="M3016.3,384.2c-0.1,0-0.3-0.1-0.4-0.2l-41.4-40.8
						c-0.2-0.2-0.2-0.4-0.1-0.7c0.1-0.2,0.4-0.3,0.6-0.3l82.1,20.5c0.2,0.1,0.4,0.2,0.4,0.5c0,0.2-0.1,0.5-0.3,0.6l-40.7,20.3
						C3016.5,384.1,3016.4,384.2,3016.3,384.2z M2976.8,343.8l39.6,39.1l39-19.5L2976.8,343.8L2976.8,343.8z"/>
				</g>
				<g id="g507">
					<path id="path509" inkscape:connector-curvature="0" class="st0" d="M3016.3,384.2C3016.3,384.2,3016.3,384.2,3016.3,384.2
						l-43.3-7.2c-0.2,0-0.4-0.2-0.4-0.4c-0.1-0.2,0-0.4,0.1-0.6l48.3-56.8c0.2-0.2,0.4-0.2,0.6-0.1c0.2,0.1,0.4,0.3,0.3,0.6l-5.1,64
						c0,0.2-0.1,0.3-0.2,0.4C3016.6,384.1,3016.4,384.2,3016.3,384.2L3016.3,384.2z M2974.1,376l41.7,7l4.9-61.7L2974.1,376z"/>
				</g>
			</g>
		</g>
	</g>
</g>
<g id="layer3" transform="translate(3.7488425e-6,-3.5926188e-6)" inkscape:label="kypo-wires-white" inkscape:groupmode="layer">
	<g id="g3450">
		<g id="g1190" transform="translate(-2193.1055,-913.96659)">
			<g id="XMLID_56_">
				<g id="g1193">
					<path id="path1195" inkscape:connector-curvature="0" class="st0" d="M2299.3,1022.7
						C2299.2,1022.7,2299.2,1022.7,2299.3,1022.7l-20.4-1.6c-0.3,0-0.5-0.3-0.5-0.6c0-0.3,0.3-0.5,0.6-0.5l20.4,1.6
						c0.3,0,0.5,0.3,0.5,0.6C2299.8,1022.4,2299.5,1022.7,2299.3,1022.7z"/>
				</g>
				<g id="g1197">
					<path id="path1199" inkscape:connector-curvature="0" class="st0" d="M2299.3,1022.7c0,0-0.1,0-0.1,0c-0.2-0.1-0.3-0.2-0.4-0.4
						l-15.3-65.6c-0.1-0.3,0.1-0.5,0.3-0.6c0.2-0.1,0.5-0.1,0.7,0.1l35.6,43.7c0.2,0.2,0.2,0.5,0,0.7l-20.3,21.9
						C2299.5,1022.6,2299.4,1022.7,2299.3,1022.7L2299.3,1022.7z M2285,958.7l14.5,62.3l19.3-20.8L2285,958.7z"/>
				</g>
				<g id="g1201">
					<path id="path1203" inkscape:connector-curvature="0" class="st0" d="M2263,1041c-0.1,0-0.3-0.1-0.4-0.2l-27.3-27.1
						c-0.2-0.2-0.2-0.6,0-0.8c0.2-0.2,0.6-0.2,0.8,0l27.3,27.1c0.2,0.2,0.2,0.6,0,0.8C2263.2,1040.9,2263.1,1041,2263,1041
						L2263,1041z"/>
				</g>
				<g id="g1205">
					<path id="path1207" inkscape:connector-curvature="0" class="st0" d="M2237.5,980.3c-0.2,0-0.4-0.1-0.5-0.3
						c-0.1-0.3,0-0.6,0.2-0.7l46.4-23.2c0.3-0.1,0.6,0,0.7,0.3c0.1,0.3,0,0.6-0.2,0.7l-46.4,23.2
						C2237.7,980.3,2237.6,980.3,2237.5,980.3L2237.5,980.3z"/>
				</g>
				<g id="g1209">
					<path id="path1211" inkscape:connector-curvature="0" class="st0" d="M2235.7,1013.9
						C2235.6,1013.9,2235.6,1013.9,2235.7,1013.9c-0.3,0-0.6-0.3-0.5-0.6l1.9-33.6c0-0.3,0.3-0.5,0.6-0.5c0.3,0,0.5,0.3,0.5,0.6
						l-1.9,33.6C2236.2,1013.6,2235.9,1013.9,2235.7,1013.9L2235.7,1013.9z"/>
				</g>
				<g id="g1213">
					<path id="path1215" inkscape:connector-curvature="0" class="st0" d="M2263,1041C2262.9,1041,2262.9,1041,2263,1041
						c-0.3,0-0.4-0.2-0.5-0.3L2237,980c-0.1-0.3,0-0.6,0.3-0.7c0.3-0.1,0.6,0,0.7,0.3l25.1,59.9l15.4-19.2c0.2-0.2,0.5-0.3,0.8-0.1
						c0.2,0.2,0.3,0.5,0.1,0.8l-15.9,19.9C2263.3,1040.9,2263.1,1041,2263,1041L2263,1041z"/>
				</g>
				<g id="g1217">
					<path id="path1219" inkscape:connector-curvature="0" class="st0" d="M2278.9,1021.1c-0.1,0-0.3-0.1-0.4-0.2l-41.4-40.8
						c-0.2-0.2-0.2-0.4-0.1-0.7c0.1-0.2,0.4-0.3,0.6-0.3l82.1,20.5c0.2,0.1,0.4,0.2,0.4,0.5c0,0.2-0.1,0.5-0.3,0.6l-40.7,20.3
						C2279.1,1021.1,2279,1021.1,2278.9,1021.1L2278.9,1021.1z M2239.4,980.8l39.6,39.1l39-19.5L2239.4,980.8L2239.4,980.8z"/>
				</g>
				<g id="g1221">
					<path id="path1223" inkscape:connector-curvature="0" class="st0" d="M2278.9,1021.1
						C2278.9,1021.1,2278.8,1021.1,2278.9,1021.1l-43.3-7.2c-0.2,0-0.4-0.2-0.4-0.4c-0.1-0.2,0-0.4,0.1-0.6l48.3-56.8
						c0.2-0.2,0.4-0.2,0.6-0.1c0.2,0.1,0.4,0.3,0.3,0.6l-5.1,64c0,0.2-0.1,0.3-0.2,0.4C2279.1,1021,2279,1021.1,2278.9,1021.1
						L2278.9,1021.1z M2236.7,1012.9l41.7,7l4.9-61.7L2236.7,1012.9z"/>
				</g>
			</g>
		</g>
		<g id="g1225" transform="translate(-2193.1055,-913.96659)">
			<path id="path1227" inkscape:connector-curvature="0" class="st0" d="M2345.7,984.4h3.7V998h0.1c0.8-1.1,1.5-2.1,2.2-3l8.7-10.6
				h4.5l-10.2,12l11,16.3h-4.3l-9.3-13.9l-2.7,3.1v10.8h-3.7L2345.7,984.4L2345.7,984.4z"/>
			<path id="path1229" inkscape:connector-curvature="0" class="st0" d="M2379.4,1012.7v-12l-9-16.3h4.2l4,7.8
				c1.1,2.1,1.9,3.9,2.8,5.8h0.1c0.8-1.8,1.8-3.7,2.9-5.8l4.1-7.8h4.1l-9.4,16.3v12.1H2379.4L2379.4,1012.7z"/>
			<path id="path1231" inkscape:connector-curvature="0" class="st0" d="M2399.3,984.7c1.8-0.3,4.1-0.5,7-0.5c3.6,0,6.3,0.8,7.9,2.4
				c1.5,1.3,2.5,3.4,2.5,5.9c0,2.6-0.8,4.6-2.2,6c-2,2.1-5.1,3.1-8.7,3.1c-1.1,0-2.1,0-2.9-0.3v11.3h-3.7L2399.3,984.7L2399.3,984.7
				z M2402.9,998.3c0.8,0.2,1.8,0.3,3,0.3c4.4,0,7.1-2.2,7.1-6c0-3.8-2.7-5.6-6.7-5.6c-1.6,0-2.8,0.1-3.4,0.3V998.3L2402.9,998.3z"
				/>
			<path id="path1233" inkscape:connector-curvature="0" class="st0" d="M2449,998.2c0,9.7-5.9,14.9-13.1,14.9
				c-7.5,0-12.7-5.8-12.7-14.4c0-9,5.5-14.9,13.1-14.9C2444,983.8,2449,989.8,2449,998.2z M2427,998.6c0,6.1,3.3,11.5,9.1,11.5
				c5.8,0,9.1-5.3,9.1-11.8c0-5.7-2.9-11.6-9-11.6C2430,986.8,2427,992.5,2427,998.6L2427,998.6z"/>
		</g>
	</g>
</g>
</svg>
