<?xml version="1.0" encoding="utf-8"?>
<!-- Generator: Adobe Illustrator 18.1.1, SVG Export Plug-In . SVG Version: 6.00 Build 0)  -->
<svg version="1.1" id="Vrstva_1" xmlns="http://www.w3.org/2000/svg" xmlns:xlink="http://www.w3.org/1999/xlink" x="0px" y="0px"
	 viewBox="0 0 600 600" enable-background="new 0 0 600 600" xml:space="preserve">
<g>
	<g>
		<path fill="#F1A900" d="M426.1,214c0,14.6-11.8,26.3-26.3,26.3c-14.6,0-26.4-11.8-26.4-26.3c0-14.5,11.8-26.4,26.4-26.4
			C414.3,187.7,426.1,199.5,426.1,214"/>
		<path fill="#13110C" d="M193.7,311.6c-4.8,8.2-13.7,13.8-23.9,13.8c-15.2,0-27.6-12.3-27.6-27.5c0-15.2,12.3-27.6,27.6-27.6
			c10.2,0,19.1,5.5,23.9,13.8l19.7-11.4c-8.7-15-24.9-25.2-43.6-25.2c-27.8,0-50.3,22.5-50.3,50.3c0,27.8,22.5,50.3,50.3,50.3
			c18.6,0,34.9-10.1,43.6-25.2L193.7,311.6z"/>
		<path fill="#13110C" d="M478.8,271.5v-21.6h-55.1v21.6h12V305c0,23.8,19.3,43.1,43.1,43.1v-24c-10.6,0-19.2-8.6-19.2-19.2v-33.5
			H478.8z"/>
		<rect x="387.8" y="249.9" fill="#13110C" width="24" height="95.8"/>
		<path fill="#13110C" d="M315.4,305c0.3-2.4,0.5-4.7,0.5-7.2c0-27.8-22.5-50.3-50.3-50.3c-27.8,0-50.3,22.5-50.3,50.3
			c0,27.8,22.5,50.3,50.3,50.3c18.6,0,34.9-10.1,43.6-25.2l-19.7-11.4c-4.8,8.2-13.7,13.8-23.9,13.8c-12.7,0-23.4-8.6-26.6-20.4
			H315.4z M265.6,270.3c10.9,0,20.4,6.4,24.8,15.6h-49.6C245.3,276.7,254.7,270.3,265.6,270.3"/>
		<path fill="#13110C" d="M349.5,256.6v-6.6h-23.9v95.8h23.9v-51.5c0-11.9,9.7-21.6,21.6-21.6h7.2v-25.2
			C367.5,247.6,357.6,250.9,349.5,256.6"/>
	</g>
	<path fill="#FFFFFF" d="M383.2,202.8h5.5v2.1c1.7-1.7,3.6-2.3,6.6-2.4l-0.3,5.8c-5,0-6.3,1.8-6.3,5.4v11.4h-5.5V202.8z"/>
	<path fill="#FFFFFF" d="M413.5,211.4c-1.1-2.6-3-3.9-5.9-3.9c-2.7,0-5,1.7-6,3.9H413.5z M395.8,213.9c0-6.4,5.2-11.5,11.7-11.5
		c7.1,0,11.7,5.5,11.7,11.9c0,0.5,0,1-0.1,1.5h-17.8c0.9,2.9,3.2,4.6,6.6,4.6c2.8,0,4.5-0.9,5.9-2.8l4.6,2.5
		c-2.3,3.5-5.7,5.4-10.5,5.4C401,225.4,395.8,220.5,395.8,213.9"/>
	<path fill="#F1A900" d="M155.5,386.1h5.2c0.2,1.5,1.2,2.9,4,2.9c2.1,0,3.2-1,3.2-2.1c0-1.5-2.1-1.8-4-2c-2.4-0.3-7.9-0.9-7.9-6.1
		c0-3.8,3-6.4,8.2-6.4c5,0,8.1,2.5,8.4,6.5h-5c-0.1-1.2-0.5-2.6-3.3-2.6c-1.9,0-3,0.7-3,1.7c0,1.6,2.6,1.8,4.7,2.2
		c4,0.7,7.5,1.7,7.5,6.2c0,4.5-3.8,6.6-8.8,6.6C158.9,392.9,155.7,390.3,155.5,386.1"/>
	<path fill="#F1A900" d="M431.8,372.6h4.9v19.8h-4.9V372.6z M431.8,365.9h4.9v4.9h-4.9V365.9z"/>
	<path fill="#F1A900" d="M148.8,380.4c-1-2.3-2.7-3.5-5.2-3.5c-2.4,0-4.4,1.5-5.3,3.5H148.8z M133.1,382.6c0-5.7,4.6-10.2,10.4-10.2
		c6.3,0,10.4,4.9,10.4,10.5c0,0.4,0,0.9-0.1,1.3h-15.8c0.8,2.6,2.8,4.1,5.8,4.1c2.5,0,4-0.8,5.2-2.5l4.1,2.2c-2.1,3.1-5,4.8-9.3,4.8
		C137.7,392.9,133.1,388.5,133.1,382.6"/>
	<path fill="#F1A900" d="M326,380.4c-1-2.3-2.7-3.5-5.2-3.5c-2.4,0-4.4,1.5-5.3,3.5H326z M310.4,382.6c0-5.7,4.6-10.2,10.4-10.2
		c6.3,0,10.4,4.9,10.4,10.5c0,0.4,0,0.9-0.1,1.3h-15.8c0.8,2.6,2.8,4.1,5.8,4.1c2.5,0,4-0.8,5.2-2.5l4.1,2.2c-2.1,3.1-5,4.8-9.3,4.8
		C314.9,392.9,310.4,388.5,310.4,382.6"/>
	<path fill="#F1A900" d="M190.4,380.4c-1-2.3-2.7-3.5-5.2-3.5c-2.4,0-4.4,1.5-5.3,3.5H190.4z M174.7,382.6c0-5.7,4.6-10.2,10.4-10.2
		c6.3,0,10.4,4.9,10.4,10.5c0,0.4,0,0.9-0.1,1.3h-15.8c0.8,2.6,2.8,4.1,5.8,4.1c2.5,0,4-0.8,5.2-2.5l4.1,2.2c-2.1,3.1-5,4.8-9.3,4.8
		C179.3,392.9,174.7,388.5,174.7,382.6"/>
	<path fill="#F1A900" d="M461.1,372.6h4.8v1.6c1.3-1.1,3.2-1.8,5.4-1.8c5.9,0,8.1,3.8,8.1,9.6v10.4h-4.9v-9.2c0-4.2-0.6-6.4-4.3-6.4
		c-2.7,0-4.4,1.7-4.4,4.5v11h-4.8V372.6z"/>
	<path fill="#F1A900" d="M374.1,392.7h-4.9v-1.6c-1.3,1.1-3.2,1.8-5.4,1.8c-5.9,0-8.2-3.8-8.2-9.6v-10.4h4.9v9.2
		c0,4.2,0.6,6.4,4.3,6.4c2.7,0,4.3-1.7,4.3-4.5v-11h4.9V392.7z"/>
	<path fill="#F1A900" d="M252.4,366.4h4.8v7.8c1.3-1.1,3.2-1.8,5.4-1.8c5.9,0,8.1,3.8,8.1,9.6v10.4h-4.9v-9.2c0-4.2-0.6-6.4-4.3-6.4
		c-2.7,0-4.3,1.7-4.3,4.5v11h-4.8V366.4z"/>
	<path fill="#F1A900" d="M231.7,382.6c0-5.7,4.6-10.2,10.4-10.2c3.9,0,6.9,1.7,8.8,4.8l-4.1,2.3c-1.1-1.6-2.7-2.6-4.7-2.6
		c-3.1,0-5.7,2.6-5.7,5.7c0,3.1,2.6,5.7,5.7,5.7c2,0,3.6-0.9,4.7-2.5l4.1,2.2c-2,3.1-4.9,4.8-8.8,4.8
		C236.3,392.9,231.7,388.3,231.7,382.6"/>
	<path fill="#F1A900" d="M375.7,382.6c0-5.7,4.6-10.2,10.4-10.2c3.9,0,6.9,1.7,8.8,4.8l-4.1,2.3c-1.1-1.6-2.7-2.6-4.7-2.6
		c-3.1,0-5.7,2.6-5.7,5.7c0,3.1,2.6,5.7,5.7,5.7c2,0,3.6-0.9,4.7-2.5l4.1,2.2c-2,3.1-4.9,4.8-8.8,4.8
		C380.3,392.9,375.7,388.3,375.7,382.6"/>
	<path fill="#F1A900" d="M213.4,382.6c0-3.1-2.6-5.7-5.7-5.7c-3.1,0-5.7,2.6-5.7,5.7c0,3.1,2.6,5.7,5.7,5.7
		C210.8,388.3,213.4,385.7,213.4,382.6 M197.3,382.6c0-5.7,4.6-10.2,10.4-10.2c2,0,4,0.6,5.7,1.8v-1.6h4.8v19.8h-4.8v-1.3
		c-1.6,1.1-3.8,1.7-5.7,1.7C201.9,392.9,197.3,388.3,197.3,382.6"/>
	<path fill="#F1A900" d="M411.6,382.6c0-3.1-2.6-5.7-5.7-5.7c-3.1,0-5.7,2.6-5.7,5.7c0,3.1,2.6,5.7,5.7,5.7
		C409,388.3,411.6,385.7,411.6,382.6 M395.5,382.6c0-5.7,4.6-10.2,10.4-10.2c2,0,4,0.6,5.7,1.8v-1.6h4.9v19.8h-4.9v-1.3
		c-1.6,1.1-3.8,1.7-5.7,1.7C400.1,392.9,395.5,388.3,395.5,382.6"/>
	<path fill="#F1A900" d="M348.7,382.6c0-3.1-2.6-5.7-5.7-5.7c-3.1,0-5.7,2.6-5.7,5.7c0,3.1,2.6,5.7,5.7,5.7
		C346.1,388.3,348.7,385.7,348.7,382.6 M332.5,382.6c0-5.7,4.6-10.2,10.4-10.2c2,0,4,0.6,5.7,1.8v-7.8h4.9v26.1h-4.9v-1.3
		c-1.6,1.1-3.8,1.7-5.7,1.7C337.1,392.9,332.5,388.3,332.5,382.6"/>
	<path fill="#F1A900" d="M122.1,372.6h4.9v1.9c1.5-1.5,3.2-2.1,5.9-2.1l-0.3,5.2c-4.5,0-5.6,1.6-5.6,4.8v10.1h-4.9V372.6z"/>
	<path fill="#F1A900" d="M220.8,372.6h4.9v1.9c1.5-1.5,3.2-2.1,5.9-2.1l-0.3,5.2c-4.5,0-5.5,1.6-5.5,4.8v10.1h-4.9V372.6z"/>
	<path fill="#F1A900" d="M429.8,376.9v-4.5h-4l0.1-6.1H421v6.1h-2.6v4.5h2.5v7c0,5,4,9,9,9v-5c-2.2,0-4-1.8-4-4v-7H429.8z"/>
	<g>
		<g>
			<path fill="#F1A900" d="M448.9,372.4c2.7,0,5,0.9,7,2.8c2.1,2,3.1,4.4,3.1,7.4c0,2.8-1,5.1-2.9,7.1c-1,1-2.1,1.8-3.4,2.3
				c-1.3,0.6-2.6,0.8-4,0.8c-1.4,0-2.7-0.3-4-0.8c-1.3-0.5-2.4-1.3-3.4-2.3c-1.9-2-2.9-4.3-2.9-7.1c0-3,1.1-5.4,3.2-7.4
				C443.6,373.3,446.1,372.4,448.9,372.4z M448.7,376.6c-1.4,0-2.7,0.5-3.8,1.6c-1.2,1.2-1.8,2.6-1.8,4.4c0,1.6,0.5,3,1.6,4.1
				c1.1,1.2,2.5,1.8,4.1,1.8c1.6,0,3-0.6,4.1-1.8c1-1.2,1.6-2.6,1.6-4.1c0-1.8-0.6-3.2-1.8-4.4C451.5,377.2,450.2,376.6,448.7,376.6
				z"/>
		</g>
	</g>
	<g>
		<g>
			<path fill="#F1A900" d="M302.4,382.6c-1,1.4-1.9,2.5-2.7,3.5l6.2,6.2h-7.4l-2.2-2.4c-2.6,2.1-5.2,3.1-8.1,3.1
				c-2.1,0-4-0.5-5.6-1.5c-1-0.6-1.7-1.4-2.2-2.4c-0.5-1-0.8-2.1-0.8-3.2c0-2.4,1.1-4.4,3.2-6.2c0.3-0.3,1.2-0.9,2.7-2
				c-0.6-0.6-1.1-1.1-1.5-1.6c-1-1.2-1.5-2.5-1.5-3.9c0-2.1,1-3.8,3-5.1c1.2-0.7,2.5-1.1,4.1-1.1c2.2,0,4,0.7,5.4,2.2
				c1.2,1.3,1.8,2.7,1.8,4.3c0,1.3-0.4,2.4-1.1,3.3c-0.5,0.7-1.6,1.5-3,2.4l3.9,4.4c0.8-0.9,1.6-1.9,2.4-3.1L302.4,382.6z
				 M293.3,386.2l-4.7-5.4c-2.5,1.4-3.8,2.9-3.8,4.4c0,0.9,0.4,1.7,1.2,2.3c0.7,0.5,1.4,0.8,2.3,0.8
				C289.8,388.4,291.5,387.7,293.3,386.2z M289.4,375.3c0.6-0.4,1.1-0.7,1.5-1c0.7-0.6,1.1-1.2,1.1-2c0-0.7-0.3-1.2-0.8-1.6
				c-0.4-0.4-1-0.5-1.6-0.5c-0.8,0-1.3,0.2-1.8,0.7c-0.4,0.4-0.6,0.8-0.6,1.2c0,0.6,0.3,1.3,1,2L289.4,375.3z"/>
		</g>
	</g>
</g>
</svg>
