<?xml version="1.0" encoding="utf-8"?>
<!-- Generator: Adobe Illustrator 18.1.1, SVG Export Plug-In . SVG Version: 6.00 Build 0)  -->
<svg version="1.1" id="Vrstva_1" xmlns="http://www.w3.org/2000/svg" xmlns:xlink="http://www.w3.org/1999/xlink" x="0px" y="0px"
	 viewBox="0 0 600 600" enable-background="new 0 0 600 600" xml:space="preserve">
<g>
	<path fill="#E11217" d="M126.6,389c0,2,1.8,4.4,5.7,4.4c3.2,0,4.8-1.5,4.8-3.1c0-2.2-3-2.5-5.9-2.9c-3.5-0.5-11.4-1.3-11.4-8.8
		c0-5.5,4.3-9.4,11.8-9.4c7.4,0,11.8,3.7,12.3,9.4h-7.2c-0.2-1.7-0.7-3.7-4.8-3.7c-2.8,0-4.5,0.9-4.5,2.4c0,2.3,3.9,2.6,6.8,3.2
		c5.8,1,10.8,2.5,10.8,9c0,6.6-5.5,9.5-12.8,9.5c-8.2,0-12.9-3.7-13.1-9.9H126.6"/>
	<path fill="#E11217" d="M174,391.9c-2.9,4.5-7.2,7-12.8,7c-8.4,0-15.1-6.7-15.1-14.9c0-8.3,6.7-14.8,15.1-14.8
		c5.6,0,10,2.4,12.9,6.9l-6,3.3c-1.6-2.3-3.9-3.7-6.9-3.7c-4.6,0-8.3,3.8-8.3,8.3c0,4.5,3.8,8.3,8.3,8.3c2.9,0,5.2-1.3,6.9-3.7
		L174,391.9"/>
	<path fill="#E11217" d="M176.2,359.7h7.1v7.1h-7.1V359.7 M176.2,369.4h7.1v28.8h-7.1V369.4z"/>
	<path fill="#E11217" d="M215,391.9c-3,4.5-7.3,7-13.5,7c-9.1,0-15.7-6.4-15.7-14.9c0-8.3,6.7-14.8,15.1-14.8c9.8,0,16,8.2,15,17.2
		H193c1.2,3.7,4.1,5.9,8.5,5.9c3.6,0,5.7-1.1,7.6-3.7L215,391.9 M208.5,380.8c-1.4-3.3-3.9-5.1-7.6-5.1c-3.4,0-6.4,2.1-7.7,5.1
		H208.5z"/>
	<path fill="#E11217" d="M218.5,369.4h7v2.3c1.9-1.6,4.6-2.6,7.8-2.6c8.6,0,11.8,5.5,11.8,14v15.1h-7v-13.3c0-6.1-0.9-9.2-6.3-9.2
		c-3.9,0-6.3,2.5-6.3,6.6v15.9h-7V369.4"/>
	<path fill="#E11217" d="M250.4,376h-3.4v-6.5h3.4v-7.5h7.1v7.5h6.5v6.5h-6.5v10.4c0,3.8,0.8,5.1,7.3,5.1l0.5,6.9
		c-8.7,0.3-14.9-1.7-14.9-12V376"/>
	<path fill="#E11217" d="M267.6,359.7h7.1v7.1h-7.1V359.7 M267.6,369.4h7.1v28.8h-7.1V369.4z"/>
	<path fill="#E11217" d="M280.4,379.1h-2.9v-6.5h2.9v-1.2c0-10,6-12.3,15.2-12l-0.5,6.9c-6.6,0-7.5,1.2-7.5,5.1v1.2h6.5v6.5h-6.5
		v19.1h-7.1V379.1"/>
	<path fill="#E11217" d="M297.6,359.7h7.1v7.1h-7.1V359.7 M297.6,369.4h7.1v28.8h-7.1V369.4z"/>
	<path fill="#E11217" d="M335.1,391.9c-2.9,4.5-7.2,7-12.8,7c-8.4,0-15.1-6.7-15.1-14.9c0-8.3,6.7-14.8,15.1-14.8
		c5.6,0,10,2.4,12.8,6.9l-6,3.3c-1.6-2.3-3.9-3.7-6.9-3.7c-4.6,0-8.3,3.8-8.3,8.3c0,4.5,3.8,8.3,8.3,8.3c2.9,0,5.2-1.3,6.9-3.7
		L335.1,391.9"/>
	<path fill="#E11217" d="M375.3,391.9c-2.9,4.5-7.2,7-12.8,7c-8.4,0-15.1-6.7-15.1-14.9c0-8.3,6.7-14.8,15.1-14.8
		c5.6,0,10,2.4,12.9,6.9l-6,3.3c-1.6-2.3-3.9-3.7-6.9-3.7c-4.6,0-8.3,3.8-8.3,8.3c0,4.5,3.8,8.3,8.3,8.3c2.9,0,5.3-1.3,6.9-3.7
		L375.3,391.9"/>
	<rect x="377.5" y="359.7" fill="#E11217" width="7.1" height="38.5"/>
	<path fill="#E11217" d="M402.2,369.2c8.4,0,15.1,6.5,15.1,14.8c0,8.2-6.7,14.9-15.1,14.9c-8.4,0-15.1-6.7-15.1-14.9
		C387.1,375.7,393.8,369.2,402.2,369.2 M402.2,392.3c4.6,0,8.3-3.8,8.3-8.3c0-4.5-3.8-8.3-8.3-8.3c-4.6,0-8.3,3.8-8.3,8.3
		C393.9,388.4,397.6,392.3,402.2,392.3"/>
	<path fill="#E11217" d="M419.5,369.4h7v13.3c0,6.1,0.9,9.2,6.3,9.2c3.9,0,6.3-2.5,6.3-6.6v-15.9h7.1v28.8h-7.1v-2.3
		c-1.9,1.6-4.6,2.6-7.8,2.6c-8.6,0-11.8-5.5-11.8-14V369.4"/>
	<path fill="#E11217" d="M472,396.3c-2.3,1.6-5.5,2.5-8.3,2.5c-8.4,0-15.1-6.7-15.1-14.9c0-8.3,6.7-14.8,15.1-14.8
		c2.9,0,5.9,0.8,8.3,2.6v-12.1h7v38.5h-7V396.3 M463.7,392.3c4.6,0,8.3-3.8,8.3-8.3c0-4.5-3.8-8.3-8.3-8.3c-4.6,0-8.3,3.8-8.3,8.3
		C455.3,388.4,459.1,392.3,463.7,392.3"/>
	<path fill="#1D1719" d="M193.4,311.2c-4.8,8.3-13.7,13.8-23.9,13.8c-15.2,0-27.6-12.4-27.6-27.6c0-15.2,12.4-27.6,27.6-27.6
		c10.2,0,19.1,5.6,23.9,13.8l19.7-11.4c-8.7-15.1-25-25.2-43.7-25.2c-27.8,0-50.4,22.6-50.4,50.4c0,27.8,22.6,50.4,50.4,50.4
		c18.7,0,34.9-10.1,43.7-25.2L193.4,311.2"/>
	<path fill="#1D1719" d="M479.1,271v-21.6h-55.2V271h12v33.6c0,23.9,19.3,43.2,43.2,43.2v-24c-10.6,0-19.2-8.6-19.2-19.2V271H479.1"
		/>
	<rect x="387.9" y="249.4" fill="#1D1719" width="24" height="96"/>
	<path fill="#1D1719" d="M315.3,304.6c0.3-2.3,0.5-4.7,0.5-7.2c0-27.8-22.6-50.4-50.4-50.4c-27.8,0-50.4,22.6-50.4,50.4
		c0,27.8,22.6,50.4,50.4,50.4c18.7,0,34.9-10.2,43.6-25.2l-19.7-11.4c-4.8,8.3-13.7,13.8-23.9,13.8c-12.8,0-23.5-8.7-26.6-20.4
		H315.3 M265.5,269.8c11,0,20.4,6.4,24.9,15.6h-49.7C245.1,276.2,254.5,269.8,265.5,269.8"/>
	<path fill="#1D1719" d="M349.5,256.1v-6.6h-24v96h24v-51.6c0-11.9,9.7-21.6,21.6-21.6h7.2V247C367.6,247,357.6,250.4,349.5,256.1"
		/>
	<path fill="#E11217" d="M426.3,213.5c0,14.6-11.8,26.4-26.4,26.4c-14.6,0-26.4-11.8-26.4-26.4c0-14.6,11.8-26.4,26.4-26.4
		C414.5,187,426.3,198.9,426.3,213.5"/>
	<path fill="#FFFFFF" d="M384.7,217.2c0,1.5,1.3,3.3,4.3,3.3c2.4,0,3.6-1.2,3.6-2.3c0-1.7-2.3-1.9-4.4-2.2c-2.6-0.4-8.6-1-8.6-6.7
		c0-4.2,3.3-7,8.9-7c5.6,0,8.9,2.8,9.2,7.1h-5.4c-0.1-1.3-0.5-2.8-3.6-2.8c-2.1,0-3.4,0.7-3.4,1.8c0,1.7,2.9,2,5.1,2.4
		c4.4,0.7,8.1,1.9,8.1,6.7c0,5-4.1,7.2-9.6,7.2c-6.2,0-9.7-2.8-9.9-7.4H384.7"/>
	<path fill="#FFFFFF" d="M416.3,216.5c-1.1,1.8-3,3.1-5.3,3.1c-3.4,0-6.1-2.7-6.1-6.1c0-3.4,2.7-6.1,6.1-6.1c2.3,0,4.2,1.2,5.3,3.1
		l4.4-2.5c-1.9-3.3-5.5-5.6-9.7-5.6c-6.2,0-11.2,5-11.2,11.2c0,6.2,5,11.2,11.2,11.2c4.1,0,7.7-2.2,9.7-5.6L416.3,216.5"/>
</g>
</svg>
