<?xml version="1.0" encoding="utf-8"?>
<!-- Generator: Adobe Illustrator 18.1.1, SVG Export Plug-In . SVG Version: 6.00 Build 0)  -->
<svg version="1.1" id="Vrstva_1" xmlns="http://www.w3.org/2000/svg" xmlns:xlink="http://www.w3.org/1999/xlink" x="0px" y="0px"
	 viewBox="0 0 600 600" enable-background="new 0 0 600 600" xml:space="preserve">
<g>
	<g>
		<path fill="#13110C" d="M193.7,310.9c-4.7,8.2-13.6,13.7-23.7,13.7c-15.1,0-27.4-12.2-27.4-27.3c0-15.1,12.2-27.4,27.4-27.4
			c10.1,0,19,5.5,23.7,13.7l19.6-11.3c-8.6-14.9-24.8-25-43.3-25c-27.6,0-50,22.4-50,50c0,27.6,22.4,49.9,50,49.9
			c18.5,0,34.6-10.1,43.3-25L193.7,310.9z"/>
		<path fill="#13110C" d="M476.9,271v-21.4h-54.7V271h11.9v33.3c0,23.6,19.2,42.8,42.8,42.8v-23.8c-10.5,0-19-8.5-19-19V271H476.9z"
			/>
	</g>
	<rect x="386.5" y="249.6" fill="#13110C" width="23.8" height="95.1"/>
	<g>
		<path fill="#13110C" d="M314.6,304.3c0.3-2.3,0.5-4.7,0.5-7.1c0-27.6-22.4-50-49.9-50c-27.6,0-50,22.4-50,50
			c0,27.6,22.4,49.9,50,49.9c18.5,0,34.6-10,43.2-25l-19.6-11.3c-4.7,8.2-13.6,13.7-23.7,13.7c-12.6,0-23.3-8.6-26.4-20.2H314.6z
			 M265.2,269.8c10.8,0,20.2,6.3,24.6,15.5h-49.3C245,276.1,254.4,269.8,265.2,269.8"/>
		<path fill="#13110C" d="M348.5,256.2v-6.6h-23.8v95.1h23.8v-51.1c0-11.8,9.6-21.4,21.4-21.4h7.1v-25
			C366.4,247.2,356.5,250.6,348.5,256.2"/>
		<path fill="#32B4E8" d="M424.6,213.9c0,14.5-11.7,26.2-26.2,26.2c-14.5,0-26.2-11.7-26.2-26.2c0-14.4,11.7-26.2,26.2-26.2
			C412.9,187.8,424.6,199.5,424.6,213.9"/>
		<path fill="#32B4E8" d="M119.2,391.5h8.7c0.3,2.5,2,4.9,6.6,4.9c3.5,0,5.4-1.6,5.4-3.5c0-2.5-3.5-3-6.7-3.4
			c-4-0.5-13.2-1.5-13.2-10.2c0-6.4,4.9-10.8,13.7-10.8c8.5,0,13.6,4.2,14.1,10.9h-8.3c-0.2-2-0.8-4.4-5.6-4.4
			c-3.1,0-5.1,1.2-5.1,2.9c0,2.7,4.4,3.1,7.8,3.6c6.7,1.1,12.5,2.9,12.5,10.3c0,7.6-6.3,11-14.8,11
			C124.9,402.9,119.5,398.6,119.2,391.5"/>
		<path fill="#32B4E8" d="M150.7,385.7c0-9.6,7.7-17.1,17.4-17.1c6.5,0,11.5,2.8,14.8,8l-6.9,3.8c-1.9-2.7-4.6-4.3-7.9-4.3
			c-5.3,0-9.6,4.4-9.6,9.6s4.4,9.6,9.6,9.6c3.4,0,6.1-1.5,7.9-4.2l6.8,3.8c-3.3,5.2-8.3,8.1-14.8,8.1
			C158.5,402.9,150.7,395.1,150.7,385.7"/>
	</g>
	<path fill="#32B4E8" d="M185.6,368.9h8.2v33.3h-8.2V368.9z M185.6,357.6h8.2v8.2h-8.2V357.6z"/>
	<g>
		<path fill="#32B4E8" d="M223.1,382c-1.6-3.8-4.5-5.9-8.8-5.9c-4,0-7.4,2.5-8.9,5.9H223.1z M196.8,385.7c0-9.6,7.7-17.1,17.4-17.1
			c10.5,0,17.4,8.1,17.4,17.6c0,0.7-0.1,1.5-0.1,2.2h-26.4c1.4,4.3,4.8,6.8,9.8,6.8c4.2,0,6.6-1.3,8.8-4.2l6.8,3.8
			c-3.4,5.2-8.5,8.1-15.6,8.1C204.4,402.9,196.8,395.5,196.8,385.7"/>
		<path fill="#32B4E8" d="M234.8,368.9h8.1v2.7c2.2-1.9,5.3-3,9-3c10,0,13.7,6.3,13.7,16.1v17.4h-8.1v-15.4c0-7-1-10.7-7.2-10.7
			c-4.6,0-7.3,2.9-7.3,7.6v18.4h-8.1V368.9z"/>
		<path fill="#32B4E8" d="M268.5,385.7c0-9.6,7.7-17.1,17.4-17.1c6.5,0,11.5,2.8,14.8,8l-6.9,3.8c-1.9-2.7-4.6-4.3-7.9-4.3
			c-5.3,0-9.6,4.4-9.6,9.6s4.4,9.6,9.6,9.6c3.4,0,6.1-1.5,7.9-4.2l6.8,3.8c-3.3,5.2-8.3,8.1-14.8,8.1
			C276.2,402.9,268.5,395.1,268.5,385.7"/>
		<path fill="#32B4E8" d="M327.4,382c-1.6-3.8-4.5-5.9-8.8-5.9c-4,0-7.4,2.5-8.9,5.9H327.4z M301.2,385.7c0-9.6,7.7-17.1,17.4-17.1
			c10.5,0,17.4,8.1,17.4,17.6c0,0.7-0.1,1.5-0.1,2.2h-26.4c1.4,4.3,4.8,6.8,9.8,6.8c4.2,0,6.6-1.3,8.8-4.2l6.8,3.8
			c-3.5,5.2-8.5,8.1-15.6,8.1C308.8,402.9,301.2,395.5,301.2,385.7"/>
		<path fill="#32B4E8" d="M379.6,385.7c0-5.1-4.4-9.6-9.6-9.6s-9.6,4.4-9.6,9.6c0,5.1,4.4,9.6,9.6,9.6S379.6,390.8,379.6,385.7
			 M352.2,368.9h8.1v2.7c2.9-2,6.2-3,9.6-3c9.7,0,17.4,7.6,17.4,17.1c0,9.4-7.7,17.2-17.4,17.2c-3.3,0-7-1.1-9.6-2.9v13.5h-8.1
			V368.9z"/>
		<path fill="#32B4E8" d="M416.3,385.7c0-5.1-4.4-9.6-9.6-9.6c-5.3,0-9.6,4.4-9.6,9.6s4.4,9.6,9.6,9.6
			C412,395.2,416.3,390.8,416.3,385.7 M389.3,385.7c0-9.6,7.7-17.1,17.4-17.1c3.4,0,6.8,1,9.6,3v-2.7h8.1v33.3h-8.1v-2.2
			c-2.7,1.8-6.3,2.9-9.6,2.9C397,402.9,389.3,395.1,389.3,385.7"/>
		<path fill="#32B4E8" d="M428.6,368.9h8.2v3.2c2.5-2.5,5.4-3.4,9.8-3.5l-0.5,8.7c-7.5,0-9.3,2.7-9.3,8v16.9h-8.2V368.9z"/>
	</g>
	<polygon fill="#32B4E8" points="449.5,357.6 457.7,357.6 457.7,379.2 468.2,368.9 478,368.9 465.6,381.6 479.2,402.1 469.5,402.1 
		459.6,387.7 457.7,389.7 457.7,402.1 449.5,402.1 	"/>
	<g>
		<path fill="#FFFFFF" d="M376.7,217.6h5.6c0.2,1.6,1.3,3.2,4.3,3.2c2.2,0,3.5-1.1,3.5-2.2c0-1.6-2.2-1.9-4.3-2.2
			c-2.6-0.3-8.5-1-8.5-6.6c0-4.1,3.2-7,8.9-7c5.5,0,8.8,2.7,9.1,7h-5.4c-0.1-1.3-0.5-2.9-3.6-2.9c-2,0-3.3,0.8-3.3,1.8
			c0,1.7,2.9,2,5,2.4c4.3,0.7,8.1,1.9,8.1,6.7c0,4.9-4.1,7.1-9.5,7.1C380.3,224.9,376.9,222.2,376.7,217.6"/>
		<path fill="#FFFFFF" d="M415.5,213.8c0-3.3-2.8-6.2-6.2-6.2c-3.4,0-6.2,2.9-6.2,6.2c0,3.3,2.8,6.2,6.2,6.2
			C412.7,220,415.5,217.2,415.5,213.8 M397.8,203h5.3v1.7c1.9-1.3,4-1.9,6.2-1.9c6.3,0,11.3,4.9,11.3,11.1c0,6.1-5,11.1-11.3,11.1
			c-2.1,0-4.5-0.7-6.2-1.9v8.7h-5.3V203z"/>
	</g>
</g>
</svg>
