<?xml version="1.0" encoding="utf-8"?>
<!-- Generator: Adobe Illustrator 19.1.0, SVG Export Plug-In . SVG Version: 6.00 Build 0)  -->
<svg version="1.1" id="Vrstva_1" xmlns="http://www.w3.org/2000/svg" xmlns:xlink="http://www.w3.org/1999/xlink" x="0px" y="0px"
	 viewBox="0 0 152 50" style="enable-background:new 0 0 152 50;" xml:space="preserve">
<style type="text/css">
	.st0{fill:#FFFFFF;}
</style>
<g>
	<path class="st0" d="M1.1,1.4h8.6V3H3.1v5.4h6.4v1.6H3.1l0,7.3H1L1.1,1.4z"/>
	<path class="st0" d="M11.5,7.4c2.4-1.6,3.2-1.9,4.6-1.9c1.2,0,2.1,0.5,2.6,1.4C18.9,7.5,19,8,19,9.1v1l-0.1,4.3v0.3
		c0,1.2,0.2,1.7,0.7,1.7c0.3,0,0.5-0.1,1-0.4l0.5,1c-1.1,0.6-1.4,0.8-2,0.8c-1.1,0-1.6-0.6-1.8-1.8c-1.1,1.3-2.2,1.9-3.6,1.9
		c-1.8,0-3.2-1.4-3.2-3.3c0-2.4,2.3-3.9,6.7-4.2V9.5c0-0.9-0.1-1.4-0.3-1.8C16.7,7.3,16.2,7,15.6,7c-0.9,0-1.8,0.4-3.4,1.5L11.5,7.4
		z M17.2,11.3c-1.7,0.3-2.5,0.5-3.1,0.7c-1.1,0.5-1.7,1.2-1.7,2.3c0,1.1,0.8,1.9,1.9,1.9c1,0,1.6-0.4,2.9-1.6V11.3z"/>
	<path class="st0" d="M30.3,18l-5.9-6.5l0,5.9h-1.8L22.6,0h1.9l-0.1,11.4l6-6.1l1.2,1.2l-4.8,4.8l5,5.5L30.3,18z"/>
	<path class="st0" d="M40.6,17.4l0-1.8c-1.6,1.6-2.6,2.1-4,2.1c-1.5,0-2.7-0.8-3.1-2.1c-0.1-0.4-0.2-1.2-0.2-2.2l0-7.6h1.9l0,7.8
		c0,0.8,0.1,1.3,0.3,1.7c0.3,0.5,0.9,0.8,1.5,0.8c1.1,0,1.9-0.5,3.5-2.1l0-8.2h1.8l0,11.5H40.6z"/>
	<path class="st0" d="M45.7,0h1.9l-0.1,17.4h-1.9L45.7,0z"/>
	<path class="st0" d="M49.2,5.9h2.1V1.5h1.9v4.4h3.1v1.3h-3.1l0,6.8c0,1.5,0.3,2.1,1.1,2.1c0.4,0,0.9-0.2,1.8-0.7l0.6,1.2
		c-1.2,0.7-1.9,1-2.9,1c-1.8,0-2.7-1.3-2.6-3.5V14l0-6.8h-2V5.9z"/>
	<path class="st0" d="M58.5,7.4c2.4-1.6,3.2-1.9,4.6-1.9c1.2,0,2.1,0.5,2.6,1.4C66,7.5,66.1,8,66.1,9.1v1L66,14.4v0.3
		c0,1.2,0.2,1.7,0.7,1.7c0.3,0,0.5-0.1,1-0.4l0.5,1c-1.1,0.6-1.4,0.8-2,0.8c-1.1,0-1.6-0.6-1.8-1.8c-1.1,1.3-2.2,1.9-3.6,1.9
		c-1.8,0-3.2-1.4-3.2-3.3c0-2.4,2.3-3.9,6.7-4.2V9.5c0-0.9-0.1-1.4-0.3-1.8C63.8,7.3,63.3,7,62.7,7c-0.9,0-1.8,0.4-3.4,1.5L58.5,7.4
		z M64.3,11.3c-1.7,0.3-2.5,0.5-3.1,0.7c-1.1,0.5-1.7,1.2-1.7,2.3c0,1.1,0.8,1.9,1.9,1.9c1,0,1.6-0.4,2.9-1.6V11.3z"/>
	<path class="st0" d="M0.7,41.4c1.4,0.7,1.8,0.8,2.6,0.8c1.2,0,2.2-0.8,2.2-1.8c0-0.9-0.6-1.5-2-2l-0.4-0.1c-2-0.7-3-1.8-3-3.4
		c0-2,1.6-3.4,3.8-3.4c1.2,0,2,0.2,3.3,1l-0.8,1.2c-0.9-0.5-1.6-0.7-2.4-0.7c-1.2,0-2.1,0.8-2.1,1.8c0,0.8,0.5,1.4,1.6,1.8l1,0.4
		c1.9,0.7,2.7,1.7,2.7,3.2c0,2-1.6,3.4-3.9,3.4c-1.2,0-2.3-0.3-3.5-1L0.7,41.4z"/>
	<path class="st0" d="M19.8,37.4c0,1.8-0.6,3.4-1.6,4.6c-1,1.1-2.3,1.7-4.1,1.7c-3.2,0-5.4-2.4-5.4-6.1c0-3.6,2.3-6.1,5.6-6.1
		C17.6,31.5,19.8,33.9,19.8,37.4z M10.8,37.6c0,2.8,1.4,4.6,3.5,4.6c2.1,0,3.6-1.9,3.6-4.8c0-2.7-1.4-4.5-3.5-4.5
		C12.3,32.9,10.8,34.9,10.8,37.6z"/>
	<path class="st0" d="M30.5,41.8c-1.5,1.5-2.4,2-4,2c-2.8,0-5-2.6-5-6c0-3.5,2.3-6.2,5.3-6.2c1.4,0,2.3,0.4,3.7,1.9l-1.1,1
		c-0.9-1-1.6-1.4-2.5-1.4c-1.9,0-3.4,2-3.4,4.7c0,2.7,1.4,4.6,3.3,4.6c1,0,1.7-0.4,2.7-1.5L30.5,41.8z"/>
	<path class="st0" d="M32.4,31.9h2l0,11.5h-2L32.4,31.9z M32.4,27.2h2v2.1h-2V27.2z"/>
	<path class="st0" d="M37.7,33.4c2.4-1.6,3.2-1.9,4.6-1.9c1.2,0,2.1,0.5,2.6,1.4c0.3,0.6,0.4,1.1,0.4,2.3v1l-0.1,4.3v0.3
		c0,1.2,0.2,1.7,0.7,1.7c0.3,0,0.5-0.1,1-0.4l0.5,1c-1.1,0.6-1.4,0.8-2,0.8c-1.1,0-1.6-0.6-1.8-1.8c-1.1,1.3-2.2,1.9-3.6,1.9
		c-1.8,0-3.2-1.4-3.2-3.3c0-2.4,2.3-3.9,6.7-4.2v-0.7c0-0.9-0.1-1.4-0.3-1.8C43,33.3,42.4,33,41.9,33c-0.9,0-1.8,0.4-3.4,1.5
		L37.7,33.4z M43.5,37.3c-1.7,0.3-2.5,0.5-3.1,0.7c-1.1,0.5-1.7,1.2-1.7,2.3c0,1.1,0.8,1.9,1.9,1.9c1,0,1.6-0.4,2.9-1.6V37.3z
		 M42.7,26.6h2.6l-3.1,3.3h-1.5L42.7,26.6z"/>
	<path class="st0" d="M48.9,26h1.9l-0.1,17.4h-1.9L48.9,26z"/>
	<path class="st0" d="M53.9,31.9h1.8l-0.1,1.8c1.5-1.5,2.7-2.1,4.2-2.1c1.6,0,2.7,0.9,3.1,2.4c0,0,0.1,0.6,0.1,1.8l0,7.7h-1.9l0-7
		V36c0-1.1-0.1-1.5-0.3-1.9c-0.3-0.6-1-0.9-1.7-0.9c-1.1,0-2,0.5-3.5,2l0,8.2h-1.8L53.9,31.9z"/>
	<path class="st0" d="M66.3,31.9h2l0,11.5h-2L66.3,31.9z M68.1,26.6h2.6l-2.8,3.3h-1.3L68.1,26.6z"/>
	<path class="st0" d="M79.6,41.8c-1.5,1.5-2.4,2-4,2c-2.8,0-5-2.6-5-6c0-3.5,2.3-6.2,5.3-6.2c1.4,0,2.3,0.4,3.7,1.9l-1.1,1
		c-0.9-1-1.6-1.4-2.5-1.4c-1.9,0-3.4,2-3.4,4.7c0,2.7,1.4,4.6,3.3,4.6c1,0,1.7-0.4,2.7-1.5L79.6,41.8z"/>
	<path class="st0" d="M81.5,26h1.9l0,7.7c1.2-1.5,2.5-2.2,4.1-2.2c1.7,0,2.9,1,3.2,2.7c0,0.3,0.1,1.1,0.1,2l0,7.2h-1.9l0-7.3v-0.3
		c0-0.8-0.1-1.4-0.3-1.8c-0.3-0.5-1-0.9-1.6-0.9c-1.1,0-2,0.6-3.5,2.1l0,8.2h-1.9L81.5,26z"/>
	<path class="st0" d="M100.6,41.4c1.4,0.7,1.8,0.8,2.6,0.8c1.2,0,2.2-0.8,2.2-1.8c0-0.9-0.6-1.5-2-2l-0.4-0.1c-2-0.7-3-1.8-3-3.4
		c0-2,1.6-3.4,3.8-3.4c1.2,0,2,0.2,3.3,1l-0.8,1.2c-0.9-0.5-1.6-0.7-2.4-0.7c-1.2,0-2.1,0.8-2.1,1.8c0,0.8,0.5,1.4,1.6,1.8l1,0.4
		c1.9,0.7,2.7,1.7,2.7,3.2c0,2-1.6,3.4-3.9,3.4c-1.2,0-2.3-0.3-3.5-1L100.6,41.4z"/>
	<path class="st0" d="M108.4,31.9h2.1v-4.4h1.9v4.4h3.1v1.3h-3.1l0,6.8c0,1.5,0.3,2.1,1.1,2.1c0.4,0,0.9-0.2,1.8-0.7l0.6,1.2
		c-1.2,0.7-1.9,1-2.9,1c-1.8,0-2.7-1.3-2.6-3.5V40l0-6.8h-2V31.9z"/>
	<path class="st0" d="M124.5,43.4l0-1.8c-1.6,1.6-2.6,2.1-4,2.1c-1.5,0-2.7-0.8-3.1-2.1c-0.1-0.4-0.2-1.2-0.2-2.2l0-7.6h1.9l0,7.8
		c0,0.8,0.1,1.3,0.3,1.7c0.3,0.5,0.9,0.8,1.5,0.8c1.1,0,1.9-0.5,3.5-2.1l0-8.2h1.8l0,11.5H124.5z"/>
	<path class="st0" d="M137,43.4l0.1-1.7c-0.4,0.7-0.7,1-1.1,1.3c-0.7,0.5-1.5,0.7-2.4,0.7c-2.8,0-4.8-2.5-4.8-5.9
		c0-3.5,2.3-6.3,5.2-6.3c1.3,0,2.3,0.5,3.1,1.6l0-7.1h1.9l-0.1,17.4H137z M137.1,35c-0.8-1.4-1.6-1.9-2.8-1.9c-2,0-3.5,2-3.5,4.7
		c0,2.6,1.3,4.5,3.2,4.5c1.2,0,2.1-0.7,3.1-2.3V35z"/>
	<path class="st0" d="M142.2,31.9h2l0,11.5h-2L142.2,31.9z M142.2,27.2h2v2.1h-2V27.2z"/>
	<path class="st0" d="M147.4,31.9h2l0,11.5h-2L147.4,31.9z M149.2,26.6h2.6l-2.8,3.3h-1.3L149.2,26.6z"/>
</g>
</svg>
