<?xml version="1.0" encoding="utf-8"?>
<!-- Generator: Adobe Illustrator 18.1.1, SVG Export Plug-In . SVG Version: 6.00 Build 0)  -->
<!DOCTYPE svg PUBLIC "-//W3C//DTD SVG 1.1//EN" "http://www.w3.org/Graphics/SVG/1.1/DTD/svg11.dtd">
<svg version="1.1" id="Vrstva_1" xmlns="http://www.w3.org/2000/svg" xmlns:xlink="http://www.w3.org/1999/xlink" x="0px" y="0px"
	 viewBox="0 0 1133.9 850.4" enable-background="new 0 0 1133.9 850.4" xml:space="preserve">
<g>
	<g>
		<path fill="#010101" d="M242.5,460c-14.6,25.3-42.1,42.1-73,42.1c-46.6,0-84.8-37.6-84.8-84.8c0-46.6,37.6-84.8,84.8-84.8
			c31.4,0,58.4,16.8,73,42.1l60.1-33.7c-26.9-46-76.3-76.9-133.6-76.9c-84.8-0.6-154.4,68.5-154.4,153.8s69,154.4,154.4,154.4
			c57.3,0,106.7-30.9,133.6-76.9L242.5,460z"/>
		<path fill="#010101" d="M1117,337.1v-66.2h-169v66.2h36.5v102.7c0,73,58.9,132.5,132.5,132.5v-73.5c-32.6,0-58.9-26.4-58.9-58.9
			V337.1H1117z"/>
	</g>
	<rect x="838" y="270.8" fill="#010101" width="73.5" height="294.1"/>
	<g>
		<path fill="#010101" d="M615.8,439.8c1.1-7.3,1.7-14.6,1.7-21.9c0-85.3-69-154.4-154.4-154.4s-154.4,69-154.4,154.4
			s69,154.4,154.4,154.4c57.3,0,106.7-30.9,133.6-76.9l-60.6-34.8c-14.6,25.3-42.1,42.1-73,42.1c-39.3,0-71.8-26.4-81.4-62.3h234.1
			V439.8z M463.1,333.7c33.7,0,62.3,19.6,76.3,47.7H386.7C400.8,352.8,429.4,333.7,463.1,333.7"/>
		<path fill="#010101" d="M720.2,291.6v-20.2h-73.5v294.1h73.5V406.7c0-36.5,29.7-66.2,66.2-66.2h21.9v-76.9
			C775.7,263.5,745.4,274.2,720.2,291.6"/>
		<path fill="#19B5EA" d="M955.4,160.8c0,44.9-35.9,80.8-80.8,80.8s-80.8-35.9-80.8-80.8S830.2,80,874.5,80
			C919.4,80,955.4,115.9,955.4,160.8"/>
		<path fill="#19B5EA" d="M12.3,709.2h26.9c0.6,7.9,6.2,15.2,20.8,15.2c10.7,0,16.8-5.1,16.8-10.7c0-7.9-10.7-9-20.8-10.7
			c-12.3-1.7-41-4.5-41-31.4c0-19.6,15.2-33.1,42.7-33.1c26.4,0,42.1,12.9,43.8,33.7H75.8c-0.6-6.2-2.8-13.5-17.4-13.5
			c-9.5,0-15.7,3.4-15.7,9c0,8.4,13.5,9.5,24.1,11.2c20.8,3.4,38.7,9,38.7,32c0,23.6-19.6,34.2-45.5,34.2
			C29.7,744.6,12.9,731.1,12.3,709.2"/>
		<path fill="#19B5EA" d="M109.5,691.3c0-29.7,24.1-52.8,53.9-52.8c20.2,0,35.4,8.4,46,24.7L188,675c-5.6-8.4-14-13.5-24.7-13.5
			c-16.3,0-29.7,13.5-29.7,29.7c0,15.7,13.5,29.7,29.7,29.7c10.7,0,18.5-4.5,24.7-12.9l21.3,11.8c-10.1,16.3-25.8,24.7-45.5,24.7
			C133.6,744.6,109.5,720.4,109.5,691.3"/>
	</g>
	<path fill="#19B5EA" d="M217.2,639.6h25.3v102.7h-25.3V639.6z M217.2,604.8h25.3v25.3h-25.3V604.8z"/>
	<g>
		<path fill="#19B5EA" d="M332.9,680c-5.1-11.8-14-18-26.9-18c-12.3,0-23,7.9-27.5,18H332.9z M252,691.3c0-29.7,24.1-52.8,53.9-52.8
			c32.6,0,53.9,25.3,53.9,54.4c0,2.2,0,4.5-0.6,6.7h-82c4.5,13.5,14.6,21.3,30.3,21.3c12.9,0,20.8-3.9,26.9-12.9l21.3,11.8
			c-10.7,16.3-26.4,24.7-48.3,24.7C275.6,744.6,252,721.6,252,691.3"/>
		<path fill="#19B5EA" d="M369.3,639.6h25.3v8.4c6.7-5.6,16.3-9,27.5-9c30.9,0,42.1,19.6,42.1,50v53.9h-25.3v-48.3
			c0-21.9-3.4-33.1-22.5-33.1c-14,0-22.5,9-22.5,23.6v56.7h-25.3V639.6H369.3z"/>
		<path fill="#19B5EA" d="M473.2,691.3c0-29.7,24.1-52.8,53.9-52.8c20.2,0,35.4,8.4,46,24.7L551.8,675c-5.6-8.4-14-13.5-24.7-13.5
			c-16.3,0-29.7,13.5-29.7,29.7c0,15.7,13.5,29.7,29.7,29.7c10.7,0,18.5-4.5,24.7-12.9l21.3,11.8c-10.1,16.3-25.3,24.7-45.5,24.7
			C497.3,744.6,473.2,720.4,473.2,691.3"/>
		<path fill="#19B5EA" d="M655.1,680c-5.1-11.8-14-18-26.9-18c-12.3,0-23,7.9-27.5,18H655.1z M574.2,691.3
			c0-29.7,24.1-52.8,53.9-52.8c32.6,0,53.9,25.3,53.9,54.4c0,2.2,0,4.5-0.6,6.7H600c4.5,13.5,14.6,21.3,30.3,21.3
			c12.9,0,20.8-3.9,26.9-12.9l21.3,11.8c-10.7,16.3-26.4,24.7-48.3,24.7C597.8,744.6,574.2,721.6,574.2,691.3"/>
		<path fill="#19B5EA" d="M816.7,691.3c0-15.7-13.5-29.7-29.7-29.7c-16.3,0-29.7,13.5-29.7,29.7c0,15.7,13.5,29.7,29.7,29.7
			C803.2,721,816.7,707,816.7,691.3 M732,639.6h25.3v8.4c9-6.2,19.1-9,29.7-9c29.7,0,53.9,23.6,53.9,52.8
			c0,29.2-24.1,53.3-53.9,53.3c-10.1,0-21.3-3.4-29.7-9v41.5H732V639.6z"/>
		<path fill="#19B5EA" d="M930.1,691.3c0-15.7-13.5-29.7-29.7-29.7s-29.7,13.5-29.7,29.7c0,15.7,13.5,29.7,29.7,29.7
			C916.6,721,930.1,707,930.1,691.3 M846.5,691.3c0-29.7,24.1-52.8,53.9-52.8c10.7,0,20.8,2.8,29.7,9v-8.4h25.3v102.7h-25.3V735
			c-8.4,5.6-19.6,9-29.7,9C870,744.6,846.5,720.4,846.5,691.3"/>
		<path fill="#19B5EA" d="M967.7,639.6H993v10.1c7.9-7.9,16.8-10.7,30.3-10.7l-1.7,26.9c-23,0-28.6,8.4-28.6,24.7v52.2h-25.3
			L967.7,639.6L967.7,639.6z"/>
	</g>
	<polygon fill="#19B5EA" points="1032.3,604.8 1058.1,604.8 1058.1,671.6 1090.1,639.6 1120.4,639.6 1082.2,678.9 1124.3,742.3 
		1094,742.3 1063.7,698 1058.1,703.6 1058.1,742.3 1032.3,742.3 	"/>
	<g>
		<path fill="#FFFFFF" d="M807.2,172h17.4c0.6,5.1,3.9,10.1,13.5,10.1c6.7,0,10.7-3.4,10.7-6.7c0-5.1-6.7-6.2-13.5-6.7
			c-7.9-1.1-26.4-2.8-26.4-20.2c0-12.9,10.1-21.3,27.5-21.3c16.8,0,26.9,8.4,28.1,21.9h-16.8c-0.6-3.9-1.7-9-11.2-9
			c-6.2,0-10.1,2.2-10.1,5.6c0,5.1,9,6.2,15.7,7.3c13.5,2.2,24.7,5.6,24.7,20.8s-12.3,21.9-29.7,21.9
			C818.4,195.1,808.3,186.1,807.2,172"/>
		<path fill="#FFFFFF" d="M927.3,160.3c0-10.1-9-19.1-19.1-19.1c-10.7,0-19.1,9-19.1,19.1s9,19.1,19.1,19.1
			C918.3,179.3,927.3,170.9,927.3,160.3 M872.8,127.1h16.3v5.1c5.6-3.9,12.3-6.2,19.1-6.2c19.1,0,34.8,15.2,34.8,34.2
			s-15.7,34.2-34.8,34.2c-6.7,0-14-2.2-19.1-5.6v26.9h-16.3V127.1z"/>
	</g>
</g>
<rect fill="none" width="1133.9" height="850.4"/>
</svg>
