<?xml version="1.0" encoding="utf-8"?>
<!-- Generator: Adobe Illustrator 19.1.0, SVG Export Plug-In . SVG Version: 6.00 Build 0)  -->
<svg version="1.1" id="Layer_1" xmlns="http://www.w3.org/2000/svg" xmlns:xlink="http://www.w3.org/1999/xlink" x="0px" y="0px"
	 viewBox="6 -6 32 32" style="enable-background:new 6 -6 32 32;" xml:space="preserve">
<style type="text/css">
	.st0{fill:#999999;}
</style>
<g transform="translate(576 192)">
	<path class="st0" d="M-538.9-171.1l-7.3-7.3c-1.1,1.7-2.5,3.1-4.2,4.2l7.3,7.3c1.2,1.2,3.1,1.2,4.2,0
		C-537.7-168-537.7-169.9-538.9-171.1z"/>
	<path class="st0" d="M-546-186c0-6.6-5.4-12-12-12s-12,5.4-12,12s5.4,12,12,12S-546-179.4-546-186z M-558-177c-5,0-9-4-9-9s4-9,9-9
		s9,4,9,9S-553-177-558-177z"/>
	<path class="st0" d="M-565-186h2c0-2.8,2.2-5,5-5v-2C-561.9-193-565-189.9-565-186z"/>
</g>
</svg>
