<?xml version="1.0" encoding="utf-8"?>
<!-- Generator: Adobe Illustrator 19.1.0, SVG Export Plug-In . SVG Version: 6.00 Build 0)  -->
<svg version="1.1" id="Vrstva_1" xmlns="http://www.w3.org/2000/svg" xmlns:xlink="http://www.w3.org/1999/xlink" x="0px" y="0px"
	 viewBox="-276 394.9 43 52" style="enable-background:new -276 394.9 43 52;" xml:space="preserve">
<style type="text/css">
	.st0{fill:#002776;}
</style>
<path class="st0" d="M-236.9,395.2c-1.9,0-3.1,1.5-3.1,3.3v30.1c0,2.7-1,5.2-3,7.2v-37.3c0-1.6-0.9-3-2.5-3.2
	c-1.6-0.2-3.1,0.7-3.5,2.3c-5.5,22.3-5.5,22.5-5.5,22.5s0-0.2-5.5-22.5c-0.4-1.6-1.8-2.5-3.4-2.3c-1.6,0.2-2.6,1.6-2.6,3.2v37.3
	c-2-2-3-4.4-3-7.2v-30.1c0-1.8-1.2-3.3-3.1-3.3s-2.9,1.5-2.9,3.3v30.1c0,10.6,8.6,18,20.5,18s20.5-7.4,20.5-18v-30.1
	C-234,396.7-235.1,395.2-236.9,395.2z M-254.5,440.8c-2,0-4.5-0.3-5.5-0.9v-19c0,0.1,0.2,1.2,3.8,15.2c0.2,0.7,0.7,1.4,1.8,1.4
	c1.1,0,1.5-0.6,1.7-1.4c1.1-4.4,3.7-15.2,3.7-15.2v18.9C-250,440.4-252.5,440.8-254.5,440.8z"/>
</svg>
