<?xml version="1.0" encoding="utf-8"?>
<!-- Generator: Adobe Illustrator 18.1.1, SVG Export Plug-In . SVG Version: 6.00 Build 0)  -->
<!DOCTYPE svg PUBLIC "-//W3C//DTD SVG 1.1//EN" "http://www.w3.org/Graphics/SVG/1.1/DTD/svg11.dtd">
<svg version="1.1" id="Vrstva_1" xmlns="http://www.w3.org/2000/svg" xmlns:xlink="http://www.w3.org/1999/xlink" x="0px" y="0px"
	 viewBox="0 0 336 331" enable-background="new 0 0 336 331" xml:space="preserve">
<g>
	<path d="M36.9,182.4c2.3-0.4,4.4,1.1,4.7,3.4c0.4,2.3-1.1,4.4-3.4,4.7c-2.3,0.4-4.4-1.1-4.7-3.4C33.2,184.9,34.7,182.8,36.9,182.4z
		 M48.7,198.7l2.6,8.4l-1.6,0.5l-2-6.4l-5.3,1.6l2,6.3l-1.6,0.5l-2-6.3l-7.1,2.1l-0.6-2L48.7,198.7z M53.6,212.8l0.8,1.8l-12.3,12.3
		l-1.4-1.6l4.5-4.3l-2.7-6.3l-6.3,0.1l-0.2-2L53.6,212.8z M52.3,214.4L52.3,214.4l-7.9,0.3l2.1,5L52.3,214.4z M61.3,233.4
		c0.2-1.6-0.2-2.9-1-4.3c-1.9-3.3-5.9-4.2-9.2-2.3c-3.3,1.9-4.6,5.8-2.7,9.1c0.7,1.3,1.9,2.3,3.2,3l-0.9,1.4c-1.5-0.9-3-2.1-3.9-3.6
		c-2.4-4.2-1.6-9.2,3.1-11.8c4.4-2.5,9.3-0.9,11.8,3.3c1,1.7,1.3,3.3,1.4,5.1L61.3,233.4z M72.9,244.8l-8.2,6.1
		c-4.3,3.1-7.3,1.2-9.2-1.4c-2.1-2.8-2.6-6.1,1.4-9.1c1.1-0.8,2.3-1.7,3.6-2.7l4.6-3.4l1.2,1.6l-4.9,3.6c-1.2,0.9-2.5,1.8-3.7,2.8
		c-2.4,1.8-2.6,3.9-0.8,6.2c1.4,1.9,3.7,2.8,6.6,0.6l8.1-6L72.9,244.8z M62.9,258.1L75,247l1.4,1.5l-10.9,10l4.8,5.1l-1.2,1.2
		L62.9,258.1z M79.6,252.1l9.2,8.4l-1.2,1.3l-3.8-3.5l-10.1,10.8l-1.5-1.4l10.1-10.8l-3.8-3.5L79.6,252.1z M92.6,263.3l1.6,1.2
		l-4.5,16.8l-2-0.7l1.7-6l-5.4-4.1l-5.4,3.2l-1.2-1.6L92.6,263.3z M92.2,265.4L92.2,265.4l-6.7,4.2l4.3,3.3L92.2,265.4z M93,280.9
		c0.4,1,1.2,2.2,2.4,2.9c1.6,1,3.4,0.7,4.3-0.9c2.2-3.6-4.9-5.9-1.9-10.8c1.3-2.2,4-2.6,6.5-1.1c1.4,0.8,2.3,2,3.1,3.4l-1.4,0.9
		c-0.5-1.1-1-2.1-2.4-2.9c-1.2-0.7-3.1-0.8-4.1,0.9c-1.9,3.1,4.9,6.2,2.2,10.6c-1.3,2.1-3.9,3.2-7,1.3c-1.5-0.9-2.4-2-3.2-3.5
		L93,280.9z M119.4,279l1.8,0.8l-0.2,17.4l-2.1-0.2l0.2-6.2l-6.3-2.6l-4.5,4.4l-1.5-1.3L119.4,279z M119.6,281.1L119.6,281.1
		l-5.5,5.8l5,2.1L119.6,281.1z M128.5,282.6l4.8,1.4c3,0.9,4.6,3,3.8,5.6c-0.7,2.6-2.9,3.6-5.2,3.2l0,0c1,0.5,1.5,2.2,1.9,3.2l2,5.1
		l-2,0.5l-2.3-6.2c-0.6-1.5-0.8-2.6-2.3-3l-1.3-0.4l-2.1,6.7l-2-0.6L128.5,282.6z M128.2,290.7l2,0.6c1.9,0.6,4.2,0.4,4.8-1.8
		c0.5-1.7,0-3.5-2.6-4.2l-2.4-0.7L128.2,290.7z M139.2,285.7l12.3,2.3l-0.3,1.7l-5.1-0.9l-2.8,14.5l-2-0.4l2.8-14.5l-5.1-0.9
		L139.2,285.7z M153.3,288l2,0.2l-1.9,16.3l-2-0.2L153.3,288z M157.9,302.6c0.9,0.7,2.1,1.3,3.4,1.4c1.9,0.1,3.3-1,3.4-2.9
		c0.2-4.2-7.1-2.8-6.9-8.5c0.1-2.5,2.3-4.2,5.2-4.1c1.6,0.1,3,0.6,4.3,1.5l-0.8,1.5c-0.9-0.7-1.9-1.3-3.4-1.4
		c-1.4-0.1-3.1,0.7-3.2,2.7c-0.2,3.6,7.3,3.1,7,8.3c-0.1,2.4-1.9,4.7-5.5,4.5c-1.8-0.1-3.1-0.6-4.5-1.5L157.9,302.6z M175.6,288.7
		l2-0.1l1,16.4l-2,0.1L175.6,288.7z M181,288.8l1.6-1l11.1,11.8l0,0l-1.9-12.9l2-0.3l2.4,16l-1.7,0.9l-11-11.9l0,0l1.9,13l-2,0.3
		L181,288.8z M196.8,285.6l8.5-2.3l0.4,1.7l-6.5,1.8l1.4,5.4l6.4-1.7l0.4,1.7l-6.3,1.7l1.9,7.2l-2,0.5L196.8,285.6z M209.4,290.8
		c-1.9-4.7,0.4-9.4,4.9-11.2c4.5-1.8,9.3-0.3,11.3,4.7c1.9,4.7-0.4,9.4-4.9,11.2C216.1,297.3,211.4,295.8,209.4,290.8z M211.4,290
		c1.4,3.5,5.1,5.3,8.6,3.9c3.5-1.4,4.9-5.3,3.5-8.8c-1.4-3.5-5.1-5.3-8.6-3.9C211.4,282.6,210,286.5,211.4,290z M224.3,275.5
		l4.3-2.4c2.7-1.5,5.3-1.2,6.7,1.2c1.3,2.3,0.5,4.6-1.4,6l0,0c1-0.4,2.6,0.5,3.6,0.9l5,2.2l-1,1.8l-6-2.7c-1.5-0.6-2.4-1.2-3.8-0.5
		l-1.1,0.6l3.4,6.2l-1.8,1L224.3,275.5z M229.9,281.3l1.8-1c1.8-1,3.2-2.7,2.1-4.7c-0.9-1.5-2.5-2.4-4.8-1.1l-2.1,1.2L229.9,281.3z
		 M237.4,267.8l1.7-1.3l12.4,8l-4.2-14.3l1.8-1.3l12.1,11.5l-1.4,1.5l-10.2-9.9l0,0l4.3,14l-1.5,1.2l-12.2-8l0,0l6.8,12.6l-1.8,0.9
		L237.4,267.8z M255.9,252.2l1.4-1.4l16.1,6.6l-1,1.9l-5.7-2.5l-4.8,4.9l2.5,5.8l-1.8,0.9L255.9,252.2z M257.9,252.8L257.9,252.8
		l3.3,7.2l3.8-3.9L257.9,252.8z M260.3,247.8l7.8-9.7l1.3,1.1l-3.3,4.1l11.4,9.4l-1.3,1.6l-11.4-9.4l-3.3,4L260.3,247.8z M269,236.6
		l1.2-1.7l13.4,9.5l-1.2,1.7L269,236.6z M280.5,223.1c-1.5,0.7-2.4,1.7-3.2,3.1c-1.9,3.3-0.7,7.2,2.6,9.1c3.3,1.9,7.3,1.1,9.2-2.2
		c0.7-1.3,1-2.8,1-4.3l1.7,0c0,1.7-0.3,3.6-1.2,5.1c-2.5,4.2-7.1,5.9-11.8,3.2c-4.4-2.5-5.5-7.6-3-11.9c1-1.7,2.2-2.8,3.7-3.8
		L280.5,223.1z M281.4,214.8l0.8-1.8l17.4,0.4l-0.2,2.1l-6.2-0.2l-2.7,6.2l4.4,4.5l-1.3,1.5L281.4,214.8z M283.4,214.7L283.4,214.7
		l5.7,5.5l2.1-5L283.4,214.7z M285,205.8l2.5-8.1l1.6,0.5l-1.9,6.2l5.3,1.7l1.9-6l1.6,0.5l-1.9,6l5.5,1.8l2-6.3l1.6,0.5l-2.6,8.3
		L285,205.8z M297.5,190.9c-2.3-0.4-3.8-2.5-3.4-4.7c0.4-2.3,2.5-3.8,4.7-3.4c2.3,0.4,3.8,2.5,3.4,4.7
		C301.9,189.8,299.8,191.3,297.5,190.9z M28.2,160.6l10.3-0.1c5.3,0,6.6,3.4,6.6,6.6c0.1,3.5-1.5,6.4-6.5,6.5c-1.3,0-2.8,0-4.5,0
		l-5.7,0l0-2l6.1,0c1.5,0,3.1,0,4.6,0c3,0,4.4-1.6,4.3-4.6c0-2.4-1.3-4.5-5-4.4l-10.1,0.1L28.2,160.6z M28.9,155.5l-0.5-1.8
		l14.3-7.5l0,0l-12.9-1.6l0.2-2.1l16,2l0.5,1.8L32,153.8l0,0l13,1.6l-0.2,2.1L28.9,155.5z M31,137.7l0.4-2l16.1,3.5l-0.4,2L31,137.7
		z M32.3,132.9l-0.2-2.1l15.3-1.2l-12.1-9.8l1.1-1.7L50,129.5l-0.5,1.8L32.3,132.9z M37.4,115.3l3.2-7.8l1.6,0.7l-2.5,6l5.1,2.2
		l2.4-5.8l1.6,0.7l-2.4,5.8l5.3,2.2l2.5-6.1l1.6,0.7l-3.3,8L37.4,115.3z M42.4,103.7l2.3-4.4c1.5-2.7,3.9-3.9,6.3-2.6
		c2.4,1.3,2.9,3.6,2.1,5.8l0,0c0.7-0.9,2.5-1,3.5-1.2l5.4-0.8l0.1,2.1l-6.5,0.9c-1.6,0.3-2.7,0.3-3.4,1.6l-0.6,1.2l6.2,3.4l-1,1.8
		L42.4,103.7z M50.2,105.7l1-1.8c1-1.8,1.3-4-0.8-5.1c-1.6-0.8-3.4-0.7-4.6,1.7l-1.2,2.2L50.2,105.7z M61.3,98.5
		c1-0.4,2.2-1.1,3-2.2c1.1-1.6,0.8-3.4-0.7-4.4c-3.5-2.3-6.1,4.6-10.9,1.4c-2.1-1.4-2.4-4.1-0.8-6.6c0.9-1.3,2.1-2.2,3.5-2.9
		l0.8,1.5c-1.1,0.5-2.1,0.9-3,2.2c-0.8,1.2-1,3,0.7,4.1c3,2,6.4-4.6,10.7-1.7c2,1.4,3,4.1,1,7.1c-1,1.5-2.1,2.3-3.6,3L61.3,98.5z
		 M56.9,80.5l1.3-1.6L71,89.1l-1.3,1.6L56.9,80.5z M59.8,76.6l8.3-9.3l1.3,1.1l-3.5,3.9l10.9,10l-1.4,1.5l-10.9-10l-3.5,3.9
		L59.8,76.6z M72.7,63l1.4-1.3l15.7,7.4l-1.1,1.9l-5.6-2.8l-5,4.6l2.2,5.9l-1.8,0.9L72.7,63z M74.7,63.7L74.7,63.7l3,7.4l4-3.7
		L74.7,63.7z M89.7,66.8c1.1,0,2.5-0.3,3.5-1.1c1.5-1.2,1.9-2.9,0.8-4.4c-2.5-3.4-7.3,2.4-10.7-2.3c-1.5-2-0.9-4.7,1.4-6.5
		c1.3-1,2.7-1.4,4.3-1.6l0.3,1.7c-1.2,0.1-2.3,0.2-3.5,1.1c-1.1,0.9-1.9,2.5-0.7,4.1c2.2,2.9,7.6-2.2,10.7,1.9c1.5,2,1.5,4.8-1.4,7
		c-1.4,1.1-2.8,1.5-4.4,1.7L89.7,66.8z M99.2,43.4l1.9-0.9l10.7,10.2l-1.4-14.8l2-1l9.7,13.6l-1.6,1.2l-8.2-11.7l0,0l1.6,14.6
		l-1.7,0.9l-10.4-10.2l0,0l4.3,13.6l-1.9,0.6L99.2,43.4z M123.6,32.7l1.9-0.6l11.2,13.3l-1.7,1.3l-3.9-4.8l-6.5,2.1l-0.5,6.3l-2,0
		L123.6,32.7z M125,34.1L125,34.1l-0.4,7.9l5.1-1.7L125,34.1z M137.4,43.2c1,0.4,2.4,0.7,3.7,0.4c1.9-0.4,2.9-1.8,2.6-3.6
		c-0.9-4.1-7.6-0.9-8.8-6.5c-0.5-2.5,1.1-4.7,4-5.3c1.6-0.3,3.1-0.2,4.5,0.3l-0.5,1.6c-1.1-0.4-2.2-0.8-3.7-0.4
		c-1.4,0.3-2.8,1.5-2.4,3.5c0.8,3.5,7.8,1.2,8.9,6.2c0.5,2.4-0.7,5-4.2,5.7c-1.8,0.4-3.1,0.2-4.7-0.3L137.4,43.2z M152,26.4l1.9-0.2
		l8.2,15.3l-2,0.9l-2.8-5.5l-6.8,0.7l-1.8,6l-2-0.4L152,26.4z M153.1,28.1L153.1,28.1l-2,7.7l5.4-0.6L153.1,28.1z M163.6,25.5l5,0
		c3.1,0,5.2,1.6,5.2,4.4c0,2.7-1.9,4.2-4.2,4.5v0c1.1,0.2,2,1.7,2.7,2.6l3.3,4.4l-1.8,1.1l-3.8-5.3c-1-1.3-1.5-2.3-3.1-2.3l-1.3,0
		l-0.1,7l-2.1,0L163.6,25.5z M165.5,33.3l2,0c2,0,4.1-0.7,4.1-3.1c0-1.8-1-3.3-3.6-3.3l-2.5,0L165.5,33.3z M181.2,35.6l-4.8-9.3
		l2-0.8l4.1,8.7l6.2-7.5l1.7,1.2l-7.2,8l-0.9,7l-2-0.2L181.2,35.6z M193.5,27.7l2,0.4l-1.8,7.9l-1.9,8.2l-2-0.4L193.5,27.7z
		 M193.7,36.1l9.8-6.4l1.1,1.5l-8.4,5.4l5.3,8.8l-1.8,1L193.7,36.1z M208.1,31.4l2,0.6l-5,15.7l-2-0.6L208.1,31.4z M219.3,35.2
		l1.8,0.7l0,17.4l-2.1-0.1l0.1-6.2l-6.3-2.5l-4.4,4.5l-1.5-1.3L219.3,35.2z M219.5,37.3L219.5,37.3l-5.4,5.8l5,2L219.5,37.3z
		 M230,40.3l1.9,0.2l1.5,16.1l0,0l6.4-11.3l1.8,1l-8,14l-1.9-0.3l-1.3-16.2l0,0l-6.5,11.4l-1.8-1L230,40.3z M249.8,52l1.6,1.2
		l-4.3,16.9l-2-0.7l1.6-6l-5.5-4l-5.4,3.3l-1.2-1.6L249.8,52z M249.5,54.1L249.5,54.1l-6.7,4.3l4.4,3.2L249.5,54.1z M263.8,63.5
		l3.2,3.2c2.6,2.6,1.9,5,0.6,6.3c-1.4,1.4-3,1.6-4.8,0.6l0,0c1.2,1.8,0.9,3.7-0.5,5.2c-2.1,2.1-4.7,1.7-7-0.6L252,75L263.8,63.5z
		 M254.6,75.4l1.7,1.7c1.5,1.5,3.1,1.8,4.7,0.2c1.4-1.4,1.2-3.2-0.5-4.8L259,71L254.6,75.4z M260.2,69.9l1.1,1.1
		c1.9,1.9,3.5,1.9,4.7,0.7c1.3-1.3,1.3-2.7-0.6-4.6l-1.2-1.2L260.2,69.9z M273.4,73.5l3.1,3.9c2,2.4,2,5.1-0.1,6.8
		c-2.1,1.7-4.5,1.2-6.2-0.4l0,0c0.5,1-0.1,2.6-0.3,3.7l-1.3,5.3l-2-0.7l1.7-6.3c0.4-1.6,0.8-2.6-0.2-3.8l-0.8-1l-5.5,4.3l-1.3-1.6
		L273.4,73.5z M268.6,80l1.3,1.6c1.3,1.6,3.2,2.7,5,1.2c1.4-1.1,1.9-2.9,0.3-4.9l-1.5-1.9L268.6,80z M289.8,96.7l-8.7,5.4
		c-4.5,2.7-7.4,0.5-9.1-2.2c-1.9-3-2.1-6.3,2.2-8.9c1.1-0.7,2.4-1.5,3.8-2.3l4.9-3l1.1,1.7l-5.2,3.2c-1.3,0.8-2.7,1.6-4,2.4
		c-2.6,1.6-2.9,3.7-1.3,6.1c1.3,2,3.4,3.1,6.6,1.2l8.6-5.3L289.8,96.7z M291.9,101.4l1.4,1.3l-8.3,13.8l0,0l11.9-5.3l0.9,1.9
		l-14.7,6.6l-1.3-1.3l8.5-13.8l0,0l-12,5.4l-0.9-1.9L291.9,101.4z M299.3,117.7l2.7,8l-1.6,0.5l-2-6.1l-5.3,1.7l2,6l-1.6,0.5l-2-5.9
		l-5.5,1.8l2.1,6.3l-1.6,0.5l-2.7-8.3L299.3,117.7z M302.8,129.9l1.1,1.5l-11.2,11.7l0,0l12.8-2.6l0.4,2l-15.8,3.2l-1-1.6l11.3-11.6
		l0,0l-12.9,2.6l-0.4-2L302.8,129.9z M292.5,148.6c-0.6,0.9-1,2.3-0.9,3.6c0.2,1.9,1.5,3.1,3.3,2.9c4.2-0.4,1.7-7.5,7.5-8
		c2.5-0.3,4.5,1.6,4.8,4.5c0.2,1.6-0.2,3.1-0.8,4.5l-1.6-0.6c0.5-1,1-2.1,0.9-3.6c-0.1-1.4-1.2-2.9-3.2-2.7c-3.6,0.4-2,7.6-7.2,8.1
		c-2.4,0.2-4.9-1.2-5.2-4.8c-0.2-1.8,0.1-3.1,0.9-4.6L292.5,148.6z M307.4,159.6l0.1,2l-16.5,0.4l-0.1-2L307.4,159.6z M293.6,165.5
		c-0.7,0.9-1.3,2.1-1.3,3.5c-0.1,1.9,1.1,3.3,2.9,3.4c4.2,0.1,2.7-7.2,8.5-7c2.5,0.1,4.3,2.2,4.2,5.1c-0.1,1.6-0.6,3-1.4,4.3
		l-1.5-0.8c0.7-1,1.3-1.9,1.3-3.5c0-1.4-0.8-3.1-2.8-3.1c-3.6-0.1-3,7.3-8.2,7.1c-2.4-0.1-4.7-1.9-4.5-5.5c0.1-1.8,0.6-3.1,1.5-4.5
		L293.6,165.5z M36.9,182.4c2.3-0.4,4.4,1.1,4.7,3.4c0.4,2.3-1.1,4.4-3.4,4.7c-2.3,0.4-4.4-1.1-4.7-3.4
		C33.2,184.9,34.7,182.8,36.9,182.4z M48.7,198.7l2.6,8.4l-1.6,0.5l-2-6.4l-5.3,1.6l2,6.3l-1.6,0.5l-2-6.3l-7.1,2.1l-0.6-2
		L48.7,198.7z M53.6,212.8l0.8,1.8l-12.3,12.3l-1.4-1.6l4.5-4.3l-2.7-6.3l-6.3,0.1l-0.2-2L53.6,212.8z M52.3,214.4L52.3,214.4
		l-7.9,0.3l2.1,5L52.3,214.4z M61.3,233.4c0.2-1.6-0.2-2.9-1-4.3c-1.9-3.3-5.9-4.2-9.2-2.3c-3.3,1.9-4.6,5.8-2.7,9.1
		c0.7,1.3,1.9,2.3,3.2,3l-0.9,1.4c-1.5-0.9-3-2.1-3.9-3.6c-2.4-4.2-1.6-9.2,3.1-11.8c4.4-2.5,9.3-0.9,11.8,3.3
		c1,1.7,1.3,3.3,1.4,5.1L61.3,233.4z M72.9,244.8l-8.2,6.1c-4.3,3.1-7.3,1.2-9.2-1.4c-2.1-2.8-2.6-6.1,1.4-9.1
		c1.1-0.8,2.3-1.7,3.6-2.7l4.6-3.4l1.2,1.6l-4.9,3.6c-1.2,0.9-2.5,1.8-3.7,2.8c-2.4,1.8-2.6,3.9-0.8,6.2c1.4,1.9,3.7,2.8,6.6,0.6
		l8.1-6L72.9,244.8z M62.9,258.1L75,247l1.4,1.5l-10.9,10l4.8,5.1l-1.2,1.2L62.9,258.1z M79.6,252.1l9.2,8.4l-1.2,1.3l-3.8-3.5
		l-10.1,10.8l-1.5-1.4l10.1-10.8l-3.8-3.5L79.6,252.1z M92.6,263.3l1.6,1.2l-4.5,16.8l-2-0.7l1.7-6l-5.4-4.1l-5.4,3.2l-1.2-1.6
		L92.6,263.3z M92.2,265.4L92.2,265.4l-6.7,4.2l4.3,3.3L92.2,265.4z M93,280.9c0.4,1,1.2,2.2,2.4,2.9c1.6,1,3.4,0.7,4.3-0.9
		c2.2-3.6-4.9-5.9-1.9-10.8c1.3-2.2,4-2.6,6.5-1.1c1.4,0.8,2.3,2,3.1,3.4l-1.4,0.9c-0.5-1.1-1-2.1-2.4-2.9c-1.2-0.7-3.1-0.8-4.1,0.9
		c-1.9,3.1,4.9,6.2,2.2,10.6c-1.3,2.1-3.9,3.2-7,1.3c-1.5-0.9-2.4-2-3.2-3.5L93,280.9z M119.4,279l1.8,0.8l-0.2,17.4l-2.1-0.2
		l0.2-6.2l-6.3-2.6l-4.5,4.4l-1.5-1.3L119.4,279z M119.6,281.1L119.6,281.1l-5.5,5.8l5,2.1L119.6,281.1z M128.5,282.6l4.8,1.4
		c3,0.9,4.6,3,3.8,5.6c-0.7,2.6-2.9,3.6-5.2,3.2l0,0c1,0.5,1.5,2.2,1.9,3.2l2,5.1l-2,0.5l-2.3-6.2c-0.6-1.5-0.8-2.6-2.3-3l-1.3-0.4
		l-2.1,6.7l-2-0.6L128.5,282.6z M128.2,290.7l2,0.6c1.9,0.6,4.2,0.4,4.8-1.8c0.5-1.7,0-3.5-2.6-4.2l-2.4-0.7L128.2,290.7z
		 M139.2,285.7l12.3,2.3l-0.3,1.7l-5.1-0.9l-2.8,14.5l-2-0.4l2.8-14.5l-5.1-0.9L139.2,285.7z M153.3,288l2,0.2l-1.9,16.3l-2-0.2
		L153.3,288z M157.9,302.6c0.9,0.7,2.1,1.3,3.4,1.4c1.9,0.1,3.3-1,3.4-2.9c0.2-4.2-7.1-2.8-6.9-8.5c0.1-2.5,2.3-4.2,5.2-4.1
		c1.6,0.1,3,0.6,4.3,1.5l-0.8,1.5c-0.9-0.7-1.9-1.3-3.4-1.4c-1.4-0.1-3.1,0.7-3.2,2.7c-0.2,3.6,7.3,3.1,7,8.3
		c-0.1,2.4-1.9,4.7-5.5,4.5c-1.8-0.1-3.1-0.6-4.5-1.5L157.9,302.6z M175.6,288.7l2-0.1l1,16.4l-2,0.1L175.6,288.7z M181,288.8l1.6-1
		l11.1,11.8l0,0l-1.9-12.9l2-0.3l2.4,16l-1.7,0.9l-11-11.9l0,0l1.9,13l-2,0.3L181,288.8z M196.8,285.6l8.5-2.3l0.4,1.7l-6.5,1.8
		l1.4,5.4l6.4-1.7l0.4,1.7l-6.3,1.7l1.9,7.2l-2,0.5L196.8,285.6z M209.4,290.8c-1.9-4.7,0.4-9.4,4.9-11.2c4.5-1.8,9.3-0.3,11.3,4.7
		c1.9,4.7-0.4,9.4-4.9,11.2C216.1,297.3,211.4,295.8,209.4,290.8z M211.4,290c1.4,3.5,5.1,5.3,8.6,3.9c3.5-1.4,4.9-5.3,3.5-8.8
		c-1.4-3.5-5.1-5.3-8.6-3.9C211.4,282.6,210,286.5,211.4,290z M224.3,275.5l4.3-2.4c2.7-1.5,5.3-1.2,6.7,1.2c1.3,2.3,0.5,4.6-1.4,6
		l0,0c1-0.4,2.6,0.5,3.6,0.9l5,2.2l-1,1.8l-6-2.7c-1.5-0.6-2.4-1.2-3.8-0.5l-1.1,0.6l3.4,6.2l-1.8,1L224.3,275.5z M229.9,281.3
		l1.8-1c1.8-1,3.2-2.7,2.1-4.7c-0.9-1.5-2.5-2.4-4.8-1.1l-2.1,1.2L229.9,281.3z M237.4,267.8l1.7-1.3l12.4,8l-4.2-14.3l1.8-1.3
		l12.1,11.5l-1.4,1.5l-10.2-9.9l0,0l4.3,14l-1.5,1.2l-12.2-8l0,0l6.8,12.6l-1.8,0.9L237.4,267.8z M255.9,252.2l1.4-1.4l16.1,6.6
		l-1,1.9l-5.7-2.5l-4.8,4.9l2.5,5.8l-1.8,0.9L255.9,252.2z M257.9,252.8L257.9,252.8l3.3,7.2l3.8-3.9L257.9,252.8z M260.3,247.8
		l7.8-9.7l1.3,1.1l-3.3,4.1l11.4,9.4l-1.3,1.6l-11.4-9.4l-3.3,4L260.3,247.8z M269,236.6l1.2-1.7l13.4,9.5l-1.2,1.7L269,236.6z
		 M280.5,223.1c-1.5,0.7-2.4,1.7-3.2,3.1c-1.9,3.3-0.7,7.2,2.6,9.1c3.3,1.9,7.3,1.1,9.2-2.2c0.7-1.3,1-2.8,1-4.3l1.7,0
		c0,1.7-0.3,3.6-1.2,5.1c-2.5,4.2-7.1,5.9-11.8,3.2c-4.4-2.5-5.5-7.6-3-11.9c1-1.7,2.2-2.8,3.7-3.8L280.5,223.1z M281.4,214.8
		l0.8-1.8l17.4,0.4l-0.2,2.1l-6.2-0.2l-2.7,6.2l4.4,4.5l-1.3,1.5L281.4,214.8z M283.4,214.7L283.4,214.7l5.7,5.5l2.1-5L283.4,214.7z
		 M285,205.8l2.5-8.1l1.6,0.5l-1.9,6.2l5.3,1.7l1.9-6l1.6,0.5l-1.9,6l5.5,1.8l2-6.3l1.6,0.5l-2.6,8.3L285,205.8z M297.5,190.9
		c-2.3-0.4-3.8-2.5-3.4-4.7c0.4-2.3,2.5-3.8,4.7-3.4c2.3,0.4,3.8,2.5,3.4,4.7C301.9,189.8,299.8,191.3,297.5,190.9z M28.2,160.6
		l10.3-0.1c5.3,0,6.6,3.4,6.6,6.6c0.1,3.5-1.5,6.4-6.5,6.5c-1.3,0-2.8,0-4.5,0l-5.7,0l0-2l6.1,0c1.5,0,3.1,0,4.6,0
		c3,0,4.4-1.6,4.3-4.6c0-2.4-1.3-4.5-5-4.4l-10.1,0.1L28.2,160.6z M28.9,155.5l-0.5-1.8l14.3-7.5l0,0l-12.9-1.6l0.2-2.1l16,2
		l0.5,1.8L32,153.8l0,0l13,1.6l-0.2,2.1L28.9,155.5z M31,137.7l0.4-2l16.1,3.5l-0.4,2L31,137.7z M32.3,132.9l-0.2-2.1l15.3-1.2
		l-12.1-9.8l1.1-1.7L50,129.5l-0.5,1.8L32.3,132.9z M37.4,115.3l3.2-7.8l1.6,0.7l-2.5,6l5.1,2.2l2.4-5.8l1.6,0.7l-2.4,5.8l5.3,2.2
		l2.5-6.1l1.6,0.7l-3.3,8L37.4,115.3z M42.4,103.7l2.3-4.4c1.5-2.7,3.9-3.9,6.3-2.6c2.4,1.3,2.9,3.6,2.1,5.8l0,0
		c0.7-0.9,2.5-1,3.5-1.2l5.4-0.8l0.1,2.1l-6.5,0.9c-1.6,0.3-2.7,0.3-3.4,1.6l-0.6,1.2l6.2,3.4l-1,1.8L42.4,103.7z M50.2,105.7l1-1.8
		c1-1.8,1.3-4-0.8-5.1c-1.6-0.8-3.4-0.7-4.6,1.7l-1.2,2.2L50.2,105.7z M61.3,98.5c1-0.4,2.2-1.1,3-2.2c1.1-1.6,0.8-3.4-0.7-4.4
		c-3.5-2.3-6.1,4.6-10.9,1.4c-2.1-1.4-2.4-4.1-0.8-6.6c0.9-1.3,2.1-2.2,3.5-2.9l0.8,1.5c-1.1,0.5-2.1,0.9-3,2.2
		c-0.8,1.2-1,3,0.7,4.1c3,2,6.4-4.6,10.7-1.7c2,1.4,3,4.1,1,7.1c-1,1.5-2.1,2.3-3.6,3L61.3,98.5z M56.9,80.5l1.3-1.6L71,89.1
		l-1.3,1.6L56.9,80.5z M59.8,76.6l8.3-9.3l1.3,1.1l-3.5,3.9l10.9,10l-1.4,1.5l-10.9-10l-3.5,3.9L59.8,76.6z M72.7,63l1.4-1.3
		l15.7,7.4l-1.1,1.9l-5.6-2.8l-5,4.6l2.2,5.9l-1.8,0.9L72.7,63z M74.7,63.7L74.7,63.7l3,7.4l4-3.7L74.7,63.7z M89.7,66.8
		c1.1,0,2.5-0.3,3.5-1.1c1.5-1.2,1.9-2.9,0.8-4.4c-2.5-3.4-7.3,2.4-10.7-2.3c-1.5-2-0.9-4.7,1.4-6.5c1.3-1,2.7-1.4,4.3-1.6l0.3,1.7
		c-1.2,0.1-2.3,0.2-3.5,1.1c-1.1,0.9-1.9,2.5-0.7,4.1c2.2,2.9,7.6-2.2,10.7,1.9c1.5,2,1.5,4.8-1.4,7c-1.4,1.1-2.8,1.5-4.4,1.7
		L89.7,66.8z M99.2,43.4l1.9-0.9l10.7,10.2l-1.4-14.8l2-1l9.7,13.6l-1.6,1.2l-8.2-11.7l0,0l1.6,14.6l-1.7,0.9l-10.4-10.2l0,0
		l4.3,13.6l-1.9,0.6L99.2,43.4z M123.6,32.7l1.9-0.6l11.2,13.3l-1.7,1.3l-3.9-4.8l-6.5,2.1l-0.5,6.3l-2,0L123.6,32.7z M125,34.1
		L125,34.1l-0.4,7.9l5.1-1.7L125,34.1z M137.4,43.2c1,0.4,2.4,0.7,3.7,0.4c1.9-0.4,2.9-1.8,2.6-3.6c-0.9-4.1-7.6-0.9-8.8-6.5
		c-0.5-2.5,1.1-4.7,4-5.3c1.6-0.3,3.1-0.2,4.5,0.3l-0.5,1.6c-1.1-0.4-2.2-0.8-3.7-0.4c-1.4,0.3-2.8,1.5-2.4,3.5
		c0.8,3.5,7.8,1.2,8.9,6.2c0.5,2.4-0.7,5-4.2,5.7c-1.8,0.4-3.1,0.2-4.7-0.3L137.4,43.2z M152,26.4l1.9-0.2l8.2,15.3l-2,0.9l-2.8-5.5
		l-6.8,0.7l-1.8,6l-2-0.4L152,26.4z M153.1,28.1L153.1,28.1l-2,7.7l5.4-0.6L153.1,28.1z M163.6,25.5l5,0c3.1,0,5.2,1.6,5.2,4.4
		c0,2.7-1.9,4.2-4.2,4.5v0c1.1,0.2,2,1.7,2.7,2.6l3.3,4.4l-1.8,1.1l-3.8-5.3c-1-1.3-1.5-2.3-3.1-2.3l-1.3,0l-0.1,7l-2.1,0
		L163.6,25.5z M165.5,33.3l2,0c2,0,4.1-0.7,4.1-3.1c0-1.8-1-3.3-3.6-3.3l-2.5,0L165.5,33.3z M181.2,35.6l-4.8-9.3l2-0.8l4.1,8.7
		l6.2-7.5l1.7,1.2l-7.2,8l-0.9,7l-2-0.2L181.2,35.6z M193.5,27.7l2,0.4l-1.8,7.9l-1.9,8.2l-2-0.4L193.5,27.7z M193.7,36.1l9.8-6.4
		l1.1,1.5l-8.4,5.4l5.3,8.8l-1.8,1L193.7,36.1z M208.1,31.4l2,0.6l-5,15.7l-2-0.6L208.1,31.4z M219.3,35.2l1.8,0.7l0,17.4l-2.1-0.1
		l0.1-6.2l-6.3-2.5l-4.4,4.5l-1.5-1.3L219.3,35.2z M219.5,37.3L219.5,37.3l-5.4,5.8l5,2L219.5,37.3z M230,40.3l1.9,0.2l1.5,16.1l0,0
		l6.4-11.3l1.8,1l-8,14l-1.9-0.3l-1.3-16.2l0,0l-6.5,11.4l-1.8-1L230,40.3z M249.8,52l1.6,1.2l-4.3,16.9l-2-0.7l1.6-6l-5.5-4
		l-5.4,3.3l-1.2-1.6L249.8,52z M249.5,54.1L249.5,54.1l-6.7,4.3l4.4,3.2L249.5,54.1z M263.8,63.5l3.2,3.2c2.6,2.6,1.9,5,0.6,6.3
		c-1.4,1.4-3,1.6-4.8,0.6l0,0c1.2,1.8,0.9,3.7-0.5,5.2c-2.1,2.1-4.7,1.7-7-0.6L252,75L263.8,63.5z M254.6,75.4l1.7,1.7
		c1.5,1.5,3.1,1.8,4.7,0.2c1.4-1.4,1.2-3.2-0.5-4.8L259,71L254.6,75.4z M260.2,69.9l1.1,1.1c1.9,1.9,3.5,1.9,4.7,0.7
		c1.3-1.3,1.3-2.7-0.6-4.6l-1.2-1.2L260.2,69.9z M273.4,73.5l3.1,3.9c2,2.4,2,5.1-0.1,6.8c-2.1,1.7-4.5,1.2-6.2-0.4l0,0
		c0.5,1-0.1,2.6-0.3,3.7l-1.3,5.3l-2-0.7l1.7-6.3c0.4-1.6,0.8-2.6-0.2-3.8l-0.8-1l-5.5,4.3l-1.3-1.6L273.4,73.5z M268.6,80l1.3,1.6
		c1.3,1.6,3.2,2.7,5,1.2c1.4-1.1,1.9-2.9,0.3-4.9l-1.5-1.9L268.6,80z M289.8,96.7l-8.7,5.4c-4.5,2.7-7.4,0.5-9.1-2.2
		c-1.9-3-2.1-6.3,2.2-8.9c1.1-0.7,2.4-1.5,3.8-2.3l4.9-3l1.1,1.7l-5.2,3.2c-1.3,0.8-2.7,1.6-4,2.4c-2.6,1.6-2.9,3.7-1.3,6.1
		c1.3,2,3.4,3.1,6.6,1.2l8.6-5.3L289.8,96.7z M291.9,101.4l1.4,1.3l-8.3,13.8l0,0l11.9-5.3l0.9,1.9l-14.7,6.6l-1.3-1.3l8.5-13.8l0,0
		l-12,5.4l-0.9-1.9L291.9,101.4z M299.3,117.7l2.7,8l-1.6,0.5l-2-6.1l-5.3,1.7l2,6l-1.6,0.5l-2-5.9l-5.5,1.8l2.1,6.3l-1.6,0.5
		l-2.7-8.3L299.3,117.7z M302.8,129.9l1.1,1.5l-11.2,11.7l0,0l12.8-2.6l0.4,2l-15.8,3.2l-1-1.6l11.3-11.6l0,0l-12.9,2.6l-0.4-2
		L302.8,129.9z M292.5,148.6c-0.6,0.9-1,2.3-0.9,3.6c0.2,1.9,1.5,3.1,3.3,2.9c4.2-0.4,1.7-7.5,7.5-8c2.5-0.3,4.5,1.6,4.8,4.5
		c0.2,1.6-0.2,3.1-0.8,4.5l-1.6-0.6c0.5-1,1-2.1,0.9-3.6c-0.1-1.4-1.2-2.9-3.2-2.7c-3.6,0.4-2,7.6-7.2,8.1c-2.4,0.2-4.9-1.2-5.2-4.8
		c-0.2-1.8,0.1-3.1,0.9-4.6L292.5,148.6z M307.4,159.6l0.1,2l-16.5,0.4l-0.1-2L307.4,159.6z M293.6,165.5c-0.7,0.9-1.3,2.1-1.3,3.5
		c-0.1,1.9,1.1,3.3,2.9,3.4c4.2,0.1,2.7-7.2,8.5-7c2.5,0.1,4.3,2.2,4.2,5.1c-0.1,1.6-0.6,3-1.4,4.3l-1.5-0.8c0.7-1,1.3-1.9,1.3-3.5
		c0-1.4-0.8-3.1-2.8-3.1c-3.6-0.1-3,7.3-8.2,7.1c-2.4-0.1-4.7-1.9-4.5-5.5c0.1-1.8,0.6-3.1,1.5-4.5L293.6,165.5z M265.7,125.3
		l-5.9-18.9c0,0,0-0.1,0-0.1c0,0,0-0.1-0.1-0.1c0,0,0,0,0,0c0,0-0.1-0.1-0.1-0.1c0,0-0.1-0.1-0.1-0.1c0,0-0.1-0.1-0.1-0.1
		c-0.1,0-0.1-0.1-0.2-0.1c0,0-0.1,0-0.1-0.1c-0.1,0-0.1,0-0.2,0c0,0-0.1,0-0.1,0c0,0,0,0-0.1,0c0,0,0,0-0.1,0h-42.5
		c-0.4,0-0.8,0.2-1,0.6l-5.4,9l-1.4-8.6c0,0,0,0,0,0c0-0.1,0-0.1-0.1-0.2c0,0,0-0.1,0-0.1c0,0,0,0,0,0c0-0.1-0.1-0.1-0.2-0.2
		c0,0,0,0,0,0c-0.1-0.1-0.2-0.1-0.3-0.2c0,0-0.1,0-0.1,0c-0.1,0-0.1-0.1-0.2-0.1c0,0,0,0,0,0c0,0-0.1,0-0.1,0c0,0-0.1,0-0.1,0H84.6
		c-0.4,0-0.8,0.2-1,0.6l-9.3,15.5c0,0,0,0,0,0c0,0,0,0,0,0c0,0,0,0.1-0.1,0.1c0,0,0,0.1-0.1,0.1c0,0.1,0,0.1,0,0.2
		c0,0.1,0,0.1,0,0.2c0,0.1,0,0.1,0,0.2c0,0.1,0,0.1,0,0.2c0,0,0,0.1,0.1,0.1c0,0,0,0.1,0.1,0.1c0,0,0,0,0,0c0,0,0,0,0,0l73.6,123.4
		c0.2,0.4,0.6,0.6,1,0.6h4.2c-1.3,2.2-2.1,3.5-2.1,3.5c-0.1,0.2-0.2,0.4-0.2,0.6c0,0.2,0.1,0.4,0.2,0.6c0.1,0.2,0.3,0.4,0.6,0.5
		l8.8,14.8c0.2,0.3,0.5,0.5,0.8,0.5h20.2c0.2,0.1,0.4,0.2,0.7,0.2c0.4,0,0.8-0.2,1-0.6l82.5-140.7
		C265.7,126,265.8,125.6,265.7,125.3z M226.4,123.5c-0.4,0.7-3.7,6.2-8.6,14.4c-1.4,0-5.8,0-7.1,0c-0.3-1.6-2-12.3-2.4-14.4
		C212.3,123.5,223.6,123.5,226.4,123.5z M171.3,216.3l-15-25.2h26.4c0,0,0.1,0,0.1,0c0,0,0.1,0,0.1,0c0.1,0,0.2,0,0.3-0.1
		c0,0,0,0,0,0c0.1,0,0.2-0.1,0.3-0.2c0,0,0,0,0.1-0.1c0,0,0.1-0.1,0.1-0.1c0,0,0.1-0.1,0.1-0.1c0,0,0,0,0,0L193,175
		c0.1-0.2,0.2-0.5,0.2-0.8l-2.4-14.7c0,0,0,0,0,0c0-0.1,0-0.1-0.1-0.2c0,0,0-0.1,0-0.1c0,0,0,0,0,0c0-0.1-0.1-0.1-0.2-0.2
		c0,0,0,0,0,0c-0.1-0.1-0.2-0.1-0.3-0.2c0,0-0.1,0-0.1,0c-0.1,0-0.1-0.1-0.2-0.1c0,0,0,0,0,0c0,0-0.1,0-0.1,0c0,0-0.1,0-0.1,0h-44.6
		c-0.4,0-0.8,0.2-1,0.6l-3.3,5.6L126,140.3c27.3,0,74.7,0,74.7,0c0,0,0.1,0,0.1,0c0,0,0.1,0,0.1,0c0.1,0,0.2,0,0.3-0.1c0,0,0,0,0,0
		c0.1,0,0.2-0.1,0.3-0.2c0,0,0,0,0.1-0.1c0,0,0.1-0.1,0.1-0.1c0,0,0-0.1,0-0.1c0,0,0.1-0.1,0.1-0.1l5.4-9l1.4,8.6
		c0.1,0.6,0.6,1,1.2,1h6.7C205,159.6,185.9,191.7,171.3,216.3z M145.6,160.9c1.3,0,38.1,0,41.8,0l-7.8,13.2c-1.3,0-38.1,0-41.8,0
		C139.3,171.3,145,161.8,145.6,160.9z M188.9,163.1c0.6,3.8,1.7,10.4,1.8,11.1c-0.3,0.6-5.2,8.7-7.4,12.4l-1.8-11.1L188.9,163.1z
		 M207.9,118.3l-2,3.3c0,0,0,0,0,0c0,0.1-0.1,0.2-0.1,0.2c0,0,0,0,0,0c0,0.1,0,0.2,0,0.3c0,0,0,0.1,0,0.1c0,0,0,0.1,0,0.1l0.8,4.6
		c-1.7,2.8-3.9,6.5-5.2,8.7l-2.2-13.2c0.1-0.2,0.6-1,1.3-2.2l6.1-10.2C206.9,112.3,207.4,115.6,207.9,118.3z M85.3,107.9
		c1.3,0,115.8,0,119.8,0l-7.8,13.2c-1.3,0-115.8,0-119.8,0C79,118.4,84.7,108.9,85.3,107.9z M107.4,140.3c1,0,7.1,0,15.8,0
		c0.2,0.4,7.1,12,15.9,26.7l-4.6,7.6c0,0,0,0,0,0c0,0,0,0,0,0c0,0,0,0.1-0.1,0.1c0,0,0,0.1-0.1,0.1c0,0.1,0,0.1,0,0.2
		c0,0.1,0,0.1,0,0.2c0,0.1,0,0.1,0,0.2c0,0.1,0,0.1,0,0.2c0,0.1,0,0.1,0.1,0.1c0,0,0,0.1,0.1,0.1c0,0,0,0,0,0c0,0,0,0,0,0l8.8,14.7
		c0.2,0.4,0.6,0.6,1,0.6h9.2c11.9,20,22.9,38.4,23.2,39c-0.6,1-6.4,10.7-7.9,13.3C166.9,240.1,109.4,143.7,107.4,140.3z
		 M161.7,265.4c-0.5-0.8-6.3-10.5-7.9-13.2H172l8.1,13.2C176.7,265.4,162.7,265.4,161.7,265.4z M182,264c-1.6-2.6-7.4-12.1-8-13.1
		c0.7-1.2,81.6-136.9,84.2-141.3c1.1,3.7,4.7,15.1,4.9,15.9C262.7,126.4,184,260.7,182,264z"/>
</g>
</svg>
