<?xml version="1.0" encoding="utf-8"?>
<!-- Generator: Adobe Illustrator 18.1.0, SVG Export Plug-In . SVG Version: 6.00 Build 0)  -->
<!DOCTYPE svg PUBLIC "-//W3C//DTD SVG 1.1//EN" "http://www.w3.org/Graphics/SVG/1.1/DTD/svg11.dtd">
<svg version="1.1" id="Vrstva_1" xmlns="http://www.w3.org/2000/svg" xmlns:xlink="http://www.w3.org/1999/xlink" x="0px" y="0px"
	 viewBox="144.6 267.9 306.1 306.1" enable-background="new 144.6 267.9 306.1 306.1" xml:space="preserve">
<g id="FSS">
</g>
<g id="export">
	<path fill="#FFFFFF" d="M358.8,318.1c-10.1,16.4-20.2,32.2-24.5,39.5c-7.5,12.7,0.9,15.4,0.9,21.9c0,4.9-2.5,8-6.5,15
		c-4,6.9-6,9.7-13.7,21c-3.8,5.6-4.6,8.3-4.6,11.6c0,3.2,2.2,5.4,6,7.4c5.9,3.1,6.9,4.2,6.9,6.5c0,2.9-2.9,6-2.9,9.6
		c0,3.5,4.6,5.1,4.6,8.2c0,4-3.1,5.1-3.1,8.2c0,5.7,8.2,6.2,8.2,10.8c0,4.2-3.7,8.5-3.7,14.8c0,5.6,4.9,10.7,19.6,12.8
		c11.3,1.6,14.4,7.6,18.9,14.7c31.6-21.5,52.4-57.8,52.4-99C417.3,377.2,393.8,338.9,358.8,318.1z M266.5,394.5
		c-4-6.9-6.5-10-6.5-15c0-6.5,8.4-9.2,0.9-21.9c-4.3-7.4-14.4-23.1-24.5-39.5c-35.1,20.9-58.5,59.1-58.5,102.9
		c0,41.2,20.8,77.5,52.4,99c4.5-7.1,7.5-13.1,18.9-14.7c14.7-2.1,19.6-7.3,19.6-12.8c0-6.3-3.7-10.6-3.7-14.8
		c0-4.6,8.2-5.1,8.2-10.8c0-3.1-3.1-4.2-3.1-8.2c0-3.1,4.6-4.6,4.6-8.2c0-3.5-2.9-6.6-2.9-9.6c0-2.3,1.1-3.4,6.9-6.5
		c3.8-2,6-4.2,6-7.4c0-3.2-0.8-6-4.6-11.6C272.6,404.2,270.6,401.4,266.5,394.5z M297.6,305.9c17.5,0,34,3.9,48.8,10.9l2.5-4
		c-15.5-7.4-32.9-11.5-51.3-11.5c-18.4,0-35.8,4.1-51.3,11.5l2.5,4C263.6,309.8,280.2,305.9,297.6,305.9z M354.6,524.5
		c-0.6-1-1.2-1.9-1.7-2.6c-16.4,9-35.3,14.1-55.3,14.1c-20,0-38.9-5.1-55.3-14.1c-0.5,0.8-1.1,1.6-1.7,2.6l-0.8,1.3
		c17.1,9.5,36.8,14.9,57.8,14.9c21,0,40.7-5.4,57.8-14.9L354.6,524.5z M159.4,433.2c2.4-0.3,4.5,1.4,4.8,3.8
		c0.3,2.4-1.4,4.5-3.8,4.8c-2.4,0.3-4.5-1.4-4.8-3.8C155.3,435.7,157,433.5,159.4,433.2z M170.4,448.4l2.2,9l-1.7,0.4l-1.7-6.9
		l-5.7,1.4l1.7,6.7l-1.7,0.4l-1.7-6.7l-7.6,1.8l-0.5-2.1L170.4,448.4z M174.4,462.9l0.7,1.9l-13.8,12.1L160,475l5-4.2l-2.3-6.8
		l-6.6-0.4l-0.1-2.1L174.4,462.9z M172.9,464.4L172.9,464.4l-8.3-0.2l1.9,5.4L172.9,464.4z M180.6,484.1c0.3-1.7,0-3.1-0.8-4.6
		c-1.7-3.6-5.9-4.8-9.5-3.1c-3.6,1.7-5.3,5.7-3.5,9.3c0.7,1.4,1.8,2.5,3.1,3.4l-1,1.4c-1.5-1-3-2.4-3.8-4.1
		c-2.2-4.6-0.9-9.7,4.2-12.2c4.8-2.3,9.9-0.2,12.1,4.4c0.9,1.9,1.1,3.5,1.1,5.5L180.6,484.1z M191.2,496.1l-9.2,5.7
		c-4.7,2.9-7.7,0.6-9.5-2.3c-2-3.2-2.2-6.6,2.3-9.4c1.2-0.7,2.5-1.6,4-2.5l5.1-3.2l1.1,1.8l-5.4,3.4c-1.4,0.8-2.8,1.7-4.1,2.6
		c-2.7,1.7-3,3.8-1.4,6.5c1.3,2.1,3.6,3.3,6.9,1.2l9-5.6L191.2,496.1z M179,508.5l13.7-10.5l1.3,1.7l-12.3,9.4l4.5,5.8l-1.4,1.1
		L179,508.5z M196.8,503.4l8.8,9.7l-1.3,1.2l-3.7-4.1L189,520.6l-1.4-1.6l11.6-10.3l-3.7-4.1L196.8,503.4z M208.8,516l1.5,1.4
		l-6.4,17.1l-2.1-0.9l2.4-6.1l-5.3-4.8l-6,2.8l-1-1.8L208.8,516z M208.2,518.1L208.2,518.1l-7.5,3.7l4.2,3.8L208.2,518.1z
		 M206.8,533.9c0.3,1.1,1.1,2.4,2.2,3.2c1.6,1.2,3.5,1.1,4.6-0.4c2.7-3.5-4.5-6.7-0.8-11.5c1.6-2.1,4.5-2.3,6.9-0.5
		c1.4,1,2.2,2.4,2.8,3.9l-1.6,0.8c-0.4-1.2-0.9-2.3-2.2-3.2c-1.2-0.9-3.1-1.2-4.4,0.5c-2.3,3,4.4,7,1.2,11.4
		c-1.6,2.1-4.4,2.9-7.5,0.6c-1.5-1.1-2.3-2.4-3-4L206.8,533.9z M222.1,544.6c0.5,1,1.4,2.3,2.6,2.9c1.8,1,3.6,0.6,4.5-1
		c2.2-3.8-5.3-6-2.3-11.3c1.3-2.3,4.1-2.9,6.8-1.3c1.5,0.8,2.5,2,3.3,3.5l-1.5,1c-0.6-1.1-1.1-2.1-2.6-2.9c-1.3-0.7-3.2-0.8-4.3,1
		c-1.9,3.3,5.3,6.4,2.6,11.1c-1.3,2.2-4,3.4-7.3,1.5c-1.6-0.9-2.6-2-3.4-3.6L222.1,544.6z M237.2,536.4l11.9,5.5l-0.8,1.6l-5-2.3
		l-6.6,14l-2-0.9l6.6-14l-5-2.3L237.2,536.4z M262.6,546.5l-3.5,10.2c-1.8,5.2-5.6,5.4-8.8,4.3c-3.5-1.2-5.8-3.7-4.2-8.7
		c0.4-1.3,1-2.8,1.6-4.5l2-5.7l2,0.7l-2.1,6c-0.5,1.5-1.1,3.1-1.6,4.6c-1,3,0.1,4.9,3,5.9c2.4,0.8,4.9,0.3,6.1-3.4l3.5-10.1
		L262.6,546.5z M264.6,547l5.1,1.1c6.5,1.3,8.3,6,7.5,10.1c-1.2,5.8-6,7.8-11.5,6.7l-4.7-1L264.6,547z M263.4,562.7l2.3,0.5
		c4.8,1,8.4-0.7,9.4-5.3c0.9-4.3-1.5-7.4-6-8.3l-2.6-0.5L263.4,562.7z M280.9,550l2.1,0.3l-2.2,17.2l-2.1-0.3L280.9,550z
		 M284.5,559.4c0.1-5.3,4.3-8.9,9.4-8.7c5.1,0.1,9.1,3.6,8.9,9.3c-0.1,5.3-4.3,8.9-9.4,8.7S284.3,565,284.5,559.4z M286.8,559.4
		c-0.1,4,2.7,7.3,6.7,7.4c4,0.1,7-3,7.1-7c0.1-4-2.7-7.3-6.7-7.4C289.9,552.3,286.9,555.4,286.8,559.4z M304.3,551l5.2-0.5
		c3.3-0.3,5.6,1.2,5.9,4c0.3,2.8-1.5,4.6-3.9,5.2l0,0c1.2,0.1,2.3,1.6,3.1,2.4l3.9,4.3l-1.8,1.3l-4.6-5.2c-1.2-1.3-1.8-2.2-3.4-2.1
		l-1.4,0.1l0.6,7.4l-2.2,0.2L304.3,551z M307.1,559l2.1-0.2c2.1-0.2,4.2-1.2,4-3.7c-0.2-1.8-1.4-3.4-4.2-3.1l-2.6,0.2L307.1,559z
		 M330.7,547l2.1,10.6c1,5.5-2.2,7.5-5.5,8.1c-3.6,0.7-6.9-0.3-8-5.4c-0.3-1.4-0.6-2.9-0.9-4.6l-1.2-5.9l2.1-0.4l1.2,6.3
		c0.3,1.6,0.6,3.2,0.9,4.8c0.6,3.1,2.5,4.2,5.6,3.6c2.4-0.5,4.3-2.2,3.6-6l-2.1-10.4L330.7,547z M334.3,546l2.1-0.7l9.8,12l0.4-15.6
		l2.2-0.8l8.4,15.4l-1.9,1l-7-13.2l0,0l-0.2,15.4l-1.9,0.7l-9.6-11.9l0,0l2.7,14.7l-2.1,0.4L334.3,546z M364.6,549.5
		c1.1,0.1,2.6,0,3.8-0.7c1.8-1,2.4-2.7,1.5-4.4c-2.1-3.8-7.9,1.5-10.9-3.8c-1.3-2.3-0.3-5,2.4-6.5c1.5-0.8,3-1.1,4.7-1.1v1.8
		c-1.2-0.1-2.4-0.1-3.8,0.7c-1.3,0.7-2.3,2.4-1.3,4.2c1.9,3.3,8.2-1.2,10.9,3.5c1.3,2.2,0.9,5.2-2.5,7.1c-1.7,0.9-3.1,1.2-4.8,1.1
		L364.6,549.5z M370.9,539.2c-3.1-4.3-1.9-9.7,2.2-12.7c4.2-3,9.4-2.6,12.7,2c3.1,4.3,1.9,9.7-2.2,12.7
		C379.4,544.1,374.2,543.8,370.9,539.2z M372.7,537.8c2.3,3.3,6.5,4.2,9.8,1.9c3.3-2.3,3.7-6.6,1.4-9.9c-2.3-3.3-6.5-4.2-9.8-1.9
		C370.9,530.3,370.4,534.6,372.7,537.8z M392.6,514c-1.7,0.2-2.9,0.9-4.2,2.1c-2.9,2.7-2.9,7-0.2,10c2.7,2.9,7,3.3,9.9,0.6
		c1.1-1,1.9-2.5,2.4-4l1.7,0.5c-0.5,1.7-1.4,3.6-2.8,4.8c-3.8,3.5-9,3.8-12.8-0.4c-3.6-3.9-3.1-9.4,0.6-12.8c1.5-1.4,3-2.1,4.9-2.6
		L392.6,514z M392.5,510l1.5-1.6l12.6,11.9l-1.5,1.6L392.5,510z M399.3,502.1l1.3-1.6l17.6,5.1l-0.8,2.1l-6.2-1.9l-4.4,5.6l3.2,5.8
		l-1.7,1.2L399.3,502.1z M401.4,502.6L401.4,502.6l4.3,7.1l3.5-4.5L401.4,502.6z M419.5,504l-14.5-9.5l1.2-1.8l13,8.5l4-6.2l1.5,1
		L419.5,504z M411,484.9l1-1.9l15,8.5l-1,1.9L411,484.9z M419.2,468.1l9.8,4.5c5,2.4,4.8,6.1,3.4,9.2c-1.5,3.4-4.3,5.5-9.1,3.3
		c-1.3-0.6-2.7-1.2-4.3-2l-5.4-2.5l0.9-2l5.8,2.7c1.5,0.7,3,1.4,4.4,2c2.9,1.3,4.9,0.4,6.1-2.4c1-2.3,0.8-4.8-2.8-6.4l-9.7-4.4
		L419.2,468.1z M420.5,464.6l0.6-2.1l15.5-0.9l-12.4-9.5l0.6-2.2l17.4,2.2l-0.3,2.1l-14.8-2l0,0l12.4,9.2l-0.6,2l-15.3,0.8l0,0
		l13.5,6.4l-0.9,1.9L420.5,464.6z M434.9,441.8c-2.4-0.3-4.1-2.4-3.8-4.8c0.3-2.4,2.4-4.1,4.8-3.8c2.4,0.3,4.1,2.4,3.8,4.8
		S437.3,442.1,434.9,441.8z M150.7,410.1l10.8,0.4c5.5,0.2,6.8,3.8,6.7,7.2c-0.1,3.7-1.8,6.7-7.1,6.5c-1.4,0-2.9-0.1-4.7-0.2l-6-0.2
		l0.1-2.1l6.4,0.2c1.6,0.1,3.3,0.1,4.9,0.2c3.2,0.1,4.6-1.5,4.7-4.6c0.1-2.5-1.2-4.7-5.1-4.8l-10.6-0.4L150.7,410.1z M151.5,405.6
		l-0.5-1.9l15.3-7.4l0,0l-13.5-2.1l0.3-2.2l16.7,2.7l0.4,2l-15.4,7.3l0,0l13.6,2.2l-0.3,2.2L151.5,405.6z M154.3,387.3l0.5-2.1
		l16.8,4.2l-0.5,2.1L154.3,387.3z M155.8,382.6l-0.1-2.3l16.1-0.7l-12.4-10.7l1.2-1.7l13.9,12.3l-0.6,1.9L155.8,382.6z M161.5,364.6
		l3.6-8.1l1.6,0.7l-2.8,6.2l5.3,2.4l2.7-6l1.6,0.7l-2.7,6l5.5,2.5l2.8-6.3l1.6,0.7l-3.7,8.4L161.5,364.6z M166.9,353.1l2.6-4.5
		c1.6-2.8,4.2-4,6.7-2.5c2.5,1.4,2.9,3.9,2,6.2l0,0c0.7-0.9,2.6-1,3.7-1.2l5.7-0.8l0.1,2.2l-6.8,0.8c-1.7,0.2-2.9,0.2-3.7,1.6
		l-0.7,1.2l6.4,3.7l-1.1,1.9L166.9,353.1z M175.1,355.3l1.1-1.9c1-1.8,1.5-4.1-0.7-5.4c-1.6-0.9-3.5-0.8-4.9,1.6l-1.3,2.2
		L175.1,355.3z M186.7,348.4c1.1-0.4,2.4-1.1,3.2-2.3c1.2-1.7,1-3.5-0.6-4.6c-3.6-2.5-6.5,4.7-11.5,1.3c-2.2-1.5-2.5-4.4-0.7-6.9
		c1-1.4,2.3-2.3,3.7-3l0.8,1.6c-1.1,0.5-2.2,0.9-3.2,2.3c-0.9,1.2-1.1,3.2,0.6,4.4c3.1,2.2,6.9-4.7,11.3-1.6c2.1,1.5,3,4.3,0.9,7.4
		c-1.1,1.6-2.3,2.4-3.9,3.1L186.7,348.4z M182.4,329.3l1.4-1.7l13.4,11l-1.4,1.7L182.4,329.3z M185.6,325.3l8.9-9.6l1.3,1.2l-3.7,4
		l11.2,10.7l-1.5,1.6l-11.2-10.7l-3.7,4L185.6,325.3z M199.2,311.5l1.5-1.4l16.4,8.1l-1.1,2l-5.8-3l-5.3,4.8l2.2,6.2l-1.9,0.9
		L199.2,311.5z M201.3,312.3L201.3,312.3l3,7.8l4.2-3.8L201.3,312.3z M216.6,316c1.1,0,2.6-0.3,3.7-1.1c1.6-1.2,2.1-3,0.9-4.6
		c-2.6-3.6-7.7,2.4-11.2-2.5c-1.6-2.2-0.9-5,1.6-6.8c1.4-1,2.9-1.5,4.5-1.6l0.3,1.8c-1.2,0.1-2.4,0.2-3.7,1.1
		c-1.2,0.9-2,2.6-0.8,4.3c2.2,3.1,8-2.2,11.2,2.2c1.5,2.1,1.5,5.1-1.6,7.3c-1.5,1.1-2.9,1.5-4.7,1.7L216.6,316z M226.5,291.8l2-1
		l11.1,10.8l-1.3-15.6l2.1-1l10.1,14.3l-1.7,1.2l-8.5-12.3l0,0l1.5,15.3l-1.8,0.9l-10.8-10.8l0,0l4.3,14.3l-2,0.6L226.5,291.8z
		 M251.3,281.2l1.9-0.6l11.8,14l-1.8,1.3l-4.1-5.1l-6.8,2.2l-0.5,6.6h-2.1L251.3,281.2z M252.8,282.7L252.8,282.7l-0.4,8.3l5.4-1.8
		L252.8,282.7z M265.4,292.4c1,0.5,2.5,0.8,3.9,0.5c2-0.4,3.1-1.9,2.7-3.8c-0.9-4.3-8-0.9-9.3-6.8c-0.6-2.6,1.2-4.9,4.2-5.6
		c1.7-0.4,3.2-0.2,4.8,0.3l-0.5,1.7c-1.1-0.4-2.3-0.8-3.9-0.5c-1.5,0.3-2.9,1.6-2.5,3.6c0.8,3.7,8.2,1.2,9.4,6.5
		c0.5,2.5-0.7,5.2-4.4,6c-1.9,0.4-3.3,0.2-4.9-0.3L265.4,292.4z M280.1,274.8l2-0.2l8.7,16.1l-2.1,0.9l-3-5.8l-7.1,0.8l-1.8,6.3
		l-2.1-0.4L280.1,274.8z M281.3,276.6L281.3,276.6l-2.1,8.1l5.6-0.6L281.3,276.6z M291.8,273.8l5.2-0.1c3.3-0.1,5.5,1.6,5.6,4.5
		c0,2.8-1.9,4.5-4.3,4.9l0,0c1.2,0.2,2.2,1.8,2.9,2.6l3.5,4.5l-1.9,1.2l-4.2-5.5c-1.1-1.4-1.6-2.3-3.3-2.3h-1.4v7.4h-2.2
		L291.8,273.8z M294,282h2.1c2.1,0,4.3-0.8,4.3-3.3c0-1.8-1.1-3.5-3.9-3.4h-2.6L294,282z M309.9,284.2l-5.2-9.7l2-0.9l4.5,9.1l6.4-8
		l1.8,1.3l-7.4,8.5l-0.9,7.4l-2.1-0.2L309.9,284.2z M322.2,275.7l2.1,0.4l-1.8,8.3l-1.8,8.6l-2.1-0.4L322.2,275.7z M322.5,284.4
		l10.2-6.9l1.2,1.6l-8.8,5.8l5.8,9.1l-1.9,1.1L322.5,284.4z M337.5,279.2l2.1,0.6l-4.9,16.6l-2.1-0.6L337.5,279.2z M349.2,283
		l1.9,0.7l0.4,18.3l-2.3-0.1v-6.5l-6.7-2.5l-4.5,4.8l-1.6-1.3L349.2,283z M349.4,285.2L349.4,285.2l-5.5,6.2l5.3,2L349.4,285.2z
		 M359.8,287.8l2,0.2l2,16.9l0,0l6.4-12.1l1.9,1l-8,14.9l-2-0.3l-1.8-16.9l0,0l-6.5,12.2l-1.9-1L359.8,287.8z M380.3,299.1l1.7,1.2
		l-4,17.9l-2.2-0.6l1.5-6.4l-5.9-4.1l-5.5,3.6l-1.3-1.6L380.3,299.1z M380,301.3L380,301.3l-6.9,4.8l4.7,3.2L380,301.3z
		 M395.2,310.7l3.5,3.3c2.8,2.6,2.1,5.2,0.8,6.6c-1.5,1.5-3.1,1.8-5,0.8l0,0c1.3,1.8,1.1,3.8-0.4,5.4c-2.1,2.2-4.9,2-7.4-0.4
		l-3.5-3.3L395.2,310.7z M386,323.4l1.8,1.7c1.6,1.5,3.3,1.8,4.9,0c1.4-1.5,1.1-3.4-0.7-5.1l-1.5-1.4L386,323.4z M391.7,317.5
		l1.2,1.1c2.1,1.9,3.7,1.9,5,0.6c1.3-1.4,1.3-2.9-0.8-4.8l-1.3-1.2L391.7,317.5z M405.4,320.5l3.4,3.9c2.1,2.5,2.3,5.3,0.2,7.1
		c-2.1,1.9-4.6,1.5-6.5-0.1l0,0c0.6,1,0,2.8-0.2,3.9l-1.2,5.6l-2.1-0.7l1.5-6.7c0.4-1.7,0.7-2.8-0.3-4l-0.9-1l-5.7,4.8l-1.4-1.6
		L405.4,320.5z M400.5,327.5l1.4,1.6c1.4,1.6,3.4,2.8,5.3,1.1c1.4-1.2,1.9-3.1,0.1-5.2l-1.7-1.9L400.5,327.5z M423.1,343.6l-8.9,6
		c-4.6,3.1-7.7,0.9-9.6-1.9c-2.1-3.1-2.4-6.5,1.9-9.5c1.2-0.8,2.4-1.6,3.9-2.6l5-3.3l1.2,1.8l-5.3,3.6c-1.4,0.9-2.7,1.8-4.1,2.7
		c-2.6,1.8-2.9,4-1.1,6.5c1.4,2.1,3.7,3.2,6.9,0.9l8.8-6L423.1,343.6z M425.1,347.8l1.5,1.2l-8.1,14.9l0,0l12.2-6.2l1,1.9l-15.1,7.6
		l-1.5-1.3l8.2-14.9l0,0l-12.3,6.2l-1-1.9L425.1,347.8z M433.5,364l3.2,8.3L435,373l-2.4-6.3l-5.5,2.1l2.4,6.2l-1.7,0.7l-2.4-6.1
		l-5.6,2.1l2.5,6.5l-1.7,0.7l-3.3-8.5L433.5,364z M437.6,376l1.2,1.5l-11,12.9l0,0l13.2-3.5l0.6,2.1l-16.4,4.3l-1.2-1.6l11.2-12.9
		l0,0l-13.3,3.5l-0.6-2.1L437.6,376z M427.8,395.8c-0.5,1-0.9,2.5-0.7,3.8c0.3,2,1.7,3.2,3.6,2.9c4.3-0.7,1.4-7.9,7.3-8.9
		c2.6-0.4,4.8,1.4,5.3,4.5c0.3,1.7,0,3.2-0.6,4.8l-1.7-0.6c0.5-1.1,0.9-2.2,0.7-3.8c-0.2-1.5-1.4-3-3.5-2.7c-3.8,0.6-1.7,8.1-7,9
		c-2.5,0.4-5.2-1-5.8-4.7c-0.3-1.9,0-3.3,0.6-4.9L427.8,395.8z M444.1,406.5l0.2,2.1l-17.2,1.4l-0.2-2.1L444.1,406.5z M430,413.6
		c-0.7,0.9-1.2,2.3-1.2,3.7c0,2,1.3,3.4,3.2,3.4c4.4-0.1,2.4-7.7,8.5-7.8c2.7-0.1,4.6,2.1,4.7,5.1c0,1.7-0.5,3.2-1.2,4.6l-1.6-0.8
		c0.7-1,1.2-2.1,1.2-3.7c0-1.5-1-3.2-3.1-3.1c-3.8,0.1-2.7,7.8-8.2,8c-2.6,0.1-5-1.7-5.1-5.5c0-1.9,0.4-3.3,1.3-4.8L430,413.6z"/>
</g>
</svg>
