<?xml version="1.0" encoding="utf-8"?>
<!-- Generator: Adobe Illustrator 18.1.1, SVG Export Plug-In . SVG Version: 6.00 Build 0)  -->
<!DOCTYPE svg PUBLIC "-//W3C//DTD SVG 1.1//EN" "http://www.w3.org/Graphics/SVG/1.1/DTD/svg11.dtd">
<svg version="1.1" id="Vrstva_1" xmlns="http://www.w3.org/2000/svg" xmlns:xlink="http://www.w3.org/1999/xlink" x="0px" y="0px"
	 viewBox="0 0 336 331" enable-background="new 0 0 336 331" xml:space="preserve">
<g>
	<path d="M137.7,275.7c-0.1,0-0.2,0-0.4,0l0,0c0,0,0,0,0,0c-0.2,0-0.3-0.1-0.5-0.1c0,0,0,0,0,0c-0.1,0-0.2-0.1-0.3-0.1c0,0,0,0,0,0
		c0,0,0,0,0,0c-0.3-0.1-0.5-0.3-0.7-0.6l-62.4-73.1c-0.1-0.1-0.1-0.2-0.2-0.3l0,0c0,0,0,0,0,0c0,0,0,0,0,0c0,0,0-0.1-0.1-0.1
		c0,0,0,0,0,0c-0.2-0.4-0.3-0.8-0.3-1.2l0.2-66.5c0-0.1,0-0.1,0-0.2c0-0.2,0.1-0.4,0.1-0.6c0,0,0,0,0,0c0.1-0.3,0.3-0.7,0.6-0.9l0,0
		h0c0,0,0.1-0.1,0.1-0.1l46.2-42.2c0.1-0.1,0.3-0.3,0.5-0.4c0.1-0.1,0.2-0.1,0.3-0.1L202.5,57c0.1,0,0.1,0,0.2-0.1
		c0.4-0.1,0.8-0.1,1.2-0.1c0.1,0,0.3,0.1,0.4,0.1l0,0l0,0c0.1,0,0.2,0.1,0.3,0.1l0,0c0,0,0,0,0,0v0l0,0c0.3,0.1,0.6,0.4,0.8,0.6
		l62.6,73.5c0.1,0.1,0.1,0.2,0.2,0.2v0c0,0,0,0,0,0c0,0.1,0.1,0.1,0.1,0.2c0,0,0,0,0,0v0c0.2,0.4,0.3,0.8,0.3,1.2v65.9
		c0,0.1,0,0.1,0,0.2c0,0,0,0,0,0v0c0,0,0,0,0,0v0c0,0.2-0.1,0.4-0.1,0.6c-0.1,0.3-0.3,0.7-0.5,0.9c0,0.1-0.1,0.1-0.1,0.1l-46.4,42.2
		c-0.1,0.1-0.3,0.2-0.5,0.3c0,0,0,0,0,0c0,0,0,0,0,0c-0.1,0.1-0.2,0.1-0.3,0.1l-81.9,32.3c-0.1,0-0.1,0-0.2,0.1c0,0,0,0,0,0
		C138.2,275.7,137.9,275.7,137.7,275.7L137.7,275.7z M140.1,207.9v59.9l40.6-36.5l-24.2-29.5L140.1,207.9L140.1,207.9z M79.3,201.2
		l56,65.5v-59.5l-18.4-20.9L79.3,201.2L79.3,201.2z M185.4,233.7l-36,32.4l66.1-26.1l-11.9-13.4L185.4,233.7L185.4,233.7z
		 M221.8,219.3l0.1,16.2l32.3-29.4L221.8,219.3L221.8,219.3z M208.4,224.7l8.7,9.8l-0.1-13.3L208.4,224.7L208.4,224.7z M186.5,206.9
		V228l13.6-5.3L186.5,206.9L186.5,206.9z M161.3,199.9l20.4,24.8v-23.5l-5.7-7L161.3,199.9L161.3,199.9z M186.5,199.4l18.4,21.4
		l12-4.8l0-38.4l-30.5,12.6V199.4L186.5,199.4z M221.8,175l0,39l40.1-16.3l-28.6-33L221.8,175L221.8,175z M121.6,184.4l16.3,18.5
		l11.6-9.4l-13.2-15L121.6,184.4L121.6,184.4z M156.4,194l1.6,2l14.6-5.8l-5.2-6.1L156.4,194L156.4,194z M77.8,140.2l-0.1,54.6
		l26.8-23.6L77.8,140.2L77.8,140.2z M107.6,175l-20.2,17.8l26.2-10.4L107.6,175L107.6,175z M236.9,161.5l26.6,30.7v-54.1
		L236.9,161.5L236.9,161.5z M141.1,176.5l12.2,13.8l11.1-9.9l-8.1-10.1L141.1,176.5L141.1,176.5z M171,180.9l6.5,7.5l4.1-1.5l0-16
		L171,180.9L171,180.9z M186.5,166.8l0,18.1l28.8-11.9l-11.7-13.1L186.5,166.8L186.5,166.8z M111.2,171.7l7.1,8.8l14.5-5.9
		l-11.3-12.4L111.2,171.7L111.2,171.7z M160.3,167.6l7.6,9.5l12.8-12.1l-7.6-9.1L160.3,167.6L160.3,167.6z M125.8,159.7l11.8,12.9
		l16.9-6.9v-17.9L125.8,159.7L125.8,159.7z M208.3,157.9l11.2,12.6l10.5-9.4l-7.7-9L208.3,157.9L208.3,157.9z M79.5,134.6l28.6,33.3
		l11.1-10.2v-39.2L79.5,134.6L79.5,134.6z M176.7,152.6l8.1,9.7l15.4-6.2l-11.9-13.9L176.7,152.6L176.7,152.6z M159.4,145.9v16
		l10.6-9.7l-6.5-7.8L159.4,145.9L159.4,145.9z M227.2,150.2l6.5,7.6l20.4-17.9L227.2,150.2L227.2,150.2z M124,116.6v38.6l30.5-12.6
		v-8.4l-18.6-22.4L124,116.6L124,116.6z M192,138.9l13,15.2l14.2-5.9l-16-18.7L192,138.9L192,138.9z M168.3,142.5l5.3,6.3l11.5-10.4
		l-1.7-1.9L168.3,142.5L168.3,142.5z M205.8,125.2l18.1,21.1l38-14.6l-56.1-65.8V125.2L205.8,125.2z M159.4,132.4l5.6,6.2l15.1-6
		l-20.7-25.3V132.4L159.4,132.4z M160.3,100.7l24.5,30l16.1-6.3V64.7L160.3,100.7L160.3,100.7z M140.6,109.8l13.9,16.7v-22.4
		L140.6,109.8L140.6,109.8z M119.2,96.9L87,126.3l32.1-13V96.9L119.2,96.9z M124,98v13.3l8.5-3.4L124,98L124,98z M125.7,92.4
		l11.6,13.5l18.3-7.6l35.9-31.8L125.7,92.4L125.7,92.4z"/>
	<circle fill-rule="evenodd" clip-rule="evenodd" cx="41.6" cy="194" r="4.2"/>
	<path d="M41.6,198.5c-2.5,0-4.5-2-4.5-4.5c0-2.5,2-4.5,4.5-4.5c2.5,0,4.5,2,4.5,4.5C46.1,196.5,44.1,198.5,41.6,198.5L41.6,198.5z
		 M41.6,190.1c-2.1,0-3.9,1.7-3.9,3.9c0,2.1,1.7,3.9,3.9,3.9c2.1,0,3.9-1.7,3.9-3.9C45.4,191.8,43.7,190.1,41.6,190.1L41.6,190.1z"
		/>
	<circle fill-rule="evenodd" clip-rule="evenodd" cx="300.5" cy="194" r="4.2"/>
	<path d="M300.5,198.5c-2.5,0-4.5-2-4.5-4.5c0-2.5,2-4.5,4.5-4.5c2.5,0,4.5,2,4.5,4.5C305,196.5,303,198.5,300.5,198.5L300.5,198.5z
		 M300.5,190.1c-2.1,0-3.9,1.7-3.9,3.9c0,2.1,1.7,3.9,3.9,3.9c2.1,0,3.9-1.7,3.9-3.9C304.4,191.8,302.6,190.1,300.5,190.1
		L300.5,190.1z"/>
	<path d="M295.3,215.8l-1.6,4l-4.8-6.6l0,0L295.3,215.8z M301.6,218.3l3.1-7.6l-1.5-0.6l-2.4,5.8l-5-2.1l2.2-5.5l-1.5-0.6l-2.3,5.6
		l-4.9-2l2.3-5.7l-1.5-0.6l-3.3,8l10.1,15l1.4-1.1l-3.7-5.5l2-5L301.6,218.3z M296.1,231.3l0.8-1.8l-14.1-6.7l-0.8,1.8L296.1,231.3z
		 M277.8,234.2l1.2-2c0.3-0.5,0.7-1,1-1.2c0.4-0.3,0.8-0.5,1.1-0.6c0.4-0.1,0.8-0.1,1.2,0c0.4,0.1,0.8,0.2,1.1,0.5
		c0.5,0.3,0.8,0.6,1,1c0.2,0.4,0.3,0.8,0.3,1.2c0,0.4-0.1,0.9-0.2,1.3c-0.2,0.4-0.4,0.9-0.6,1.3l-1,1.7L277.8,234.2z M289,243.3
		l1-1.7l-5.7-3.5l0.6-1.1c0.2-0.3,0.4-0.6,0.6-0.7c0.2-0.2,0.5-0.3,0.7-0.4c0.3-0.1,0.6-0.1,0.9-0.2c0.3,0,0.7-0.1,1.1-0.1l6.2-0.6
		l0-2l-5.2,0.5c-0.3,0-0.6,0.1-0.9,0.1c-0.3,0-0.6,0.1-1,0.1c-0.3,0.1-0.6,0.1-0.9,0.3c-0.3,0.1-0.5,0.3-0.7,0.5l0,0
		c0.2-0.5,0.4-1,0.4-1.5c0.1-0.5,0-1-0.1-1.5c-0.1-0.5-0.4-1-0.7-1.4c-0.3-0.4-0.8-0.8-1.3-1.1c-0.6-0.3-1.1-0.5-1.7-0.6
		c-0.6-0.1-1.1,0-1.6,0.2c-0.5,0.2-1,0.5-1.5,0.9c-0.5,0.4-0.9,1-1.3,1.6l-2.4,4L289,243.3z M271.2,254.5c0.8,0.6,1.7,1,2.5,1.3
		c0.8,0.3,1.7,0.4,2.5,0.4c0.8,0,1.6-0.2,2.4-0.5c0.8-0.3,1.5-0.7,2.2-1.2c0.7-0.5,1.3-1.2,1.8-1.9c0.5-0.8,1-1.5,1.2-2.4
		c0.3-0.8,0.4-1.6,0.5-2.5c0-0.8-0.1-1.7-0.3-2.4c-0.2-0.8-0.6-1.5-1.1-2.3c-0.5-0.7-1.1-1.3-1.9-1.9c-0.8-0.6-1.7-1-2.5-1.3
		c-0.8-0.3-1.7-0.4-2.5-0.4c-0.8,0-1.6,0.2-2.4,0.5c-0.8,0.3-1.5,0.7-2.2,1.2c-0.7,0.5-1.3,1.2-1.8,1.9c-0.5,0.8-1,1.5-1.2,2.4
		c-0.3,0.8-0.4,1.6-0.5,2.5c0,0.8,0.1,1.6,0.3,2.4c0.2,0.8,0.6,1.5,1.1,2.3C269.8,253.3,270.4,253.9,271.2,254.5 M272.4,252.8
		c-0.7-0.5-1.3-1.2-1.8-1.9c-0.5-0.7-0.8-1.5-0.9-2.2c-0.2-0.8-0.1-1.6,0-2.4c0.2-0.8,0.5-1.6,1.1-2.3c0.5-0.7,1.2-1.3,1.9-1.7
		c0.7-0.4,1.5-0.7,2.3-0.8c0.8-0.1,1.6,0,2.4,0.2c0.8,0.2,1.6,0.6,2.3,1.1c0.7,0.5,1.3,1.2,1.8,1.9c0.5,0.7,0.8,1.5,0.9,2.2
		c0.2,0.8,0.1,1.6,0,2.4c-0.2,0.8-0.5,1.6-1.1,2.3c-0.5,0.7-1.2,1.3-1.9,1.7c-0.7,0.4-1.5,0.7-2.3,0.8c-0.8,0.1-1.6,0-2.4-0.2
		C273.9,253.7,273.2,253.4,272.4,252.8z M258.1,258.4l3.5-3.5l9.8,10l1.4-1.4l-9.8-10l3.5-3.5l-1.1-1.1l-8.4,8.3L258.1,258.4z
		 M260.8,265.6l-3.9,3.3l-2.5-7.1l0,0L260.8,265.6z M257.5,277l1.7-0.7l-1.8-5.7l4.9-4.1l5.2,2.8l1.1-1.7l-14.6-7.7l-1.4,1.2
		L257.5,277z M240.8,272.5l3.9-3l8.3,11.2l1.6-1.2l-8.3-11.2l3.9-3l-1-1.3l-9.4,7.1L240.8,272.5z M237.2,272.4l5,8.2
		c0.5,0.8,0.8,1.4,0.9,2.1c0.1,0.6,0.1,1.2,0,1.7c-0.1,0.5-0.4,1-0.7,1.4c-0.3,0.4-0.8,0.8-1.3,1.1c-1.2,0.7-2.2,1-3.2,0.8
		c-1-0.2-1.8-0.9-2.6-2.1c-0.4-0.6-0.8-1.2-1.1-1.9c-0.4-0.6-0.8-1.3-1.1-1.9l-3-4.9l-1.6,1l2.8,4.6c0.4,0.7,0.8,1.3,1.2,1.9
		c0.4,0.6,0.7,1.2,1,1.7c0.6,1,1.3,1.8,2,2.3c0.7,0.5,1.4,0.8,2.1,0.9c0.7,0.1,1.4,0.1,2.2-0.1c0.7-0.2,1.5-0.5,2.2-1
		c0.5-0.3,1-0.7,1.5-1.1c0.4-0.4,0.8-0.9,1.1-1.4c0.3-0.5,0.5-1.1,0.6-1.7c0.1-0.6,0.1-1.3-0.1-2c-0.2-0.7-0.5-1.5-1-2.4l-5.1-8.3
		L237.2,272.4z M224.3,296.6l1.8-0.8l-2.4-6l2.1-0.9c0.5-0.2,0.9-0.5,1.4-0.8c0.4-0.3,0.8-0.6,1.2-1c0.4-0.4,0.6-0.8,0.8-1.3
		c0.2-0.5,0.3-1,0.3-1.6c0-0.6-0.1-1.2-0.4-1.8c-0.3-0.7-0.7-1.2-1.1-1.7c-0.4-0.4-0.9-0.7-1.5-0.9c-0.6-0.2-1.1-0.2-1.8-0.2
		c-0.6,0.1-1.3,0.2-2,0.5l-4.3,1.8L224.3,296.6z M220.6,282.7l2.2-0.9c0.6-0.2,1.1-0.4,1.6-0.4c0.5,0,0.9,0.1,1.3,0.2
		c0.4,0.2,0.7,0.4,0.9,0.7c0.3,0.3,0.5,0.6,0.6,1c0.2,0.5,0.3,1,0.3,1.4c0,0.4-0.1,0.8-0.3,1.2c-0.2,0.4-0.5,0.7-0.8,0.9
		c-0.3,0.3-0.7,0.5-1.1,0.6l-2.3,1L220.6,282.7z M203.6,303.8l1.9-0.3l-2.1-13.3l0,0l8.3,11l1.8-0.6l0.6-13.9l0,0l6,12.1l1.7-0.9
		l-7.2-14.1l-2,0.6l-0.8,14.1l-8.5-11.1l-1.9,0.6L203.6,303.8z M183.7,298.9c0.2,1,0.4,1.9,0.8,2.7c0.4,0.8,0.9,1.5,1.5,2
		c0.6,0.6,1.3,1,2,1.4c0.7,0.3,1.6,0.6,2.4,0.7c0.9,0.1,1.7,0.1,2.7-0.1c0.9-0.2,1.8-0.4,2.5-0.8c0.8-0.4,1.5-0.9,2.1-1.4
		c0.6-0.6,1.1-1.2,1.5-2c0.4-0.7,0.7-1.5,0.8-2.4c0.1-0.9,0.1-1.8,0-2.7c-0.2-1-0.4-1.9-0.8-2.7c-0.4-0.8-0.9-1.5-1.5-2
		c-0.6-0.6-1.3-1-2-1.4c-0.7-0.3-1.6-0.6-2.4-0.7c-0.9-0.1-1.7-0.1-2.7,0.1c-0.9,0.1-1.8,0.4-2.5,0.8c-0.8,0.4-1.5,0.9-2.1,1.4
		c-0.6,0.6-1.1,1.2-1.5,2c-0.4,0.7-0.7,1.5-0.8,2.4C183.6,297,183.6,297.9,183.7,298.9 M185.8,298.6c-0.1-0.9-0.1-1.8,0.1-2.6
		c0.2-0.8,0.5-1.6,0.9-2.2c0.5-0.7,1-1.2,1.7-1.7c0.7-0.4,1.5-0.7,2.4-0.9c0.9-0.1,1.8-0.1,2.5,0.1c0.8,0.2,1.5,0.6,2.2,1.1
		c0.6,0.5,1.2,1.1,1.6,1.8c0.4,0.7,0.7,1.5,0.8,2.4c0.1,0.9,0.1,1.8-0.1,2.6c-0.2,0.8-0.5,1.6-0.9,2.2c-0.5,0.7-1,1.2-1.7,1.7
		c-0.7,0.4-1.5,0.7-2.4,0.9c-0.9,0.1-1.7,0.1-2.5-0.1c-0.8-0.2-1.5-0.6-2.2-1.1c-0.6-0.5-1.2-1.1-1.6-1.8
		C186.2,300.3,185.9,299.5,185.8,298.6z M182.3,292.1c-0.5-0.2-1-0.4-1.5-0.6c-0.5-0.2-1.1-0.3-1.6-0.3c-0.6-0.1-1.1-0.1-1.7-0.1
		c-0.9,0.1-1.8,0.2-2.6,0.5c-0.8,0.3-1.6,0.7-2.2,1.2c-0.7,0.5-1.2,1.1-1.7,1.8c-0.5,0.7-0.8,1.5-1,2.3c-0.2,0.8-0.3,1.7-0.3,2.7
		c0.1,1,0.2,1.9,0.6,2.8c0.3,0.8,0.7,1.6,1.3,2.2c0.5,0.6,1.2,1.2,1.9,1.6c0.7,0.4,1.5,0.7,2.3,0.9c0.8,0.2,1.7,0.3,2.6,0.2
		c0.6,0,1.1-0.1,1.6-0.3c0.5-0.2,1.1-0.4,1.6-0.6c0.5-0.2,1-0.5,1.5-0.8l-0.8-1.3c-0.4,0.3-0.8,0.5-1.2,0.7
		c-0.4,0.2-0.9,0.4-1.3,0.5c-0.5,0.1-0.9,0.2-1.4,0.2c-0.9,0-1.8-0.1-2.5-0.4c-0.8-0.3-1.4-0.7-2-1.3c-0.6-0.6-1-1.2-1.4-2
		c-0.3-0.8-0.5-1.6-0.6-2.5c0-0.9,0.1-1.8,0.3-2.6c0.3-0.8,0.7-1.5,1.2-2.1c0.5-0.6,1.1-1.1,1.9-1.5c0.7-0.4,1.6-0.6,2.5-0.6
		c0.8,0,1.5,0,2.1,0.2c0.7,0.2,1.3,0.4,2,0.8L182.3,292.1z M159.5,307l1.9,0.2l1.8-15.5l-1.9-0.2L159.5,307z M147.3,305.2l8.1,1.3
		l0.3-1.6l-6.2-1l0.9-5.4l5.9,0.9l0.3-1.6l-5.9-0.9l0.9-5.2l6,1l0.3-1.6l-7.9-1.3L147.3,305.2z M139.5,288.8l2.2,0.6
		c0.6,0.2,1.1,0.4,1.5,0.7c0.4,0.3,0.7,0.6,0.9,0.9c0.2,0.4,0.3,0.7,0.3,1.1c0,0.4,0,0.8-0.1,1.2c-0.2,0.5-0.4,1-0.7,1.3
		c-0.3,0.3-0.7,0.5-1.1,0.6c-0.4,0.1-0.9,0.2-1.3,0.1c-0.5,0-0.9-0.1-1.4-0.2l-1.9-0.5L139.5,288.8z M133.8,302l1.9,0.5l1.8-6.4
		l1.2,0.3c0.4,0.1,0.6,0.2,0.9,0.4c0.2,0.2,0.4,0.4,0.6,0.6c0.1,0.2,0.3,0.5,0.4,0.8c0.1,0.3,0.3,0.6,0.4,1l2.3,5.8l1.9-0.6
		l-1.9-4.8c-0.1-0.2-0.2-0.5-0.3-0.8c-0.1-0.3-0.3-0.6-0.4-0.9c-0.1-0.3-0.3-0.6-0.5-0.8c-0.2-0.2-0.4-0.4-0.6-0.5l0,0
		c0.5,0.1,1.1,0.1,1.6,0c0.5-0.1,1-0.3,1.4-0.5c0.4-0.3,0.8-0.6,1.1-1c0.3-0.4,0.6-1,0.7-1.6c0.2-0.6,0.2-1.2,0.1-1.8
		c-0.1-0.6-0.3-1.1-0.6-1.5c-0.3-0.5-0.8-0.8-1.3-1.2c-0.5-0.3-1.2-0.6-1.9-0.8l-4.5-1.2L133.8,302z M107.2,292.2l1.6,1l7.2-11.4
		l0,0l-0.9,13.7l1.7,0.7l9.6-10.1l0,0l-3.4,13l1.9,0.5l3.8-15.3l-1.9-0.8l-9.8,10.1l0.8-13.9l-1.8-0.8L107.2,292.2z M111.2,276.4
		l-5.2,8.1c-0.5,0.7-1,1.3-1.5,1.7c-0.5,0.4-1,0.6-1.5,0.7c-0.5,0.1-1,0.1-1.5-0.1c-0.5-0.1-1-0.4-1.5-0.7c-1.2-0.7-1.9-1.6-2.1-2.5
		c-0.3-1,0-2,0.7-3.2c0.4-0.6,0.8-1.2,1.2-1.8c0.4-0.6,0.8-1.2,1.2-1.9l3.1-4.8l-1.6-1l-2.9,4.6c-0.4,0.7-0.8,1.3-1.2,1.9
		c-0.4,0.6-0.7,1.2-1.1,1.7c-0.6,1-1,1.9-1.2,2.8c-0.2,0.8-0.1,1.6,0.1,2.3c0.2,0.7,0.6,1.3,1.1,1.9c0.5,0.6,1.1,1.1,1.8,1.5
		c0.5,0.3,1.1,0.6,1.6,0.8c0.6,0.2,1.2,0.4,1.7,0.4c0.6,0.1,1.2,0,1.8-0.2c0.6-0.2,1.2-0.5,1.8-1c0.6-0.5,1.1-1.1,1.7-2l5.2-8.2
		L111.2,276.4z M90.9,264.7l3.9,3l-8.5,11.1l1.5,1.2l8.5-11.1l3.9,3l1-1.3l-9.4-7.1L90.9,264.7z M89.9,261.9l-6.6,7
		c-0.6,0.6-1.2,1.1-1.8,1.4c-0.6,0.3-1.1,0.4-1.7,0.4c-0.5,0-1-0.1-1.5-0.3c-0.5-0.2-0.9-0.5-1.3-0.9c-1-0.9-1.6-1.9-1.6-2.9
		c-0.1-1,0.4-2,1.3-3c0.5-0.5,1-1.1,1.5-1.6c0.5-0.5,1-1.1,1.5-1.6l4-4.2l-1.4-1.3l-3.7,3.9c-0.5,0.6-1.1,1.1-1.6,1.6
		c-0.5,0.5-1,1-1.4,1.5c-0.8,0.9-1.4,1.7-1.7,2.5c-0.3,0.8-0.4,1.6-0.4,2.3c0.1,0.7,0.3,1.4,0.7,2.1c0.4,0.7,0.9,1.3,1.5,1.8
		c0.4,0.4,0.9,0.8,1.4,1.1c0.5,0.3,1.1,0.6,1.6,0.7c0.6,0.2,1.2,0.2,1.8,0.2c0.6-0.1,1.3-0.3,1.9-0.6c0.7-0.4,1.3-0.9,2-1.6l6.7-7
		L89.9,261.9z M72.6,246.3l3.3,3.7l-10.5,9.2l1.3,1.4l10.5-9.2l3.3,3.7l1.2-1.1l-7.9-8.8L72.6,246.3z M59.4,252.1l1.1,1.6l12.7-9
		l-1.1-1.6L59.4,252.1z M62.8,232.5l2.8,4.1l-11.7,7.7l1.1,1.6l11.7-7.7l2.8,4.1l1.3-0.9l-6.6-9.8L62.8,232.5z M46.5,229.6
		c0,0.5,0,1,0,1.5c0,0.5,0.1,1,0.3,1.4c0.1,0.5,0.3,1,0.6,1.5c0.4,0.8,0.9,1.3,1.4,1.8c0.5,0.4,1.1,0.8,1.6,0.9
		c0.6,0.2,1.1,0.2,1.7,0.2c0.6-0.1,1.1-0.2,1.6-0.5c0.5-0.3,1-0.6,1.3-1c0.3-0.4,0.5-0.8,0.7-1.3c0.1-0.4,0.2-0.9,0.2-1.4
		c0-0.5,0-1,0-1.5c0-0.5,0-1-0.1-1.4c0-0.5,0-0.9,0.1-1.3c0.1-0.4,0.2-0.8,0.4-1.1c0.2-0.3,0.5-0.6,0.8-0.8c0.4-0.2,0.8-0.3,1.2-0.3
		c0.4,0,0.7,0.1,1.1,0.2c0.3,0.1,0.6,0.3,0.9,0.6c0.3,0.2,0.5,0.5,0.6,0.8c0.2,0.4,0.4,0.8,0.5,1.2c0.1,0.4,0.1,0.8,0.1,1.1
		c0,0.4,0,0.7-0.1,1.1l1.6,0c0-0.7,0-1.4-0.1-2.2c-0.1-0.7-0.4-1.4-0.7-2.1c-0.3-0.6-0.7-1.1-1.2-1.5c-0.4-0.4-0.9-0.7-1.5-0.9
		c-0.5-0.2-1.1-0.3-1.6-0.3c-0.6,0-1.1,0.2-1.6,0.5c-0.6,0.3-1.1,0.7-1.4,1.1c-0.3,0.4-0.6,0.8-0.7,1.3c-0.1,0.4-0.2,0.9-0.2,1.4
		c0,0.5,0,0.9,0,1.4c0,0.5,0.1,0.9,0.1,1.4c0,0.5,0,0.9-0.1,1.3c-0.1,0.4-0.2,0.8-0.4,1.1c-0.2,0.3-0.5,0.6-1,0.8
		c-0.5,0.3-1,0.4-1.5,0.4c-0.5,0-1-0.2-1.4-0.5c-0.4-0.3-0.8-0.7-1.1-1.3c-0.2-0.4-0.3-0.7-0.4-1.1c-0.1-0.4-0.1-0.8-0.2-1.2
		c0-0.4,0-0.8,0-1.1L46.5,229.6z M39.3,216.1l0.7,1.8l11.6-4.6l0,0L43,226.1l1.2,1.3l14.2-5.6l-0.7-1.8l-11.5,4.5l0,0l8.5-12.7
		l-1.3-1.2L39.3,216.1z M37,209.3l0.6,1.9l15-4.4l-0.6-1.9L37,209.3z"/>
	<path d="M177.7,307.4c-0.7,0-1.5-0.1-2.1-0.2c-0.8-0.2-1.6-0.5-2.3-0.9c-0.7-0.4-1.4-1-1.9-1.6c-0.5-0.6-1-1.4-1.3-2.2
		c-0.3-0.8-0.5-1.8-0.6-2.8c0-1,0-1.9,0.3-2.7c0.2-0.9,0.6-1.6,1.1-2.3c0.5-0.7,1-1.3,1.7-1.8c0.7-0.5,1.4-0.9,2.2-1.2
		c0.8-0.3,1.7-0.5,2.6-0.5c0.6,0,1.2,0,1.8,0.1c0.6,0.1,1.1,0.2,1.6,0.4c0.5,0.2,1,0.4,1.6,0.6l-0.7,1.7c-0.8-0.3-1.4-0.6-2.1-0.7
		c-0.5-0.1-1.1-0.2-1.6-0.2l-0.5,0c-0.9,0-1.7,0.3-2.4,0.6c-0.7,0.4-1.3,0.8-1.9,1.5c-0.5,0.6-0.9,1.3-1.2,2.1
		c-0.3,0.8-0.4,1.6-0.3,2.5c0,0.9,0.2,1.7,0.6,2.5c0.3,0.8,0.8,1.4,1.4,2c0.6,0.5,1.2,1,2,1.3c0.7,0.3,1.4,0.4,2.1,0.4l0.3,0
		c0.5,0,0.9-0.1,1.3-0.2c0.4-0.1,0.9-0.3,1.3-0.5c0.4-0.2,0.8-0.4,1.2-0.7l1,1.4c-0.5,0.5-1,0.7-1.5,1c-0.5,0.3-1.1,0.5-1.6,0.6
		c-0.6,0.2-1.1,0.3-1.7,0.3L177.7,307.4L177.7,307.4z M177.9,291.2c-0.2,0-0.4,0-0.6,0c-0.9,0-1.8,0.2-2.6,0.5
		c-0.8,0.3-1.5,0.7-2.2,1.2c-0.7,0.5-1.2,1.1-1.7,1.8c-0.5,0.7-0.8,1.4-1,2.3c-0.2,0.8-0.3,1.7-0.3,2.7c0.1,1,0.2,1.9,0.6,2.7
		c0.3,0.8,0.7,1.6,1.3,2.2c0.5,0.6,1.1,1.1,1.8,1.5c0.7,0.4,1.5,0.7,2.3,0.9c0.7,0.2,1.4,0.2,2.1,0.2l0.5,0c0.5,0,1.1-0.1,1.6-0.3
		c0.5-0.2,1.1-0.4,1.6-0.6c0.5-0.2,1-0.5,1.4-0.8l-0.9-1.2c-0.2,0.3-0.7,0.5-1.1,0.7c-0.4,0.2-0.9,0.4-1.3,0.5
		c-0.5,0.1-0.9,0.2-1.4,0.2l-0.4,0c-0.8,0-1.5-0.1-2.2-0.4c-0.8-0.3-1.5-0.7-2.1-1.3c-0.6-0.6-1.1-1.2-1.4-2
		c-0.3-0.8-0.5-1.6-0.6-2.5c0-0.9,0.1-1.8,0.3-2.6c0.3-0.8,0.7-1.5,1.2-2.2c0.5-0.6,1.2-1.1,1.9-1.5c0.8-0.4,1.6-0.6,2.5-0.6l0.5,0
		c0.6,0,1.1,0.1,1.7,0.2c0.7,0.2,1.4,0.4,2,0.8l0.6-1.5c-0.5-0.1-1-0.3-1.5-0.5c-0.5-0.2-1-0.3-1.6-0.3
		C178.7,291.2,178.3,291.2,177.9,291.2L177.9,291.2z M161.5,307.3l-2-0.2l1.7-15.6l2,0.1L161.5,307.3L161.5,307.3z M161.3,291.6
		l-1.7,15.4l1.7,0.1l1.8-15.4L161.3,291.6L161.3,291.6z M155.6,306.7l-8.3-1.3l2.5-15.5l8,1.2l-0.2,1.7l-6.2-0.9l-0.8,5.1l5.8,0.8
		l-0.2,1.7l-6-0.8l-0.8,5.3l6.1,0.9L155.6,306.7L155.6,306.7z M149.9,290l-2.5,15.3l7.9,1.2l0.2-1.5l-6.1-0.9l0.8-5.5l6,0.8l0.1-1.5
		l-5.8-0.8l0.8-5.3l6.2,0.9l0.1-1.5L149.9,290L149.9,290z M191.6,305.8c-0.4,0-0.8,0-1.1-0.1c-0.9-0.1-1.7-0.3-2.4-0.7
		c-0.8-0.3-1.4-0.8-2.1-1.4c-0.6-0.6-1.1-1.3-1.5-2.1c-0.4-0.8-0.7-1.7-0.9-2.7c-0.1-0.9-0.1-1.9,0-2.7c0.1-0.9,0.4-1.7,0.8-2.4
		c0.4-0.7,0.9-1.4,1.5-2c0.6-0.6,1.3-1.1,2.1-1.5c0.8-0.4,1.7-0.7,2.6-0.8c0.9-0.2,1.8-0.2,2.7-0.1c0.9,0.1,1.7,0.3,2.4,0.7
		c0.8,0.4,1.5,0.8,2,1.4c0.6,0.6,1.1,1.3,1.5,2.1c0.4,0.8,0.7,1.7,0.9,2.7c0.1,1,0.1,1.9,0,2.7c-0.1,0.9-0.4,1.7-0.8,2.4
		c-0.4,0.7-0.9,1.4-1.5,2c-0.6,0.6-1.3,1.1-2.1,1.5c-0.8,0.4-1.6,0.6-2.6,0.8C192.6,305.8,192.1,305.8,191.6,305.8L191.6,305.8z
		 M192.2,289.6c-0.5,0-1,0-1.5,0.1c-0.9,0.1-1.7,0.4-2.5,0.8c-0.8,0.4-1.5,0.9-2,1.4c-0.6,0.6-1.1,1.2-1.5,1.9
		c-0.4,0.7-0.6,1.5-0.8,2.4c-0.1,0.8-0.1,1.8,0,2.7c0.2,1,0.4,1.9,0.8,2.7c0.4,0.8,0.9,1.5,1.5,2c0.6,0.6,1.3,1,2,1.3
		c0.7,0.3,1.5,0.6,2.4,0.7c0.8,0.1,1.7,0.1,2.6-0.1c0.9-0.1,1.8-0.4,2.5-0.8c0.8-0.4,1.5-0.8,2.1-1.4c0.6-0.6,1.1-1.2,1.5-1.9
		c0.4-0.7,0.7-1.5,0.8-2.4c0.1-0.8,0.1-1.7,0-2.7c-0.2-1-0.4-1.9-0.8-2.7c-0.4-0.8-0.9-1.5-1.5-2c-0.6-0.6-1.2-1-2-1.4
		c-0.7-0.3-1.5-0.6-2.4-0.7C192.9,289.6,192.6,289.6,192.2,289.6L192.2,289.6z M143.1,305.2l-2.7-6.9c-0.1-0.3-0.3-0.6-0.4-0.8
		c-0.1-0.2-0.3-0.4-0.5-0.6c-0.2-0.2-0.5-0.3-0.8-0.4l-1.2-0.3l-1.7,6.3l-2-0.4l4.1-15.2l4.7,1.1c0.7,0.2,1.4,0.5,1.9,0.8
		c0.5,0.3,1,0.7,1.3,1.2c0.3,0.5,0.6,1,0.7,1.6c0.1,0.6,0.1,1.2-0.1,1.8c-0.2,0.6-0.4,1.2-0.8,1.6c-0.3,0.4-0.7,0.8-1.2,1.1
		c-0.5,0.3-0.9,0.4-1.5,0.5c-0.4,0.1-0.9,0.1-1.4,0.1c0.2,0.1,0.3,0.2,0.4,0.4c0.2,0.2,0.4,0.5,0.5,0.8c0.1,0.3,0.3,0.6,0.4,0.9
		l2.3,5.6L143.1,305.2L143.1,305.2z M137.4,296.1l1.3,0.2c0.4,0.1,0.7,0.2,0.9,0.4c0.2,0.2,0.4,0.4,0.6,0.6c0.2,0.2,0.3,0.5,0.4,0.8
		l2.6,6.7l1.8-0.5l-2.3-5.5c-0.1-0.3-0.3-0.6-0.4-0.9c-0.1-0.3-0.3-0.5-0.5-0.8c-0.2-0.2-0.4-0.4-0.6-0.5c0,0,0,0,0,0l0,0l0,0
		c0.3-0.2,0.5-0.2,0.7-0.2c0.3,0,0.6,0,0.9-0.1c0.5-0.1,1-0.3,1.4-0.5c0.4-0.3,0.8-0.6,1.1-1c0.3-0.4,0.6-0.9,0.7-1.5
		c0.2-0.6,0.2-1.2,0.1-1.7c-0.1-0.5-0.3-1-0.6-1.5c-0.3-0.4-0.8-0.8-1.3-1.1c-0.5-0.3-1.1-0.6-1.8-0.8l-4.5-1.2l-4,14.9l1.8,0.4
		L137.4,296.1L137.4,296.1z M191.9,304.2c-0.5,0-1-0.1-1.5-0.2c-0.8-0.2-1.5-0.6-2.2-1.1c-0.6-0.5-1.2-1.1-1.6-1.9
		c-0.4-0.7-0.7-1.6-0.9-2.5c-0.1-0.9-0.1-1.8,0.1-2.6c0.2-0.8,0.5-1.6,1-2.3c0.5-0.7,1.1-1.3,1.8-1.7c0.7-0.5,1.5-0.8,2.4-0.9
		c0.9-0.1,1.8-0.1,2.6,0.1c0.8,0.2,1.5,0.6,2.2,1.1c0.6,0.5,1.2,1.1,1.6,1.9c0.4,0.7,0.7,1.6,0.9,2.5c0.1,0.9,0.1,1.8-0.1,2.6
		c-0.2,0.8-0.5,1.6-1,2.3c-0.5,0.7-1,1.3-1.8,1.7c-0.7,0.5-1.5,0.8-2.4,0.9C192.6,304.2,192.2,304.2,191.9,304.2L191.9,304.2z
		 M191.9,291.2c-0.3,0-0.7,0-1,0.1c-0.9,0.1-1.7,0.4-2.3,0.9c-0.7,0.4-1.2,1-1.7,1.6c-0.4,0.7-0.8,1.4-0.9,2.2
		c-0.2,0.8-0.2,1.7-0.1,2.5c0.1,0.9,0.4,1.7,0.8,2.4c0.4,0.7,0.9,1.3,1.6,1.8c0.6,0.5,1.3,0.8,2.1,1c0.8,0.2,1.6,0.2,2.5,0.1
		c0.9-0.1,1.7-0.4,2.3-0.9c0.7-0.4,1.2-1,1.7-1.6c0.4-0.7,0.8-1.4,0.9-2.2c0.2-0.8,0.2-1.7,0.1-2.5c-0.1-0.9-0.4-1.7-0.8-2.4
		c-0.4-0.7-0.9-1.3-1.6-1.8c-0.6-0.5-1.3-0.8-2.1-1C192.9,291.3,192.4,291.2,191.9,291.2L191.9,291.2z M203.5,303.9l0-0.1l-2.1-15.7
		l2-0.7l8.7,11.1l0.6-14l2.1-0.7l7.3,14.1l-1.8,1l-4.9-9.8l5,9.6l1.6-0.9l-7.2-13.9l-1.9,0.7l-0.7,14l-8.7-11l-1.8,0.7l2.2,15.5
		l1.8-0.3l-2.2-13.2l0.1,0.1l2.2,13.2L203.5,303.9L203.5,303.9z M211.8,301.2l-7.1-9.2l7.1,9l1.6-0.6l0.5-13.8l0.1,0.1l-0.4,13.8
		L211.8,301.2L211.8,301.2z M124.9,299.9l-2-0.5l2.6-10.4l-2.5,10.4l1.7,0.3l3.8-15.2l-1.9-0.7l-9.7,10.1l0.6-14l-1.8-0.7l-8.6,13.2
		l1.6,0.9l7-11.4l0,0.1l-7,11.4l-1.8-1l8.7-13.4l2,0.7l-0.8,14.1l9.6-10.2l2.1,0.8L124.9,299.9L124.9,299.9z M224.2,296.7l-6-14.5
		l4.4-2c0.7-0.3,1.4-0.5,2-0.5c0.7-0.1,1.3,0,1.8,0.2c0.6,0.2,1.1,0.5,1.5,0.9c0.4,0.4,0.8,1,1.1,1.7c0.3,0.7,0.4,1.3,0.4,1.8
		c0,0.6-0.1,1.1-0.3,1.6c-0.2,0.5-0.5,0.9-0.8,1.3c-0.3,0.4-0.8,0.8-1.2,1.1c-0.4,0.3-0.9,0.6-1.4,0.8l-2.1,0.9l2.5,5.8L224.2,296.7
		L224.2,296.7z M225.1,279.9c-0.2,0-0.3,0-0.5,0c-0.6,0.1-1.3,0.2-1.9,0.5l-4.3,1.8l6,14.2l1.7-0.7l-2.5-5.8l2.1-1
		c0.5-0.2,0.9-0.4,1.4-0.7c0.4-0.3,0.8-0.6,1.2-1c0.3-0.4,0.6-0.8,0.8-1.3c0.2-0.5,0.3-1,0.3-1.5c0-0.5-0.1-1.1-0.4-1.8
		c-0.3-0.7-0.6-1.2-1.1-1.6c-0.4-0.4-0.9-0.7-1.4-0.9C226,280,225.6,279.9,225.1,279.9L225.1,279.9z M116.8,296.4l-1.8-0.7l0.7-11.7
		l-0.6,11.6l1.6,0.6l9.4-10.1l0,0.1L116.8,296.4L116.8,296.4z M141.4,295.5c-0.8,0-1.2-0.1-1.7-0.2l-1.9-0.5l1.6-6.1l2.3,0.6
		c0.6,0.2,1.1,0.4,1.5,0.7c0.4,0.3,0.7,0.6,0.9,1c0.2,0.4,0.3,0.8,0.3,1.2c0,0.4,0,0.8-0.1,1.2c-0.2,0.6-0.4,1-0.7,1.3
		c-0.3,0.3-0.7,0.6-1.1,0.7C142.1,295.5,141.8,295.5,141.4,295.5L141.4,295.5z M139.5,289l-1.6,5.8l1.8,0.4c0.5,0.1,0.9,0.2,1.4,0.2
		c0.6,0,1,0,1.3-0.1c0.4-0.1,0.8-0.3,1.1-0.6c0.3-0.3,0.5-0.7,0.7-1.2c0.1-0.4,0.1-0.8,0.1-1.2c0-0.4-0.1-0.7-0.3-1.1
		c-0.2-0.3-0.5-0.6-0.8-0.9c-0.4-0.3-0.8-0.5-1.5-0.6L139.5,289L139.5,289z M238.2,289.5c-0.3,0-0.5,0-0.8-0.1
		c-0.7-0.1-1.5-0.4-2.2-1c-0.7-0.5-1.4-1.3-2-2.3c-0.3-0.5-0.7-1.1-1-1.7l-4-6.5l1.7-1.2l5.4,8.7c0.7,1.2,1.6,1.8,2.5,2
		c0.9,0.2,2-0.1,3.1-0.8c0.5-0.3,0.9-0.6,1.2-1c0.3-0.4,0.6-0.8,0.7-1.3c0.1-0.5,0.1-1.1,0-1.7c-0.1-0.6-0.4-1.3-0.9-2l-5-8.2
		l1.7-1.2l5.2,8.3c0.5,0.9,0.9,1.7,1,2.4c0.2,0.7,0.2,1.4,0.1,2.1c-0.1,0.6-0.3,1.2-0.6,1.7c-0.3,0.5-0.7,1-1.2,1.4
		c-0.5,0.4-0.9,0.8-1.5,1.1c-0.7,0.5-1.5,0.8-2.2,1C239.2,289.4,238.7,289.5,238.2,289.5L238.2,289.5z M229.9,276.9l-1.5,1.1l4,6.4
		c0.4,0.6,0.7,1.2,1,1.7c0.6,1,1.3,1.7,1.9,2.2c0.7,0.5,1.4,0.8,2.1,0.9c0.7,0.1,1.4,0.1,2.1-0.1c0.7-0.2,1.4-0.5,2.1-1
		c0.5-0.3,1-0.7,1.4-1.1c0.4-0.4,0.8-0.9,1.1-1.4c0.3-0.5,0.5-1.1,0.6-1.7c0.1-0.6,0.1-1.3-0.1-2c-0.2-0.7-0.5-1.5-1-2.4l-5.1-8.3
		l-1.5,1.1l5.1,8c0.5,0.8,0.8,1.5,0.9,2.1c0.1,0.6,0.1,1.2,0,1.8c-0.1,0.5-0.4,1-0.8,1.4c-0.4,0.4-0.8,0.8-1.3,1.1
		c-1.2,0.8-2.3,1-3.3,0.8c-1-0.2-1.9-0.9-2.7-2.1L229.9,276.9L229.9,276.9z M102.8,288.9c-0.1,0-0.3,0-0.4,0
		c-0.6-0.1-1.2-0.2-1.8-0.4c-0.6-0.2-1.1-0.5-1.6-0.8c-0.7-0.5-1.4-1-1.9-1.5c-0.5-0.6-0.9-1.2-1.1-1.9c-0.2-0.7-0.2-1.5-0.1-2.4
		c0.2-0.9,0.6-1.8,1.2-2.8c0.3-0.5,0.7-1.1,1.1-1.7l4.1-6.5l1.8,1l-4.2,6.8c-0.4,0.6-0.8,1.2-1.2,1.8c-0.7,1.2-1,2.2-0.7,3.2
		c0.2,0.9,1,1.8,2.1,2.5c0.5,0.3,1,0.5,1.5,0.7c0.5,0.1,1,0.1,1.5,0.1c0.5-0.1,1-0.3,1.5-0.7c0.5-0.4,1-0.9,1.5-1.7l5.2-8.1l1.8,1
		l-5.2,8.3c-0.6,0.8-1.1,1.5-1.7,2c-0.6,0.5-1.2,0.8-1.8,1C103.8,288.8,103.3,288.9,102.8,288.9L102.8,288.9z M102.4,271l-4,6.4
		c-0.4,0.6-0.7,1.2-1.1,1.7c-0.6,1-1,1.9-1.2,2.7c-0.2,0.8-0.1,1.6,0.1,2.3c0.2,0.7,0.6,1.3,1.1,1.9c0.5,0.6,1.1,1.1,1.8,1.5
		c0.5,0.3,1,0.6,1.6,0.8c0.6,0.2,1.1,0.4,1.7,0.4c0.6,0.1,1.2,0,1.8-0.2c0.6-0.2,1.2-0.5,1.7-1c0.6-0.5,1.1-1.1,1.7-1.9l5.2-8.2
		l-1.6-0.9l-5,8.1c-0.5,0.8-1,1.3-1.5,1.7c-0.5,0.4-1.1,0.7-1.6,0.8c-0.5,0.1-1.1,0.1-1.6-0.1c-0.5-0.1-1.1-0.4-1.5-0.7
		c-1.2-0.7-1.9-1.6-2.2-2.6c-0.3-1,0-2.1,0.8-3.3c0.4-0.6,0.8-1.2,1.2-1.8l4.3-6.7L102.4,271L102.4,271z M223.1,288.6l-2.6-5.9
		l2.2-1.1c0.6-0.3,1.1-0.4,1.6-0.4l0.2,0c0.4,0,0.8,0.1,1.1,0.2c0.4,0.2,0.7,0.4,1,0.7c0.3,0.3,0.5,0.7,0.7,1.1
		c0.2,0.5,0.3,1,0.3,1.5c0,0.5-0.1,0.9-0.3,1.3c-0.2,0.4-0.5,0.7-0.8,1c-0.3,0.3-0.7,0.5-1.1,0.7L223.1,288.6L223.1,288.6z
		 M224.5,281.4l-0.2,0.1c-0.5,0-1,0.1-1.5,0.4l-2.2,0.9l2.5,5.7l2.1-1c0.4-0.2,0.7-0.4,1-0.6c0.3-0.3,0.6-0.6,0.8-0.9
		c0.2-0.3,0.3-0.7,0.3-1.2c0-0.4-0.1-0.9-0.3-1.4c-0.2-0.4-0.4-0.7-0.6-1c-0.2-0.3-0.5-0.5-0.9-0.7c-0.3-0.1-0.7-0.2-1-0.2V281.4
		L224.5,281.4z M253,280.9L253,280.9l-8.4-11.3l-3.8,3l-1.1-1.3l9.5-7.2l1.1,1.3l-4,3.1l8.3,11.1L253,280.9L253,280.9z M244.6,269.4
		l8.4,11.2l1.5-1.1l-8.3-11.1l4-3.1l-1-1.1l-9.3,7.1l1,1.1L244.6,269.4L244.6,269.4z M87.8,280l-1.6-1.2l8.5-11.2l-3.9-2.8l1-1.4
		l9.6,7.1l-1,1.4l-4.1-2.9L87.8,280L87.8,280z M91.8,263.5l-0.8,1.3l3.9,2.8l-8.5,11.2l1.4,1l8.5-11l4.1,3l0.8-1.3L91.8,263.5
		L91.8,263.5z M257.4,277.1l-4.9-16.1l1.5-1.3l14.7,7.7l-1,1.9l-5.3-2.8l-4.8,4.1l1.8,5.6L257.4,277.1L257.4,277.1z M254,260
		l-1.3,1.2l4.8,15.7l1.6-0.7l-1.8-5.5l5-4.3l5.3,2.8l0.9-1.7L254,260L254,260z M80.2,272.6c-0.4,0-0.9-0.1-1.3-0.2
		c-0.6-0.2-1.1-0.4-1.7-0.8c-0.5-0.3-1-0.7-1.5-1.1c-0.6-0.6-1.2-1.2-1.5-1.9c-0.4-0.7-0.6-1.4-0.7-2.1c-0.1-0.7,0-1.5,0.4-2.3
		c0.3-0.8,0.9-1.7,1.7-2.5c0.4-0.5,0.9-0.9,1.4-1.5l5.3-5.5l1.6,1.3l-5.5,5.9c-0.5,0.5-1,1.1-1.5,1.6c-0.9,1-1.4,2-1.3,3
		c0.1,1,0.6,1.9,1.6,2.8c0.4,0.4,0.8,0.7,1.3,0.9c0.5,0.2,1,0.3,1.5,0.3l0,0c0.5,0,1.1-0.1,1.6-0.4c0.6-0.3,1.2-0.7,1.7-1.4l6.6-7
		l1.6,1.3l-6.7,7.2c-0.7,0.7-1.4,1.3-2.1,1.6c-0.7,0.4-1.3,0.6-2,0.6C80.5,272.6,80.3,272.6,80.2,272.6L80.2,272.6z M82.2,254.9
		l-5.1,5.5c-0.5,0.5-1,1-1.4,1.5c-0.8,0.8-1.4,1.7-1.7,2.5c-0.3,0.8-0.4,1.5-0.4,2.2c0.1,0.7,0.3,1.4,0.7,2c0.4,0.6,0.9,1.2,1.5,1.8
		c0.4,0.4,0.9,0.8,1.4,1.1c0.5,0.3,1,0.6,1.6,0.7c0.6,0.2,1.1,0.2,1.8,0.1c0.6-0.1,1.2-0.3,1.9-0.6c0.7-0.4,1.3-0.9,2-1.6l6.7-7
		l-1.4-1.2l-6.4,7c-0.6,0.6-1.2,1.1-1.8,1.4c-1.2,0.6-2.3,0.5-3.3,0.1c-0.5-0.2-1-0.6-1.4-1c-1-1-1.6-2-1.7-3
		c-0.1-1,0.4-2.1,1.4-3.1c0.5-0.5,1-1.1,1.5-1.6l5.5-5.8L82.2,254.9L82.2,254.9z M257,269l-2.7-7.1l0.2-0.2l6.4,3.8L257,269L257,269
		z M254.5,262l2.5,6.9l3.7-3.3L254.5,262L254.5,262z M271.3,265.1l-9.9-10.1l-3.3,3.5l-1.3-1.1l8.4-8.5l1.3,1.1l-3.5,3.6l9.8,9.8
		L271.3,265.1L271.3,265.1z M261.5,254.9l9.9,9.9l1.3-1.3l-9.8-9.8l3.5-3.6l-1.1-1l-8.2,8.3l1.1,1L261.5,254.9L261.5,254.9z
		 M66.7,260.8l-1.4-1.5l10.5-9.4l-3.3-3.5l1.2-1.2l8,8.8l-1.2,1.2l-3.5-3.7L66.7,260.8L66.7,260.8z M73.7,245.2l-1.1,1.1l3.3,3.5
		l-10.5,9.4l1.2,1.2l10.4-9.2l3.5,3.7l1-1.1L73.7,245.2L73.7,245.2z M276.1,256.3c-0.8,0-1.6-0.1-2.4-0.4c-0.8-0.3-1.7-0.7-2.5-1.3
		c-0.8-0.6-1.4-1.2-1.9-1.9c-0.5-0.7-0.9-1.5-1.1-2.3c-0.2-0.8-0.4-1.6-0.3-2.5c0-0.8,0.2-1.7,0.5-2.5c0.3-0.8,0.7-1.6,1.3-2.4
		c0.5-0.7,1.2-1.4,1.9-1.9c0.7-0.5,1.4-1,2.2-1.2c0.8-0.3,1.6-0.4,2.4-0.5c1,0.1,1.7,0.1,2.5,0.4c0.8,0.3,1.7,0.7,2.5,1.3
		c0.8,0.6,1.4,1.2,1.9,1.9c0.5,0.7,0.9,1.5,1.1,2.3c0.2,0.8,0.4,1.6,0.3,2.5c0,0.8-0.2,1.7-0.5,2.5c-0.3,0.8-0.7,1.6-1.2,2.4
		c-0.6,0.8-1.2,1.4-1.9,1.9c-0.7,0.5-1.4,1-2.2,1.2c-0.8,0.3-1.6,0.4-2.4,0.5L276.1,256.3L276.1,256.3z M276.1,239.6
		c-1,0-1.8,0.2-2.5,0.5c-0.8,0.3-1.5,0.7-2.1,1.2c-0.7,0.5-1.3,1.2-1.8,1.9c-0.5,0.7-0.9,1.5-1.2,2.3c-0.3,0.8-0.4,1.6-0.4,2.4
		c0,0.8,0.1,1.6,0.3,2.4c0.2,0.8,0.6,1.5,1.1,2.2c0.5,0.7,1.1,1.3,1.9,1.9c0.8,0.6,1.6,1,2.5,1.3c0.8,0.3,1.5,0.4,2.3,0.4v0.1
		l0.2-0.1c0.8,0,1.6-0.2,2.4-0.5c0.8-0.3,1.5-0.7,2.1-1.2c0.7-0.5,1.3-1.2,1.8-1.9c0.5-0.7,0.9-1.5,1.2-2.3c0.3-0.8,0.4-1.6,0.5-2.4
		c0-0.8-0.1-1.6-0.3-2.4c-0.2-0.8-0.6-1.5-1.1-2.2c-0.5-0.7-1.1-1.3-1.9-1.9c-0.8-0.6-1.6-1-2.5-1.3
		C277.6,239.7,276.9,239.6,276.1,239.6L276.1,239.6z M276.4,254.3c-0.6,0-1.1-0.1-1.7-0.2c-0.8-0.2-1.6-0.6-2.4-1.1
		c-0.7-0.5-1.4-1.2-1.8-1.9c-0.5-0.7-0.8-1.5-0.9-2.3c-0.2-0.8-0.1-1.6,0-2.4c0.2-0.8,0.5-1.6,1.1-2.4c0.6-0.7,1.2-1.3,1.9-1.8
		c0.7-0.4,1.5-0.7,2.3-0.8c0.8-0.1,1.6,0,2.5,0.2c0.8,0.2,1.6,0.6,2.4,1.1c0.7,0.5,1.3,1.2,1.8,1.9c0.5,0.7,0.8,1.5,0.9,2.3
		c0.2,0.8,0.1,1.6,0,2.4c-0.2,0.8-0.5,1.6-1.1,2.4c-0.5,0.7-1.2,1.3-1.9,1.8c-0.7,0.4-1.5,0.7-2.3,0.8
		C276.9,254.3,276.7,254.3,276.4,254.3L276.4,254.3z M275.7,241.6c-0.2,0-0.5,0-0.7,0c-0.8,0.1-1.5,0.3-2.2,0.8
		c-0.7,0.4-1.3,1-1.8,1.7c-0.5,0.7-0.9,1.5-1,2.3c-0.2,0.8-0.2,1.6,0,2.4c0.2,0.8,0.5,1.5,0.9,2.2c0.4,0.7,1,1.3,1.8,1.8
		c0.7,0.5,1.5,0.9,2.3,1.1c0.8,0.2,1.6,0.3,2.4,0.2c0.8-0.1,1.5-0.3,2.2-0.8c0.7-0.4,1.3-1,1.8-1.7c0.5-0.7,0.9-1.5,1-2.3
		c0.2-0.8,0.2-1.6,0-2.4c-0.1-0.8-0.5-1.5-0.9-2.2c-0.4-0.7-1-1.3-1.8-1.8c-0.7-0.5-1.5-0.9-2.3-1.1
		C276.8,241.7,276.3,241.6,275.7,241.6L275.7,241.6z M60.5,253.8l-1.2-1.7l12.7-9.2l1.3,1.6L60.5,253.8L60.5,253.8z M72,243.1
		l-12.5,9.1l1.1,1.3l12.6-9L72,243.1L72,243.1z M55,246l-1.1-1.7l11.7-7.8l-2.8-3.9l1.4-1.1l6.7,9.8l-1.4,1.1l-2.9-4.1L55,246
		L55,246z M64.1,231.7l-1.2,0.9l2.8,3.9L54,244.4l1,1.4l11.6-7.6l2.9,4.1l1.2-0.9L64.1,231.7L64.1,231.7z M289,243.5l-13.4-8.2
		l2.4-4.2c0.4-0.6,0.8-1.2,1.3-1.6c0.5-0.4,1-0.8,1.5-1c0.5-0.2,1.1-0.3,1.7-0.2c0.6,0.1,1.1,0.3,1.7,0.6c0.6,0.3,1,0.7,1.3,1.2
		c0.3,0.4,0.6,0.9,0.7,1.4c0.1,0.5,0.2,1,0.1,1.6c0,0.4-0.2,0.9-0.3,1.3c0.1-0.1,0.3-0.2,0.5-0.3c0.3-0.1,0.6-0.2,0.9-0.3
		c0.3-0.1,0.6-0.1,1-0.1l6-0.6l0.1,2.1l-7.3,0.8c-0.3,0-0.6,0.1-0.9,0.2c-0.3,0.1-0.5,0.2-0.7,0.4c-0.2,0.2-0.4,0.4-0.6,0.7
		l-0.6,1.1l5.6,3.4L289,243.5L289,243.5z M282.1,228.5c-0.4,0-0.8,0.1-1.2,0.2c-0.5,0.2-1,0.5-1.5,0.9c-0.5,0.4-0.9,0.9-1.3,1.6
		l-2.4,4l13.2,7.9l1-1.6l-5.6-3.4l0.6-1.2c0.2-0.3,0.4-0.6,0.7-0.8c0.2-0.2,0.5-0.3,0.8-0.4c0.3-0.1,0.6-0.1,0.9-0.2l7.3-0.7
		l-0.1-1.9l-5.9,0.8c-0.3,0-0.6,0.1-0.9,0.1c-0.3,0.1-0.6,0.1-0.9,0.3c-0.3,0.1-0.5,0.3-0.6,0.4c0,0,0-0.1,0-0.1c0,0,0,0,0,0
		c0,0,0-0.1,0-0.1c0-0.6,0.1-1.1,0.2-1.5c0.1-0.5,0-1-0.1-1.5c-0.1-0.5-0.3-0.9-0.7-1.3c-0.3-0.4-0.8-0.8-1.3-1.1
		c-0.5-0.3-1.1-0.5-1.6-0.6C282.4,228.5,282.2,228.5,282.1,228.5L282.1,228.5z M283.1,237.4l-5.3-3.1l1.2-2.1c0.3-0.6,0.7-1,1.1-1.3
		c0.4-0.3,0.8-0.5,1.2-0.6c0.4-0.1,0.8-0.1,1.2,0c0.4,0.1,0.8,0.2,1.2,0.5c0.5,0.3,0.9,0.7,1.1,1.1c0.2,0.4,0.3,0.8,0.3,1.3
		c0,0.5-0.1,0.9-0.2,1.4c-0.2,0.5-0.4,0.9-0.6,1.3L283.1,237.4L283.1,237.4z M281.8,230.4c-0.2,0-0.4,0-0.6,0.1
		c-0.4,0.1-0.7,0.3-1.1,0.5c-0.4,0.3-0.7,0.7-1,1.2l-1.2,2l5.2,3l0.8-1.6c0.2-0.4,0.4-0.8,0.6-1.3c0.1-0.4,0.2-0.9,0.2-1.3
		c0-0.4-0.1-0.8-0.3-1.2c-0.2-0.4-0.5-0.7-1-1c-0.3-0.2-0.7-0.4-1.1-0.4C282.2,230.5,282,230.4,281.8,230.4L281.8,230.4z M51.6,237
		c-0.4,0-0.8-0.1-1.2-0.2c-0.6-0.2-1.1-0.5-1.7-0.9c-0.5-0.5-1-1.1-1.4-1.8c-0.3-0.5-0.5-1-0.6-1.5c-0.1-0.5-0.2-1-0.3-1.4
		c0-0.5,0-1,0-1.5l1.8,0c0.1,0.5,0,0.8,0.1,1.2c0,0.4,0.1,0.8,0.2,1.2c0.1,0.4,0.2,0.8,0.4,1.1c0.3,0.5,0.6,0.9,1,1.2
		c0.4,0.3,0.8,0.4,1.3,0.5c0.6,0,1-0.1,1.5-0.3c0.4-0.2,0.7-0.5,0.9-0.8c0.2-0.3,0.3-0.7,0.4-1.1c0.1-0.4,0.1-0.8,0.1-1.3
		c0-0.4-0.1-0.9-0.1-1.4c0-0.5,0-0.9,0-1.4c0-0.5,0.1-0.9,0.2-1.4c0.1-0.5,0.4-0.9,0.7-1.3c0.3-0.4,0.8-0.8,1.4-1.1
		c0.5-0.3,1.1-0.5,1.7-0.5c0.7,0,1.2,0.1,1.6,0.3c0.5,0.2,1,0.5,1.5,0.9c0.4,0.4,0.8,1,1.2,1.6c0.4,0.7,0.6,1.4,0.7,2.1
		c0.1,0.7,0.2,1.4,0.1,2.2l-1.7,0.1c-0.1-0.5-0.1-0.8-0.1-1.2c0-0.4,0-0.7-0.1-1.1c-0.1-0.4-0.2-0.8-0.5-1.2
		c-0.2-0.3-0.4-0.6-0.6-0.8c-0.2-0.2-0.5-0.4-0.8-0.6c-0.3-0.1-0.6-0.2-1-0.2c-0.4,0-0.8,0.1-1.2,0.3c-0.4,0.2-0.6,0.4-0.8,0.7
		c-0.2,0.3-0.3,0.6-0.3,1c-0.1,0.4-0.1,0.8-0.1,1.3l0.1,1.4c0,0.5,0,1,0,1.5c0,0.5-0.1,1-0.3,1.4c-0.1,0.5-0.4,0.9-0.7,1.3
		c-0.3,0.4-0.7,0.7-1.3,1c-0.5,0.3-1.1,0.5-1.7,0.5C51.9,237,51.8,237,51.6,237L51.6,237z M48,229.7l-1.5,0c0.1,0.4,0.1,0.9,0.1,1.4
		c0,0.5,0.1,0.9,0.3,1.4c0.1,0.5,0.3,0.9,0.6,1.4c0.4,0.7,0.8,1.3,1.4,1.8c0.5,0.4,1,0.7,1.6,0.9c0.5,0.2,1.1,0.2,1.7,0.1
		c0.5-0.1,1.1-0.2,1.6-0.5c0.5-0.3,0.9-0.6,1.2-1c0.3-0.4,0.5-0.8,0.6-1.2c0.1-0.4,0.2-0.9,0.2-1.4c0-0.5,0-1,0-1.4l-0.1-1.4
		c0-0.5,0-0.9,0.1-1.3c0.1-0.4,0.2-0.8,0.4-1.1c0.2-0.3,0.5-0.6,0.9-0.8c0.4-0.2,0.8-0.3,1.2-0.4c0,0,0,0,0,0c0.4,0,0.8,0.1,1.1,0.2
		c0.4,0.2,0.7,0.4,0.9,0.6c0.3,0.2,0.5,0.5,0.6,0.9c0.2,0.4,0.4,0.9,0.5,1.3c0.1,0.4,0.1,0.8,0.1,1.2c0,0.4,0,0.7-0.1,1.1l1.5-0.1
		c-0.1-0.6-0.1-1.3-0.2-2c-0.1-0.7-0.4-1.4-0.7-2c-0.3-0.6-0.7-1.1-1.1-1.5c-0.4-0.4-0.9-0.7-1.4-0.9c-0.4-0.2-0.9-0.2-1.3-0.2
		c-0.7,0-1.3,0.2-1.8,0.5c-0.6,0.3-1,0.7-1.4,1c-0.3,0.4-0.6,0.8-0.7,1.2c-0.1,0.4-0.2,0.9-0.2,1.3c0,0.5,0,0.9,0,1.4
		c0,0.5,0.1,0.9,0.1,1.4c0,0.5,0,0.9-0.1,1.3c-0.1,0.4-0.2,0.8-0.4,1.1c-0.2,0.3-0.6,0.6-1,0.9c-0.5,0.3-1,0.4-1.4,0.4
		c-0.7,0-1.2-0.2-1.6-0.5c-0.4-0.3-0.8-0.7-1.1-1.3c-0.2-0.4-0.3-0.8-0.4-1.2c-0.1-0.4-0.1-0.8-0.2-1.2C47.9,230.4,48,230,48,229.7
		L48,229.7z M296.2,231.5L296.2,231.5l-14.2-6.8l0.8-1.9l14.2,6.7L296.2,231.5L296.2,231.5z M282.8,223l-0.7,1.7l13.9,6.5l0.8-1.7
		L282.8,223L282.8,223z M297,228.1L297,228.1l-10.2-15l3.2-8.1l1.7,0.5l-2.3,5.8l4.8,1.9l2.1-5.5l1.6,0.5l-2.2,5.7l5,1.9l2.2-5.8
		l1.6,0.5l-3,7.8l-4.9-1.9l-1.9,4.9l3.7,5.4L297,228.1L297,228.1z M290.2,205l-3.1,8l10,14.7l1.4-1l-3.7-5.3l2-5.1l4.9,1.9l2.9-7.6
		l-1.4-0.5l-2.2,5.8l-5.2-2l2.2-5.7l-1.4-0.5l-2.1,5.5l-5-2l2.3-5.8L290.2,205L290.2,205z M44.2,227.5l-1.3-1.4l7.7-11.4l-7.5,11.4
		l1.2,1.1l14.2-5.6l-0.8-1.7l-11.3,4.6l0.1-0.1l11.3-4.6l0.9,1.9L44.2,227.5L44.2,227.5z M47.2,223.2l7.5-11.5l-1.2-1.1l-14,5.6
		l0.8,1.7l11.4-4.6l-0.1,0.1L40.1,218l-0.9-1.9l14.2-5.7l1.4,1.3L47.2,223.2L47.2,223.2z M293.8,219.8l-5-6.6l0.1-0.2l6.4,2.7
		L293.8,219.8L293.8,219.8z M289.1,213.3l4.7,6.4l1.4-4L289.1,213.3L289.1,213.3z M37.5,211.3l-0.6-2l15-4.5l0.7,1.9L37.5,211.3
		L37.5,211.3z M51.9,205l-14.8,4.5l0.6,1.6l14.9-4.4L51.9,205L51.9,205z"/>
	<path d="M296.3,171.4c-0.3,0.4-0.6,0.8-0.8,1.3c-0.2,0.4-0.4,0.9-0.5,1.4c-0.1,0.5-0.2,1-0.3,1.6c-0.1,0.9,0,1.6,0.2,2.3
		c0.2,0.7,0.5,1.2,0.9,1.7c0.4,0.5,0.9,0.8,1.4,1.1c0.5,0.3,1.1,0.4,1.7,0.5c0.6,0,1.2,0,1.7-0.2c0.5-0.2,0.9-0.4,1.3-0.7
		c0.4-0.3,0.7-0.7,1-1c0.3-0.4,0.6-0.8,0.8-1.2c0.3-0.4,0.5-0.8,0.8-1.2c0.2-0.4,0.5-0.8,0.8-1.1c0.3-0.3,0.6-0.6,0.9-0.7
		c0.3-0.2,0.7-0.2,1.2-0.2c0.5,0,0.9,0.2,1.3,0.4c0.3,0.2,0.6,0.4,0.8,0.8c0.2,0.3,0.4,0.6,0.4,1c0.1,0.3,0.1,0.7,0.1,1
		c0,0.5-0.1,0.9-0.3,1.3c-0.1,0.4-0.3,0.7-0.5,1c-0.2,0.3-0.4,0.6-0.7,0.9l1.4,0.9c0.4-0.6,0.8-1.2,1.1-1.9c0.3-0.7,0.5-1.4,0.5-2.2
		c0.1-0.7,0-1.3-0.2-1.9c-0.2-0.6-0.4-1.1-0.8-1.6c-0.3-0.5-0.8-0.8-1.3-1.1c-0.5-0.3-1.1-0.4-1.7-0.5c-0.7-0.1-1.3,0-1.8,0.1
		c-0.5,0.2-1,0.4-1.3,0.7c-0.4,0.3-0.7,0.6-1,1c-0.3,0.4-0.5,0.8-0.8,1.2c-0.2,0.4-0.5,0.8-0.7,1.2c-0.2,0.4-0.5,0.7-0.8,1
		c-0.3,0.3-0.6,0.5-1,0.7c-0.4,0.2-0.8,0.2-1.3,0.2c-0.6-0.1-1.1-0.2-1.5-0.5c-0.4-0.3-0.7-0.7-0.9-1.2c-0.2-0.5-0.3-1-0.2-1.6
		c0-0.4,0.1-0.8,0.3-1.2c0.1-0.4,0.3-0.8,0.5-1.1c0.2-0.3,0.4-0.6,0.7-0.9L296.3,171.4z M295.2,166.3l0,1.9l16.4-0.2l0-1.9
		L295.2,166.3z M295.7,153.8c-0.3,0.5-0.5,0.9-0.6,1.4c-0.2,0.5-0.3,0.9-0.4,1.4c-0.1,0.5-0.1,1-0.1,1.6c0.1,0.9,0.2,1.6,0.5,2.2
		c0.3,0.6,0.7,1.1,1.1,1.5c0.5,0.4,1,0.7,1.6,0.8c0.6,0.2,1.2,0.2,1.8,0.2c0.6,0,1.2-0.2,1.6-0.4c0.5-0.2,0.8-0.5,1.2-0.9
		c0.3-0.4,0.6-0.7,0.8-1.2c0.2-0.4,0.5-0.9,0.6-1.3c0.2-0.5,0.4-0.9,0.6-1.3c0.2-0.4,0.4-0.8,0.6-1.2c0.2-0.3,0.5-0.6,0.8-0.8
		c0.3-0.2,0.7-0.3,1.1-0.4c0.5,0,0.9,0,1.3,0.2c0.4,0.1,0.7,0.4,0.9,0.6c0.3,0.3,0.4,0.6,0.6,0.9c0.1,0.3,0.2,0.7,0.2,1
		c0,0.5,0,0.9-0.1,1.3c-0.1,0.4-0.2,0.8-0.4,1.1c-0.2,0.3-0.3,0.7-0.5,1l1.5,0.7c0.4-0.6,0.6-1.3,0.8-2c0.2-0.7,0.3-1.4,0.2-2.2
		c0-0.7-0.2-1.3-0.4-1.9c-0.2-0.6-0.6-1.1-1-1.5c-0.4-0.4-0.9-0.7-1.4-0.9s-1.1-0.3-1.8-0.3c-0.7,0-1.3,0.2-1.8,0.4
		c-0.5,0.2-0.9,0.5-1.2,0.9c-0.3,0.3-0.6,0.7-0.8,1.2c-0.2,0.4-0.4,0.9-0.6,1.3c-0.2,0.5-0.3,0.9-0.5,1.3c-0.2,0.4-0.4,0.8-0.6,1.1
		c-0.2,0.3-0.5,0.6-0.9,0.8c-0.3,0.2-0.8,0.3-1.3,0.4c-0.6,0-1.1-0.1-1.6-0.3c-0.5-0.2-0.8-0.6-1.1-1c-0.3-0.4-0.4-1-0.5-1.6
		c0-0.4,0-0.8,0.1-1.2c0.1-0.4,0.2-0.8,0.4-1.2c0.2-0.4,0.3-0.7,0.5-1L295.7,153.8z M292.1,138.5l0.3,1.9l12.9-2l0,0l-11.8,10.7
		l0.9,1.6l15.9-2.5l-0.3-1.9l-12.8,2l0,0l11.7-10.7l-1-1.5L292.1,138.5z M289,127.8l2.6,7.9l1.6-0.5l-2-6l5.4-1.7l1.9,5.7l1.6-0.5
		l-1.9-5.7l5.3-1.7l1.9,5.8l1.6-0.5l-2.5-7.7L289,127.8z M282.7,112.6l0.8,1.8l11.9-5.3l0,0l-8.7,13.4l1.3,1.3l14.7-6.5l-0.8-1.8
		l-11.8,5.2l0,0l8.5-13.4l-1.3-1.2L282.7,112.6z M294.2,98.5l-8.6,5.3c-0.8,0.5-1.5,0.8-2.2,1c-0.7,0.2-1.2,0.2-1.8,0
		c-0.5-0.1-1-0.4-1.4-0.7c-0.4-0.3-0.8-0.8-1.1-1.3c-0.7-1.2-1-2.3-0.8-3.3c0.2-1,0.9-1.9,2.2-2.7c0.6-0.4,1.3-0.8,2-1.2
		c0.7-0.4,1.3-0.8,2-1.2l5.1-3.2l-1-1.6l-4.8,3c-0.7,0.4-1.4,0.8-2,1.2c-0.6,0.4-1.2,0.8-1.8,1.1c-1,0.7-1.8,1.4-2.4,2.1
		c-0.5,0.7-0.9,1.4-1,2.2c-0.1,0.7-0.1,1.5,0.1,2.2c0.2,0.7,0.5,1.5,1,2.2c0.3,0.5,0.7,1,1.1,1.5c0.4,0.4,0.9,0.8,1.4,1.1
		c0.5,0.3,1.1,0.5,1.8,0.6c0.6,0.1,1.3,0,2.1-0.2c0.8-0.2,1.6-0.6,2.5-1.1l8.7-5.4L294.2,98.5z M279.5,79.7l1.4,1.9
		c0.4,0.5,0.6,1,0.8,1.4c0.1,0.5,0.2,0.9,0.1,1.3c-0.1,0.4-0.2,0.8-0.5,1.1c-0.2,0.3-0.5,0.6-0.9,0.9c-0.5,0.4-0.9,0.6-1.4,0.6
		c-0.5,0.1-0.9,0-1.3-0.1c-0.4-0.2-0.8-0.4-1.2-0.7c-0.4-0.3-0.7-0.7-1-1l-1.2-1.5L279.5,79.7z M266.3,87.1l1.2,1.6l5.6-4.2l0.8,1
		c0.2,0.3,0.4,0.6,0.4,0.9c0.1,0.3,0.1,0.6,0.1,0.8c0,0.3-0.1,0.6-0.2,0.9c-0.1,0.3-0.2,0.7-0.3,1.1l-1.9,6.1l1.9,0.7l1.6-5.1
		c0.1-0.3,0.2-0.6,0.3-0.9c0.1-0.3,0.2-0.6,0.3-1c0.1-0.3,0.1-0.6,0.1-0.9c0-0.3-0.1-0.6-0.2-0.8l0,0c0.4,0.4,0.8,0.7,1.3,0.9
		c0.5,0.2,1,0.4,1.5,0.4c0.5,0.1,1.1,0,1.6-0.2c0.5-0.2,1.1-0.4,1.6-0.8c0.5-0.4,0.9-0.9,1.2-1.4c0.3-0.5,0.4-1.1,0.5-1.6
		c0-0.6-0.1-1.2-0.3-1.8c-0.2-0.6-0.5-1.2-1-1.8l-2.9-3.8L266.3,87.1z M270.4,69.4l1.1,1.2c0.6,0.6,0.9,1.2,1.1,1.7
		c0.2,0.5,0.2,1,0.1,1.5c-0.2,0.5-0.5,0.9-0.9,1.3c-0.4,0.4-0.8,0.6-1.3,0.7c-0.5,0.1-1,0-1.5-0.2c-0.5-0.2-1.1-0.7-1.7-1.3l-1-1.1
		L270.4,69.4z M265,74.2l1.2,1.4c0.5,0.6,0.9,1.1,1.1,1.7c0.2,0.6,0.2,1.1,0.1,1.6c-0.1,0.5-0.5,1-0.9,1.4c-0.6,0.5-1.1,0.8-1.6,0.9
		c-0.5,0.1-1,0.1-1.5-0.1c-0.5-0.2-1-0.6-1.4-1.1l-1.5-1.7L265,74.2z M257.9,77.9l3,3.3c0.7,0.8,1.4,1.3,2.2,1.6
		c0.8,0.3,1.5,0.4,2.3,0.3c0.8-0.1,1.5-0.5,2.3-1.2c0.5-0.5,0.9-1,1.1-1.5c0.2-0.6,0.3-1.1,0.3-1.7c0-0.6-0.2-1.2-0.6-1.7l0,0
		c0.8,0.5,1.6,0.7,2.4,0.6c0.8-0.1,1.6-0.5,2.3-1.1c0.4-0.3,0.6-0.7,0.9-1.1c0.2-0.4,0.4-0.9,0.4-1.4c0-0.5,0-1.1-0.3-1.7
		c-0.2-0.6-0.6-1.2-1.2-1.9l-2.9-3.2L257.9,77.9z M252.1,63.7l-4.2-3l6.4-4.5l0,0L252.1,63.7z M240,63.5l1.1,1.5l5.2-3.4l5.3,3.8
		l-1.6,5.9l2,0.6l4.3-16.7l-1.5-1.1L240,63.5z M227.2,56.2l1.7,0.9l6.4-11.4l0,0l1.1,15.9l1.8,0.2l7.8-14l-1.7-0.9L238,58.3l0,0
		l-1.2-15.8l-1.8-0.1L227.2,56.2z M223.6,46.8l-4.8-1.9l5.2-5.9l0,0L223.6,46.8z M211.8,49.6l1.5,1.2l4.3-4.5l6,2.4l-0.2,6.1
		l2.1,0.1l0.1-17.2l-1.7-0.7L211.8,49.6z M207.4,48.5l1.9,0.6l4.8-15.6l-1.9-0.6L207.4,48.5z M203.1,47.3l1.7-1l-5.3-8.5l7.9-5.7
		l-1.1-1.5l-9.2,6.8L203.1,47.3z M193.6,45.2l1.9,0.4l3.2-16.1l-1.9-0.4L193.6,45.2z M183.7,43.7l1.9,0.2l0.7-7l6.6-8.1l-1.6-1.2
		l-5.8,7.7l-4.1-8.5l-1.8,0.9l4.8,9.1L183.7,43.7z M168.6,28.4l2.3,0c0.6,0,1.2,0.1,1.6,0.3c0.4,0.2,0.8,0.4,1.1,0.7
		c0.3,0.3,0.5,0.7,0.6,1c0.1,0.4,0.2,0.8,0.2,1.3c0,0.6-0.1,1.1-0.3,1.5c-0.2,0.4-0.5,0.7-0.9,1c-0.4,0.2-0.8,0.4-1.3,0.5
		c-0.5,0.1-0.9,0.2-1.4,0.2l-2,0L168.6,28.4z M166.6,43.3l2,0l0.1-7l1.2,0c0.4,0,0.7,0.1,1,0.2c0.3,0.1,0.5,0.3,0.7,0.5
		c0.2,0.2,0.4,0.4,0.6,0.7c0.2,0.3,0.4,0.6,0.7,0.9l3.7,5.2l1.7-1.1l-3.2-4.3c-0.2-0.2-0.3-0.5-0.5-0.7c-0.2-0.3-0.4-0.5-0.6-0.8
		c-0.2-0.2-0.4-0.5-0.7-0.7c-0.2-0.2-0.5-0.3-0.8-0.4v0c0.6-0.1,1.1-0.2,1.5-0.5c0.5-0.2,0.9-0.5,1.2-0.9c0.4-0.4,0.6-0.8,0.8-1.4
		c0.2-0.5,0.3-1.1,0.3-1.8c0-0.7-0.1-1.3-0.4-1.8c-0.2-0.5-0.6-1-1-1.3c-0.4-0.4-1-0.6-1.6-0.8c-0.6-0.2-1.3-0.3-2-0.3l-4.7,0
		L166.6,43.3z M158.9,36.6l-5.1,0.6l1.8-7.6l0,0L158.9,36.6z M149.8,44.6l1.9,0.4l1.6-6l6.4-0.7l2.8,5.5l1.9-0.9l-8-15.3l-1.8,0.2
		L149.8,44.6z M139.2,46.1c0.5,0.2,1,0.3,1.4,0.4c0.5,0.1,1,0.2,1.5,0.2c0.5,0,1-0.1,1.6-0.2c0.8-0.2,1.5-0.5,2.1-0.8
		c0.6-0.4,1-0.8,1.3-1.3c0.3-0.5,0.5-1.1,0.6-1.7c0.1-0.6,0.1-1.2,0-1.8c-0.1-0.6-0.3-1.1-0.6-1.6c-0.3-0.4-0.6-0.8-1-1
		c-0.4-0.3-0.8-0.5-1.3-0.7c-0.5-0.2-0.9-0.3-1.4-0.5c-0.5-0.1-0.9-0.3-1.4-0.4c-0.5-0.1-0.9-0.3-1.2-0.5c-0.4-0.2-0.7-0.4-1-0.7
		c-0.3-0.3-0.4-0.6-0.5-1.1c-0.1-0.5-0.1-0.9,0-1.3c0.1-0.4,0.3-0.7,0.5-1c0.2-0.3,0.5-0.5,0.8-0.7c0.3-0.2,0.6-0.3,1-0.4
		c0.5-0.1,0.9-0.1,1.3-0.1c0.4,0,0.8,0.1,1.1,0.2c0.4,0.1,0.7,0.2,1,0.4l0.4-1.6c-0.7-0.3-1.4-0.4-2.1-0.5c-0.7-0.1-1.5-0.1-2.2,0.1
		c-0.7,0.1-1.3,0.4-1.8,0.7c-0.5,0.3-1,0.7-1.3,1.2c-0.3,0.5-0.6,1-0.7,1.5c-0.1,0.6-0.1,1.2,0,1.8c0.1,0.7,0.4,1.3,0.7,1.7
		c0.3,0.5,0.6,0.8,1,1.1c0.4,0.3,0.8,0.5,1.3,0.7c0.5,0.2,0.9,0.3,1.4,0.4c0.5,0.1,0.9,0.2,1.4,0.3c0.4,0.1,0.8,0.3,1.2,0.4
		c0.4,0.2,0.7,0.4,0.9,0.7c0.3,0.3,0.4,0.7,0.6,1.2c0.1,0.6,0.1,1.1-0.1,1.6c-0.2,0.5-0.5,0.9-0.9,1.2c-0.4,0.3-0.9,0.6-1.5,0.7
		c-0.4,0.1-0.8,0.1-1.2,0.1c-0.4,0-0.8-0.1-1.2-0.2c-0.4-0.1-0.7-0.2-1.1-0.4L139.2,46.1z M131.8,42.1l-4.9,1.4l0.5-7.8l0,0
		L131.8,42.1z M124.2,51.5l1.9,0.1l0.6-6.2l6.2-1.8l3.7,4.9l1.7-1.2l-10.5-13.6l-1.8,0.5L124.2,51.5z M106.1,61.6l1.8-0.6l-4.7-13.3
		l0,0l10.5,9.9l1.6-0.9l-2.2-14.3l0,0l8.4,11.4l1.5-1.2l-10-13.2l-1.9,1l2.1,14.6l-10.7-9.9l-1.8,1L106.1,61.6z M91.2,71.2
		c0.5,0,1-0.1,1.5-0.2c0.5-0.1,0.9-0.3,1.4-0.5c0.5-0.2,0.9-0.5,1.4-0.8c0.7-0.5,1.2-1.1,1.6-1.6c0.4-0.6,0.6-1.2,0.7-1.8
		c0.1-0.6,0-1.2-0.1-1.8c-0.2-0.6-0.4-1.1-0.8-1.6c-0.4-0.5-0.8-0.9-1.2-1.2c-0.4-0.3-0.9-0.4-1.4-0.5c-0.5-0.1-1-0.1-1.4-0.1
		c-0.5,0-1,0.1-1.5,0.2c-0.5,0.1-1,0.2-1.4,0.2c-0.5,0.1-0.9,0.1-1.3,0.1c-0.4,0-0.8-0.1-1.2-0.2c-0.4-0.1-0.7-0.4-0.9-0.8
		c-0.3-0.4-0.5-0.8-0.5-1.2c-0.1-0.4-0.1-0.8,0-1.1c0.1-0.4,0.2-0.7,0.4-1c0.2-0.3,0.5-0.5,0.7-0.7c0.4-0.3,0.8-0.5,1.2-0.6
		c0.4-0.1,0.8-0.2,1.1-0.3c0.4,0,0.7-0.1,1.1-0.1l-0.3-1.6c-0.7,0.1-1.5,0.2-2.1,0.4c-0.7,0.2-1.4,0.6-2,1c-0.6,0.4-1,0.9-1.4,1.4
		c-0.3,0.5-0.6,1-0.7,1.6c-0.1,0.6-0.1,1.1,0,1.7c0.1,0.6,0.4,1.1,0.8,1.6c0.4,0.6,0.9,1,1.3,1.3c0.5,0.3,0.9,0.5,1.4,0.6
		c0.5,0.1,0.9,0.1,1.4,0.1c0.5,0,1-0.1,1.4-0.2c0.5-0.1,0.9-0.2,1.4-0.3c0.5-0.1,0.9-0.1,1.3-0.1c0.4,0,0.8,0.1,1.2,0.3
		c0.4,0.2,0.7,0.5,1,0.9c0.4,0.5,0.6,1,0.6,1.5c0.1,0.5,0,1-0.3,1.5c-0.2,0.5-0.6,0.9-1.1,1.3c-0.3,0.2-0.7,0.4-1.1,0.6
		c-0.4,0.1-0.8,0.3-1.2,0.3c-0.4,0.1-0.8,0.1-1.1,0.1L91.2,71.2z M82.3,71.1l-3.7,3.6l-3.3-7.1l0,0L82.3,71.1z M80,82.9l1.7-0.8
		l-2.4-5.7l4.6-4.5l5.6,2.6l0.9-1.8l-15.7-7.1l-1.3,1.3L80,82.9z M62.2,81.9l3.2-3.8l11.2,9.5l1.2-1.5l-11.2-9.5l3.2-3.8l-1.3-1.1
		l-7.6,9.1L62.2,81.9z M70.7,95.1l1.2-1.6l-13-9.9l-1.2,1.6L70.7,95.1z M63.3,105c0.5-0.2,0.9-0.5,1.3-0.8c0.4-0.3,0.8-0.6,1.1-1
		c0.3-0.4,0.6-0.8,0.9-1.3c0.4-0.7,0.7-1.5,0.8-2.1c0.1-0.7,0.1-1.3-0.1-1.9c-0.2-0.6-0.4-1.1-0.8-1.6c-0.4-0.5-0.8-0.9-1.4-1.2
		c-0.6-0.3-1.1-0.5-1.6-0.6c-0.5-0.1-1-0.1-1.5,0.1c-0.5,0.1-0.9,0.3-1.4,0.5c-0.4,0.2-0.9,0.5-1.3,0.7c-0.4,0.3-0.8,0.5-1.2,0.8
		c-0.4,0.2-0.8,0.5-1.2,0.6c-0.4,0.2-0.8,0.2-1.2,0.2c-0.4,0-0.8-0.1-1.2-0.3c-0.4-0.3-0.7-0.5-1-0.9c-0.2-0.3-0.4-0.7-0.4-1
		c-0.1-0.4,0-0.7,0-1.1c0.1-0.4,0.2-0.7,0.4-1c0.3-0.4,0.5-0.8,0.8-1c0.3-0.3,0.6-0.5,0.9-0.7c0.3-0.2,0.7-0.4,1-0.5l-0.9-1.4
		c-0.7,0.3-1.3,0.7-1.8,1.2c-0.6,0.5-1,1-1.4,1.7c-0.4,0.6-0.6,1.2-0.7,1.8c-0.1,0.6-0.1,1.2,0,1.7c0.1,0.6,0.3,1.1,0.7,1.5
		c0.3,0.5,0.8,0.9,1.3,1.2c0.6,0.4,1.2,0.6,1.7,0.7c0.5,0.1,1,0.1,1.5,0c0.5-0.1,0.9-0.3,1.3-0.5c0.4-0.2,0.8-0.5,1.2-0.7
		c0.4-0.3,0.8-0.5,1.2-0.8c0.4-0.3,0.8-0.5,1.1-0.6c0.4-0.2,0.8-0.2,1.2-0.2c0.4,0,0.8,0.2,1.3,0.4c0.5,0.3,0.9,0.7,1.2,1.1
		c0.3,0.5,0.4,0.9,0.3,1.5c0,0.5-0.2,1-0.5,1.6c-0.2,0.4-0.5,0.7-0.8,1c-0.3,0.3-0.6,0.5-1,0.8c-0.3,0.2-0.7,0.4-1,0.5L63.3,105z
		 M45.6,108.6l1-2.1c0.3-0.6,0.6-1,0.9-1.3c0.4-0.3,0.7-0.5,1.1-0.7c0.4-0.1,0.8-0.1,1.2-0.1c0.4,0.1,0.8,0.2,1.2,0.4
		c0.5,0.3,0.9,0.6,1.2,1c0.3,0.4,0.4,0.8,0.5,1.2c0,0.4,0,0.9-0.1,1.4c-0.1,0.5-0.3,0.9-0.5,1.3l-0.8,1.8L45.6,108.6z M58.1,116.9
		l0.9-1.8l-6.3-3.1l0.5-1.1c0.2-0.3,0.3-0.6,0.6-0.8c0.2-0.2,0.5-0.3,0.7-0.4c0.3-0.1,0.6-0.2,0.9-0.2c0.3-0.1,0.7-0.1,1.1-0.2
		l6.3-1.1l-0.2-2l-5.3,1c-0.3,0.1-0.6,0.1-0.9,0.2c-0.3,0.1-0.6,0.1-1,0.2c-0.3,0.1-0.6,0.2-0.9,0.3c-0.3,0.1-0.5,0.3-0.7,0.5l0,0
		c0.2-0.5,0.3-1.1,0.3-1.6c0-0.5-0.1-1-0.3-1.5c-0.2-0.5-0.5-0.9-0.9-1.3c-0.4-0.4-0.9-0.8-1.5-1.1c-0.6-0.3-1.2-0.4-1.8-0.5
		c-0.6,0-1.1,0.1-1.7,0.3c-0.5,0.2-1,0.6-1.4,1.1c-0.4,0.5-0.8,1-1.1,1.7l-2.1,4.3L58.1,116.9z M54.2,127.5l2.9-7.8l-1.6-0.6
		l-2.2,5.9L48,123l2.1-5.6l-1.6-0.6l-2.1,5.6l-5.2-2l2.2-5.7l-1.6-0.6l-2.9,7.5L54.2,127.5z M51.3,137.8l0.4-1.8l-14.1-10.3l-1,1.6
		l12.5,8.9l-15.1,1.7l0.3,2L51.3,137.8z M49.1,148.3l0.3-1.9l-16.1-2.9l-0.3,1.9L49.1,148.3z M47.7,164.8l0.1-2l-13-0.7l0,0l13.8-8
		l-0.6-1.7l-16-0.9l-0.1,2l12.9,0.7l0,0l-13.7,8l0.7,1.7L47.7,164.8z M31.5,171.5l10.1-0.5c0.9,0,1.7,0,2.4,0.2
		c0.6,0.2,1.2,0.5,1.6,0.8c0.4,0.4,0.7,0.8,0.9,1.3c0.2,0.5,0.3,1,0.3,1.6c0.1,1.4-0.2,2.5-0.9,3.2c-0.7,0.8-1.7,1.2-3.2,1.3
		c-0.8,0-1.5,0.1-2.3,0.1c-0.8,0-1.5,0.1-2.3,0.1l-6,0.3l0.1,1.9l5.7-0.3c0.8,0,1.6-0.1,2.4-0.1c0.8,0,1.5-0.1,2.1-0.1
		c1.2-0.1,2.3-0.3,3.1-0.7c0.8-0.4,1.5-0.8,1.9-1.4c0.5-0.6,0.8-1.2,1-2c0.2-0.7,0.2-1.6,0.2-2.4c0-0.6-0.1-1.2-0.3-1.8
		c-0.2-0.6-0.4-1.2-0.7-1.7c-0.3-0.5-0.7-1-1.3-1.4c-0.5-0.4-1.2-0.7-1.9-0.9c-0.8-0.2-1.7-0.3-2.7-0.2l-10.2,0.5L31.5,171.5z"/>
	<path d="M310,182.1l-1.5-0.9c0.2-0.5,0.4-0.8,0.6-1.1c0.2-0.3,0.4-0.6,0.5-1c0.1-0.4,0.2-0.8,0.3-1.3c0-0.3,0-0.7-0.1-1
		c-0.1-0.3-0.2-0.6-0.4-0.9c-0.2-0.3-0.5-0.5-0.8-0.7c-0.3-0.2-0.7-0.3-1.2-0.4c-0.5,0-0.9,0.1-1.1,0.2c-0.3,0.2-0.6,0.4-0.9,0.7
		c-0.3,0.3-0.5,0.7-0.8,1l-0.8,1.2c-0.3,0.4-0.5,0.8-0.8,1.2c-0.3,0.4-0.7,0.8-1,1.1c-0.4,0.3-0.8,0.6-1.3,0.7
		c-0.5,0.2-1.1,0.2-1.7,0.2c-0.6-0.1-1.2-0.2-1.8-0.5c-0.6-0.3-1-0.6-1.5-1.1c-0.4-0.5-0.7-1-0.9-1.7c-0.2-0.7-0.3-1.5-0.2-2.3
		c0.1-0.6,0.1-1.1,0.3-1.6c0.1-0.5,0.3-0.9,0.6-1.4c0.2-0.4,0.5-0.9,0.8-1.3l1.5,1c-0.2,0.4-0.4,0.7-0.6,1.1
		c-0.2,0.3-0.4,0.7-0.5,1.1c-0.1,0.4-0.2,0.8-0.3,1.2c0,0.6,0,1.1,0.2,1.6c0.2,0.5,0.5,0.8,0.9,1.1c0.4,0.3,0.9,0.5,1.5,0.5
		c0.7,0.1,1-0.1,1.3-0.2c0.4-0.2,0.7-0.4,0.9-0.7c0.3-0.3,0.5-0.6,0.8-1c0.2-0.4,0.5-0.8,0.7-1.2c0.2-0.4,0.5-0.8,0.8-1.2
		c0.3-0.4,0.6-0.7,1-1c0.4-0.3,0.9-0.5,1.4-0.7c0.5-0.2,1.2-0.2,1.9-0.2c0.6,0.1,1.2,0.2,1.8,0.5c0.5,0.3,1,0.7,1.3,1.1
		c0.4,0.5,0.6,1,0.8,1.6c0.2,0.6,0.2,1.3,0.2,2c-0.1,0.8-0.3,1.5-0.5,2.2C310.9,180.7,310.5,181.4,310,182.1L310,182.1L310,182.1z
		 M307.2,174.6c0.7,0.1,1.1,0.2,1.5,0.4c0.4,0.2,0.7,0.5,0.9,0.8c0.2,0.3,0.4,0.6,0.5,1c0.1,0.3,0.1,0.7,0.1,1.1
		c0,0.5-0.1,0.9-0.3,1.3c-0.1,0.4-0.3,0.7-0.5,1.1c-0.2,0.3-0.4,0.6-0.7,0.9l1.3,0.7c0.4-0.6,0.8-1.2,1-1.8c0.3-0.6,0.4-1.4,0.5-2.1
		c0.1-0.7,0-1.3-0.2-1.9c-0.2-0.6-0.4-1.1-0.7-1.5c-0.3-0.4-0.8-0.8-1.2-1.1c-0.5-0.3-1.1-0.4-1.7-0.5c-0.7-0.1-1.3,0-1.8,0.1
		c-0.5,0.1-0.9,0.4-1.3,0.7c-0.4,0.3-0.7,0.6-1,1c-0.3,0.4-0.5,0.8-0.8,1.2c-0.2,0.4-0.5,0.8-0.7,1.2c-0.2,0.4-0.5,0.8-0.8,1.1
		c-0.3,0.3-0.6,0.6-1,0.7c-0.3,0.1-0.7,0.2-1.1,0.2l-0.3,0c-0.6-0.1-1.2-0.2-1.6-0.5c-0.4-0.3-0.8-0.7-1-1.2
		c-0.2-0.5-0.3-1.1-0.2-1.7c0-0.4,0.1-0.8,0.3-1.2c0.2-0.4,0.3-0.8,0.5-1.1c0.2-0.3,0.4-0.7,0.7-0.9l-1.4-0.8
		c-0.2,0.4-0.4,0.8-0.7,1.2c-0.2,0.4-0.4,0.9-0.5,1.3c-0.1,0.5-0.2,1-0.3,1.5c-0.1,0.8,0,1.6,0.2,2.2c0.2,0.6,0.5,1.2,0.9,1.6
		c0.4,0.4,0.9,0.8,1.4,1c0.5,0.2,1.1,0.4,1.7,0.4c0.6,0.1,1.2,0,1.6-0.2c0.5-0.2,0.9-0.4,1.2-0.7c0.4-0.3,0.7-0.6,1-1
		c0.3-0.4,0.6-0.8,0.8-1.2l0.8-1.2c0.3-0.4,0.5-0.8,0.8-1.1c0.3-0.3,0.6-0.6,1-0.8C306.5,174.6,306.8,174.6,307.2,174.6L307.2,174.6
		z M32,182l-0.1-2.1l10.7-0.6c1.4-0.1,2.5-0.5,3.2-1.3c0.6-0.7,0.9-1.8,0.8-3.2c0-0.6-0.1-1.1-0.3-1.6c-0.2-0.5-0.5-0.9-0.9-1.3
		c-0.4-0.4-0.9-0.6-1.5-0.8c-0.5-0.1-1.1-0.2-1.8-0.2l-0.5,0l-10.1,0.5l-0.2-2.1l10.8-0.6c0.8,0,1.6,0.1,2.2,0.2
		c0.8,0.2,1.4,0.5,2,0.9c0.5,0.4,1,0.9,1.3,1.4c0.3,0.5,0.6,1.1,0.7,1.7c0.2,0.6,0.3,1.2,0.3,1.8c0.1,0.9,0,1.7-0.2,2.4
		c-0.2,0.8-0.5,1.4-1,2c-0.5,0.6-1.1,1.1-2,1.4c-0.8,0.4-1.9,0.6-3.1,0.7c-0.7,0-1.4,0.1-2.1,0.1L32,182L32,182z M42.1,170.8
		c0.7,0,1.3,0.1,1.9,0.2c0.7,0.2,1.2,0.5,1.6,0.9c0.4,0.4,0.7,0.8,0.9,1.3c0.2,0.5,0.3,1.1,0.3,1.7c0.1,1.4-0.2,2.5-0.9,3.3
		c-0.7,0.8-1.8,1.2-3.3,1.3L32,180.1l0.2,1.7l7.9-0.4c0.8,0,1.5-0.1,2.1-0.1c1.2-0.1,2.2-0.3,3-0.6c0.8-0.3,1.4-0.8,1.9-1.4
		c0.5-0.6,0.8-1.2,1-2c0.2-0.7,0.2-1.5,0.2-2.4c0-0.6-0.1-1.2-0.3-1.8c-0.1-0.6-0.4-1.1-0.7-1.6c-0.3-0.5-0.7-0.9-1.2-1.3
		c-0.5-0.4-1.1-0.7-1.9-0.9c-0.6-0.2-1.3-0.2-2.2-0.2l-0.5,0l-10.2,0.5l0.2,1.8L42.1,170.8L42.1,170.8z M295.2,168.4l0-2.1l16.5-0.4
		l0.2,2.1L295.2,168.4L295.2,168.4z M311.5,166.1l-16.3,0.3l0.1,1.7l16.3-0.2L311.5,166.1L311.5,166.1z M47.8,164.9L31.8,164
		l-0.8-1.7l12.1-7.2l-12,7.3l0.7,1.5l15.7,0.8l0.1-1.9l-12.9-0.6l0.1-0.1l13,0.5l0,2.1L47.8,164.9L47.8,164.9z M299.3,163.1
		c-0.5,0-1-0.1-1.5-0.2c-0.6-0.2-1.1-0.5-1.6-0.9c-0.5-0.4-0.9-0.9-1.2-1.6c-0.3-0.6-0.5-1.4-0.5-2.3c0-0.6,0-1.1,0.1-1.6
		c0.1-0.5,0.2-1,0.4-1.5c0.2-0.5,0.4-0.9,0.6-1.4l1.7,0.7c-0.1,0.5-0.3,0.8-0.5,1.1c-0.2,0.4-0.3,0.7-0.4,1.1
		c-0.1,0.4-0.1,0.8-0.1,1.2c0,0.6,0.2,1.1,0.4,1.5c0.3,0.4,0.6,0.8,1,1c0.4,0.2,0.8,0.3,1.3,0.3c0.7,0,1.1-0.2,1.4-0.4
		c0.3-0.2,0.6-0.5,0.8-0.8c0.2-0.3,0.4-0.7,0.6-1.1c0.2-0.4,0.3-0.9,0.5-1.3c0.2-0.5,0.4-0.9,0.6-1.3c0.2-0.4,0.5-0.8,0.9-1.2
		c0.3-0.4,0.8-0.7,1.3-0.9c0.5-0.2,1.1-0.4,1.8-0.4c0.9,0,1.3,0.1,1.8,0.3c0.5,0.2,1,0.5,1.5,0.9c0.4,0.4,0.8,0.9,1,1.5
		c0.2,0.6,0.4,1.2,0.4,1.9c0,0.8,0,1.5-0.2,2.2c-0.2,0.7-0.5,1.4-0.8,2.1l-1.7-0.6c0.1-0.5,0.3-0.8,0.5-1.1c0.2-0.3,0.3-0.7,0.4-1.1
		c0.1-0.4,0.1-0.8,0.1-1.3c0-0.3-0.1-0.7-0.2-1c-0.1-0.3-0.3-0.6-0.6-0.9c-0.2-0.3-0.5-0.5-0.9-0.6c-0.3-0.1-0.7-0.2-1-0.2
		c-0.6,0-1,0.1-1.3,0.4c-0.3,0.2-0.6,0.5-0.8,0.8c-0.2,0.3-0.4,0.7-0.6,1.1c-0.2,0.4-0.4,0.9-0.6,1.3c-0.2,0.5-0.4,0.9-0.7,1.3
		c-0.3,0.5-0.5,0.9-0.9,1.2c-0.3,0.4-0.7,0.7-1.2,0.9c-0.5,0.2-1,0.4-1.7,0.4L299.3,163.1L299.3,163.1z M295.7,153.9
		c-0.1,0.4-0.3,0.8-0.5,1.3c-0.2,0.4-0.3,0.9-0.3,1.4c-0.1,0.5-0.1,1-0.1,1.6c0,0.8,0.2,1.6,0.5,2.2c0.3,0.6,0.7,1.1,1.1,1.5
		c0.5,0.4,1,0.7,1.5,0.8c0.5,0.1,0.9,0.2,1.4,0.2l0.3,0c0.6,0,1.2-0.2,1.6-0.4c0.4-0.2,0.8-0.5,1.1-0.8c0.3-0.3,0.6-0.7,0.8-1.2
		c0.2-0.4,0.4-0.9,0.6-1.3c0.2-0.5,0.4-0.9,0.6-1.3c0.2-0.4,0.4-0.8,0.6-1.2c0.2-0.4,0.5-0.7,0.8-0.9c0.3-0.2,0.7-0.4,1.2-0.4
		c0.7,0,1,0.1,1.3,0.2c0.4,0.2,0.7,0.4,1,0.7s0.5,0.6,0.6,0.9c0.1,0.3,0.2,0.7,0.2,1.1c0,0.5,0,0.9-0.1,1.3
		c-0.1,0.4-0.2,0.8-0.4,1.1c-0.2,0.3-0.3,0.7-0.5,1l1.5,0.5c0.2-0.6,0.5-1.3,0.7-2c0.2-0.7,0.3-1.4,0.2-2.2c0-0.7-0.2-1.3-0.4-1.9
		c-0.2-0.6-0.6-1-0.9-1.4c-0.4-0.4-0.9-0.7-1.4-0.9c-0.5-0.2-0.9-0.3-1.5-0.3c-1,0-1.5,0.2-2,0.4c-0.5,0.2-0.9,0.5-1.2,0.8
		c-0.3,0.3-0.6,0.7-0.8,1.1c-0.2,0.4-0.4,0.9-0.6,1.3c-0.2,0.5-0.3,0.9-0.5,1.3c-0.2,0.4-0.4,0.8-0.6,1.2c-0.3,0.4-0.6,0.6-0.9,0.9
		c-0.4,0.2-0.8,0.4-1.3,0.4c-0.7,0.1-1.3-0.1-1.7-0.3c-0.5-0.2-0.9-0.6-1.1-1.1c-0.3-0.5-0.4-1-0.5-1.6c0-0.4,0-0.8,0.1-1.3
		c0.1-0.4,0.2-0.8,0.4-1.2c0.2-0.4,0.3-0.7,0.5-1L295.7,153.9L295.7,153.9z M36.4,161.2l12.1-7.2l-0.6-1.6L32,151.6l0,1.9l12.8,0.6
		l-0.1,0.1l-12.8-0.5l0-2.1l16.1,0.8l0.7,1.8L36.4,161.2L36.4,161.2z M294.4,150.8l-1-1.6l10.5-9.6l-10.3,9.6l0.9,1.4l15.8-2.4
		l-0.4-1.8l-12.7,2.1l0.1-0.1l12.7-2.1l0.4,2L294.4,150.8L294.4,150.8z M49.2,148.4L33,145.5l0.2-2.1l16.3,2.8L49.2,148.4
		L49.2,148.4z M33.3,143.6l-0.2,1.8l15.9,2.7l0.3-1.8L33.3,143.6L33.3,143.6z M298.6,147.1l10.2-9.6l-1-1.3l-15.7,2.5l0.4,1.8
		l12.8-2.1l-0.1,0.1l-12.8,2.2l-0.4-2l15.9-2.6l1.1,1.5L298.6,147.1L298.6,147.1z M34.3,140.1l-0.3-2.1l15.2-1.8l-12.6-8.7l0.9-1.8
		l14.3,10.2l-0.4,1.9L34.3,140.1L34.3,140.1z M37.6,125.8l-0.8,1.6l12.5,8.7L34.1,138l0.4,1.8l16.8-2.2l0.3-1.7L37.6,125.8
		L37.6,125.8z M291.5,135.8l-2.6-8l15.7-5.2l2.7,7.7l-1.7,0.7l-2.1-5.9l-5.2,1.8l2,5.5l-1.7,0.7l-2-5.7l-5.3,1.8l2.1,5.8
		L291.5,135.8L291.5,135.8z M304.5,122.8l-15.4,5.1l2.6,7.6l1.5-0.5l-2.1-5.8l5.5-1.9l2,5.7l1.5-0.6l-2-5.5l5.4-1.8l2.1,5.9l1.5-0.6
		L304.5,122.8L304.5,122.8z M54.2,127.7l-15.4-6l2.8-7.7l1.7,0.5l-2.1,5.9l5.1,1.9l2-5.5l1.7,0.5l-2,5.7l5.3,1.9l2.1-5.8l1.7,0.5
		L54.2,127.7L54.2,127.7z M41.7,114.2l-2.7,7.5l15.1,5.7l2.9-7.6l-1.5-0.5l-2.1,5.8l-5.5-2l2-5.7l-1.5-0.5l-2,5.5l-5.3-1.9l2.1-5.9
		L41.7,114.2L41.7,114.2z M288.1,123.9l-1.4-1.3l7.7-12l-7.5,12l1.2,1.1l14.6-6.4l-0.9-1.6l-11.7,5.3l0.1-0.1l11.7-5.4l1,1.9
		L288.1,123.9L288.1,123.9z M291.2,119.3l7.4-12l-1.3-1l-14.5,6.5l0.9,1.6l11.8-5.3l-0.1,0.1l-11.8,5.4l-1-1.9l14.7-6.6l1.5,1.2
		L291.2,119.3L291.2,119.3z M58.2,117.1l-14.8-7.3l2-4.4c0.3-0.7,0.7-1.3,1.2-1.7c0.4-0.5,0.9-0.8,1.5-1.1c0.5-0.2,1-0.3,1.6-0.3
		c0.7,0,1.3,0.2,2,0.5c0.6,0.3,1.1,0.7,1.5,1.1c0.4,0.4,0.7,0.9,0.9,1.4c0.2,0.5,0.3,1,0.3,1.6c0,0.5-0.1,0.9-0.2,1.4
		c0.1-0.2,0.3-0.3,0.5-0.4c0.3-0.1,0.6-0.3,0.9-0.3c0.3-0.1,0.7-0.2,1-0.2l6.2-1.1l0.4,2.1l-7.3,1.3c-0.6,0.1-0.8,0.2-1.1,0.3
		c-0.3,0.1-0.5,0.2-0.7,0.4c-0.2,0.2-0.4,0.4-0.5,0.7l-0.5,1.1l6.2,3L58.2,117.1L58.2,117.1z M49.7,102.5c-0.6,0-1.1,0.1-1.6,0.3
		c-0.5,0.2-1,0.6-1.4,1c-0.4,0.5-0.8,1-1.1,1.7l-2.1,4.3l14.5,7l0.8-1.7l-6.2-3l0.5-1.3c0.2-0.3,0.4-0.6,0.6-0.8
		c0.2-0.2,0.5-0.3,0.8-0.5c0.3-0.1,0.6-0.2,0.9-0.2l7.4-1.3l-0.3-1.9l-6,1.2c-0.3,0.1-0.6,0.1-1,0.2c-0.3,0.1-0.6,0.2-0.9,0.3
		c-0.3,0.1-0.5,0.3-0.6,0.5c0,0,0-0.1,0-0.1c0,0,0,0,0,0c0,0,0-0.1,0-0.1c0-0.6,0-1.1,0-1.5c0-0.5-0.1-1-0.3-1.5
		c-0.2-0.5-0.5-0.9-0.8-1.3c-0.4-0.4-0.9-0.7-1.5-1C50.9,102.6,50.3,102.5,49.7,102.5C49.7,102.5,49.7,102.5,49.7,102.5L49.7,102.5z
		 M51.4,111.4l-5.9-2.8l1-2.3c0.3-0.6,0.6-1,1-1.4c0.4-0.3,0.7-0.6,1.2-0.7c0.4-0.1,0.8-0.1,1.3-0.1c0.4,0.1,0.8,0.2,1.2,0.4
		c0.6,0.3,1,0.6,1.2,1c0.3,0.4,0.4,0.8,0.5,1.3c0.1,0.5,0,0.9-0.1,1.4c-0.1,0.5-0.3,0.9-0.5,1.4L51.4,111.4L51.4,111.4z M49.4,104.5
		c-0.3,0-0.5,0-0.8,0.1c-0.4,0.1-0.7,0.3-1.1,0.6c-0.3,0.3-0.6,0.7-0.9,1.3l-1,2.1l5.7,2.7l0.7-1.7c0.2-0.4,0.4-0.9,0.5-1.3
		c0.1-0.4,0.1-0.9,0.1-1.3c0-0.4-0.2-0.8-0.5-1.2c-0.3-0.4-0.6-0.7-1.2-0.9c-0.4-0.2-0.8-0.3-1.2-0.4
		C49.7,104.5,49.6,104.5,49.4,104.5L49.4,104.5z M282.6,107c-0.2,0-0.4,0-0.6,0c-0.7-0.1-1.3-0.3-1.8-0.6c-0.5-0.3-1-0.7-1.4-1.1
		c-0.4-0.5-0.8-0.9-1.1-1.5c-0.5-0.7-0.8-1.5-1-2.2c-0.2-0.8-0.3-1.5-0.1-2.3c0.1-0.8,0.5-1.5,1-2.2c0.5-0.7,1.4-1.4,2.4-2.1
		c0.5-0.4,1.1-0.7,1.8-1.1l6.8-4.2l1.2,1.7l-7.1,4.6c-0.7,0.4-1.3,0.8-1.9,1.2c-1.2,0.8-1.9,1.7-2.2,2.6c-0.2,1,0.1,2,0.8,3.2
		c0.3,0.5,0.7,0.9,1.1,1.2c0.4,0.3,0.9,0.6,1.4,0.7c0.5,0.1,1.1,0.1,1.7,0c0.6-0.1,1.4-0.5,2.1-0.9l8.6-5.3l1.2,1.7l-8.7,5.5
		c-0.9,0.6-1.7,0.9-2.5,1.1C283.5,106.9,283,107,282.6,107L282.6,107z M288.5,89.7l-6.7,4.3c-0.6,0.4-1.2,0.8-1.8,1.1
		c-1,0.7-1.8,1.3-2.4,2c-0.5,0.7-0.9,1.4-1,2.1c-0.1,0.7-0.1,1.4,0.1,2.2c0.2,0.7,0.5,1.5,1,2.2c0.3,0.5,0.7,1,1.1,1.4
		c0.4,0.4,0.9,0.8,1.4,1.1c0.5,0.3,1.1,0.5,1.7,0.6c0.6,0.1,1.3,0,2.1-0.2c0.8-0.2,1.6-0.5,2.5-1.1l8.7-5.4l-1.1-1.5l-8.4,5.4
		c-0.8,0.5-1.5,0.8-2.2,1c-0.7,0.2-1.3,0.2-1.8,0c-0.5-0.1-1-0.4-1.5-0.7c-0.4-0.3-0.8-0.8-1.1-1.3c-0.8-1.2-1-2.3-0.8-3.3
		c0.2-1,1-2,2.3-2.8c0.6-0.4,1.3-0.8,2-1.2l7.1-4.4L288.5,89.7L288.5,89.7z M63.2,105.1l-0.9-1.6c0.4-0.3,0.7-0.5,1-0.7
		c0.3-0.2,0.7-0.5,0.9-0.7c0.3-0.3,0.6-0.6,0.8-0.9c0.3-0.5,0.5-1,0.5-1.5c0-0.5-0.1-1-0.3-1.4c-0.2-0.4-0.6-0.8-1.1-1.1
		c-0.4-0.3-0.8-0.4-1.2-0.4c-0.5,0-0.8,0.1-1.1,0.2c-0.4,0.1-0.7,0.3-1.1,0.6c-0.4,0.2-0.8,0.5-1.2,0.8c-0.4,0.3-0.8,0.5-1.2,0.8
		c-0.4,0.2-0.9,0.4-1.4,0.5c-0.5,0.1-1,0.1-1.5,0c-0.5-0.1-1.1-0.3-1.8-0.7c-0.6-0.3-1-0.7-1.4-1.2c-0.3-0.5-0.6-1-0.7-1.6
		c-0.1-0.6-0.1-1.2,0-1.8c0.1-0.6,0.4-1.2,0.7-1.8c0.4-0.7,0.9-1.3,1.4-1.7c0.5-0.5,1.2-0.9,1.8-1.2l1,1.4c-0.4,0.3-0.7,0.5-1,0.7
		c-0.3,0.2-0.6,0.4-0.9,0.7c-0.3,0.3-0.6,0.6-0.8,1c-0.2,0.3-0.3,0.6-0.4,0.9c-0.1,0.3-0.1,0.7,0,1c0.1,0.3,0.2,0.7,0.4,1
		c0.2,0.3,0.5,0.6,0.9,0.8c0.7,0.4,1.4,0.4,2.2,0.1c0.4-0.2,0.8-0.4,1.2-0.6l1.2-0.8c0.4-0.3,0.9-0.5,1.3-0.8
		c0.5-0.2,0.9-0.4,1.4-0.5c0.5-0.1,1-0.1,1.5-0.1c0.5,0.1,1.1,0.3,1.6,0.6c0.5,0.3,1,0.7,1.4,1.2c0.4,0.5,0.7,1,0.8,1.6
		c0.2,0.6,0.2,1.3,0.1,1.9c-0.1,0.7-0.4,1.4-0.8,2.2c-0.3,0.5-0.6,0.9-0.9,1.3c-0.3,0.4-0.7,0.7-1.1,1
		C64.2,104.6,63.8,104.8,63.2,105.1L63.2,105.1L63.2,105.1z M62.8,96.5c0.6,0,1,0.2,1.5,0.4c0.5,0.3,0.9,0.7,1.2,1.2
		c0.3,0.5,0.4,1,0.3,1.5c0,0.5-0.2,1.1-0.5,1.6c-0.2,0.4-0.5,0.7-0.8,1c-0.3,0.3-0.6,0.6-1,0.8c-0.4,0.2-0.7,0.4-1,0.5l0.8,1.2
		c0.4-0.2,0.8-0.5,1.2-0.7c0.4-0.3,0.7-0.6,1.1-1c0.3-0.4,0.6-0.8,0.9-1.3c0.4-0.7,0.7-1.4,0.8-2.1c0.1-0.7,0.1-1.3-0.1-1.8
		c-0.2-0.6-0.4-1.1-0.8-1.5c-0.4-0.5-0.8-0.8-1.3-1.1c-0.5-0.3-1.1-0.5-1.5-0.6c-0.5-0.1-1,0-1.4,0.1c-0.4,0.1-0.9,0.3-1.3,0.5
		c-0.4,0.2-0.9,0.5-1.3,0.7l-1.2,0.8c-0.4,0.3-0.8,0.5-1.2,0.6c-0.8,0.3-1.6,0.4-2.4-0.1c-0.4-0.3-0.8-0.6-1-0.9
		c-0.2-0.3-0.4-0.7-0.4-1.1c-0.1-0.4,0-0.8,0-1.1c0.1-0.4,0.2-0.7,0.4-1c0.3-0.4,0.5-0.8,0.8-1.1c0.3-0.3,0.6-0.5,0.9-0.7
		c0.3-0.2,0.7-0.4,1-0.5l-0.9-1.2c-0.5,0.4-1.1,0.8-1.6,1.2c-0.5,0.5-1,1-1.4,1.7c-0.4,0.6-0.6,1.2-0.7,1.8c-0.1,0.6-0.1,1.2,0,1.7
		c0.1,0.5,0.3,1,0.7,1.5c0.3,0.5,0.8,0.8,1.3,1.2c0.6,0.4,1.2,0.6,1.7,0.7c0.5,0.1,1,0.1,1.5,0c0.5-0.1,0.9-0.3,1.3-0.5
		c0.4-0.2,0.8-0.5,1.2-0.7c0.4-0.3,0.8-0.5,1.2-0.8c0.4-0.3,0.8-0.5,1.2-0.6C62.1,96.6,62.4,96.5,62.8,96.5L62.8,96.5z M273.9,96.2
		l-2-0.8l2.2-7.3c0.1-0.3,0.2-0.6,0.2-0.9c0-0.3,0-0.5-0.1-0.8c-0.1-0.3-0.2-0.5-0.4-0.8l-0.8-1l-5.5,4.2l-1.3-1.6l13.1-10l3,3.8
		c0.5,0.6,0.8,1.2,1,1.8c0.2,0.6,0.3,1.2,0.3,1.8c0,0.6-0.2,1.2-0.5,1.7c-0.3,0.5-0.7,1-1.3,1.4c-0.5,0.4-1.1,0.7-1.7,0.9
		c-0.6,0.2-1.1,0.2-1.6,0.2c-0.5-0.1-1.1-0.2-1.5-0.5c-0.4-0.2-0.8-0.5-1.2-0.8c0.1,0.2,0.1,0.4,0.1,0.6c0,0.3,0,0.6-0.1,1
		c-0.1,0.3-0.2,0.7-0.3,1L273.9,96.2L273.9,96.2z M273.1,84.5l0.9,1c0.2,0.3,0.4,0.6,0.5,0.9c0.1,0.3,0.1,0.6,0.1,0.9
		c0,0.3-0.1,0.6-0.2,0.9l-2.3,7.2l1.7,0.5l1.8-5.9c0.1-0.3,0.2-0.6,0.2-1c0.1-0.3,0.1-0.6,0.1-0.9c0-0.3-0.1-0.5-0.2-0.8
		c0,0,0.1,0,0.1,0c0,0,0,0,0,0c0,0,0,0,0.1,0c0.6,0.2,1,0.5,1.4,0.7c0.4,0.2,0.9,0.4,1.5,0.4c0.5,0.1,1,0,1.5-0.2
		c0.5-0.2,1.1-0.4,1.6-0.8c0.5-0.4,0.9-0.9,1.2-1.4c0.3-0.5,0.4-1,0.4-1.6c0-0.6-0.1-1.1-0.3-1.7c-0.2-0.6-0.5-1.2-1-1.8l-2.9-3.8
		l-12.9,9.8l1.2,1.4L273.1,84.5L273.1,84.5z M70.7,95.3l-13.1-10l1.1-1.7l13.2,9.9L70.7,95.3L70.7,95.3z M58.8,83.8l-1,1.5L70.7,95
		l1.1-1.5L58.8,83.8L58.8,83.8z M76.6,87.8l-11.3-9.5l-3,3.8l-1.5-1.1l7.6-9.3l1.5,1.1l-3.2,4L77.9,86L76.6,87.8L76.6,87.8z
		 M65.3,78.1l11.3,9.4l1.2-1.4l-11.2-9.3l3.2-4l-1.3-0.9L61,80.9l1.3,0.9L65.3,78.1L65.3,78.1z M278.6,87.1c-0.3,0-0.6-0.1-0.9-0.2
		c-0.4-0.2-0.8-0.4-1.2-0.7c-0.4-0.3-0.7-0.7-1-1.1l-1.2-1.6l5.2-4.1l1.5,1.9c0.4,0.5,0.7,1,0.8,1.5c0.1,0.5,0.2,0.9,0.1,1.3
		c-0.1,0.4-0.2,0.8-0.5,1.2c-0.2,0.3-0.5,0.7-0.9,0.9c-0.5,0.4-1,0.6-1.4,0.7C278.9,87.1,278.7,87.1,278.6,87.1L278.6,87.1z
		 M279.5,79.9l-5,3.8l1.2,1.4c0.3,0.4,0.6,0.7,1,1c0.3,0.3,0.7,0.5,1.1,0.7c0.4,0.2,0.8,0.2,1.2,0.1c0.4-0.1,0.9-0.3,1.3-0.6
		c0.3-0.3,0.6-0.6,0.9-0.9c0.2-0.3,0.4-0.7,0.5-1.1c0.1-0.4,0-0.8-0.1-1.2c-0.1-0.5-0.4-0.9-0.8-1.4L279.5,79.9L279.5,79.9z
		 M264.6,83.2c-0.5,0-1.1-0.1-1.6-0.3c-0.8-0.3-1.5-0.9-2.2-1.7l-3-3.3L270,66.9l3.1,3.2c0.6,0.7,1,1.3,1.2,1.9
		c0.2,0.6,0.3,1.2,0.3,1.7c-0.1,0.5-0.2,1-0.4,1.5c-0.2,0.4-0.5,0.8-0.9,1.1c-0.8,0.7-1.6,1.1-2.4,1.2c-0.8,0.1-1.6-0.1-2.4-0.6
		c0.9,0.2,1.6,0.5,2.4,0.4c0.8-0.1,1.5-0.5,2.2-1.1c0.3-0.3,0.6-0.7,0.9-1.1c0.2-0.4,0.4-0.9,0.4-1.4c0-0.5,0-1.1-0.3-1.6
		c-0.2-0.6-0.6-1.2-1.2-1.8L270,67l-12,10.9l3,3.1c0.7,0.8,1.4,1.3,2.2,1.6c0.7,0.3,1.5,0.4,2.3,0.3c0.8-0.1,1.5-0.5,2.2-1.2
		c0.5-0.5,0.9-1,1.1-1.5c0.2-0.5,0.3-1.1,0.3-1.7c0-0.6-0.2-1.1-0.6-1.7c0,0,0.1,0,0.1,0c0.5,0.5,0.7,1.1,0.7,1.7
		c0,0.6-0.1,1.2-0.3,1.8c-0.2,0.6-0.6,1.1-1.2,1.6c-0.7,0.7-1.5,1.1-2.3,1.2C265.1,83.2,264.9,83.2,264.6,83.2L264.6,83.2z M80,83.1
		l-6.6-16.2l1.4-1.4l15.8,7.1l-0.9,2l-5.7-2.6l-4.5,4.5l2.4,5.6L80,83.1L80,83.1z M74.8,65.6l-1.2,1.3l6.5,15.9l1.6-0.8l-2.5-5.6
		l4.7-4.7l5.7,2.6l0.8-1.8L74.8,65.6L74.8,65.6z M264.3,81.3c-0.3,0-0.7-0.1-1-0.2c-0.5-0.2-1-0.6-1.4-1.1l-1.5-1.7L265,74l1.3,1.4
		c0.5,0.6,0.9,1.1,1.1,1.7c0.2,0.6,0.2,1.1,0.1,1.7c-0.1,0.5-0.5,1-1,1.5c-0.6,0.5-1.1,0.8-1.7,1C264.7,81.3,264.5,81.3,264.3,81.3
		L264.3,81.3z M265,74.3l-4.6,4l1.5,1.5c0.4,0.5,0.9,0.8,1.4,1c0.5,0.2,0.9,0.2,1.4,0.1c0.5-0.1,1-0.4,1.6-0.9
		c0.5-0.4,0.8-0.9,0.9-1.4c0.1-0.5,0.1-1-0.1-1.5c-0.2-0.5-0.5-1.1-1-1.6L265,74.3L265,74.3z M269.9,75.9c-0.4,0-0.7-0.1-1.1-0.3
		c-0.6-0.2-1.1-0.7-1.7-1.3l-1-1.1l4.3-4l1.1,1.2c0.6,0.6,0.9,1.2,1.1,1.7c0.2,0.5,0.2,1.1,0.1,1.5c-0.2,0.5-0.5,0.9-0.9,1.3
		c-0.4,0.4-0.9,0.6-1.4,0.7C270.2,75.8,270.1,75.9,269.9,75.9L269.9,75.9z M270.3,69.5l-4.1,3.7l1,0.9c0.6,0.6,1.1,1,1.6,1.3
		c0.5,0.2,1,0.3,1.4,0.2c0.5-0.1,0.9-0.3,1.3-0.7c0.4-0.4,0.7-0.8,0.9-1.2c0.1-0.4,0.1-0.9-0.1-1.4c-0.2-0.5-0.6-1.1-1.1-1.7
		L270.3,69.5L270.3,69.5z M78.7,74.8l-3.5-7.2l0.2-0.2l6.9,3.6L78.7,74.8L78.7,74.8z M75.5,67.7l3.3,6.9l3.5-3.6L75.5,67.7
		L75.5,67.7z M252,72.1l-2.1-0.6l1.6-6.1l-5.2-3.7l-5.1,3.4l-1.3-1.6l14.8-9.4l1.6,1.1L252,72.1L252,72.1z M246.3,61.5l5.4,3.8
		l-1.6,6.1l1.8,0.4l4.3-16.5l-1.5-1L240,63.5l1.2,1.4L246.3,61.5L246.3,61.5z M91.1,71.3l-0.2-1.8c0.5-0.1,0.8-0.2,1.2-0.2
		c0.4-0.1,0.8-0.2,1.2-0.3c0.4-0.1,0.7-0.3,1.1-0.6c0.5-0.4,0.8-0.8,1.1-1.2c0.2-0.4,0.3-0.9,0.3-1.4c0-0.5-0.3-1-0.6-1.5
		c-0.3-0.4-0.6-0.7-1-0.8c-0.4-0.2-0.7-0.3-1.1-0.3c-0.5,0-0.9,0-1.3,0.1c-0.5,0.1-0.9,0.2-1.4,0.3c-0.5,0.1-0.9,0.2-1.4,0.2
		c-0.5,0-1,0-1.5-0.1c-0.5-0.1-1-0.3-1.4-0.6c-0.5-0.3-0.9-0.7-1.4-1.3c-0.4-0.5-0.6-1.1-0.8-1.7c-0.1-0.6-0.1-1.2,0-1.7
		c0.1-0.6,0.4-1.1,0.7-1.6c0.3-0.5,0.8-1,1.4-1.4c0.6-0.5,1.3-0.8,2-1c0.7-0.2,1.4-0.4,2.2-0.4l0.4,1.7c-0.5,0.1-0.8,0.2-1.2,0.2
		c-0.4,0-0.7,0.1-1.1,0.3c-0.4,0.1-0.7,0.3-1.1,0.6c-0.3,0.2-0.5,0.4-0.7,0.7c-0.2,0.3-0.3,0.6-0.4,0.9c-0.1,0.3-0.1,0.7,0,1.1
		c0.1,0.4,0.2,0.8,0.5,1.1c0.3,0.3,0.6,0.6,0.9,0.7c0.3,0.1,0.7,0.2,1.1,0.2h0c0.4,0,0.9,0,1.3-0.1l1.4-0.2c0.6-0.1,1.1-0.2,1.6-0.2
		c0.5,0,1,0,1.5,0.1c0.5,0.1,1,0.3,1.4,0.5c0.5,0.3,0.9,0.7,1.3,1.2c0.4,0.5,0.6,1.1,0.8,1.6c0.2,0.6,0.2,1.2,0.1,1.8
		c-0.1,0.6-0.3,1.2-0.7,1.8c-0.4,0.6-0.9,1.2-1.6,1.7c-0.5,0.3-0.9,0.6-1.4,0.8c-0.5,0.2-0.9,0.4-1.4,0.5c-0.5,0.1-1,0.2-1.5,0.2
		L91.1,71.3L91.1,71.3z M92.9,63c0.6,0,1,0.1,1.4,0.3c0.4,0.2,0.7,0.5,1.1,0.9c0.4,0.5,0.6,1,0.6,1.6c0.1,0.5,0,1-0.3,1.5
		c-0.2,0.5-0.6,0.9-1.1,1.3c-0.3,0.2-0.7,0.4-1.1,0.6c-0.4,0.1-0.8,0.3-1.2,0.3c-0.4,0.1-0.8,0.1-1.1,0.1l0.2,1.5
		c0.5,0,0.9-0.1,1.4-0.2c0.5-0.1,0.9-0.3,1.4-0.5c0.4-0.2,0.9-0.5,1.3-0.8c0.7-0.5,1.2-1,1.5-1.6c0.4-0.6,0.6-1.2,0.6-1.7
		c0.1-0.6,0-1.2-0.1-1.7C97.3,64,97,63.5,96.7,63c-0.4-0.5-0.8-0.9-1.2-1.1c-0.4-0.3-0.9-0.4-1.3-0.5c-0.3-0.1-0.7-0.1-1-0.1l-0.4,0
		c-0.5,0-1,0.1-1.5,0.2l-1.4,0.2c-0.4,0.1-0.9,0.1-1.3,0.1c-0.5,0-0.9-0.1-1.3-0.2c-0.4-0.2-0.7-0.4-1-0.8c-0.3-0.4-0.5-0.8-0.6-1.2
		c-0.1-0.4-0.1-0.8,0-1.2c0.1-0.4,0.3-0.7,0.5-1c0.2-0.3,0.5-0.6,0.8-0.8c0.4-0.3,0.8-0.5,1.2-0.7c0.4-0.1,0.8-0.2,1.2-0.3
		c0.4,0,0.7-0.1,1.1-0.1l-0.4-1.5c-0.6,0.1-1.3,0.3-2,0.5c-0.7,0.2-1.3,0.6-1.9,1c-0.6,0.4-1,0.9-1.3,1.4c-0.3,0.5-0.6,1-0.7,1.6
		c-0.1,0.5-0.1,1.1,0,1.6c0.1,0.5,0.4,1.1,0.7,1.6c0.4,0.6,0.9,1,1.3,1.3c0.4,0.3,0.9,0.5,1.4,0.6c0.5,0.1,0.9,0.1,1.4,0.1
		c0.5,0,0.9-0.1,1.4-0.2c0.5-0.1,0.9-0.2,1.4-0.3C92.1,63.1,92.5,63,92.9,63L92.9,63z M252.2,63.7l-4.4-2.9l6.5-4.7l0.1,0.1l0,0.1
		l0,0l0,0L252.2,63.7L252.2,63.7z M254.2,56.4l-6.2,4.3l4.2,2.8L254.2,56.4L254.2,56.4z M238.3,62l-1.9-0.2l-1.1-14l1.2,13.9
		l1.6,0.1l7.8-13.9l-1.7-0.8l-6.1,11.3l0-0.1l6.1-11.3l1.9,0.9L238.3,62L238.3,62z M106,61.7l-5.3-15.9l1.8-1.1l10.9,9.9l-2.3-14.5
		l1.9-1.1l10.1,13.3l-1.5,1.4l-6.7-8.9l6.7,8.8l1.4-1.2l-10-13.1l-1.7,1l2.1,14.5L102.6,45l-1.6,1l5.3,15.5l1.7-0.6l-4.8-13.2
		l0.1,0.1L108,61L106,61.7L106,61.7z M113.8,57.6l-9-8.3l9,8.2l1.5-0.9l-2.3-14.2l0.1,0.1l2.3,14.2L113.8,57.6L113.8,57.6z
		 M229,57.2l-1.9-0.9l7.8-14.1l1.9,0.1l1.2,14.2l-1.3-14.1l-1.7,0l-7.7,13.9l1.7,0.8l6.2-11.4l0,0.1L229,57.2L229,57.2z M225.5,55
		l-2.2-0.1l0-6.3l-5.9-2.3l-4.1,4.5l-1.6-1.2l12.1-12.7l1.8,0.7L225.5,55L225.5,55z M217.4,46.2l6.1,2.4l-0.1,6.3l1.8,0l0.1-17.1
		l-1.7-0.6l-11.9,12.5l1.5,1.1L217.4,46.2L217.4,46.2z M126.2,51.7l-2-0.1l1.7-17.4l1.9-0.6l10.6,13.7l-1.7,1.3l-3.8-5l-6.1,1.9
		L126.2,51.7L126.2,51.7z M127.7,33.8l-1.7,0.6l-1.7,17.2l1.7-0.1l0.6-6.1l6.3-1.9l3.8,5l1.5-1.2L127.7,33.8L127.7,33.8z
		 M209.4,49.2l-2-0.6l4.8-15.8l2,0.5L209.4,49.2L209.4,49.2z M212.2,32.9l-4.7,15.6l1.7,0.4l4.8-15.5L212.2,32.9L212.2,32.9z
		 M203.1,47.5l-5.9-9.9l-1.5,8.1l-2-0.4l3.1-16.2l2,0.3l-1.5,8l9.1-6.8l1.3,1.5l-8,5.9l5.3,8.3L203.1,47.5L203.1,47.5z M206.3,30.7
		l-9,6.8l5.9,9.7l1.6-1l-5.3-8.3l8-5.9L206.3,30.7L206.3,30.7z M196.8,29.3l-3,16l1.7,0.2l3.2-16L196.8,29.3L196.8,29.3z
		 M223.7,46.8l-4.9-1.8l5.2-6.1l0.1,0l0,0.2l0,0l0,0L223.7,46.8L223.7,46.8z M223.9,39.3l-5,5.7l4.7,1.7L223.9,39.3L223.9,39.3z
		 M142.2,46.8L142.2,46.8c-0.5,0-1-0.1-1.5-0.2c-0.5-0.1-1-0.3-1.5-0.5l0.5-1.7c0.5,0.1,0.8,0.2,1.2,0.3c0.4,0.1,0.8,0.2,1.2,0.2
		l0.4,0c0.3,0,0.6,0,0.8-0.1c0.6-0.1,1.1-0.3,1.5-0.7c0.4-0.3,0.7-0.7,0.8-1.2c0.2-0.5,0.2-1,0.1-1.6c-0.1-0.5-0.3-0.9-0.5-1.2
		c-0.2-0.3-0.5-0.5-0.9-0.7c-0.4-0.2-0.8-0.3-1.2-0.4c-0.4-0.1-0.9-0.2-1.4-0.3c-0.5-0.1-0.9-0.2-1.4-0.4c-0.5-0.2-0.9-0.4-1.3-0.7
		c-0.4-0.3-0.8-0.7-1.1-1.1c-0.3-0.5-0.5-1.1-0.7-1.8c-0.1-0.6-0.1-1.3,0-1.8c0.1-0.6,0.4-1.1,0.7-1.6c0.3-0.5,0.8-0.9,1.3-1.2
		c0.5-0.3,1.1-0.6,1.9-0.7c0.8-0.1,1.5-0.2,2.3-0.1c0.7,0.1,1.4,0.3,2.1,0.5l-0.4,1.7c-0.5-0.1-0.8-0.2-1.2-0.3
		c-0.4-0.1-0.7-0.2-1.1-0.2l-0.3,0c-0.3,0-0.6,0-1,0.1c-0.3,0.1-0.6,0.2-0.9,0.4c-0.3,0.2-0.6,0.4-0.8,0.7c-0.2,0.3-0.4,0.6-0.5,1
		c-0.1,0.4-0.1,0.8,0,1.3c0.1,0.4,0.3,0.8,0.5,1c0.2,0.3,0.6,0.5,0.9,0.7c0.4,0.2,0.8,0.3,1.2,0.5l1.1,0.3c0.8,0.2,1.2,0.4,1.7,0.5
		c0.5,0.2,0.9,0.4,1.3,0.7c0.4,0.3,0.8,0.6,1.1,1.1c0.3,0.4,0.5,1,0.6,1.6c0.1,0.6,0.1,1.2,0,1.8c-0.1,0.6-0.3,1.2-0.6,1.7
		c-0.3,0.5-0.8,1-1.4,1.4c-0.6,0.4-1.3,0.7-2.2,0.8C143.2,46.8,142.7,46.8,142.2,46.8L142.2,46.8z M139.7,44.6l-0.4,1.5
		c0.4,0,0.9,0.2,1.4,0.3c0.5,0.1,0.9,0.1,1.4,0.1l0,0.1v-0.1c0.5,0,1,0,1.5-0.2c0.8-0.2,1.5-0.4,2.1-0.8c0.6-0.4,1-0.8,1.3-1.3
		c0.3-0.5,0.5-1.1,0.6-1.6c0.1-0.6,0.1-1.2,0-1.7c-0.1-0.6-0.3-1.1-0.6-1.5c-0.3-0.4-0.6-0.7-1-1c-0.4-0.3-0.8-0.5-1.3-0.7
		c-0.5-0.2-0.9-0.3-1.4-0.4l-1.4-0.4c-0.5-0.1-0.9-0.3-1.3-0.5c-0.4-0.2-0.7-0.4-1-0.7c-0.3-0.3-0.5-0.7-0.6-1.1
		c-0.1-0.5-0.1-1,0-1.4c0.1-0.4,0.3-0.7,0.5-1c0.2-0.3,0.5-0.5,0.8-0.7c0.3-0.2,0.7-0.3,1-0.4c0.4-0.1,0.7-0.1,1-0.1l0.3,0
		c0.4,0,0.8,0.1,1.2,0.2c0.4,0.1,0.7,0.2,1.1,0.4l0.3-1.5c-0.6-0.1-1.3-0.3-2-0.4c-0.7-0.1-1.4-0.1-2.2,0.1
		c-0.7,0.1-1.3,0.4-1.8,0.7c-0.5,0.3-0.9,0.7-1.3,1.1c-0.3,0.4-0.6,0.9-0.7,1.5c-0.1,0.5-0.1,1.1,0,1.7c0.1,0.7,0.4,1.3,0.6,1.7
		c0.3,0.4,0.6,0.8,1,1.1c0.4,0.3,0.8,0.5,1.2,0.7c0.4,0.2,0.9,0.3,1.4,0.4c0.5,0.1,0.9,0.2,1.4,0.3c0.4,0.1,0.9,0.3,1.2,0.5
		c0.4,0.2,0.7,0.5,1,0.8c0.3,0.3,0.5,0.8,0.6,1.3c0.1,0.6,0.1,1.2-0.1,1.7c-0.2,0.5-0.5,0.9-0.9,1.3c-0.4,0.3-0.9,0.6-1.6,0.7
		c-0.4,0.1-0.8,0.1-1.3,0.1c-0.4,0-0.8-0.1-1.2-0.2C140.4,44.9,140.1,44.8,139.7,44.6L139.7,44.6z M151.7,45.1l-2-0.4l4.7-16.9
		l1.9-0.3l8.1,15.3l-1.9,1l-2.9-5.6l-6.3,0.8L151.7,45.1L151.7,45.1z M156.3,27.7l-1.7,0.3l-4.7,16.7l1.7,0.2l1.6-5.9l6.5-0.8
		l2.9,5.6l1.7-0.9L156.3,27.7L156.3,27.7z M185.7,44l-2.1-0.2l0.6-7.1l-4.8-9l1.9-1l4.3,8.6l5.6-7.7l1.8,1.2l-6.6,8.3L185.7,44
		L185.7,44z M181.4,26.8l-1.7,0.9l4.8,8.9l-0.7,7l1.7,0l0.7-6.9l6.7-8.2l-1.6-1l-5.6,7.7L181.4,26.8L181.4,26.8z M176.5,43.9
		l-4.4-6.2c-0.2-0.3-0.4-0.5-0.6-0.7c-0.2-0.2-0.4-0.3-0.7-0.4c-0.2-0.1-0.5-0.2-0.9-0.2l-1.3,0l0.1,6.9l-2.1,0.1L166.5,27l4.9-0.1
		l0,0c0.8,0,1.5,0.1,2.1,0.3c0.6,0.2,1.2,0.5,1.6,0.9c0.5,0.4,0.8,0.8,1.1,1.4c0.2,0.5,0.4,1.2,0.4,1.9c0,0.7-0.1,1.3-0.3,1.8
		c-0.2,0.5-0.5,1-0.9,1.4c-0.4,0.4-0.8,0.7-1.3,1c-0.4,0.2-0.8,0.3-1.3,0.4c0.2,0,0.4,0.1,0.5,0.2c0.2,0.2,0.5,0.4,0.7,0.7
		c0.2,0.3,0.4,0.5,0.6,0.8l3.7,5.1L176.5,43.9L176.5,43.9z M169.9,36.2c0.4,0,0.7,0.1,1,0.2c0.3,0.1,0.5,0.3,0.7,0.5
		c0.2,0.2,0.4,0.4,0.6,0.7l4.3,6l1.6-1l-3.7-4.9c-0.2-0.3-0.4-0.5-0.6-0.8c-0.2-0.2-0.4-0.5-0.7-0.6c-0.2-0.2-0.5-0.3-0.7-0.3
		c0,0,0.1,0,0.1-0.1c0,0,0,0,0,0c0,0,0,0,0.1,0c0.5-0.3,1-0.5,1.4-0.7c0.5-0.2,0.9-0.5,1.2-0.9c0.3-0.4,0.6-0.8,0.8-1.3
		c0.2-0.5,0.3-1.1,0.3-1.8c0-0.7-0.1-1.3-0.4-1.8c-0.2-0.5-0.6-0.9-1-1.3c-0.4-0.4-0.9-0.6-1.5-0.8c-0.6-0.2-1.2-0.3-2-0.3l-4.8,0
		l0.1,16.3l1.9-0.1l-0.1-6.9L169.9,36.2L169.9,36.2z M126.9,43.7l0.4-8l0.2,0l4.4,6.4L126.9,43.7L126.9,43.7z M127.3,35.9l-0.4,7.7
		l4.8-1.6L127.3,35.9L127.3,35.9z M153.8,37.3l1.8-7.8l0.2,0l3.3,7.1L153.8,37.3L153.8,37.3z M155.6,29.7l-1.7,7.5l5-0.7L155.6,29.7
		L155.6,29.7z M168.6,34.9l-0.1-6.5l2.4-0.1c0.7,0,1.2,0.1,1.7,0.3c0.5,0.2,0.8,0.4,1.1,0.7c0.3,0.3,0.5,0.7,0.6,1.1
		c0.1,0.4,0.2,0.8,0.2,1.3c0,0.6-0.1,1.1-0.3,1.5c-0.2,0.4-0.5,0.8-0.9,1c-0.4,0.2-0.8,0.4-1.3,0.5c-0.5,0.1-0.9,0.2-1.4,0.2
		L168.6,34.9L168.6,34.9z M170.9,28.5l-2.3,0l0.1,6.3l1.8-0.1c0.5,0,0.9-0.1,1.4-0.2c0.4-0.1,0.9-0.3,1.2-0.5
		c0.4-0.2,0.6-0.5,0.9-0.9c0.2-0.4,0.3-0.9,0.3-1.4c0-0.4-0.1-0.8-0.2-1.2c-0.1-0.4-0.3-0.7-0.6-1c-0.3-0.3-0.6-0.5-1-0.7
		C172.1,28.6,171.6,28.5,170.9,28.5L170.9,28.5L170.9,28.5z"/>
</g>
</svg>
