<?xml version="1.0" encoding="utf-8"?>
<!-- Generator: Adobe Illustrator 18.1.1, SVG Export Plug-In . SVG Version: 6.00 Build 0)  -->
<!DOCTYPE svg PUBLIC "-//W3C//DTD SVG 1.1//EN" "http://www.w3.org/Graphics/SVG/1.1/DTD/svg11.dtd">
<svg version="1.1" id="Vrstva_1" xmlns="http://www.w3.org/2000/svg" xmlns:xlink="http://www.w3.org/1999/xlink" x="0px" y="0px"
	 viewBox="0 0 1133.9 850.4" enable-background="new 0 0 1133.9 850.4" xml:space="preserve">
<g>
	<g>
		<path fill="#F0A61F" d="M954.9,161.3c0,44.6-36.2,80.8-80.8,80.8c-44.6,0-80.8-36.2-80.8-80.8c0-44.6,36.2-80.8,80.8-80.8
			C918.8,80.5,954.9,116.7,954.9,161.3"/>
		<path d="M242.1,460.6c-14.6,25.2-41.9,42.2-73.1,42.2c-46.7,0-84.5-37.8-84.5-84.5c0-46.7,37.8-84.5,84.5-84.5
			c31.3,0,58.5,17,73.1,42.2l60.4-34.9c-26.7-46.1-76.5-77.1-133.6-77.1c-85.2,0-154.3,69.1-154.3,154.3
			c0,85.2,69.1,154.3,154.3,154.3c57.1,0,106.9-31,133.6-77.1L242.1,460.6z"/>
		<path d="M1116.5,337.6v-66.1H947.6v66.1h36.7v102.8c0,73,59.2,132.2,132.2,132.2v-73.5c-32.4,0-58.8-26.3-58.8-58.7V337.6H1116.5z
			"/>
		<rect x="837.4" y="271.4" width="73.5" height="293.8"/>
		<path d="M615.4,440.4c1-7.2,1.6-14.6,1.6-22.1c0-85.2-69.1-154.3-154.3-154.3c-85.2,0-154.3,69.1-154.3,154.3
			c0,85.2,69.1,154.3,154.3,154.3c57.1,0,106.9-31,133.6-77.1l-60.4-34.9c-14.6,25.2-41.9,42.2-73.1,42.2c-39,0-71.9-26.5-81.6-62.4
			H615.4z M462.8,333.9c33.5,0,62.4,19.5,76.1,47.8H386.7C400.3,353.4,429.3,333.9,462.8,333.9"/>
		<path d="M719.9,291.8v-20.3h-73.4v293.8h73.4V407.3c0-36.5,29.6-66.1,66.1-66.1h22v-77.1C775.2,264.1,744.8,274.4,719.9,291.8"/>
	</g>
	<path fill="#FFFFFF" d="M823.3,127h16.9v6.6c5.2-5.2,11.1-7.1,20.3-7.2l-1.1,17.8c-15.4,0-19.2,5.5-19.2,16.5v34.9h-16.9V127z"/>
	<path fill="#FFFFFF" d="M916.2,153.2c-3.4-7.9-9.3-12.1-18.1-12.1c-8.2,0-15.3,5.1-18.4,12.1H916.2z M862.1,160.9
		c0-19.7,16-35.3,35.9-35.3c21.7,0,36,16.8,36,36.4c0,1.5-0.1,3.1-0.3,4.6h-54.4c2.8,8.9,9.8,14.1,20.1,14.1
		c8.6,0,13.7-2.7,18.1-8.7l14.1,7.8c-7.1,10.7-17.4,16.6-32.2,16.6C877.8,196.3,862.1,181.1,862.1,160.9"/>
	<path fill="#F0A61F" d="M125.2,688.9H141c0.5,4.6,3.7,9,12.1,9c6.3,0,9.9-3,9.9-6.3c0-4.6-6.3-5.5-12.3-6.2
		c-7.4-0.8-24.2-2.7-24.2-18.7c0-11.7,9.1-19.8,25.1-19.8c15.5,0,24.9,7.7,25.8,19.9h-15.2c-0.4-3.6-1.5-8.1-10.2-8.1
		c-5.7,0-9.3,2.1-9.3,5.2c0,4.9,8.1,5.6,14.3,6.7c12.3,2,22.9,5.4,22.9,18.9c0,13.9-11.6,20.1-27,20.1
		C135.6,709.8,125.8,701.9,125.2,688.9"/>
	<path fill="#F0A61F" d="M972.4,647.6h15v60.8h-15V647.6z M972.4,627.1h15v15h-15V627.1z"/>
	<path fill="#F0A61F" d="M104.4,671.6c-3-7-8.2-10.7-16.1-10.7c-7.3,0-13.6,4.5-16.3,10.7H104.4z M56.4,678.4
		c0-17.5,14.2-31.3,31.9-31.3c19.3,0,31.9,14.9,31.9,32.3c0,1.3-0.1,2.7-0.2,4H71.7c2.5,7.9,8.7,12.5,17.9,12.5
		c7.6,0,12.1-2.4,16.1-7.7l12.5,6.9c-6.3,9.5-15.5,14.8-28.6,14.8C70.4,709.8,56.4,696.3,56.4,678.4"/>
	<path fill="#F0A61F" d="M648,671.6c-3-7-8.2-10.7-16.1-10.7c-7.3,0-13.6,4.5-16.3,10.7H648z M600.1,678.4
		c0-17.5,14.2-31.3,31.9-31.3c19.3,0,31.9,14.9,31.9,32.3c0,1.3-0.1,2.7-0.2,4h-48.3c2.5,7.9,8.7,12.5,17.8,12.5
		c7.6,0,12.2-2.4,16.1-7.7l12.5,6.9c-6.3,9.5-15.5,14.8-28.6,14.8C614,709.8,600.1,696.3,600.1,678.4"/>
	<path fill="#F0A61F" d="M232,671.6c-3-7-8.2-10.7-16.1-10.7c-7.3,0-13.6,4.5-16.3,10.7H232z M184,678.4c0-17.5,14.2-31.3,31.9-31.3
		c19.3,0,31.9,14.9,31.9,32.3c0,1.3-0.1,2.7-0.2,4h-48.3c2.5,7.9,8.7,12.5,17.8,12.5c7.6,0,12.1-2.4,16.1-7.7l12.5,6.9
		c-6.3,9.5-15.5,14.8-28.6,14.8C198,709.8,184,696.3,184,678.4"/>
	<path fill="#F0A61F" d="M1062.3,647.6h14.9v4.9c4-3.5,9.8-5.5,16.4-5.5c18.2,0,25,11.5,25,29.5v31.9h-14.9v-28.1
		c0-12.9-1.9-19.5-13.2-19.5c-8.3,0-13.3,5.2-13.3,13.9v33.7h-14.9V647.6z"/>
	<path fill="#F0A61F" d="M795.6,709.2h-14.9v-4.9c-4,3.5-9.8,5.5-16.4,5.5c-18.2,0-25-11.5-25-29.5v-31.9h14.9v28.1
		c0,12.8,1.9,19.5,13.2,19.5c8.3,0,13.3-5.2,13.3-13.9v-33.7h14.9V709.2z"/>
	<path fill="#F0A61F" d="M422.3,628.6h14.9v24c4-3.5,9.8-5.5,16.4-5.5c18.2,0,25,11.5,25,29.5v31.9h-14.9v-28.1
		c0-12.9-1.9-19.5-13.2-19.5c-8.3,0-13.3,5.2-13.3,13.9v33.7h-14.9V628.6z"/>
	<path fill="#F0A61F" d="M358.6,678.4c0-17.5,14.1-31.3,31.9-31.3c11.9,0,21.1,5.1,27.1,14.6l-12.6,7c-3.5-4.9-8.3-7.9-14.5-7.9
		c-9.6,0-17.6,8.1-17.6,17.5c0,9.4,8,17.5,17.6,17.5c6.2,0,11.1-2.7,14.5-7.7l12.5,6.9c-6.1,9.5-15.1,14.8-27,14.8
		C372.8,709.8,358.6,695.6,358.6,678.4"/>
	<path fill="#F0A61F" d="M800.4,678.4c0-17.5,14.2-31.3,31.9-31.3c11.9,0,21.1,5.1,27.1,14.6l-12.6,7c-3.5-4.9-8.3-7.9-14.5-7.9
		c-9.6,0-17.6,8.1-17.6,17.5c0,9.4,8,17.5,17.6,17.5c6.2,0,11.1-2.7,14.5-7.7l12.5,6.9c-6.1,9.5-15.1,14.8-27,14.8
		C814.6,709.8,800.4,695.6,800.4,678.4"/>
	<path fill="#F0A61F" d="M302.7,678.4c0-9.4-8-17.5-17.6-17.5c-9.6,0-17.6,8.1-17.6,17.5c0,9.4,8,17.5,17.6,17.5
		C294.7,695.8,302.7,687.8,302.7,678.4 M253.2,678.4c0-17.5,14.2-31.3,31.9-31.3c6.2,0,12.4,1.8,17.6,5.5v-4.9h14.9v60.8h-14.9v-4
		c-4.9,3.3-11.5,5.4-17.6,5.4C267.4,709.8,253.2,695.6,253.2,678.4"/>
	<path fill="#F0A61F" d="M910.4,678.4c0-9.4-8-17.5-17.6-17.5c-9.6,0-17.6,8.1-17.6,17.5c0,9.4,8,17.5,17.6,17.5
		C902.5,695.8,910.4,687.8,910.4,678.4 M860.9,678.4c0-17.5,14.2-31.3,31.9-31.3c6.2,0,12.4,1.8,17.6,5.5v-4.9h14.9v60.8h-14.9v-4
		c-4.9,3.3-11.5,5.4-17.6,5.4C875.1,709.8,860.9,695.6,860.9,678.4"/>
	<path fill="#F0A61F" d="M717.4,678.4c0-9.4-8-17.5-17.6-17.5c-9.6,0-17.6,8.1-17.6,17.5c0,9.4,8,17.5,17.6,17.5
		C709.4,695.8,717.4,687.8,717.4,678.4 M667.9,678.4c0-17.5,14.1-31.3,31.9-31.3c6.2,0,12.4,1.8,17.6,5.5v-24h14.9v79.9h-14.9v-4
		c-4.9,3.3-11.5,5.4-17.6,5.4C682.1,709.8,667.9,695.6,667.9,678.4"/>
	<path fill="#F0A61F" d="M22.7,647.6h15v5.8c4.6-4.6,9.9-6.3,18-6.4l-1,15.8c-13.7,0-17,4.9-17,14.6v30.9h-15V647.6z"/>
	<path fill="#F0A61F" d="M325.4,647.6h15v5.8c4.6-4.6,9.9-6.3,18-6.4l-1,15.8c-13.7,0-17,4.9-17,14.6v30.9h-15V647.6z"/>
	<path fill="#F0A61F" d="M966.3,660.7v-13.8H954l0.2-18.7h-15.1v18.7H931v13.8h7.7v21.5c0,15.2,12.4,27.6,27.6,27.6v-15.3
		c-6.8,0-12.3-5.5-12.3-12.3v-21.5H966.3z"/>
	<g>
		<g>
			<path fill="#F0A61F" d="M1024.8,646.8c8.2,0,15.4,2.9,21.6,8.7c6.4,6.1,9.6,13.6,9.6,22.6c0,8.5-2.9,15.8-8.8,21.8
				c-3,3.1-6.5,5.4-10.5,7.1c-4,1.7-8.1,2.5-12.3,2.5c-4.2,0-8.2-0.9-12.2-2.5c-4-1.7-7.5-4.1-10.5-7.1c-5.9-6-8.9-13.2-8.9-21.7
				c0-9.1,3.2-16.7,9.7-22.7C1008.7,649.7,1016.1,646.8,1024.8,646.8z M1024.2,659.9c-4.4,0-8.2,1.6-11.6,4.8
				c-3.7,3.6-5.5,8-5.5,13.4c0,4.9,1.6,9.1,4.8,12.7c3.4,3.8,7.6,5.7,12.5,5.7c4.9,0,9.1-1.9,12.5-5.7c3.2-3.6,4.8-7.8,4.8-12.7
				c0-5.5-1.8-9.9-5.5-13.4C1032.7,661.5,1028.7,659.9,1024.2,659.9z"/>
		</g>
	</g>
	<g>
		<g>
			<path fill="#F0A61F" d="M575.6,678.4c-3.2,4.2-6,7.8-8.4,10.7l19.1,19h-22.7l-6.7-7.3c-7.8,6.4-16,9.6-24.7,9.6
				c-6.6,0-12.2-1.5-17-4.6c-2.9-1.9-5.2-4.3-6.9-7.4c-1.7-3.1-2.5-6.4-2.5-9.8c0-7.3,3.3-13.6,9.8-18.9c0.9-0.8,3.7-2.8,8.2-6.2
				c-1.9-1.9-3.5-3.5-4.5-4.8c-3.1-3.8-4.6-7.8-4.6-12c0-6.6,3-11.8,9.1-15.7c3.7-2.3,7.8-3.4,12.5-3.4c6.7,0,12.2,2.3,16.4,6.7
				c3.7,3.9,5.5,8.3,5.5,13.3c0,4-1.1,7.3-3.3,10c-1.7,2.1-4.8,4.6-9.2,7.5l11.9,13.6c2.4-2.7,4.9-5.9,7.4-9.5L575.6,678.4z
				 M547.5,689.4L533.1,673c-7.8,4.4-11.6,8.9-11.6,13.5c0,2.9,1.2,5.2,3.7,7.1c2,1.6,4.4,2.4,7.2,2.4
				C537,695.9,542.1,693.7,547.5,689.4z M535.6,655.8c1.8-1.1,3.4-2.1,4.6-3c2.2-1.7,3.4-3.7,3.4-6c0-2-0.8-3.7-2.4-5
				c-1.4-1.1-3-1.6-4.9-1.6c-2.3,0-4.1,0.7-5.5,2.2c-1.2,1.2-1.8,2.4-1.8,3.6c0,1.9,1.1,4,3.2,6.2L535.6,655.8z"/>
		</g>
	</g>
</g>
</svg>
