<?xml version="1.0" encoding="UTF-8" standalone="no"?>
<svg
   xmlns:dc="http://purl.org/dc/elements/1.1/"
   xmlns:cc="http://creativecommons.org/ns#"
   xmlns:rdf="http://www.w3.org/1999/02/22-rdf-syntax-ns#"
   xmlns:svg="http://www.w3.org/2000/svg"
   xmlns="http://www.w3.org/2000/svg"
   viewBox="0 0 793.70135 1122.52"
   height="1122.52"
   width="793.70135"
   xml:space="preserve"
   id="svg2"
   version="1.1"><metadata
     id="metadata8"><rdf:RDF><cc:Work
         rdf:about=""><dc:format>image/svg+xml</dc:format><dc:type
           rdf:resource="http://purl.org/dc/dcmitype/StillImage" /></cc:Work></rdf:RDF></metadata><defs
     id="defs6"><clipPath
       id="clipPath18"
       clipPathUnits="userSpaceOnUse"><path
         id="path16"
         d="M 0,841.89 H 595.276 V 0 H 0 Z" /></clipPath></defs><g
     transform="matrix(1.3333333,0,0,-1.3333333,0,1122.52)"
     id="g10"><g
       id="g12"><g
         clip-path="url(#clipPath18)"
         id="g14"><path
           id="path20"
           style="fill:#ffffff;fill-opacity:1;fill-rule:nonzero;stroke:none"
           d="m 368.863,546 0.045,-0.027 0.684,-17.712 2.042,-0.405 9.387,14.922 -1.926,1.188 -7.554,-12.05 -0.044,0.027 -0.819,17.642 -2.017,0.297 -9.346,-14.856 1.926,-1.187 z m -88.274,19.395 0.052,0.005 3.759,-7.726 -5.861,-0.688 z m -2.607,-10.359 7.386,0.866 3.166,-6.015 2.137,0.983 -9.156,16.675 -2.118,-0.248 -5.425,-18.464 2.141,-0.403 z m -50.114,-25.073 -5.234,14.683 0.046,0.026 11.807,-10.665 1.869,1.024 -2.323,15.865 0.046,0.026 9.406,-12.397 1.741,1.37 -11.159,14.4 -2.12,-1.162 2.17,-16.126 -12.064,10.701 -2.03,-1.112 5.778,-17.352 z m 20.721,27.942 0.05,0.017 5.407,-6.677 -5.555,-1.994 z m -0.199,-10.679 6.999,2.511 4.443,-5.145 1.858,1.441 -12.685,14.176 -2.006,-0.721 -1.115,-19.212 2.178,0.091 z m 63.275,2.45 2.22,-0.266 1.069,7.623 7.894,8.64 -1.801,1.367 -6.87,-8.186 -4.437,9.539 -2.146,-0.87 5.139,-10.224 z m 28.295,-6.332 5.893,17 -2.12,0.714 -5.892,-17 z m 16.633,10.581 0.048,-0.022 -0.7,-8.564 -5.394,2.393 z m -12.491,-12.322 4.972,4.734 6.798,-3.015 -0.339,-6.79 2.339,-0.241 0.612,19.013 -1.949,0.864 -14.071,-13.127 z m -49.069,25.262 2.679,-0.013 c 2.912,-0.016 3.995,-1.711 3.984,-3.635 -0.012,-2.601 -2.305,-3.395 -4.515,-3.383 l -2.236,0.012 z m -0.071,-8.735 1.43,-0.008 c 1.69,-0.009 2.256,-1.052 3.341,-2.487 l 4.208,-5.794 1.982,1.185 -3.589,4.803 c -0.749,0.914 -1.754,2.583 -2.949,2.798 v 0.052 c 2.524,0.324 4.535,2.03 4.55,4.967 0.015,2.991 -2.289,4.745 -5.696,4.762 l -5.433,0.029 -0.25,-17.991 2.261,-0.011 z m 29.875,-10.526 2.233,8.876 2.161,8.573 -2.173,0.527 -4.394,-17.448 z M 214.166,525.941 c 1.281,-1.538 0.979,-3.449 -0.64,-4.797 -1.097,-0.915 -2.595,-1.352 -3.784,-1.428 l 0.273,-1.871 c 1.778,0.262 3.192,0.799 4.711,2.064 3.035,2.53 2.876,5.646 1.161,7.703 -3.613,4.334 -9.241,-1.542 -11.772,1.494 -1.398,1.677 -0.656,3.548 0.542,4.547 1.299,1.082 2.517,1.285 3.785,1.429 l -0.389,1.808 c -1.668,-0.274 -3.216,-0.853 -4.574,-1.985 -2.457,-2.048 -2.946,-4.994 -1.165,-7.131 4.029,-4.833 8.921,1.682 11.852,-1.833 m 55.617,26.247 c 0.457,-1.95 -0.669,-3.523 -2.72,-4.003 -1.392,-0.328 -2.926,-0.046 -4.023,0.418 l -0.594,-1.796 c 1.707,-0.561 3.212,-0.715 5.136,-0.264 3.848,0.903 5.1,3.761 4.488,6.368 -1.289,5.493 -8.953,2.76 -9.856,6.608 -0.499,2.126 1.003,3.465 2.521,3.822 1.646,0.387 2.826,0.022 4.024,-0.417 l 0.462,1.79 c -1.615,0.503 -3.258,0.678 -4.979,0.274 -3.113,-0.73 -4.87,-3.145 -4.234,-5.854 1.437,-6.126 8.729,-2.491 9.775,-6.946 m -101.035,-119.367 -17.919,1.63 -0.183,-2.228 17.918,-1.63 z m -17.226,5.529 18.427,3.92 0.36,2.048 -16.153,10.543 -0.974,-1.941 14.343,-9.116 -16.496,-3.151 z m 41.138,83.235 0.036,0.037 7.82,-3.561 -4.081,-4.264 z m 7.355,-15.93 -2.767,6.283 5.142,5.373 6.272,-2.622 1.021,2.119 -17.679,7.024 -1.475,-1.54 7.577,-17.69 z M 170.126,401.006 c -0.535,3.469 -2.46,6.908 -8.177,6.104 l -11.087,-1.631 0.341,-2.209 10.959,1.611 c 4.034,0.623 5.693,-1.437 6.09,-4.006 0.487,-3.161 -0.716,-5.083 -3.98,-5.586 -1.644,-0.254 -3.344,-0.49 -5.018,-0.722 l -6.561,-0.959 0.341,-2.21 6.175,0.9 c 1.829,0.256 3.426,0.475 4.865,0.698 5.422,0.836 6.642,4.181 6.052,8.01 m -1.821,13.209 -14.353,-0.098 -0.001,0.052 14.576,10.086 -0.756,1.939 -17.627,-0.091 0.031,-2.262 14.222,0.097 v -0.053 l -14.444,-10.162 0.832,-1.861 17.551,0.091 z m 21.535,78.444 -14.968,9.986 -1.225,-1.871 14.968,-9.985 z m -14.842,-29.865 -1.796,0.531 -2.051,-6.93 -5.993,1.827 1.941,6.557 -1.796,0.532 -1.948,-6.582 -5.843,1.783 1.999,6.757 -1.795,0.531 -2.627,-8.876 17.208,-5.255 z m 6.89,46.456 12.64,-10.004 1.371,1.768 -12.641,10.003 3.49,4.499 -1.479,1.147 -8.351,-10.765 1.479,-1.147 z m -11.933,-23.498 c 5.508,-3.043 7.704,4.804 11.709,2.591 1.753,-0.968 2.164,-2.859 1.146,-4.702 -0.692,-1.251 -1.93,-2.202 -3.009,-2.704 l 0.932,-1.645 c 1.562,0.891 2.686,1.903 3.641,3.633 1.911,3.459 0.632,6.304 -1.712,7.599 -4.938,2.729 -8.053,-4.789 -11.512,-2.878 -1.911,1.056 -1.898,3.069 -1.144,4.435 0.817,1.479 1.879,2.11 3.009,2.704 l -1.019,1.543 c -1.455,-0.859 -2.687,-1.961 -3.542,-3.509 -1.547,-2.798 -0.933,-5.721 1.501,-7.067 m -0.894,-12.267 -0.864,-2.062 -6.455,2.759 1.033,2.47 c 1.125,2.686 3.106,3.04 4.88,2.298 2.399,-1.004 2.259,-3.426 1.406,-5.465 m 7.788,-5.768 -7.059,3.067 0.553,1.32 c 0.652,1.558 1.832,1.684 3.573,2.139 l 6.961,1.681 -0.341,2.285 -5.808,-1.487 c -1.13,-0.344 -3.057,-0.637 -3.71,-1.659 l -0.049,0.019 c 0.662,2.457 -0.148,4.967 -2.858,6.101 -2.757,1.155 -5.258,-0.307 -6.573,-3.449 l -2.099,-5.012 16.537,-7.092 z m 158.586,78.467 -5.649,9.691 9.338,5.733 -1.191,1.707 -10.863,-6.835 6.373,-11.338 z m 83.049,-78.556 13.613,4.551 0.016,-0.05 -10.722,-14.113 1.32,-1.61 16.728,5.563 -0.732,2.139 -13.489,-4.507 -0.017,0.048 10.574,14.146 -1.369,1.51 -16.654,-5.536 z m 6.775,-24.522 1.83,0.391 -1.51,7.068 6.139,1.258 1.428,-6.686 1.831,0.39 -1.433,6.713 5.985,1.225 1.472,-6.891 1.831,0.392 -1.934,9.052 -17.627,-3.606 z m 0.767,-5.163 14.301,1.209 0.005,-0.051 -13.751,-11.185 0.903,-1.875 17.569,1.457 -0.206,2.252 -14.173,-1.196 -0.004,0.051 13.613,11.25 -0.973,1.791 -17.491,-1.45 z M 443.8,411.992 c 0.893,1.435 1.478,2.981 1.522,4.748 0.08,3.197 -1.813,5.506 -4.593,5.576 -6.291,0.157 -4.618,-7.817 -9.192,-7.703 -2.001,0.05 -3.238,1.537 -3.186,3.643 0.036,1.43 0.695,2.843 1.42,3.787 l -1.586,1.028 c -0.974,-1.51 -1.503,-2.926 -1.553,-4.902 -0.099,-3.951 2.35,-5.885 5.027,-5.951 5.641,-0.142 4.933,7.965 8.883,7.866 2.184,-0.055 3.102,-1.846 3.062,-3.405 -0.041,-1.69 -0.692,-2.74 -1.42,-3.788 z m -53.984,121.422 0.04,-0.033 -2.953,-8.069 -4.563,3.742 z m -15.32,-8.553 6.054,3.241 5.75,-4.716 -2.134,-6.455 2.19,-0.856 5.651,18.165 -1.649,1.352 -17.057,-8.909 z m 41.384,-35.763 c -4.89,-2.489 -5.004,-6.048 -3.246,-9.5 1.592,-3.128 4.495,-5.793 9.674,-3.245 l 10.022,5.013 -1.015,1.993 -9.906,-4.955 c -3.638,-1.851 -5.857,-0.414 -7.036,1.904 -1.451,2.85 -0.908,5.051 2.034,6.549 1.484,0.755 3.025,1.51 4.542,2.253 l 5.933,2.961 -1.015,1.993 -5.585,-2.784 c -1.656,-0.814 -3.105,-1.522 -4.402,-2.182 m -15.63,24.115 1.377,-1.593 c 1.701,-1.967 1.855,-3.895 0.204,-5.324 -1.889,-1.632 -3.588,-1.177 -5.085,0.554 l -1.717,1.986 z m 6.013,5.131 1.173,-1.358 c 1.887,-2.182 1.793,-3.743 0.279,-5.052 -1.397,-1.207 -3.14,-1.1 -5.062,1.123 l -1.105,1.278 z m -3.127,-13.875 c 1.73,1.497 2.159,3.585 0.977,5.588 l 0.039,0.034 c 1.813,-1.182 3.57,-1.107 5.242,0.339 1.513,1.309 2.419,3.88 -0.166,6.869 l -3.265,3.776 -13.712,-11.65 3.3,-3.816 c 2.312,-2.674 5.166,-3.232 7.585,-1.14 m 13.015,1.597 1.513,-2.21 c 1.645,-2.403 0.866,-4.258 -0.721,-5.345 -2.145,-1.469 -4.103,-0.035 -5.351,1.788 l -1.263,1.846 z m -13.633,-9.173 6.41,4.26 0.807,-1.179 c 0.954,-1.395 0.419,-2.454 -0.143,-4.163 l -2.37,-6.758 2.103,-0.955 1.906,5.684 c 0.326,1.137 1.126,2.913 0.623,4.018 l 0.042,0.029 c 1.704,-1.891 4.25,-2.573 6.674,-0.914 2.468,1.689 2.599,4.583 0.675,7.394 l -3.069,4.484 -14.936,-10.034 z m 36.823,-95.943 c -6.197,1.089 -5.726,-7.046 -10.233,-6.253 -1.971,0.346 -2.974,2.001 -2.61,4.075 0.248,1.409 1.109,2.708 1.968,3.535 l -1.417,1.252 c -1.188,-1.349 -1.921,-2.671 -2.264,-4.618 -0.683,-3.892 1.451,-6.168 4.088,-6.631 5.558,-0.977 6.061,7.144 9.953,6.461 2.151,-0.378 2.792,-2.287 2.523,-3.823 -0.293,-1.665 -1.092,-2.606 -1.968,-3.535 l 1.465,-1.129 c 1.096,1.286 1.905,2.728 2.211,4.469 0.553,3.15 -0.976,5.716 -3.716,6.197 m -13.059,6.061 17.889,-1.935 0.221,2.226 -17.889,1.933 z m 4.531,-26.46 c -2.184,0.735 -4.525,-0.427 -5.26,-2.611 -0.735,-2.183 0.427,-4.524 2.611,-5.259 2.184,-0.736 4.524,0.426 5.259,2.61 0.735,2.184 -0.427,4.525 -2.61,5.26 m -95.82,-100.598 c -4.022,-1.062 -7.764,1.392 -8.826,5.413 -1.063,4.023 0.979,8.004 5.001,9.067 4.021,1.062 7.763,-1.392 8.825,-5.414 1.063,-4.022 -0.978,-8.003 -5,-9.066 m -4.304,16.289 c -5.153,-1.361 -8.242,-6.157 -6.835,-11.486 1.501,-5.682 6.463,-7.974 11.617,-6.612 5.153,1.361 8.243,6.157 6.835,11.486 -1.501,5.682 -6.463,7.974 -11.617,6.612 m -16.253,-19.808 -1.916,16.005 -2.217,-0.287 2.155,-17.863 9.824,1.273 -0.24,1.856 z m -71.721,25.125 -0.828,-8.554 -5.359,2.474 6.14,6.101 z m -14.339,-10.648 1.615,-1.462 5.044,4.658 6.751,-3.118 -0.44,-6.784 2.335,-0.276 0.899,19.002 -1.935,0.893 z m 75.397,0.835 0.826,-17.974 2.232,0.123 -0.825,17.973 z m -46.182,6.549 c -3.037,1.004 -5.796,-0.138 -6.669,-2.779 -1.975,-5.975 6.142,-6.686 4.706,-11.031 -0.628,-1.9 -2.41,-2.653 -4.409,-1.993 -1.359,0.449 -2.521,1.49 -3.214,2.459 l -1.443,-1.221 c 1.163,-1.37 2.365,-2.288 4.242,-2.908 3.752,-1.24 6.312,0.543 7.153,3.085 1.77,5.358 -6.193,7.031 -4.953,10.783 0.685,2.074 2.666,2.433 4.146,1.943 1.606,-0.53 2.422,-1.457 3.214,-2.458 l 1.328,1.286 c -1.113,1.271 -2.422,2.279 -4.101,2.834 m 21.941,-10.719 c -0.423,-2.565 -2.572,-3.292 -4.444,-2.983 l -2.822,0.466 1.235,7.173 2.668,-0.439 c 2.873,-0.474 3.676,-2.318 3.363,-4.217 m -2.596,5.672 -5.362,0.884 -3.08,-17.728 2.206,-0.363 1.313,7.319 2.539,-0.418 c 2.925,-0.482 6.531,0.294 7.186,4.27 0.558,3.387 -1.442,5.481 -4.802,6.036 m 19.855,-9.704 -9.689,0.393 0.4,7.972 -2.26,0.092 -0.884,-17.971 2.26,-0.092 0.434,8.127 9.689,-0.392 -0.407,-8.128 2.261,-0.092 0.884,17.971 -2.26,0.092 z m -121.327,70.342 1.673,0.841 -3.235,6.434 5.483,2.697 3.316,-6.596 1.672,0.841 -4.32,8.594 -16.146,-7.941 1.017,-2.022 7.317,3.563 z m -8.397,18.842 c 2.184,0.733 3.347,3.074 2.613,5.257 -0.734,2.185 -3.075,3.347 -5.258,2.614 -2.185,-0.735 -3.347,-3.076 -2.613,-5.259 0.734,-2.185 3.075,-3.347 5.258,-2.612 m 14.709,-29.6 -3.193,4.964 8.454,1.851 0.028,-0.044 z m 6.447,8.722 -18.971,-3.238 0.579,-2.1 6.756,1.222 4.022,-6.254 -4.013,-5.487 1.822,-1.486 10.958,15.549 z m 0.272,-16.121 c 3.183,2.68 7.654,2.537 10.333,-0.645 1.14,-1.353 1.818,-2.684 1.964,-4.431 l 1.955,0.423 c -0.423,1.955 -1.097,3.563 -2.486,5.214 -3.434,4.076 -9.09,4.82 -13.306,1.27 -4.495,-3.786 -4.447,-9.251 -1.014,-13.329 1.223,-1.451 3.072,-2.477 4.843,-3.127 l 0.644,1.698 c -1.537,0.575 -3.033,1.423 -4.055,2.636 -2.68,3.182 -2.06,7.613 1.122,10.291 m 30.603,-17.668 -10.587,-14.549 8.06,-5.759 1.088,1.523 -6.24,4.459 9.498,13.026 z m -4.81,3.822 -7.507,-8.144 c -2.746,-3.02 -5.331,-2.463 -7.255,-0.714 -2.366,2.151 -2.639,4.402 -0.419,6.845 1.12,1.232 2.293,2.484 3.45,3.717 l 4.497,4.871 -1.655,1.504 -4.235,-4.582 c -1.261,-1.349 -2.364,-2.525 -3.344,-3.602 -3.689,-4.059 -2.535,-7.427 0.331,-10.034 2.598,-2.36 6.257,-3.824 10.198,0.395 l 7.594,8.24 z m 22.156,-17.255 0.957,1.609 -11.707,6.968 -0.958,-1.609 4.894,-2.912 -8.379,-13.773 1.922,-1.143 8.378,13.772 z m 145.011,6.444 -2.274,-1.733 -4.372,5.821 2.15,1.639 c 2.315,1.765 4.209,1.083 5.375,-0.446 1.576,-2.069 0.63,-4.13 -0.879,-5.281 m 2.657,6.636 c -2.08,2.73 -4.976,2.712 -7.685,0.647 l -4.322,-3.294 10.783,-14.404 1.778,1.356 -4.425,5.976 2.047,1.561 c 2.358,1.797 4.268,4.953 1.824,8.158 M 260.318,495.191 v 3.21 c -27.818,-13.789 -46.997,-42.477 -46.997,-75.573 0,-18.007 5.694,-34.7 15.35,-48.412 l 3.02,0.682 c -9.745,13.423 -15.512,29.912 -15.512,47.73 0,31.469 17.951,58.807 44.139,72.363 m 14.411,0.603 c 0,-3.373 5.232,-3.373 5.232,0 0,3.373 -5.232,3.373 -5.232,0 M 390.952,357.602 c -7.389,5.181 -15.372,8.533 -25.506,12.028 -23.322,-8.3 -44.685,-19.966 -65.809,-36.037 4.91,-3.82 9.816,-7.883 14.728,-12.194 23.14,16.562 46.955,27.814 76.587,36.203 M 272.533,495.573 c -0.336,-1.972 -0.742,-4.462 -0.227,-6.441 0.743,-2.86 3.862,-4.1 6.54,-3.075 3.543,1.354 3.623,5.703 2.589,8.759 -0.821,-3.426 -5.409,-4.35 -7.492,-1.51 -2.003,2.73 0.021,6.704 3.402,6.704 0.706,0 1.361,-0.191 1.946,-0.499 -0.902,1.786 -1.891,3.628 -2.949,5.493 -1.988,-2.797 -3.235,-6.059 -3.809,-9.431 m 24.115,-158.07 c -2.076,1.552 -4.159,3.052 -6.248,4.524 v 16.684 h 1.485 4.763 z m -8.184,5.893 c -2.075,1.437 -4.158,2.835 -6.248,4.197 v 11.118 h 6.248 z m -8.185,5.42 c -2.074,1.326 -4.158,2.606 -6.248,3.862 v 6.033 h 6.248 z m 18.307,9.895 h 4.777 1.484 v -16.684 c -2.093,-1.476 -4.181,-2.979 -6.261,-4.534 z m 8.198,0 h 6.247 v -11.119 c -2.09,-1.362 -4.172,-2.759 -6.247,-4.196 z m 8.185,0 h 6.248 v -6.033 c -2.09,-1.256 -4.174,-2.536 -6.248,-3.862 z m 21.056,0.626 c 10.456,4.057 17.461,27.651 17.461,62.374 0,38.25 -5.5,69.109 -20.75,69.109 h -1.25 V 358.711 h 0.337 c -2.91,-1.552 -5.799,-3.178 -8.67,-4.869 v 4.869 h 6.397 v 126.241 c -1.701,-3.166 -4.535,-5.706 -8.086,-6.747 -4.44,-8.713 -13.09,-14.217 -22.808,-14.584 -0.169,-2.02 -0.282,-4.008 -0.282,-5.91 h -1.5 c 0,1.902 -0.113,3.889 -0.282,5.91 -9.688,0.368 -18.361,5.865 -22.803,14.559 l 0.029,0.014 c -3.29,0.954 -5.966,3.197 -7.703,6.031 V 358.711 h 5.979 v -4.869 c -2.871,1.691 -5.759,3.317 -8.669,4.869 h 0.753 v 130.575 c -0.092,0.508 -0.159,1.019 -0.197,1.534 h -1.469 c -15.25,0 -20.75,-30.859 -20.75,-69.109 0,-34.443 6.893,-57.934 17.21,-62.27 0.371,-0.156 1.26,-0.624 1.765,-0.886 12.584,-6.544 24.775,-14.319 36.887,-23.523 12.598,9.572 25.281,17.599 38.401,24.305 m 30.552,15.079 c 9.655,13.712 15.35,30.405 15.35,48.412 0,33.339 -19.455,62.217 -47.607,75.885 v -3.21 c 26.52,-13.445 44.749,-40.963 44.749,-72.675 0,-17.818 -5.767,-34.307 -15.512,-47.73 z M 320.52,495.794 c 0,3.373 -5.233,3.373 -5.233,0 0,-3.373 5.233,-3.373 5.233,0 m -55.687,31.167 h -1.206 c 4.58,-5.869 8.686,-12.149 12.477,-18.551 1.346,-2.272 2.645,-4.574 3.867,-6.917 1.19,-2.283 2.521,-4.655 3.176,-7.158 0.673,-2.567 0.603,-5.527 -1.093,-7.7 -1.497,-1.917 -4.002,-2.719 -6.368,-2.328 -2.129,0.351 -3.874,1.789 -4.629,3.81 -0.558,1.494 -0.454,3.143 -0.355,4.707 0.308,4.875 1.838,9.684 4.81,13.601 -0.92,1.585 -1.88,3.143 -2.83,4.71 -4.608,-5.74 -7.253,-12.881 -7.253,-19.841 0,-6.066 5.231,-11.911 11.381,-12.079 4.499,-0.123 8.913,2.766 10.735,6.847 2.279,5.102 0.33,10.501 -2.059,15.151 -5.026,9.78 -11.709,19.18 -20.653,25.748 m 65.582,0 c -5.829,-4.28 -10.685,-9.817 -14.745,-15.77 -2.18,-3.195 -4.141,-6.538 -5.908,-9.977 -1.603,-3.12 -3.013,-6.385 -3.076,-9.95 -0.089,-5.058 2.906,-9.554 7.663,-11.327 4.275,-1.593 8.865,-0.315 11.961,2.98 1.492,1.588 2.606,3.554 3.153,5.665 0.611,2.362 0.368,4.908 -0.017,7.288 -0.899,5.572 -3.352,10.871 -6.88,15.265 -0.986,-1.541 -1.911,-3.128 -2.831,-4.71 2.513,-3.311 4.013,-7.281 4.587,-11.382 0.347,-2.476 0.735,-5.522 -0.532,-7.795 -1.781,-3.199 -6.227,-3.931 -9.187,-1.93 -3.784,2.558 -3.282,7.795 -1.633,11.451 4.547,10.085 13.362,23.416 18.651,30.192 z M 275.72,477.792 c 4.309,-7.529 12.084,-12.275 20.748,-12.666 -0.848,8.247 -3.029,17.26 -6.405,25.996 0.052,-7.602 -6.578,-14.239 -14.343,-13.33 m 2.064,38.457 c 5.703,-7.292 10.331,-15.946 13.75,-24.874 4.007,0.933 8.174,0.933 12.181,0 3.418,8.928 8.045,17.583 13.749,24.874 -5.561,4.396 -12.391,6.717 -19.84,6.717 -7.448,0 -14.279,-2.321 -19.84,-6.717 m 27.401,-25.127 c -3.376,-8.736 -5.557,-17.749 -6.405,-25.996 8.686,0.39 16.446,5.129 20.755,12.666 -7.768,-0.912 -14.403,5.725 -14.35,13.33 m 8.628,3.694 c -10e-4,-0.004 -0.002,-0.009 -0.004,-0.014 -1.03,-3.057 -0.942,-7.394 2.592,-8.745 2.678,-1.025 5.798,0.215 6.541,3.075 0.515,1.979 0.109,4.469 -0.227,6.441 -0.574,3.372 -1.821,6.634 -3.809,9.431 -1.026,-1.81 -1.98,-3.652 -2.949,-5.492 2.459,1.291 5.546,-0.172 6.083,-2.903 0.505,-2.564 -1.522,-5.031 -4.137,-5.031 -1.987,0 -3.646,1.386 -4.09,3.238 M 280.882,321.399 c 4.913,4.311 9.819,8.374 14.729,12.194 -21.124,16.071 -42.487,27.737 -65.809,36.037 -10.134,-3.495 -18.115,-6.847 -25.506,-12.028 29.633,-8.389 53.448,-19.641 76.586,-36.203 m 88.806,-27.264 c -3.615,-2.058 -7.86,-0.645 -9.917,2.97 -2.058,3.616 -1.106,7.988 2.509,10.045 3.616,2.058 7.861,0.645 9.918,-2.97 2.058,-3.616 1.106,-7.988 -2.51,-10.045 m -8.334,14.642 c -4.631,-2.636 -6.389,-8.064 -3.663,-12.855 2.908,-5.107 8.291,-6.051 12.923,-3.414 4.633,2.637 6.39,8.064 3.663,12.854 -2.907,5.108 -8.291,6.052 -12.923,3.415 m 52.852,51.473 8.501,-1.254 -2.738,-5.227 -5.786,6.435 z m -2.267,0.043 12.186,-14.896 1.541,1.541 -4.401,5.271 3.45,6.587 6.754,-0.779 0.392,2.319 -18.932,1.846 z m 6.488,-21.134 c -2.387,-3.407 -6.828,-3.945 -10.236,-1.557 -3.406,2.387 -4.416,6.746 -2.028,10.153 1.015,1.447 2.128,2.445 3.778,3.035 l -0.91,1.78 c -1.781,-0.91 -3.162,-1.974 -4.4,-3.741 -3.06,-4.365 -2.326,-10.022 2.187,-13.186 4.813,-3.372 10.083,-1.923 13.142,2.442 1.09,1.554 1.606,3.604 1.78,5.483 l -1.806,0.187 c -0.161,-1.634 -0.596,-3.297 -1.507,-4.596 m -72.679,-43.176 c -0.826,2.022 0.446,3.581 1.891,4.172 1.564,0.639 2.787,0.465 4.039,0.218 l 0.175,1.841 c -1.672,0.244 -3.324,0.159 -4.959,-0.51 -2.961,-1.21 -4.317,-3.871 -3.265,-6.446 2.381,-5.824 9.013,-1.091 10.744,-5.327 0.758,-1.853 -0.108,-3.583 -2.058,-4.38 -1.323,-0.541 -2.883,-0.505 -4.04,-0.219 l -0.304,-1.866 c 1.774,-0.286 3.285,-0.202 5.114,0.546 3.658,1.495 4.447,4.513 3.434,6.992 -2.135,5.223 -9.276,1.321 -10.771,4.979 m -48.124,15.748 c 6.128,0 11.889,3.142 14.83,8.017 -4.946,4.331 -9.887,8.421 -14.83,12.25 -4.944,-3.829 -9.884,-7.919 -14.83,-12.25 2.941,-4.875 8.702,-8.017 14.83,-8.017 m 93.982,20.186 5.505,-5.78 -6.935,-6.78 -5.524,5.763 -1.618,-1.581 12.465,-12.976 1.618,1.582 -5.614,5.892 6.935,6.779 5.632,-5.875 1.618,1.581 -12.464,12.977 z m 4.242,4.833 13.642,-11.731 1.443,1.707 -13.642,11.732 z" /></g></g></g></svg>