<?xml version="1.0" encoding="utf-8"?>
<!-- Generator: Adobe Illustrator 19.1.0, SVG Export Plug-In . SVG Version: 6.00 Build 0)  -->
<svg version="1.1" id="Vrstva_1" xmlns="http://www.w3.org/2000/svg" xmlns:xlink="http://www.w3.org/1999/xlink" x="0px" y="0px"
	 viewBox="0 0 200 200" style="enable-background:new 0 0 200 200;" xml:space="preserve">
<style type="text/css">
	.st0{fill:#080808;}
	.st1{fill:#D3D3D3;}
	.st2{fill:#F4F4F4;}
</style>
<g>
	<path class="st0" d="M28.4,142.9c12.2,12.2,23.9,23.9,35.8,35.8c-0.8,1.3-1.2,2.2-1.8,3c-2.5,3.2-1.1,6.1,0.7,9
		c1.6,2.6,4.4,2.5,6.7,1.9c2-0.4,4.3-1.6,5.6-3.1c4.2-5.2,7.7-10.9,9.6-17.5c2.8-9.7,1.8-19.2-0.9-28.6c-2.3-8.3-5.5-16.5-8.1-24.7
		c-1.8-5.8-3.5-11.6-4.4-19.3c4.5,4.4,8.1,7.5,11,11.1c4.7,5.7,10.9,7.6,19.1,8.5c-7.4-7.4-13.9-13.9-20.4-20.4
		c-2.3-2.3-4.7-4.5-6.8-6.9c-2.7-3.2-2.1-6,2-9.8c11.9,11.9,23.8,23.8,35.4,35.3c2.3-1.5,4.2-2.7,6.4-4.1
		c-13-13-25.2-25.2-37.4-37.4c6-3.6,6.7-3.7,10.5,0.1c7,6.8,13.8,13.7,20.7,20.6c1.5,1.5,3.2,2.9,5.1,4.6c1.7-5.9,0.1-10.3-3.9-14
		c-2.2-2-4.3-4.2-6.3-6.3c-2.1-2.3-4.8-4.1-6.5-7.4c4,0,7.4,0,11.2,0c-1.6-4.9-3.3-9.8-4.8-14.4c-7.1-2.1-13.7-2.6-20.8-1.2
		c-6.6,1.3-12.2,3.9-17.2,8.1C57.4,75.6,55,88.5,56.8,102.4c1.6,11.8,5.8,23.1,9.8,34.3c1.9,5.3,3.2,10.7,4.8,16.1
		c-4.4-2.7-7.8-6-11-9.3c-3.8-3.9-8.5-4-14.8-4.3c9.3,9.4,17.7,17.8,26.2,26.3c-1.5,2.4-2.6,4.1-4,6.3c-2.3-2.2-4.1-3.9-5.8-5.7
		c-8.1-8.1-16.2-16.3-24.3-24.3C33.7,137.9,33.4,138,28.4,142.9z M89.6,126.7c1.3,5,2.1,8.6,3.2,12.1c0.8,2.6,2.6,4.3,5.4,4.4
		c8.2,0.5,16.6,0.7,24.2-3.1c9.5-4.8,16.4-12.3,19.3-22.6c2.6-9.2,1.8-18.7-0.5-27.9c-2.8-11.3-6.2-22.5-9.2-33.7
		c-3.4-12.4-3.6-24.6,3.9-35.8c0.4-0.6,0.9-1.2,1.2-1.9c1.8-3.9,0.9-7.6-2.3-9.9c-2.8-1.9-6.5-1.5-9.5,1.3c-6.4,5.9-9.2,13.9-10,22
		c-1.2,10.9-0.6,21.8,3.3,32.4c3.1,8.4,5.4,17,7.6,25.7c1.3,5.3,2.4,10.8,2.1,16.1c-0.6,12.8-5.4,19.3-17.2,22.1
		c-4.4,1-9.4,0-14-0.2C94.9,127.6,92.7,127.1,89.6,126.7z M138.9,36.1c10.9,10.6,21.6,21,32.3,31.5c-6.7,3.6-7.9,3.5-12.5-1
		c-3.6-3.5-7-7.1-10.6-10.5c-2.2-2.1-4-4.8-7.1-6.3c-1.3,9.4,6.2,13.6,11.3,20.2c-1.9-0.2-2.9-0.2-3.8-0.4c-0.9-0.2-1.7-0.5-3.2-0.9
		c1.9,5.9,3.5,11,5.1,16.4c4.9,0,9.4-0.1,13.8,0c8,0.2,15.1-2.9,21.9-6.6c2.1-1.1,3.8-3.2,5.4-5.1c1.8-2.1,1.7-4.7,0.6-7.1
		c-1.1-2.4-3.1-3.9-5.9-3.7c-2.7,0.2-5.3,0.6-8.2,1c-11.8-11.7-23.5-23.5-35.9-35.8C141,30.8,140.2,32.7,138.9,36.1z M53.4,129.4
		c-0.2-1.7-0.3-2.9-0.6-4c-3.8-12.7-3.8-12.8-17.1-11.9c-10,0.7-18.5,5.3-26,11.7c-0.6,0.5-1.1,1-1.5,1.7c-1.5,2.4-1.5,7.3,0.1,9.2
		c2.2,2.7,6,3.3,9.4,1.4c2.1-1.2,4.2-2.7,6.2-4.1c4.8-3.5,10.1-5.2,16.1-4.8C44.1,128.7,48.2,129,53.4,129.4z"/>
	<path class="st1" d="M89.6,126.7c3.2,0.4,5.3,0.8,7.4,0.9c4.7,0.2,9.6,1.2,14,0.2c11.7-2.7,16.6-9.3,17.2-22.1
		c0.3-5.3-0.8-10.9-2.1-16.1c-2.1-8.7-4.5-17.4-7.6-25.7c-3.9-10.6-4.5-21.5-3.3-32.4c0.9-8.1,3.6-16.1,10-22c3-2.8,6.7-3.2,9.5-1.3
		c3.2,2.3,4.1,6,2.3,9.9c-0.3,0.7-0.8,1.2-1.2,1.9c-7.5,11.3-7.3,23.4-3.9,35.8c3.1,11.2,6.4,22.4,9.2,33.7
		c2.3,9.2,3.1,18.7,0.5,27.9c-2.9,10.3-9.8,17.8-19.3,22.6c-7.6,3.8-15.9,3.6-24.2,3.1c-2.8-0.2-4.6-1.8-5.4-4.4
		C91.7,135.3,90.9,131.7,89.6,126.7z"/>
	<g>
		<path class="st2" d="M28.4,142.9c5-4.9,5.4-5,9.3-1.1c8.2,8,16.2,16.2,24.3,24.3c1.7,1.7,3.5,3.4,5.8,5.7c1.4-2.1,2.5-3.9,4-6.3
			c-8.5-8.6-16.9-17-26.2-26.3c6.3,0.3,11,0.4,14.8,4.3c3.3,3.4,6.6,6.6,11,9.3c-1.6-5.4-2.9-10.8-4.8-16.1
			c-4-11.2-8.2-22.5-9.8-34.3C55,88.5,57.4,75.6,68.9,65.9c5-4.2,10.6-6.8,17.2-8.1c7.1-1.4,13.7-0.9,20.8,1.2
			c1.5,4.6,3.2,9.5,4.8,14.4c-3.8,0-7.2,0-11.2,0c1.7,3.4,4.4,5.2,6.5,7.4c2,2.2,4.2,4.3,6.3,6.3c4,3.7,5.6,8,3.9,14
			c-1.9-1.7-3.5-3.1-5.1-4.6c-6.9-6.9-13.7-13.8-20.7-20.6c-3.8-3.7-4.6-3.7-10.5-0.1c12.2,12.2,24.3,24.3,37.4,37.4
			c-2.2,1.4-4.1,2.6-6.4,4.1c-11.6-11.6-23.5-23.5-35.4-35.3c-4.1,3.8-4.7,6.6-2,9.8c2.1,2.5,4.5,4.6,6.8,6.9
			c6.5,6.5,13,13,20.4,20.4c-8.2-0.9-14.4-2.8-19.1-8.5c-3-3.6-6.6-6.7-11-11.1c0.9,7.7,2.6,13.5,4.4,19.3
			c2.6,8.3,5.8,16.4,8.1,24.7c2.6,9.4,3.7,19,0.9,28.6c-1.9,6.6-5.4,12.3-9.6,17.5c-1.3,1.6-3.6,2.7-5.6,3.1
			c-2.3,0.5-5.1,0.7-6.7-1.9c-1.7-2.8-3.2-5.8-0.7-9c0.6-0.8,1-1.6,1.8-3C52.3,166.9,40.5,155.1,28.4,142.9z"/>
		<path class="st2" d="M138.9,36.1c1.3-3.4,2.1-5.4,3.3-8.4c12.4,12.4,24.1,24.1,35.9,35.8c2.8-0.3,5.5-0.8,8.2-1
			c2.8-0.2,4.9,1.2,5.9,3.7c1,2.3,1.2,5-0.6,7.1c-1.6,1.9-3.3,3.9-5.4,5.1c-6.8,3.7-13.8,6.8-21.9,6.6c-4.5-0.1-8.9,0-13.8,0
			c-1.7-5.3-3.3-10.4-5.1-16.4c1.5,0.4,2.3,0.7,3.2,0.9c0.9,0.2,1.8,0.2,3.8,0.4c-5.1-6.6-12.6-10.8-11.3-20.2
			c3,1.5,4.9,4.2,7.1,6.3c3.6,3.5,7,7.1,10.6,10.5c4.6,4.5,5.8,4.6,12.5,1C160.5,57.1,149.8,46.7,138.9,36.1z"/>
	</g>
	<path class="st1" d="M53.4,129.4c-5.2-0.4-9.3-0.8-13.5-1c-5.9-0.4-11.3,1.4-16.1,4.8c-2,1.4-4.1,2.9-6.2,4.1
		c-3.4,2-7.2,1.3-9.4-1.4c-1.6-1.9-1.6-6.8-0.1-9.2c0.4-0.6,0.9-1.2,1.5-1.7c7.6-6.4,16-11,26-11.7c13.3-0.9,13.4-0.7,17.1,11.9
		C53.1,126.5,53.2,127.7,53.4,129.4z"/>
</g>
</svg>
