<?xml version="1.0" encoding="utf-8"?>
<!-- Generator: Adobe Illustrator 18.1.1, SVG Export Plug-In . SVG Version: 6.00 Build 0)  -->
<!DOCTYPE svg PUBLIC "-//W3C//DTD SVG 1.1//EN" "http://www.w3.org/Graphics/SVG/1.1/DTD/svg11.dtd">
<svg version="1.1" id="Vrstva_1" xmlns="http://www.w3.org/2000/svg" xmlns:xlink="http://www.w3.org/1999/xlink" x="0px" y="0px"
	 viewBox="0 0 202 134" enable-background="new 0 0 202 134" xml:space="preserve">
<g>
	<g>
		<path fill="#010101" d="M43.2,73.2c-2.6,4.5-7.5,7.5-13,7.5c-8.3,0-15.1-6.7-15.1-15.1c0-8.3,6.7-15.1,15.1-15.1
			c5.6,0,10.4,3,13,7.5L53.9,52c-4.8-8.2-13.6-13.7-23.8-13.7C15,38.2,2.6,50.5,2.6,65.7c0,15.2,12.3,27.5,27.5,27.5
			c10.2,0,19-5.5,23.8-13.7L43.2,73.2z"/>
		<path fill="#010101" d="M199,51.3V39.5h-30.1v11.8h6.5v18.3c0,13,10.5,23.6,23.6,23.6V80.1c-5.8,0-10.5-4.7-10.5-10.5V51.3H199z"
			/>
	</g>
	<rect x="149.3" y="39.5" fill="#010101" width="13.1" height="52.4"/>
	<g>
		<path fill="#010101" d="M109.7,69.6c0.2-1.3,0.3-2.6,0.3-3.9c0-15.2-12.3-27.5-27.5-27.5C67.3,38.2,55,50.5,55,65.7
			c0,15.2,12.3,27.5,27.5,27.5c10.2,0,19-5.5,23.8-13.7l-10.8-6.2c-2.6,4.5-7.5,7.5-13,7.5c-7,0-12.8-4.7-14.5-11.1H109.7z
			 M82.5,50.7c6,0,11.1,3.5,13.6,8.5H68.9C71.4,54.1,76.5,50.7,82.5,50.7"/>
		<path fill="#010101" d="M128.3,43.2v-3.6h-13.1v52.4h13.1V63.7c0-6.5,5.3-11.8,11.8-11.8h3.9V38.2
			C138.2,38.2,132.8,40.1,128.3,43.2"/>
		<path fill="#19B5EA" d="M170.2,19.9c0,8-6.4,14.4-14.4,14.4c-8,0-14.4-6.4-14.4-14.4c0-8,6.5-14.4,14.4-14.4
			C163.8,5.5,170.2,11.9,170.2,19.9"/>
		<path fill="#19B5EA" d="M2.2,117.6h4.8c0.1,1.4,1.1,2.7,3.7,2.7c1.9,0,3-0.9,3-1.9c0-1.4-1.9-1.6-3.7-1.9
			c-2.2-0.3-7.3-0.8-7.3-5.6c0-3.5,2.7-5.9,7.6-5.9c4.7,0,7.5,2.3,7.8,6h-4.6c-0.1-1.1-0.5-2.4-3.1-2.4c-1.7,0-2.8,0.6-2.8,1.6
			c0,1.5,2.4,1.7,4.3,2c3.7,0.6,6.9,1.6,6.9,5.7c0,4.2-3.5,6.1-8.1,6.1C5.3,123.9,2.3,121.5,2.2,117.6"/>
		<path fill="#19B5EA" d="M19.5,114.4c0-5.3,4.3-9.4,9.6-9.4c3.6,0,6.3,1.5,8.2,4.4l-3.8,2.1c-1-1.5-2.5-2.4-4.4-2.4
			c-2.9,0-5.3,2.4-5.3,5.3c0,2.8,2.4,5.3,5.3,5.3c1.9,0,3.3-0.8,4.4-2.3l3.8,2.1c-1.8,2.9-4.6,4.4-8.1,4.4
			C23.8,123.9,19.5,119.6,19.5,114.4"/>
	</g>
	<path fill="#19B5EA" d="M38.7,105.2h4.5v18.3h-4.5V105.2z M38.7,99h4.5v4.5h-4.5V99z"/>
	<g>
		<path fill="#19B5EA" d="M59.3,112.4c-0.9-2.1-2.5-3.2-4.8-3.2c-2.2,0-4.1,1.4-4.9,3.2H59.3z M44.9,114.4c0-5.3,4.3-9.4,9.6-9.4
			c5.8,0,9.6,4.5,9.6,9.7c0,0.4,0,0.8-0.1,1.2H49.4c0.8,2.4,2.6,3.8,5.4,3.8c2.3,0,3.7-0.7,4.8-2.3l3.8,2.1
			c-1.9,2.9-4.7,4.4-8.6,4.4C49.1,123.9,44.9,119.8,44.9,114.4"/>
		<path fill="#19B5EA" d="M65.8,105.2h4.5v1.5c1.2-1,2.9-1.6,4.9-1.6c5.5,0,7.5,3.5,7.5,8.9v9.6h-4.5V115c0-3.9-0.6-5.9-4-5.9
			c-2.5,0-4,1.6-4,4.2v10.1h-4.5V105.2z"/>
		<path fill="#19B5EA" d="M84.3,114.4c0-5.3,4.3-9.4,9.6-9.4c3.6,0,6.3,1.5,8.2,4.4l-3.8,2.1c-1-1.5-2.5-2.4-4.4-2.4
			c-2.9,0-5.3,2.4-5.3,5.3c0,2.8,2.4,5.3,5.3,5.3c1.9,0,3.3-0.8,4.4-2.3l3.8,2.1c-1.8,2.9-4.5,4.4-8.1,4.4
			C88.6,123.9,84.3,119.6,84.3,114.4"/>
		<path fill="#19B5EA" d="M116.7,112.4c-0.9-2.1-2.5-3.2-4.8-3.2c-2.2,0-4.1,1.4-4.9,3.2H116.7z M102.3,114.4c0-5.3,4.3-9.4,9.6-9.4
			c5.8,0,9.6,4.5,9.6,9.7c0,0.4,0,0.8-0.1,1.2h-14.5c0.8,2.4,2.6,3.8,5.4,3.8c2.3,0,3.7-0.7,4.8-2.3l3.8,2.1
			c-1.9,2.9-4.7,4.4-8.6,4.4C106.5,123.9,102.3,119.8,102.3,114.4"/>
		<path fill="#19B5EA" d="M145.5,114.4c0-2.8-2.4-5.3-5.3-5.3s-5.3,2.4-5.3,5.3c0,2.8,2.4,5.3,5.3,5.3S145.5,117.2,145.5,114.4
			 M130.4,105.2h4.5v1.5c1.6-1.1,3.4-1.6,5.3-1.6c5.3,0,9.6,4.2,9.6,9.4c0,5.2-4.3,9.5-9.6,9.5c-1.8,0-3.8-0.6-5.3-1.6v7.4h-4.5
			V105.2z"/>
		<path fill="#19B5EA" d="M165.7,114.4c0-2.8-2.4-5.3-5.3-5.3c-2.9,0-5.3,2.4-5.3,5.3c0,2.8,2.4,5.3,5.3,5.3
			C163.3,119.7,165.7,117.2,165.7,114.4 M150.8,114.4c0-5.3,4.3-9.4,9.6-9.4c1.9,0,3.7,0.5,5.3,1.6v-1.5h4.5v18.3h-4.5v-1.2
			c-1.5,1-3.5,1.6-5.3,1.6C155,123.9,150.8,119.6,150.8,114.4"/>
		<path fill="#19B5EA" d="M172.4,105.2h4.5v1.8c1.4-1.4,3-1.9,5.4-1.9l-0.3,4.8c-4.1,0-5.1,1.5-5.1,4.4v9.3h-4.5V105.2z"/>
	</g>
	<polygon fill="#19B5EA" points="183.9,99 188.5,99 188.5,110.9 194.2,105.2 199.6,105.2 192.8,112.2 200.3,123.5 194.9,123.5 
		189.5,115.6 188.5,116.6 188.5,123.5 183.9,123.5 	"/>
	<g>
		<path fill="#FFFFFF" d="M143.8,21.9h3.1c0.1,0.9,0.7,1.8,2.4,1.8c1.2,0,1.9-0.6,1.9-1.2c0-0.9-1.2-1.1-2.4-1.2
			c-1.4-0.2-4.7-0.5-4.7-3.6c0-2.3,1.8-3.8,4.9-3.8c3,0,4.8,1.5,5,3.9h-3c-0.1-0.7-0.3-1.6-2-1.6c-1.1,0-1.8,0.4-1.8,1
			c0,0.9,1.6,1.1,2.8,1.3c2.4,0.4,4.4,1,4.4,3.7c0,2.7-2.2,3.9-5.3,3.9C145.8,26,144,24.4,143.8,21.9"/>
		<path fill="#FFFFFF" d="M165.2,19.8c0-1.8-1.6-3.4-3.4-3.4c-1.9,0-3.4,1.6-3.4,3.4c0,1.8,1.6,3.4,3.4,3.4
			C163.6,23.2,165.2,21.7,165.2,19.8 M155.5,13.9h2.9v0.9c1-0.7,2.2-1.1,3.4-1.1c3.4,0,6.2,2.7,6.2,6.1c0,3.4-2.8,6.1-6.2,6.1
			c-1.2,0-2.5-0.4-3.4-1v4.8h-2.9V13.9z"/>
	</g>
</g>
<g>
</g>
<g>
</g>
<g>
</g>
<g>
</g>
<g>
</g>
<g>
</g>
</svg>
