<?xml version="1.0" encoding="utf-8"?>
<!-- Generator: Adobe Illustrator 19.1.0, SVG Export Plug-In . SVG Version: 6.00 Build 0)  -->
<svg version="1.1" id="Vrstva_1" xmlns="http://www.w3.org/2000/svg" xmlns:xlink="http://www.w3.org/1999/xlink" x="0px" y="0px"
	 viewBox="0 0 185 94" enable-background="new 0 0 185 94" xml:space="preserve">
<path fill="#FFFFFF" d="M58.5,33.6v56c0,0.9-0.2,1.6-0.6,2.1c-0.4,0.4-1,0.6-2,0.6h-9.3c-0.9,0-1.6-0.2-2-0.6
	c-0.4-0.4-0.6-1.1-0.6-2.1V61c0,0.1-0.1,0.5-0.3,1.2c-0.2,0.7-0.5,1.6-0.7,2.6c-0.3,1-0.6,2-0.9,3.1c-0.3,1-0.6,1.9-0.9,2.7l-4,9.8
	c-0.3,0.9-0.8,1.6-1.4,2c-0.6,0.5-1.3,0.7-2.2,0.7h-7.9c-0.9,0-1.6-0.3-2.1-0.8c-0.5-0.5-1-1.1-1.3-2l-5-11.5
	c-0.3-0.6-0.5-1.3-0.8-2.1c-0.3-0.8-0.5-1.6-0.7-2.3c-0.2-0.8-0.4-1.4-0.6-2c-0.1-0.6-0.3-1-0.3-1.2v28.4c0,0.9-0.2,1.6-0.6,2.1
	c-0.4,0.4-1,0.6-2,0.6H3.6c-0.9,0-1.6-0.2-2-0.6C1.2,91.2,1,90.6,1,89.6v-56c0-0.9,0.2-1.6,0.6-2.1c0.4-0.4,1.1-0.6,2-0.6h8.9
	c0.7,0,1.2,0.1,1.5,0.4c0.3,0.3,0.6,0.6,0.8,1.1L27.1,60c0.4,1.1,0.8,2.1,1.2,3.1c0.4,1,0.7,1.9,0.9,2.7c0.3,0.7,0.4,1.2,0.5,1.3
	c0-0.1,0.1-0.4,0.3-1c0.2-0.6,0.5-1.4,0.9-2.4c0.4-1,0.9-2.2,1.4-3.5l11.8-28c0.2-0.5,0.5-0.8,0.8-1c0.4-0.2,0.9-0.3,1.6-0.3h9.3
	c0.9,0,1.6,0.2,2,0.6C58.3,32,58.5,32.6,58.5,33.6L58.5,33.6z M79.6,46c0-0.7-0.1-1.3-0.4-1.6c-0.3-0.3-0.8-0.5-1.6-0.5h-7.7
	c-0.7,0-1.3,0.2-1.6,0.5c-0.3,0.3-0.5,0.9-0.5,1.6v34.7c0,1.5,0.3,3,1,4.5c0.6,1.5,1.7,2.7,3.1,3.9c1.4,1.2,3.3,2.1,5.6,2.8
	c2.3,0.7,5.2,1,8.5,1c3.3,0,6.2-0.4,8.5-1c2.3-0.7,4.2-1.6,5.6-2.8c1.4-1.2,2.5-2.4,3.1-3.9c0.7-1.4,1-2.9,1-4.5V46
	c0-0.7-0.1-1.3-0.4-1.6c-0.3-0.3-0.8-0.5-1.6-0.5h-7.7c-0.7,0-1.3,0.2-1.6,0.5c-0.3,0.3-0.5,0.9-0.5,1.6v32.7c0,1.1-0.3,2-0.9,2.7
	c-0.6,0.7-1.4,1.2-2.4,1.5c-1,0.3-2.1,0.5-3.2,0.5c-1.2,0-2.2-0.2-3.2-0.5c-1-0.3-1.7-0.8-2.3-1.5c-0.6-0.7-0.9-1.6-0.9-2.7V46
	L79.6,46z M139.7,92.3c0.8,0,1.3-0.2,1.6-0.5c0.3-0.3,0.5-0.9,0.5-1.6v-5.6c0-0.7-0.2-1.3-0.5-1.6c-0.3-0.3-0.9-0.5-1.6-0.4h-15.4
	V72h13.6c0.8,0,1.3-0.2,1.6-0.5c0.3-0.3,0.5-0.9,0.5-1.6v-5.2c0-0.7-0.2-1.3-0.5-1.6c-0.3-0.3-0.9-0.5-1.6-0.4h-13.6v-9.3h14.7
	c0.7,0,1.3-0.2,1.6-0.5c0.3-0.3,0.5-0.9,0.5-1.6v-5.6c0-0.7-0.2-1.3-0.5-1.6c-0.3-0.3-0.9-0.5-1.6-0.4h-24.4c-0.7,0-1.3,0.2-1.6,0.5
	c-0.3,0.3-0.5,0.9-0.5,1.6v44.2c0,0.7,0.2,1.3,0.5,1.6c0.3,0.3,0.9,0.5,1.6,0.5H139.7L139.7,92.3z M170.8,58.1
	c0,0.7,0.1,1.3,0.4,1.6c0.3,0.3,0.8,0.5,1.6,0.5h7.4c0.7,0,1.3-0.2,1.6-0.5c0.3-0.3,0.5-0.9,0.5-1.6v-2.6c0-1.5-0.3-3-0.8-4.5
	c-0.6-1.5-1.5-2.7-2.8-3.9c-1.3-1.2-3.1-2.1-5.3-2.7c-2.2-0.7-5-1-8.3-1c-3.3,0-6,0.4-8.2,1c-2.2,0.7-3.9,1.6-5.2,2.7
	c-1.3,1.2-2.2,2.5-2.7,3.9c-0.5,1.5-0.8,2.9-0.8,4.5v4.1c0,1.4,0.3,2.7,0.9,4c0.6,1.3,1.4,2.4,2.4,3.4c1,1,2.1,1.7,3.3,2.1l10.3,3.9
	c0.7,0.2,1.4,0.5,2.1,0.8c0.7,0.3,1.4,0.6,2,1c0.6,0.4,1.1,0.8,1.5,1.3c0.4,0.5,0.6,1,0.6,1.7v1.4c0,1.1-0.3,2-0.9,2.6
	c-0.6,0.7-1.3,1.1-2.3,1.4c-1,0.3-2,0.4-3.2,0.4c-1.2,0-2.2-0.1-3.2-0.4c-0.9-0.3-1.7-0.8-2.2-1.4c-0.6-0.7-0.8-1.5-0.9-2.6v-3.2
	c0-0.7-0.1-1.3-0.4-1.6c-0.3-0.3-0.8-0.5-1.6-0.5h-7.4c-0.7,0-1.3,0.2-1.6,0.5c-0.3,0.3-0.5,0.9-0.5,1.6v4.8c0,1.5,0.3,3,0.9,4.5
	c0.6,1.5,1.6,2.7,3,3.9c1.4,1.2,3.2,2.1,5.5,2.8c2.3,0.7,5.1,1,8.5,1c3.3,0,6.1-0.4,8.4-1c2.3-0.7,4.1-1.6,5.5-2.8
	c1.4-1.2,2.4-2.4,3-3.9c0.6-1.4,0.9-2.9,0.9-4.5v-5.1c0-1.8-0.4-3.3-1.1-4.7c-0.8-1.4-1.8-2.6-3.1-3.6c-1.3-1-2.9-1.8-4.7-2.4
	l-12-4.1c-0.3-0.1-0.6-0.3-0.9-0.5c-0.4-0.2-0.7-0.6-0.9-1c-0.3-0.4-0.4-0.9-0.4-1.6V57c0-1.1,0.2-2,0.7-2.6c0.5-0.7,1.1-1.1,2-1.4
	c0.8-0.3,1.8-0.5,2.9-0.4c1.1,0,2.1,0.1,2.9,0.4c0.8,0.3,1.5,0.8,2,1.4c0.5,0.7,0.7,1.5,0.7,2.6V58.1L170.8,58.1z"/>
<path fill="#FFFFFF" d="M27.1,38.4c-0.2,0-0.5-0.1-0.7-0.2c-0.7-0.4-1-1.3-0.6-2c7.4-13.8,16.6-22.6,27.6-26.1
	C47,5.7,39.8,3.8,32.5,4.8c-10.4,1.4-19,8.5-22.9,19c-0.3,0.8-1.2,1.2-1.9,0.9c-0.8-0.3-1.2-1.2-0.9-1.9
	C11.1,11.2,20.6,3.4,32.1,1.8c8.8-1.2,17.6,1.5,25,7.3C70,6.4,84.6,10.9,99.4,22c9.4,7,22.3,11,36.6,11.5l25.7,0c0.1,0,0.2,0,0.3,0
	l20,0c0,0,0,0,0,0c0.8,0,1.5,0.7,1.5,1.5c0,0.8-0.7,1.5-1.5,1.5l-43.2,0.1c-1,0-1.9,0-2.9,0l-36.7,0c0,0-0.1,0-0.1,0
	c-17.3,0-27.5-4.8-36.3-17c-2-2.7-4.2-5.1-6.6-7.2c-11.1,2.8-20.5,11.3-27.9,25.2C28.2,38.1,27.6,38.4,27.1,38.4z M60,11.6
	c1.9,1.8,3.7,3.9,5.3,6.1c8.3,11.5,17.5,15.8,33.9,15.8c0,0,0.1,0,0.1,0l17.2,0c-7.1-2.1-13.5-5.1-18.8-9.1
	C84.4,14.5,71.5,10.1,60,11.6z"/>
</svg>
