<?xml version="1.0" encoding="utf-8"?>
<!-- Generator: Adobe Illustrator 18.1.1, SVG Export Plug-In . SVG Version: 6.00 Build 0)  -->
<!DOCTYPE svg PUBLIC "-//W3C//DTD SVG 1.1//EN" "http://www.w3.org/Graphics/SVG/1.1/DTD/svg11.dtd">
<svg version="1.1" id="Vrstva_1" xmlns="http://www.w3.org/2000/svg" xmlns:xlink="http://www.w3.org/1999/xlink" x="0px" y="0px"
	 viewBox="0 0 1133.9 850.4" enable-background="new 0 0 1133.9 850.4" xml:space="preserve">
<g>
	<g>
		<path fill="#F0A61F" d="M957.8,160.2c0,44.9-36.3,81.2-81.2,81.2s-81.3-36.4-81.3-81.2S831.7,79,876.6,79
			C921.5,78.9,957.8,115.3,957.8,160.2"/>
		<path d="M241.2,461.1c-14.7,25.4-42.1,42.5-73.5,42.5c-46.9,0-84.9-38-84.9-84.9s38-84.9,84.9-84.9c31.4,0,58.8,17.1,73.5,42.5
			l60.8-35.1c-26.8-46.3-76.9-77.5-134.3-77.5c-85.6,0-155.1,69.4-155.1,155.1c0,85.6,69.4,155.1,155.1,155.1
			c57.4,0,107.5-31.2,134.3-77.5L241.2,461.1z"/>
		<path d="M1120.3,337.4v-66.5H950.4v66.5h36.9v103.4c0,73.4,59.5,132.9,132.9,132.9v-73.8c-32.6,0-59.1-26.4-59.1-59.1V337.4
			H1120.3z"/>
		<rect x="839.7" y="270.9" width="73.8" height="295.4"/>
		<path d="M616.5,440.8c1.1-7.3,1.6-14.6,1.6-22.2c0-85.6-69.4-155.1-155.1-155.1c-85.6,0-155,69.5-155,155.1
			c0,85.7,69.4,155.1,155.1,155.1c57.4,0,107.5-31.2,134.3-77.5l-60.7-35.1c-14.7,25.4-42.1,42.5-73.5,42.5
			c-39.2,0-72.2-26.6-82-62.7h235.3V440.8z M463.1,333.7c33.7,0,62.8,19.6,76.5,48h-153C400.3,353.3,429.4,333.7,463.1,333.7"/>
		<path d="M721.5,291.4v-20.5h-73.8v295.4h73.8V407.5c0-36.7,29.8-66.5,66.5-66.5h22.1v-77.5C777.2,263.5,746.6,273.8,721.5,291.4"
			/>
	</g>
	<path fill="#FFFFFF" d="M825.5,125.7h17v6.6c5.3-5.3,11.2-7.1,20.4-7.3l-1.1,17.9c-15.5,0-19.3,5.5-19.3,16.6v35.1h-17L825.5,125.7
		L825.5,125.7z"/>
	<path fill="#FFFFFF" d="M918.8,152.1c-3.4-7.9-9.3-12.1-18.2-12.1c-8.2,0-15.4,5.1-18.5,12.1H918.8z M864.5,159.8
		c0-19.8,16-35.5,36.1-35.5c21.8,0,36.2,16.9,36.2,36.5c0,1.5-0.1,3.1-0.3,4.6h-54.7c2.8,8.9,9.8,14.2,20.2,14.2
		c8.6,0,13.8-2.7,18.2-8.8l14.2,7.8c-7.1,10.8-17.5,16.7-32.4,16.7C880.3,195.4,864.5,180.1,864.5,159.8"/>
	<path fill="#F0A61F" d="M123.7,690.6h15.9c0.5,4.7,3.7,9.1,12.2,9.1c6.3,0,9.9-3,9.9-6.3c0-4.7-6.3-5.5-12.3-6.2
		c-7.4-0.8-24.3-2.8-24.3-18.8c0-11.7,9.1-19.9,25.3-19.9c15.6,0,25,7.8,26,20h-15.3c-0.4-3.6-1.5-8.1-10.3-8.1
		c-5.7,0-9.3,2.2-9.3,5.3c0,4.9,8.1,5.6,14.4,6.7c12.3,2,23,5.4,23,19c0,14-11.6,20.2-27.2,20.2
		C134.1,711.6,124.3,703.7,123.7,690.6"/>
	<path fill="#F0A61F" d="M975.4,649.1h15.1v61.1h-15.1V649.1z M975.4,628.4h15.1v15.1h-15.1V628.4z"/>
	<path fill="#F0A61F" d="M102.8,673.1c-3-7.1-8.3-10.8-16.2-10.8c-7.3,0-13.6,4.5-16.4,10.8H102.8z M54.6,680
		c0-17.6,14.2-31.5,32.1-31.5c19.4,0,32.1,15,32.1,32.4c0,1.3-0.1,2.7-0.2,4.1H69.9c2.5,7.9,8.7,12.6,17.9,12.6
		c7.7,0,12.2-2.4,16.2-7.8l12.6,6.9c-6.3,9.6-15.5,14.8-28.7,14.8C68.6,711.6,54.6,698,54.6,680"/>
	<path fill="#F0A61F" d="M649.3,673.1c-3-7.1-8.2-10.8-16.1-10.8c-7.3,0-13.6,4.5-16.4,10.8H649.3z M601.1,680
		c0-17.6,14.2-31.5,32.1-31.5c19.4,0,32.1,15,32.1,32.4c0,1.3-0.1,2.7-0.2,4.1h-48.6c2.5,7.9,8.7,12.6,17.9,12.6
		c7.7,0,12.2-2.4,16.2-7.8l12.6,6.9c-6.3,9.6-15.6,14.8-28.7,14.8C615.1,711.6,601.1,698,601.1,680"/>
	<path fill="#F0A61F" d="M231.1,673.1c-3-7.1-8.3-10.8-16.2-10.8c-7.3,0-13.6,4.5-16.4,10.8H231.1z M182.9,680
		c0-17.6,14.2-31.5,32.1-31.5c19.4,0,32.1,15,32.1,32.4c0,1.3-0.1,2.7-0.2,4.1h-48.6c2.5,7.9,8.7,12.6,17.9,12.6
		c7.7,0,12.2-2.4,16.2-7.8l12.6,6.9c-6.3,9.6-15.5,14.8-28.7,14.8C196.9,711.6,182.9,698,182.9,680"/>
	<path fill="#F0A61F" d="M1065.8,649.1h14.9v4.9c4.1-3.5,9.8-5.5,16.5-5.5c18.3,0,25.1,11.6,25.1,29.7v32.1h-15V682
		c0-12.9-1.9-19.6-13.3-19.6c-8.4,0-13.4,5.3-13.4,14v33.9h-14.9v-61.2H1065.8z"/>
	<path fill="#F0A61F" d="M797.6,711h-15v-4.9c-4.1,3.5-9.8,5.5-16.5,5.5c-18.3,0-25.1-11.6-25.1-29.7v-32.1h15V678
		c0,12.9,1.9,19.6,13.3,19.6c8.4,0,13.4-5.3,13.4-14v-33.9h15V711H797.6z"/>
	<path fill="#F0A61F" d="M422.4,629.9h14.9V654c4.1-3.5,9.8-5.5,16.5-5.5c18.3,0,25.1,11.6,25.1,29.7v32.1h-15V682
		c0-12.9-1.9-19.6-13.3-19.6c-8.4,0-13.4,5.3-13.4,14v33.9h-14.9L422.4,629.9L422.4,629.9z"/>
	<path fill="#F0A61F" d="M358.4,680c0-17.6,14.2-31.5,32.1-31.5c12,0,21.2,5.1,27.3,14.7l-12.7,7.1c-3.5-4.9-8.4-7.9-14.6-7.9
		c-9.7,0-17.7,8.1-17.7,17.6c0,9.4,8,17.6,17.7,17.6c6.2,0,11.1-2.7,14.6-7.8l12.6,6.9c-6.1,9.6-15.2,14.8-27.2,14.8
		C372.6,711.6,358.4,697.3,358.4,680"/>
	<path fill="#F0A61F" d="M802.5,680c0-17.6,14.2-31.5,32.1-31.5c12,0,21.2,5.1,27.3,14.7l-12.7,7.1c-3.5-4.9-8.4-7.9-14.6-7.9
		c-9.7,0-17.7,8.1-17.7,17.6c0,9.4,8,17.6,17.7,17.6c6.2,0,11.1-2.7,14.6-7.8l12.6,6.9c-6.1,9.6-15.2,14.8-27.2,14.8
		C816.7,711.6,802.5,697.3,802.5,680"/>
	<path fill="#F0A61F" d="M302.2,680c0-9.5-8-17.6-17.7-17.6s-17.7,8.1-17.7,17.6c0,9.4,8,17.6,17.7,17.6S302.2,689.4,302.2,680
		 M252.4,680c0-17.6,14.2-31.5,32.1-31.5c6.2,0,12.4,1.8,17.7,5.5v-4.9h14.9v61.1h-14.9v-4.1c-4.9,3.4-11.6,5.4-17.7,5.4
		C266.7,711.6,252.4,697.3,252.4,680"/>
	<path fill="#F0A61F" d="M913.1,680c0-9.5-8-17.6-17.7-17.6c-9.7,0-17.7,8.1-17.7,17.6c0,9.4,8,17.6,17.7,17.6
		C905.1,697.6,913.1,689.4,913.1,680 M863.3,680c0-17.6,14.2-31.5,32.1-31.5c6.2,0,12.4,1.8,17.7,5.5v-4.9h15v61.1h-15v-4.1
		c-4.9,3.4-11.6,5.4-17.7,5.4C877.5,711.6,863.3,697.3,863.3,680"/>
	<path fill="#F0A61F" d="M719,680c0-9.5-8-17.6-17.7-17.6c-9.7,0-17.7,8.1-17.7,17.6c0,9.4,8,17.6,17.7,17.6
		C711,697.6,719,689.4,719,680 M669.3,680c0-17.6,14.2-31.5,32-31.5c6.2,0,12.4,1.8,17.7,5.5v-24.1h15v80.3h-15v-4.1
		c-4.9,3.4-11.6,5.4-17.7,5.4C683.5,711.6,669.3,697.3,669.3,680"/>
	<path fill="#F0A61F" d="M20.6,649.1h15.1v5.9c4.7-4.7,9.9-6.3,18.1-6.5l-1,15.9c-13.8,0-17.1,4.9-17.1,14.7v31.1H20.6V649.1z"/>
	<path fill="#F0A61F" d="M325,649.1h15.1v5.9c4.7-4.7,9.9-6.3,18.1-6.5l-1,15.9c-13.8,0-17.1,4.9-17.1,14.7v31.1H325V649.1z"/>
	<path fill="#F0A61F" d="M969.3,662.2v-13.9H957l0.2-18.8H942v18.8h-8.1v13.9h7.7v21.6c0,15.3,12.4,27.7,27.7,27.7v-15.4
		c-6.8,0-12.3-5.5-12.3-12.3v-21.6H969.3z"/>
	<g>
		<g>
			<path fill="#F0A61F" d="M1028,648.3c8.3,0,15.5,2.9,21.7,8.8c6.4,6.1,9.6,13.7,9.6,22.7c0,8.5-3,15.9-8.9,21.9
				c-3,3.1-6.5,5.5-10.5,7.2c-4,1.7-8.1,2.6-12.3,2.6c-4.2,0-8.3-0.9-12.3-2.6c-4-1.7-7.5-4.1-10.5-7.2c-6-6.1-9-13.3-9-21.8
				c0-9.2,3.2-16.8,9.7-22.8C1011.8,651.2,1019.3,648.3,1028,648.3z M1027.4,661.4c-4.4,0-8.3,1.6-11.7,4.8
				c-3.7,3.6-5.6,8.1-5.6,13.5c0,4.9,1.6,9.1,4.9,12.8c3.4,3.8,7.6,5.7,12.6,5.7c4.9,0,9.1-1.9,12.6-5.7c3.2-3.6,4.9-7.9,4.9-12.8
				c0-5.5-1.8-10-5.6-13.5C1036,663,1032,661.4,1027.4,661.4z"/>
		</g>
	</g>
	<g>
		<g>
			<path fill="#F0A61F" d="M576.5,680c-3.2,4.2-6,7.8-8.5,10.8l19.2,19.1h-22.8l-6.8-7.4c-7.9,6.4-16.1,9.7-24.8,9.7
				c-6.6,0-12.3-1.6-17.1-4.7c-2.9-1.9-5.2-4.4-6.9-7.5c-1.7-3.1-2.5-6.4-2.5-9.8c0-7.3,3.3-13.7,9.8-19c1-0.8,3.7-2.9,8.2-6.2
				c-2-1.9-3.5-3.5-4.6-4.8c-3.1-3.8-4.7-7.8-4.7-12c0-6.6,3-11.9,9.1-15.8c3.7-2.3,7.9-3.5,12.5-3.5c6.7,0,12.2,2.3,16.5,6.8
				c3.7,3.9,5.5,8.4,5.5,13.4c0,4-1.1,7.4-3.3,10.1c-1.7,2.1-4.8,4.6-9.2,7.5l11.9,13.6c2.4-2.7,4.9-5.9,7.5-9.6L576.5,680z
				 M548.3,691.1l-14.5-16.5c-7.8,4.4-11.7,8.9-11.7,13.6c0,2.9,1.2,5.3,3.7,7.1c2,1.6,4.4,2.4,7.2,2.4
				C537.7,697.6,542.8,695.4,548.3,691.1z M536.3,657.3c1.9-1.1,3.4-2.1,4.7-3.1c2.3-1.7,3.4-3.8,3.4-6c0-2-0.8-3.7-2.4-5
				c-1.4-1.1-3-1.6-4.9-1.6c-2.3,0-4.2,0.7-5.5,2.2c-1.2,1.2-1.8,2.5-1.8,3.6c0,1.9,1.1,4,3.2,6.2L536.3,657.3z"/>
		</g>
	</g>
</g>
<rect fill="none" width="1133.9" height="850.4"/>
</svg>
