<?xml version="1.0" encoding="utf-8"?>
<!-- Generator: Adobe Illustrator 19.1.0, SVG Export Plug-In . SVG Version: 6.00 Build 0)  -->
<svg version="1.1" id="Vrstva_1" xmlns="http://www.w3.org/2000/svg" xmlns:xlink="http://www.w3.org/1999/xlink" x="0px" y="0px"
	 viewBox="0 0 50 50" style="enable-background:new 0 0 50 50;" xml:space="preserve">
<style type="text/css">
	.st0{fill:#FFFFFF;}
</style>
<g>
	<path class="st0" d="M40.8,44.3c-2.2-1.3-4.4-2.7-6.6-4c-4.8-3-9.5-6-14.3-9c-0.4-0.2-0.7-0.2-1-0.1c-8,3.3-16.1-1.7-17.6-9
		c-0.3-1.5-0.4-3-0.3-4.5c0.1-1.6,2-2.4,3.3-1.5c1.4,1,2.9,1.9,4.3,2.9c0.3,0.2,0.5,0.2,0.8,0c0.5-0.3,0.9-0.6,1.4-0.8
		c0.6-0.3,0.9-0.7,0.9-1.4c0-0.6,0.2-1.2,0.2-1.8c0-0.2-0.2-0.4-0.3-0.5c-1.4-1-2.8-1.9-4.3-2.9C5.6,10.7,5.7,9,7.5,8
		c4.3-2.4,10-2.5,14.5,1.2c2.7,2.2,4.2,5,4.7,8.4c0,0.2,0.1,0.4,0.1,0.6c-0.2,1,0.4,1.4,1.2,1.9c6.6,4.1,13.2,8.2,19.8,12.3
		c0.6,0.4,0.9,0.9,1.2,1.5c0,0.3,0,0.5,0,0.8c-0.4,1.1-1.1,1.9-2.4,1.7c-0.4-0.1-0.9-0.3-1.3-0.5C39,32,32.7,28.1,26.5,24.2
		c-0.2-0.1-0.4-0.2-0.4-0.2c-1,1.5-1.9,2.9-2.8,4.4c0.1,0,0.2,0.1,0.3,0.2c4.1,2.5,8.1,5.1,12.2,7.6c2.2,1.4,4.3,2.7,6.5,4.1
		c0.8,0.5,1.1,1.2,1,2.2c-0.1,0.8-0.6,1.3-1.3,1.6c-0.2,0.1-0.4,0.1-0.7,0.2C41.2,44.3,41,44.3,40.8,44.3z M13.1,10.6
		c0.2,0.1,0.3,0.3,0.4,0.3c0.6,0.4,1.2,0.8,1.8,1.2c0.7,0.5,1.1,1.2,1,2.1c-0.2,1.5-0.4,3-0.5,4.4c-0.1,1-0.3,1.9-1.3,2.4
		c-1.4,0.8-2.9,1.6-4.3,2.4c-1,0.5-1.9,0.5-2.8-0.1c-0.5-0.4-1.1-0.7-1.7-1.1c0.6,2.6,4.4,6.5,9.5,5.6c4.7-0.9,8-5.5,7.1-10.1
		C21.4,12.4,16.2,10,13.1,10.6z"/>
</g>
</svg>
