<?xml version="1.0" encoding="utf-8"?>
<!-- Generator: Adobe Illustrator 19.1.1, SVG Export Plug-In . SVG Version: 6.00 Build 0)  -->
<svg version="1.1" id="Vrstva_1" xmlns="http://www.w3.org/2000/svg" xmlns:xlink="http://www.w3.org/1999/xlink" x="0px" y="0px"
	 viewBox="-272 395.9 50 50" style="enable-background:new -272 395.9 50 50;" xml:space="preserve">
<style type="text/css">
	.st0{fill:#FFFFFF;}
</style>
<path class="st0" d="M-237.5,437.9c-0.4,0.4-0.9,0.6-1.5,0.6c-0.6,0-1.1-0.2-1.5-0.6c-0.4-0.4-0.6-0.9-0.6-1.5l0-5.4h4.2l0,5.4
	C-236.8,437-237,437.5-237.5,437.9z M-231.4,418.6c0.4-0.4,1-0.5,1.5-0.5c0.6,0.1,1,0.3,1.4,0.7l5.8,7c0.4,0.4,0.6,0.8,0.6,1.3
	c0,0.6-0.1,1-0.5,1.5l-6,7.2c-0.4,0.4-0.8,0.7-1.4,0.7c-0.6,0.1-1.1-0.1-1.5-0.5c-0.4-0.4-0.7-0.8-0.8-1.4c-0.1-0.6,0.1-1.1,0.5-1.5
	l3.1-3.8l-22.7,0c-0.6,0-1.1-0.2-1.5-0.6c-0.4-0.4-0.6-0.9-0.6-1.5c0-0.6,0.2-1.1,0.6-1.5c0.4-0.4,0.9-0.6,1.5-0.6l22.7,0l-3-3.7
	c-0.4-0.4-0.5-1-0.5-1.5S-231.8,419-231.4,418.6z M-240.9,420.3l0-1.3l-12.3-11.1l-11.4,10.8v17.6c0,0.6-0.2,1.1-0.6,1.5
	s-0.9,0.6-1.5,0.6c-0.6,0-1.1-0.2-1.5-0.6c-0.4-0.4-0.6-0.9-0.6-1.5v-13.7c-0.3,0.2-0.7,0.3-1.2,0.3c-0.6,0-1.1-0.2-1.5-0.6
	c-0.4-0.4-0.6-0.9-0.6-1.5c0-0.6,0.2-1.1,0.6-1.5l16.6-15.8c0.4-0.4,0.9-0.6,1.4-0.6c0.5,0,1,0.2,1.4,0.5l17.4,15.8
	c0.4,0.4,0.7,0.9,0.7,1.4c0,0.6-0.1,1.1-0.5,1.5c-0.4,0.4-0.9,0.7-1.4,0.7c-0.4,0-0.7-0.1-1.1-0.2l0,1h-4.2l0-3
	C-241,420.5-241,420.4-240.9,420.3z"/>
</svg>
