<?xml version="1.0" encoding="utf-8"?>
<!-- Generator: Adobe Illustrator 19.1.1, SVG Export Plug-In . SVG Version: 6.00 Build 0)  -->
<svg version="1.1" id="Vrstva_1" xmlns="http://www.w3.org/2000/svg" xmlns:xlink="http://www.w3.org/1999/xlink" x="0px" y="0px"
	 viewBox="-272 395.9 50 50" style="enable-background:new -272 395.9 50 50;" xml:space="preserve">
<style type="text/css">
	.st0{fill:#FFFFFF;}
</style>
<g>
	<path class="st0" d="M-233.1,428.8c1.9,0,3.6,0.7,4.9,2.1c1.4,1.4,2.1,3.1,2.1,5.1s-0.7,3.7-2.1,5.1c-1.4,1.4-3.1,2.1-5.1,2.1
		c-1.9,0-3.6-0.7-5-2c0,0-0.1-0.1-0.1-0.1c-1.1-1.1-1.8-2.5-2-4c0-0.4,0-0.7,0-1.1c0-0.8,0.1-1.6,0.3-2.3c0.3-1,0.9-2,1.7-2.8
		c1.4-1.4,3.1-2.1,5.1-2.1C-233.2,428.8-233.2,428.8-233.1,428.8z M-233.5,407.1v0.1c0,0.2,0,0.4,0,0.6V428c-0.1,0-0.1,0-0.2,0
		c-2.2,0-4,0.8-5.5,2.3h0c-0.9,0.9-1.5,1.9-1.9,3c-2.7,0.9-5.8,1.3-9.2,1.3c-4.5,0-8.3-0.7-11.4-2.1c-0.3-0.1-0.6-0.3-0.8-0.4
		l0.1,2.4l0,0.1v0.1c0.2,0.8,1.2,1.6,2.8,2.3c2.6,1.1,5.7,1.7,9.3,1.7c3.5,0,6.5-0.5,9-1.5c0.2,1.7,1,3.1,2.2,4.3
		c0,0.1,0.1,0.1,0.1,0.1h-0.1c-3.1,1.4-6.9,2.1-11.4,2.1c-4.4,0-8.2-0.7-11.3-2.1c-3.8-1.7-5.7-3.7-5.8-6.3c0-0.1,0-0.3,0-0.4
		l-0.1-3.6c0,0,0-0.1,0-0.1l0-4.1c0-0.1,0-0.1,0-0.1l-0.2-19.9c0-0.2,0-0.4,0-0.6c0.2-2.5,2.1-4.5,5.8-6.1c3.1-1.4,7-2.1,11.4-2.1
		c4.4,0,8.2,0.7,11.4,2.1h0C-235.2,402.1-233.2,404.4-233.5,407.1z M-229.8,434.1h-1.5v-1.5c0-0.5-0.2-1-0.5-1.3
		c-0.4-0.4-0.8-0.6-1.3-0.6c-0.5,0-1,0.2-1.3,0.6c-0.4,0.4-0.5,0.8-0.5,1.3v1.5h-1.5c-0.5,0-1,0.2-1.3,0.5c-0.4,0.4-0.6,0.8-0.6,1.3
		s0.2,1,0.6,1.3c0.4,0.4,0.8,0.5,1.3,0.5h1.5v1.5c0,0.5,0.2,1,0.5,1.3c0.4,0.4,0.8,0.6,1.3,0.6c0.5,0,1-0.2,1.3-0.6
		c0.4-0.4,0.5-0.8,0.5-1.3v-1.5h1.5c0.5,0,1-0.2,1.3-0.5c0.4-0.4,0.5-0.8,0.5-1.3s-0.2-1-0.5-1.3
		C-228.8,434.3-229.3,434.1-229.8,434.1z M-262.7,425.5h0.2c0,0,0,0,0,0c0.2,0.8,1.2,1.6,2.8,2.3h0.1c2.6,1.1,5.7,1.7,9.3,1.7
		c3.6,0,6.8-0.6,9.3-1.7c1.3-0.6,2.1-1.2,2.5-1.8v-3c-0.2,0.1-0.5,0.2-0.7,0.3c-3.1,1.4-6.9,2.1-11.4,2.1c-4.5,0-8.3-0.7-11.4-2.1
		c-0.2-0.1-0.5-0.2-0.7-0.3C-262.7,423-262.7,425.5-262.7,425.5z M-238.5,413.8c-0.2,0.1-0.5,0.2-0.7,0.3c-3.1,1.4-6.9,2.1-11.4,2.1
		c-4.5,0-8.3-0.7-11.4-2.1c-0.3-0.1-0.5-0.2-0.7-0.3v2.6h0.1l-0.1,0c0.2,0.8,1.2,1.6,2.8,2.3h0c2.6,1.1,5.7,1.7,9.3,1.7
		c3.6,0,6.8-0.6,9.3-1.7c1.6-0.7,2.5-1.4,2.7-2.2L-238.5,413.8L-238.5,413.8z M-241.3,409.5L-241.3,409.5c1.6-0.7,2.6-1.5,2.8-2.3
		v-0.1c-0.2-0.8-1.1-1.6-2.8-2.3c-2.6-1.1-5.7-1.7-9.3-1.7c-3.6,0-6.8,0.6-9.3,1.7c-1.7,0.7-2.6,1.5-2.8,2.3
		c0.2,0.8,1.1,1.6,2.8,2.3v0c2.6,1.1,5.7,1.6,9.3,1.6C-247,411.1-243.9,410.6-241.3,409.5z"/>
</g>
</svg>
