<?xml version="1.0" encoding="utf-8"?>
<!-- Generator: Adobe Illustrator 15.1.0, SVG Export Plug-In . SVG Version: 6.00 Build 0)  -->
<!DOCTYPE svg PUBLIC "-//W3C//DTD SVG 1.1//EN" "http://www.w3.org/Graphics/SVG/1.1/DTD/svg11.dtd">
<svg version="1.1" id="Vrstva_1" xmlns="http://www.w3.org/2000/svg" xmlns:xlink="http://www.w3.org/1999/xlink" x="0px" y="0px"
	 width="50px" height="50px" viewBox="0 0 50 50" enable-background="new 0 0 50 50" xml:space="preserve">
<path fill-rule="evenodd" clip-rule="evenodd" fill="#FFFFFF" d="M46.211,6.956c2.45,0,3.675,1.225,3.675,3.675v27.948
	c0,2.45-1.225,3.676-3.675,3.676H15.565c-2.45,0-3.675-1.226-3.675-3.676V27.766h4.141v10.348h29.713V11.097H16.031V21.45H11.89
	V10.631c0-2.45,1.225-3.675,3.675-3.675H46.211z M30.966,24.624c0.031,0.542-0.128,1.025-0.477,1.45l-5.932,7.138
	c-0.366,0.436-0.832,0.681-1.398,0.735c-0.569,0.052-1.073-0.104-1.511-0.466c-0.442-0.365-0.69-0.831-0.746-1.397
	c-0.052-0.569,0.105-1.075,0.471-1.517l3.111-3.748l-22.43-0.016c-0.573-0.003-1.062-0.207-1.465-0.61
	c-0.403-0.407-0.604-0.895-0.6-1.46c0-0.573,0.202-1.062,0.605-1.465c0.407-0.403,0.896-0.605,1.465-0.605l22.41,0.016l-3.013-3.629
	c-0.366-0.445-0.521-0.951-0.466-1.517c0.055-0.569,0.304-1.035,0.746-1.397c0.438-0.366,0.942-0.523,1.512-0.471
	c0.566,0.055,1.032,0.302,1.397,0.74l5.72,6.89C30.73,23.659,30.931,24.103,30.966,24.624z"/>
</svg>
