<?xml version="1.0" encoding="utf-8"?>
<!-- Generator: Adobe Illustrator 15.1.0, SVG Export Plug-In . SVG Version: 6.00 Build 0)  -->
<!DOCTYPE svg PUBLIC "-//W3C//DTD SVG 1.1//EN" "http://www.w3.org/Graphics/SVG/1.1/DTD/svg11.dtd">
<svg version="1.1" id="Vrstva_1" xmlns="http://www.w3.org/2000/svg" xmlns:xlink="http://www.w3.org/1999/xlink" x="0px" y="0px"
	 width="50px" height="50px" viewBox="0 0 50 50" enable-background="new 0 0 50 50" xml:space="preserve">
<path fill-rule="evenodd" clip-rule="evenodd" fill="#FFFFFF" d="M10.489,30.092c0.072-0.61,0.341-1.105,0.809-1.484
	c2.144-1.721,4.63-2.586,7.46-2.596c2.785,0.01,5.241,0.852,7.367,2.523c0.468,0.369,0.744,0.857,0.83,1.465
	c0.082,0.604-0.053,1.153-0.404,1.648c-0.355,0.492-0.823,0.782-1.403,0.871c-0.583,0.085-1.113-0.057-1.587-0.426
	c-1.386-1.092-2.986-1.635-4.802-1.628c-1.843-0.007-3.463,0.552-4.859,1.675c-0.467,0.375-0.992,0.523-1.572,0.445
	c-0.583-0.082-1.055-0.367-1.413-0.855C10.552,31.242,10.41,30.696,10.489,30.092z M32.311,22.632
	c0.078,0.604-0.062,1.152-0.42,1.644c-0.358,0.491-0.828,0.778-1.408,0.86c-0.58,0.079-1.105-0.064-1.577-0.43
	c-2.929-2.332-6.323-3.494-10.184-3.487c-3.819-0.007-7.185,1.13-10.097,3.41c-0.471,0.365-0.997,0.505-1.577,0.42
	c-0.583-0.089-1.051-0.377-1.403-0.865c-0.355-0.495-0.49-1.044-0.404-1.649c0.082-0.611,0.356-1.102,0.824-1.475
	c3.652-2.857,7.871-4.289,12.657-4.295c4.833,0.007,9.088,1.471,12.765,4.393C31.957,21.533,32.231,22.024,32.311,22.632z
	 M37.026,13.554c0.468,0.379,0.74,0.874,0.818,1.485c0.075,0.604-0.067,1.15-0.43,1.639c-0.361,0.488-0.833,0.773-1.413,0.855
	c-0.58,0.079-1.104-0.068-1.572-0.44c-4.475-3.591-9.663-5.383-15.564-5.376c-5.878-0.007-11.044,1.77-15.499,5.33
	c-0.468,0.372-0.993,0.517-1.577,0.435c-0.583-0.082-1.053-0.365-1.408-0.85c-0.358-0.492-0.498-1.041-0.419-1.648
	c0.075-0.611,0.346-1.101,0.814-1.47c5.202-4.161,11.231-6.245,18.089-6.251C25.746,7.269,31.8,9.366,37.026,13.554z M46.836,13.902
	c0.052-0.129,0.075-0.271,0.072-0.425c0.003-0.28-0.086-0.519-0.267-0.717c-0.137-0.147-0.301-0.224-0.491-0.23h-3.077
	c-0.191,0.007-0.355,0.08-0.492,0.22c-0.185,0.201-0.272,0.444-0.266,0.727c-0.004,0.16,0.023,0.307,0.081,0.44v0.005
	c0.045,0.099,0.108,0.193,0.19,0.282c0.136,0.14,0.298,0.213,0.486,0.22h3.077c0.19-0.007,0.354-0.084,0.491-0.23
	C46.724,14.102,46.788,14.005,46.836,13.902z M46.867,9.002c0-0.423,0.149-0.785,0.45-1.085s0.662-0.451,1.086-0.451
	c0.423,0,0.784,0.15,1.085,0.451s0.45,0.662,0.45,1.085v3.758c0,0.031,0,0.063,0,0.097c0.027,0.198,0.041,0.404,0.041,0.62
	c-0.003,0.597-0.112,1.148-0.327,1.654l-0.005,0.01c-0.182,0.41-0.431,0.789-0.748,1.137c-0.665,0.715-1.448,1.116-2.35,1.201
	c0.004,0.042,0.008,0.083,0.01,0.125c0.007,0.157,0.011,0.314,0.011,0.471v17.654c0,1.997-0.675,3.7-2.022,5.109
	c-0.004,0-0.006,0.002-0.006,0.006c-1.348,1.406-2.979,2.109-4.895,2.109H29.53c-0.529,0-0.979-0.193-1.352-0.579
	c-0.369-0.389-0.553-0.858-0.553-1.408c0-0.549,0.184-1.019,0.553-1.407c0.372-0.386,0.822-0.579,1.352-0.579h10.117
	c0.86,0,1.594-0.317,2.202-0.952l0.005-0.005c0.604-0.632,0.906-1.396,0.906-2.294V18.075c0-0.085-0.002-0.17-0.005-0.256
	c-0.006-0.114-0.004-0.225,0.007-0.333c-0.942-0.066-1.756-0.467-2.439-1.203l-0.016-0.015c-0.317-0.352-0.562-0.73-0.731-1.137
	l-0.006-0.005c-0.215-0.501-0.324-1.051-0.327-1.648c0-0.174,0.01-0.345,0.03-0.512c-0.01-0.072-0.015-0.145-0.015-0.22V9.054
	c0-0.423,0.149-0.785,0.45-1.085s0.662-0.451,1.086-0.451c0.423,0,0.784,0.15,1.085,0.451s0.45,0.662,0.45,1.085v0.471
	c0.239-0.044,0.486-0.067,0.743-0.067h3.077c0.245,0,0.484,0.021,0.717,0.062V9.002z M16.372,35.878
	c0.73-0.758,1.611-1.137,2.642-1.137s1.91,0.379,2.637,1.137c0.73,0.765,1.096,1.683,1.096,2.755c0,1.075-0.365,1.991-1.096,2.749
	c-0.727,0.765-1.606,1.147-2.637,1.147s-1.912-0.383-2.642-1.147c-0.724-0.758-1.085-1.674-1.085-2.749
	C15.286,37.561,15.648,36.643,16.372,35.878z"/>
</svg>
