<?xml version="1.0" encoding="utf-8"?>
<!-- Generator: Adobe Illustrator 15.1.0, SVG Export Plug-In . SVG Version: 6.00 Build 0)  -->
<!DOCTYPE svg PUBLIC "-//W3C//DTD SVG 1.1//EN" "http://www.w3.org/Graphics/SVG/1.1/DTD/svg11.dtd">
<svg version="1.1" id="Vrstva_1" xmlns="http://www.w3.org/2000/svg" xmlns:xlink="http://www.w3.org/1999/xlink" x="0px" y="0px"
	 width="50px" height="50px" viewBox="0 0 50 50" enable-background="new 0 0 50 50" xml:space="preserve">
<path fill-rule="evenodd" clip-rule="evenodd" fill="#FFFFFF" d="M15.188,11.374c0.35,0.238,0.612,0.547,0.789,0.929
	c0.177,0.381,0.241,0.779,0.194,1.195l-0.64,5.549c-0.073,0.614-0.353,1.113-0.839,1.499c-0.236,0.187-0.488,0.321-0.754,0.401
	l-4.402,2.455c-0.545,0.303-1.115,0.369-1.708,0.199c-0.245-0.07-0.465-0.172-0.66-0.306c-0.01-0.006-0.021-0.013-0.031-0.02
	l-2.037-1.364c0.646,1.78,1.793,3.224,3.442,4.329l-0.005-0.006c2.066,1.378,4.316,1.823,6.75,1.339h0.011
	c0.928-0.181,1.781-0.478,2.559-0.89c0.219-0.206,0.477-0.36,0.771-0.463c0.125-0.086,0.246-0.176,0.365-0.27l0.022-0.017
	c0.757-0.585,1.427-1.313,2.009-2.183l0.003-0.003c1.381-2.058,1.829-4.302,1.344-6.734v-0.003
	c-0.481-2.439-1.756-4.349-3.824-5.729l-0.006-0.003c-1.766-1.186-3.672-1.684-5.718-1.493L15.188,11.374z M48.952,32.42
	c0.524,0.325,0.858,0.788,1.002,1.389c0.143,0.601,0.052,1.166-0.275,1.694c-0.325,0.528-0.788,0.864-1.389,1.007
	c-0.602,0.144-1.168,0.052-1.7-0.274L26.161,23.607c-0.36,0.903-0.83,1.785-1.408,2.646l0.003-0.003
	c-0.457,0.684-0.951,1.307-1.481,1.871l19.884,12.44c0.525,0.332,0.857,0.799,0.996,1.4c0.14,0.602,0.044,1.166-0.286,1.691
	s-0.796,0.857-1.397,0.996s-1.165,0.045-1.691-0.283l-21.43-13.408c-0.99,0.46-2.056,0.8-3.199,1.021h0.012
	c-3.649,0.727-7.021,0.058-10.118-2.007l-0.005-0.005c-3.088-2.071-5-4.933-5.735-8.586l-0.002-0.011
	c-0.286-1.458-0.345-2.879-0.177-4.262c0.064-0.525,0.287-0.972,0.667-1.341s0.833-0.578,1.358-0.625
	c0.526-0.048,1.009,0.074,1.451,0.367l4.944,3.308l2.663-1.487l0.345-2.988l-5.056-3.389c-0.433-0.294-0.729-0.688-0.889-1.181
	C5.448,9.279,5.461,8.788,5.646,8.299S6.147,7.43,6.594,7.16c1.294-0.777,2.742-1.318,4.343-1.625l-0.02,0.006
	c3.661-0.732,7.036-0.061,10.126,2.014l-0.006-0.003c3.102,2.069,5.014,4.932,5.737,8.588v0.003c0.186,0.932,0.28,1.845,0.284,2.741
	L48.952,32.42z"/>
</svg>
