<?xml version="1.0" encoding="utf-8"?>
<!-- Generator: Adobe Illustrator 15.1.0, SVG Export Plug-In . SVG Version: 6.00 Build 0)  -->
<!DOCTYPE svg PUBLIC "-//W3C//DTD SVG 1.1//EN" "http://www.w3.org/Graphics/SVG/1.1/DTD/svg11.dtd">
<svg version="1.1" id="Vrstva_1" xmlns="http://www.w3.org/2000/svg" xmlns:xlink="http://www.w3.org/1999/xlink" x="0px" y="0px"
	 width="50px" height="50px" viewBox="0 0 50 50" enable-background="new 0 0 50 50" xml:space="preserve">
<path fill-rule="evenodd" clip-rule="evenodd" fill="#FFFFFF" d="M4.309,19.444c0.358-0.344,0.785-0.511,1.279-0.501
	c0.494,0.009,0.914,0.193,1.26,0.55l4.139,4.319c0.02,0.02,0.039,0.041,0.057,0.062c0.353,0.351,0.53,0.774,0.532,1.269
	c0,0.493-0.174,0.917-0.524,1.271l-4.319,4.324c-0.353,0.351-0.776,0.527-1.271,0.529c-0.494,0-0.917-0.175-1.269-0.526
	c-0.353-0.352-0.53-0.774-0.531-1.269c-0.001-0.494,0.173-0.918,0.523-1.271l1.343-1.345H1.767c-0.497,0-0.92-0.176-1.271-0.526
	c-0.351-0.352-0.526-0.775-0.526-1.271s0.175-0.92,0.526-1.271s0.774-0.526,1.271-0.526h3.71l-1.222-1.276
	c-0.342-0.36-0.508-0.787-0.498-1.281C3.766,20.208,3.95,19.788,4.309,19.444z M31.813,33.428v-1.382
	c-0.034,0.016-0.068,0.031-0.103,0.046c-1.982,0.891-4.372,1.336-7.169,1.336c-2.804,0-5.192-0.445-7.164-1.336
	c-0.112-0.049-0.222-0.099-0.329-0.148l0.036,1.561c0.002,0.103-0.003,0.202-0.016,0.298c0.266,0.379,0.791,0.744,1.577,1.095
	l0.005,0.005c1.62,0.708,3.569,1.063,5.849,1.063c2.284,0,4.233-0.354,5.849-1.063c0.732-0.326,1.238-0.665,1.518-1.017
	C31.831,33.74,31.813,33.588,31.813,33.428z M31.813,28.31v-2.044c-0.076,0.036-0.153,0.071-0.231,0.105
	c-1.982,0.887-4.372,1.33-7.168,1.33c-2.801,0-5.188-0.443-7.164-1.33c-0.086-0.038-0.171-0.076-0.254-0.115l0.013,1.715
	c0.236,0.419,0.787,0.82,1.653,1.204l0.005,0.006c1.623,0.705,3.581,1.058,5.875,1.058s4.254-0.353,5.88-1.058
	C31.055,28.899,31.519,28.609,31.813,28.31z M43.247,34.074c0.357-0.346,0.784-0.514,1.279-0.506
	c0.494,0.007,0.914,0.188,1.261,0.545c0.346,0.356,0.515,0.782,0.508,1.275l-0.082,5.49c0,0.013,0,0.025,0,0.038
	c0,0.017,0,0.033,0,0.049c0.003,0.494-0.171,0.918-0.521,1.271c-0.349,0.354-0.771,0.532-1.266,0.536l-5.613,0.031
	c-0.493,0.002-0.917-0.172-1.271-0.521c-0.354-0.35-0.533-0.771-0.537-1.266c-0.002-0.494,0.172-0.918,0.521-1.271
	c0.349-0.354,0.771-0.532,1.266-0.536l1.259-0.008l-2.55-2.408c-0.359-0.343-0.546-0.762-0.56-1.256
	c-0.015-0.494,0.148-0.923,0.49-1.284c0.341-0.361,0.759-0.548,1.253-0.563s0.923,0.148,1.286,0.488l2.709,2.56l0.021-1.401
	C42.708,34.843,42.891,34.421,43.247,34.074z M31.813,22.44v-1.808c-0.058,0.027-0.116,0.053-0.175,0.08h0.003
	c-2.004,0.9-4.42,1.35-7.249,1.351c-2.836,0-5.255-0.45-7.256-1.351c-0.063-0.028-0.126-0.057-0.188-0.085l0.015,1.749
	c0.27,0.372,0.794,0.731,1.574,1.079h0.005c1.62,0.708,3.576,1.063,5.87,1.063c2.297,0,4.257-0.354,5.879-1.063
	C31.027,23.129,31.534,22.791,31.813,22.44z M31.813,16.186c0-0.004,0-0.009,0-0.013c-0.152-0.418-0.695-0.834-1.628-1.248
	c-1.604-0.698-3.535-1.047-5.793-1.048c-2.263,0-4.195,0.35-5.795,1.048h-0.002c-0.933,0.414-1.476,0.83-1.628,1.248
	c0.152,0.421,0.694,0.839,1.628,1.253c1.601,0.695,3.533,1.042,5.797,1.042c2.259,0,4.191-0.348,5.796-1.042h0.002
	C31.113,17.018,31.654,16.604,31.813,16.186z M35.408,16.272c0.011,0.156,0.011,0.311,0,0.462v16.693
	c0,0.275-0.055,0.529-0.164,0.76c-0.204,1.437-1.407,2.646-3.61,3.631c-1.969,0.887-4.347,1.33-7.133,1.33
	c-2.79,0-5.167-0.443-7.133-1.33c-1.988-0.883-3.162-1.95-3.523-3.202c-0.226-0.296-0.344-0.64-0.354-1.029l-0.052-2.239
	c0-0.035,0-0.07,0-0.105c0-0.01,0-0.021,0-0.031l-0.015-2.536c-0.003-0.044-0.005-0.087-0.005-0.131l-0.103-12.479
	c-0.001-0.156,0.015-0.305,0.049-0.447c0.11-1.586,1.368-2.913,3.772-3.98h-0.003c2.001-0.904,4.421-1.356,7.259-1.356
	c2.83,0,5.247,0.452,7.251,1.356c2.68,1.189,3.935,2.701,3.765,4.534c0,0.005,0,0.01,0,0.016V16.272z M44.5,7.807
	c0.007,0,0.014,0,0.021,0c0.025-0.001,0.051-0.002,0.077-0.002c0.494-0.008,0.92,0.16,1.276,0.506
	c0.357,0.346,0.54,0.765,0.55,1.258l0.098,6.06c0.007,0.496-0.163,0.922-0.509,1.278c-0.346,0.357-0.767,0.54-1.261,0.547
	c-0.494,0.008-0.92-0.16-1.276-0.506c-0.357-0.346-0.54-0.765-0.549-1.258l-0.031-1.941l-3.068,3.068
	c-0.354,0.351-0.779,0.527-1.273,0.526c-0.495-0.001-0.918-0.179-1.269-0.531c-0.352-0.352-0.527-0.774-0.526-1.269
	s0.177-0.917,0.526-1.269l2.884-2.883l-1.605-0.005c-0.494-0.002-0.917-0.179-1.269-0.531c-0.351-0.352-0.526-0.774-0.526-1.269
	c0.002-0.495,0.179-0.917,0.532-1.269c0.352-0.351,0.774-0.526,1.269-0.526L44.5,7.807z M49.358,24.186
	c0.016,0.015,0.029,0.03,0.044,0.044c0.037,0.035,0.072,0.07,0.107,0.108c0.339,0.365,0.498,0.794,0.48,1.289
	c-0.019,0.494-0.208,0.911-0.57,1.25l-4.216,3.908c-0.367,0.337-0.797,0.496-1.292,0.478c-0.493-0.018-0.909-0.209-1.248-0.572
	c-0.338-0.365-0.498-0.795-0.479-1.289c0.018-0.494,0.208-0.911,0.569-1.251l0.945-0.875h-4.963c-0.497,0-0.921-0.176-1.271-0.526
	c-0.351-0.352-0.526-0.774-0.526-1.271c0-0.496,0.176-0.92,0.526-1.271c0.351-0.351,0.774-0.526,1.271-0.526h4.927l-0.848-0.819
	c-0.355-0.348-0.537-0.769-0.544-1.263c-0.008-0.494,0.16-0.919,0.506-1.276s0.767-0.539,1.261-0.547
	c0.495-0.008,0.921,0.16,1.278,0.503L49.358,24.186z"/>
</svg>
