<?xml version="1.0" encoding="utf-8"?>
<!-- Generator: Adobe Illustrator 15.1.0, SVG Export Plug-In . SVG Version: 6.00 Build 0)  -->
<!DOCTYPE svg PUBLIC "-//W3C//DTD SVG 1.1//EN" "http://www.w3.org/Graphics/SVG/1.1/DTD/svg11.dtd">
<svg version="1.1" id="Vrstva_1" xmlns="http://www.w3.org/2000/svg" xmlns:xlink="http://www.w3.org/1999/xlink" x="0px" y="0px"
	 width="50px" height="50px" viewBox="0 0 50 50" enable-background="new 0 0 50 50" xml:space="preserve">
<path fill-rule="evenodd" clip-rule="evenodd" fill="#FFFFFF" d="M39.188,25.079v-0.007c0-3.925-1.389-7.271-4.166-10.039
	c-2.786-2.772-6.14-4.156-10.06-4.151c-3.935,0.004-7.281,1.398-10.039,4.18v0.007c-2.772,2.782-4.161,6.126-4.166,10.031v0.021
	c0.024,3.935,1.422,7.283,4.194,10.046h0.007c2.772,2.772,6.124,4.156,10.053,4.151c3.935-0.015,7.288-1.41,10.06-4.187
	C37.829,32.36,39.201,29.01,39.188,25.079z M35.972,6.174c0.067-0.076,0.136-0.153,0.207-0.229c0.715-0.709,1.574-1.069,2.58-1.079
	c0.009,0,0.017,0,0.021,0c1.015-0.005,1.882,0.353,2.602,1.072l2.644,2.644c0.724,0.709,1.086,1.572,1.086,2.586
	c0.005,1.01-0.357,1.879-1.086,2.608c-0.063,0.062-0.129,0.126-0.2,0.193c1.02,1.691,1.776,3.492,2.271,5.401
	c0.01,0,0.018,0,0.021,0h0.021c1.006,0,1.867,0.353,2.587,1.058l0.007,0.007c0.72,0.719,1.079,1.588,1.079,2.608v3.729
	c0,1.02-0.359,1.887-1.079,2.602c-0.705,0.705-1.55,1.064-2.536,1.078c-0.477,1.996-1.238,3.88-2.286,5.652
	c0.033,0.023,0.064,0.052,0.093,0.085c0.01,0.005,0.017,0.015,0.021,0.029c0.719,0.724,1.074,1.584,1.064,2.579
	c0,1-0.354,1.865-1.064,2.594l-0.008,0.014l-2.636,2.645c-0.72,0.704-1.584,1.06-2.594,1.064h-0.015
	c-0.995,0.014-1.853-0.341-2.572-1.064c-0.014-0.005-0.023-0.013-0.028-0.021c-0.023-0.029-0.048-0.053-0.071-0.072
	c-1.653,0.986-3.408,1.731-5.266,2.236c0,0.01,0,0.021,0,0.036c0,1.015-0.36,1.882-1.079,2.601
	c-0.715,0.715-1.579,1.072-2.594,1.072h-3.729c-1.029-0.005-1.898-0.367-2.608-1.086l0.007,0.014
	c-0.69-0.695-1.048-1.521-1.072-2.479c-2.072-0.48-4.015-1.267-5.83-2.357c-0.024,0.023-0.052,0.053-0.086,0.086
	c-0.729,0.729-1.598,1.091-2.608,1.086h-0.014c-0.996-0.015-1.853-0.374-2.572-1.079H8.643l-2.665-2.637
	c-0.71-0.729-1.065-1.593-1.065-2.593C4.903,37.859,5.258,37,5.978,36.275l0.007-0.021c0.038-0.038,0.077-0.073,0.115-0.106
	c-0.996-1.668-1.736-3.438-2.222-5.31c-0.067,0-0.129,0-0.186,0c-1.019,0-1.889-0.356-2.608-1.071
	c-0.714-0.719-1.072-1.586-1.072-2.601v-3.73c0-1.014,0.357-1.881,1.072-2.601c0.719-0.714,1.589-1.072,2.608-1.072
	c0.019,0,0.043,0,0.072,0c0.49-2.043,1.279-3.965,2.365-5.766c-0.152-0.11-0.295-0.231-0.429-0.365
	c-0.009-0.014-0.019-0.024-0.028-0.028c-0.715-0.705-1.077-1.574-1.086-2.608C4.58,9.987,4.949,9.123,5.691,8.403L5.67,8.417
	l2.629-2.636L8.292,5.795C9.012,5.057,9.881,4.688,10.9,4.688h0.028c0.986,0.014,1.841,0.374,2.565,1.079
	c0.147,0.143,0.281,0.298,0.4,0.464c1.72-1.033,3.553-1.795,5.501-2.286c-0.004-0.085-0.007-0.171-0.007-0.257
	c0.004-1.014,0.354-1.876,1.05-2.586c0.014-0.014,0.023-0.024,0.028-0.028c0.714-0.7,1.579-1.053,2.594-1.058h3.73
	c1.01,0,1.871,0.353,2.586,1.058l0.007,0.007c0.72,0.719,1.079,1.589,1.079,2.608c0,0.076,0,0.152,0,0.229
	C32.406,4.393,34.243,5.145,35.972,6.174z"/>
</svg>
