<?xml version="1.0" encoding="utf-8"?>
<!-- Generator: Adobe Illustrator 19.1.1, SVG Export Plug-In . SVG Version: 6.00 Build 0)  -->
<svg version="1.1" id="Vrstva_1" xmlns="http://www.w3.org/2000/svg" xmlns:xlink="http://www.w3.org/1999/xlink" x="0px" y="0px"
	 viewBox="-272 395.9 50 50" style="enable-background:new -272 395.9 50 50;" xml:space="preserve">
<style type="text/css">
	.st0{fill:#FFFFFF;}
</style>
<path class="st0" d="M-225.3,404.5c2.2,0,3.3,1.1,3.3,3.2v28.1c0,1.6-0.6,2.6-2,3c0-0.1,0-0.2-0.1-0.2l-0.2-0.6
	c-0.3-0.8-0.7-1.6-1.3-2.3c-0.2-0.2-0.4-0.5-0.6-0.7c-1.1-1.1-2.3-1.9-3.7-2.2c-0.1,0-0.2-0.1-0.4-0.1c0.4-0.2,0.8-0.5,1.1-0.9
	c0.7-0.8,1.1-1.7,1.3-2.7c0,0,0,0,0,0c0,0,0-0.1,0-0.1c0,0,0,0,0,0c0,0,0,0,0,0h0c0-0.1,0-0.3,0-0.4c0-0.3,0-0.6-0.1-0.8l-0.2-0.7
	l-0.4-0.9c-0.2-0.3-0.4-0.6-0.6-0.8c-0.8-0.9-1.8-1.3-3-1.3c0,0,0,0-0.1,0c-1.2,0-2.2,0.4-3.1,1.3c-0.1,0.1-0.2,0.2-0.3,0.4
	c-0.2,0.2-0.3,0.5-0.5,0.7c-0.3,0.6-0.5,1.4-0.5,2.1c0,0.2,0,0.3,0,0.5c0,0.2,0.1,0.4,0.1,0.7l0.2,0.5l0.4,0.8
	c0.2,0.3,0.4,0.5,0.6,0.8c0.4,0.4,0.8,0.7,1.2,0.9h0.1c0,0,0,0,0,0c-1,0.3-1.9,0.7-2.8,1.4c-0.1-0.1-0.1-0.1-0.2-0.2l-4.6-3.9
	c-0.3-0.3-0.7-0.4-1.1-0.3c-0.2,0-0.3,0.1-0.4,0.1c0,0,0,0,0,0c0-0.1-0.1-0.2-0.1-0.2l-4.5-4.7c-0.1-0.1-0.3-0.2-0.4-0.2
	c-0.2,0-0.3,0.1-0.4,0.2c-0.1,0.1-0.2,0.3-0.2,0.4c0,0.1,0,0.1,0,0.2c0,0.1,0.1,0.2,0.1,0.2l2.8,2.9h0l0.1,0.1c0,0,0,0,0,0l0,0
	l0.9,1c0,0,0,0,0,0l0.1,0.1v0l0.7,0.7c0.1,0.1,0.1,0.1,0.2,0.1c-0.1,0.2-0.1,0.5-0.1,0.8c0,0.1,0,0.2,0.1,0.4
	c0.1,0.3,0.2,0.5,0.5,0.7l0.3,0.2h0l0.1,0.1c0,0,0,0,0,0l4.2,3.5c-0.3,0.5-0.6,1-0.8,1.5c-0.1,0.4-0.3,0.8-0.4,1.2c0,0,0,0,0,0h-2.1
	v0h-26.9c-2.2,0-3.3-1.1-3.3-3.2v-28.1c-0.1-2.1,1-3.2,3.3-3.2C-268.7,404.5-225.3,404.5-225.3,404.5z M-232.7,410.4
	c-0.2-0.2-0.5-0.4-0.9-0.4h-32.4c-0.3,0-0.6,0.1-0.9,0.4c-0.2,0.2-0.4,0.5-0.4,0.9c0,0.3,0.1,0.6,0.4,0.9c0.2,0.2,0.5,0.4,0.9,0.4
	h32.4c0.3,0,0.6-0.1,0.9-0.4c0.2-0.2,0.4-0.5,0.4-0.9C-232.3,410.9-232.4,410.6-232.7,410.4z M-242.6,419.1c0.2-0.2,0.4-0.5,0.4-0.9
	c0-0.3-0.1-0.6-0.4-0.9c-0.2-0.2-0.5-0.4-0.9-0.4h-22.5c-0.3,0-0.6,0.1-0.9,0.4c-0.2,0.2-0.4,0.5-0.4,0.9c0,0.3,0.1,0.6,0.4,0.9
	c0.2,0.2,0.5,0.4,0.9,0.4h22.5C-243.1,419.5-242.8,419.4-242.6,419.1z M-266,426.5h15.1c0.3,0,0.6-0.1,0.9-0.4
	c0.2-0.2,0.4-0.5,0.4-0.9c0-0.3-0.1-0.6-0.4-0.9c-0.2-0.2-0.5-0.4-0.9-0.4H-266c-0.3,0-0.6,0.1-0.9,0.4c-0.2,0.2-0.4,0.5-0.4,0.9
	c0,0.3,0.1,0.6,0.4,0.9C-266.6,426.4-266.3,426.5-266,426.5z"/>
</svg>
