<?xml version="1.0" encoding="utf-8"?>
<!-- Generator: Adobe Illustrator 15.1.0, SVG Export Plug-In . SVG Version: 6.00 Build 0)  -->
<!DOCTYPE svg PUBLIC "-//W3C//DTD SVG 1.1//EN" "http://www.w3.org/Graphics/SVG/1.1/DTD/svg11.dtd">
<svg version="1.1" id="Vrstva_1" xmlns="http://www.w3.org/2000/svg" xmlns:xlink="http://www.w3.org/1999/xlink" x="0px" y="0px"
	 width="50px" height="50px" viewBox="0 0 50 50" enable-background="new 0 0 50 50" xml:space="preserve">
<path fill-rule="evenodd" clip-rule="evenodd" fill="#FFFFFF" d="M16.286,16.411c0-0.002-0.001-0.003-0.002-0.005
	c-0.697-1.59-1.853-2.704-3.467-3.341l0.002,0.002c-1.614-0.634-3.217-0.604-4.808,0.089c-1.59,0.694-2.703,1.848-3.336,3.462
	l-0.002,0.002c-0.636,1.616-0.607,3.218,0.087,4.805c0.694,1.593,1.848,2.707,3.462,3.341l0.003,0.002
	c1.613,0.635,3.215,0.604,4.808-0.092h0.005c1.587-0.692,2.699-1.847,3.335-3.465l-0.002,0.003
	C17.004,19.603,16.976,18.001,16.286,16.411z M45.146,34.28l-2.243-0.879l-1.066,2.712c-0.214,0.538-0.588,0.925-1.121,1.158
	c-0.533,0.234-1.07,0.244-1.609,0.031c-0.539-0.212-0.925-0.585-1.158-1.118c-0.234-0.533-0.246-1.069-0.034-1.609l1.069-2.714
	L36.8,31.003l-1.82,4.637c-0.214,0.538-0.587,0.925-1.121,1.158c-0.533,0.233-1.069,0.244-1.608,0.031s-0.926-0.586-1.159-1.119
	c-0.234-0.532-0.245-1.069-0.034-1.608l1.822-4.64l-13.293-5.226c-1.106,1.938-2.729,3.372-4.868,4.302h0.005
	c-2.663,1.164-5.343,1.214-8.041,0.15l0.002,0.003c-2.697-1.059-4.625-2.918-5.784-5.58c-1.16-2.653-1.208-5.331-0.145-8.033
	l-0.003,0.002c1.059-2.697,2.917-4.625,5.574-5.785c2.657-1.16,5.334-1.211,8.03-0.153l0.002,0.003
	c2.695,1.062,4.624,2.919,5.787,5.574l0.003,0.005c0.797,1.833,1.067,3.675,0.811,5.526l15.362,6.038
	c0.019,0.007,0.037,0.014,0.056,0.021l12.27,4.818c0.541,0.212,0.929,0.585,1.164,1.119c0.233,0.535,0.243,1.072,0.028,1.614
	l-2.591,6.598c-0.214,0.538-0.588,0.925-1.121,1.158s-1.069,0.243-1.609,0.029c-0.539-0.213-0.927-0.586-1.16-1.119
	c-0.234-0.533-0.245-1.07-0.032-1.611L45.146,34.28z"/>
</svg>
