<?xml version="1.0" encoding="utf-8"?>
<!-- Generator: Adobe Illustrator 15.1.0, SVG Export Plug-In . SVG Version: 6.00 Build 0)  -->
<!DOCTYPE svg PUBLIC "-//W3C//DTD SVG 1.1//EN" "http://www.w3.org/Graphics/SVG/1.1/DTD/svg11.dtd">
<svg version="1.1" id="Vrstva_1" xmlns="http://www.w3.org/2000/svg" xmlns:xlink="http://www.w3.org/1999/xlink" x="0px" y="0px"
	 width="50px" height="50px" viewBox="0 0 50 50" enable-background="new 0 0 50 50" xml:space="preserve">
<path fill-rule="evenodd" clip-rule="evenodd" fill="#FFFFFF" d="M25.043,23.719c0.612,0,1.136,0.216,1.568,0.648
	c0.433,0.434,0.649,0.956,0.648,1.568v7.616c0.001,0.612-0.216,1.136-0.648,1.568s-0.956,0.649-1.568,0.648
	c-0.612,0.001-1.135-0.216-1.568-0.648c-0.433-0.433-0.649-0.956-0.648-1.568v-7.616c0-0.612,0.216-1.135,0.648-1.568
	C23.908,23.935,24.431,23.719,25.043,23.719z M16.951,23.719c0.613,0,1.136,0.216,1.569,0.648c0.433,0.434,0.648,0.956,0.648,1.568
	v7.616c0,0.612-0.216,1.136-0.648,1.568c-0.433,0.433-0.956,0.649-1.569,0.648c-0.612,0.001-1.135-0.216-1.568-0.648
	c-0.433-0.433-0.649-0.956-0.649-1.568v-7.616c0-0.612,0.216-1.135,0.649-1.568C15.815,23.935,16.338,23.719,16.951,23.719z
	 M40.823,38.884l4.113-17.049H5L9,38.884H40.823z M31.688,24.367c0.434-0.432,0.957-0.648,1.569-0.648s1.135,0.216,1.568,0.648
	c0.433,0.434,0.648,0.956,0.648,1.568v7.616c0,0.612-0.216,1.136-0.648,1.568c-0.434,0.433-0.956,0.649-1.568,0.648
	c-0.612,0.001-1.136-0.216-1.569-0.648c-0.433-0.433-0.648-0.956-0.648-1.568v-7.616C31.04,25.323,31.256,24.801,31.688,24.367z
	 M47.752,17.4c0.46,0,0.879,0.132,1.258,0.394c0.379,0.261,0.65,0.607,0.815,1.036c0.164,0.43,0.192,0.866,0.083,1.308
	l-5.183,21.484c-0.121,0.495-0.383,0.901-0.787,1.22c-0.403,0.317-0.859,0.477-1.369,0.477H7.772
	c-0.003,0.001-0.007,0.002-0.011,0.003C7.167,43.46,6.61,43.368,6.09,43.044c-0.521-0.324-0.852-0.782-0.992-1.375L0.042,20.125
	c-0.105-0.44-0.074-0.875,0.092-1.303c0.166-0.428,0.438-0.771,0.817-1.031c0.379-0.26,0.796-0.39,1.25-0.391h7.194l3.345-9.75
	c0.199-0.576,0.575-0.999,1.125-1.269s1.114-0.305,1.69-0.105c0.578,0.199,1.001,0.573,1.272,1.123
	c0.271,0.55,0.307,1.115,0.108,1.693L14.085,17.4h21.883L33.08,9.028c-0.199-0.574-0.165-1.137,0.103-1.688
	c0.269-0.551,0.69-0.927,1.267-1.128s1.14-0.168,1.69,0.1c0.552,0.268,0.928,0.691,1.131,1.269l3.387,9.819H47.752z"/>
</svg>
