<?xml version="1.0" encoding="utf-8"?>
<!-- Generator: Adobe Illustrator 15.1.0, SVG Export Plug-In . SVG Version: 6.00 Build 0)  -->
<!DOCTYPE svg PUBLIC "-//W3C//DTD SVG 1.1//EN" "http://www.w3.org/Graphics/SVG/1.1/DTD/svg11.dtd">
<svg version="1.1" id="Vrstva_1" xmlns="http://www.w3.org/2000/svg" xmlns:xlink="http://www.w3.org/1999/xlink" x="0px" y="0px"
	 width="50px" height="50px" viewBox="0 0 50 50" enable-background="new 0 0 50 50" xml:space="preserve">
<path fill-rule="evenodd" clip-rule="evenodd" fill="#FFFFFF" d="M41.999,12.312c1.448,0,2.681,0.603,3.697,1.81
	c1.03,1.22,1.546,2.691,1.546,4.414c0,1.715-0.516,3.178-1.546,4.388c-0.487,0.584-1.023,1.032-1.607,1.343
	c1.795,0.436,3.376,1.473,4.745,3.112c0.267,0.318,0.514,0.64,0.742,0.965c0.132,0.197,0.263,0.401,0.395,0.612v5.036H38.321v-1.214
	c-0.225-0.377-0.458-0.745-0.7-1.104c-0.397-0.592-0.837-1.166-1.317-1.723c-0.55-0.663-1.118-1.264-1.706-1.8
	c0.18-0.266,0.372-0.523,0.576-0.772c1.379-1.629,2.965-2.666,4.756-3.112c-0.592-0.304-1.131-0.752-1.618-1.343
	c-1.023-1.21-1.535-2.673-1.535-4.388c0-1.722,0.512-3.193,1.535-4.414C39.324,12.915,40.554,12.312,41.999,12.312z M29.821,24.79
	c-0.688,0.823-1.442,1.449-2.262,1.877c1.961,0.491,3.748,1.491,5.363,2.998c0.46,0.419,0.905,0.891,1.338,1.416
	c0.384,0.436,0.728,0.886,1.032,1.349c0.197,0.287,0.384,0.579,0.56,0.876v7.116H13.385V33.28c0.463-0.764,0.991-1.497,1.582-2.199
	c0.536-0.643,1.096-1.217,1.681-1.722c1.525-1.338,3.204-2.235,5.036-2.692c-0.836-0.418-1.604-1.044-2.303-1.877
	c-1.441-1.715-2.163-3.786-2.163-6.213c0-2.417,0.721-4.493,2.163-6.229c1.445-1.694,3.187-2.542,5.223-2.542
	c2.043,0,3.782,0.847,5.218,2.542c1.459,1.736,2.188,3.812,2.188,6.229C32.01,21.004,31.28,23.075,29.821,24.79z M11.622,14.122
	c1.03,1.22,1.545,2.691,1.545,4.414c0,1.715-0.515,3.178-1.545,4.388c-0.484,0.584-1.018,1.032-1.603,1.343
	c1.791,0.436,3.373,1.473,4.746,3.112c0.104,0.128,0.204,0.253,0.301,0.373c-0.747,0.65-1.459,1.384-2.137,2.199
	c-0.75,0.893-1.419,1.828-2.007,2.807v1.234H-0.006v-5.042c0.325-0.543,0.693-1.066,1.104-1.571c1.383-1.629,2.97-2.666,4.761-3.112
	c-0.591-0.304-1.13-0.752-1.618-1.343c-1.02-1.21-1.53-2.673-1.53-4.388c0-1.722,0.51-3.193,1.53-4.414
	c1.013-1.207,2.241-1.81,3.683-1.81C9.376,12.312,10.608,12.915,11.622,14.122z"/>
</svg>
