<?xml version="1.0" encoding="utf-8"?>
<!-- Generator: Adobe Illustrator 15.1.0, SVG Export Plug-In . SVG Version: 6.00 Build 0)  -->
<!DOCTYPE svg PUBLIC "-//W3C//DTD SVG 1.1//EN" "http://www.w3.org/Graphics/SVG/1.1/DTD/svg11.dtd">
<svg version="1.1" id="Vrstva_1" xmlns="http://www.w3.org/2000/svg" xmlns:xlink="http://www.w3.org/1999/xlink" x="0px" y="0px"
	 width="50px" height="50px" viewBox="0 0 50 50" enable-background="new 0 0 50 50" xml:space="preserve">
<path fill-rule="evenodd" clip-rule="evenodd" fill="#FFFFFF" d="M45.926,38.243V17.399L25.497,28.688
	c-0.316,0.174-0.652,0.259-1.007,0.255c-0.356-0.004-0.689-0.095-0.999-0.272L4.069,17.448v20.795H45.926z M46.451,7.665
	c2.382,0,3.565,1.174,3.552,3.521v27.612c0.014,2.348-1.17,3.521-3.552,3.521H3.549c-2.388,0-3.573-1.174-3.557-3.521V11.187
	c-0.016-2.348,1.169-3.521,3.557-3.521H46.451z M45.926,12.741v-0.999H4.069v0.996l20.465,11.824L45.926,12.741z"/>
</svg>
