<?xml version="1.0" encoding="utf-8"?>
<!-- Generator: Adobe Illustrator 19.1.1, SVG Export Plug-In . SVG Version: 6.00 Build 0)  -->
<svg version="1.1" id="Vrstva_1" xmlns="http://www.w3.org/2000/svg" xmlns:xlink="http://www.w3.org/1999/xlink" x="0px" y="0px"
	 viewBox="-272 395.9 50 50" style="enable-background:new -272 395.9 50 50;" xml:space="preserve">
<style type="text/css">
	.st0{fill:#FFFFFF;}
</style>
<path class="st0" d="M-244.9,435.2c0.1-0.1,0.1-0.1,0.2-0.2c3.2-3.3,5.1-7.2,5.5-11.7h-5.7L-244.9,435.2L-244.9,435.2z
	 M-260.8,434.7c2.7,2.7,5.8,4.4,9.2,5.2c-0.7-0.6-1.3-1.1-2-1.8c-4.2-4.2-6.5-9.1-7.1-14.8h-5.8C-265.9,427.7-264,431.5-260.8,434.7
	z M-250,434.6c0.1,0.1,0.1,0.1,0.2,0.2v-11.5h-5.8C-255.1,427.7-253.2,431.4-250,434.6z M-249.8,406.9c-0.1,0.1-0.1,0.1-0.2,0.2
	c-3.2,3.2-5.1,7-5.6,11.3h5.8V406.9z M-253.5,403.5c0.6-0.6,1.1-1.1,1.7-1.6c-3.4,0.8-6.4,2.5-9,5.2c-3.2,3.2-5,6.9-5.6,11.2h5.8
	C-260.1,412.7-257.7,407.7-253.5,403.5z M-244.7,407.4c-0.1-0.1-0.1-0.1-0.2-0.2v11.2h5.6C-239.8,414.2-241.6,410.5-244.7,407.4z
	 M-233.2,434.7c3.2-3.2,5.1-7,5.6-11.4h-6.6c-0.4,5.8-2.8,10.9-6.9,15.2c-0.5,0.5-1.1,1-1.6,1.5C-239.2,439.2-236,437.5-233.2,434.7
	z M-227.6,418.4c-0.5-4.3-2.4-8.1-5.6-11.2c-3-3-6.5-4.8-10.4-5.5c0.9,0.7,1.7,1.4,2.5,2.2c4,4.1,6.3,8.9,6.9,14.5
	C-234.3,418.4-227.6,418.4-227.6,418.4z M-222.5,420.8v0.1c0,6.8-2.4,12.5-7.2,17.3c-4.8,4.8-10.5,7.2-17.3,7.2c-0.1,0-0.2,0-0.3,0
	h-0.1c0,0,0,0,0,0h-0.1c-6.6-0.1-12.2-2.5-16.9-7.2c-4.8-4.8-7.2-10.5-7.2-17.3c0-6.8,2.4-12.5,7.2-17.3c4.6-4.6,10-6.9,16.3-7.1
	c0.2,0,0.4-0.1,0.6-0.1c0.2,0,0.4,0,0.5,0c6.7,0,12.4,2.4,17.1,7.2C-225,408.4-222.6,414.1-222.5,420.8z"/>
</svg>
