<?xml version="1.0" encoding="utf-8"?>
<!-- Generator: Adobe Illustrator 19.2.0, SVG Export Plug-In . SVG Version: 6.00 Build 0)  -->
<svg version="1.1" id="Vrstva_1" xmlns="http://www.w3.org/2000/svg" xmlns:xlink="http://www.w3.org/1999/xlink" x="0px" y="0px"
	 viewBox="0 0 215.5 127.4" style="enable-background:new 0 0 215.5 127.4;" xml:space="preserve">
<style type="text/css">
	.st0{fill:#E31E24;}
	.st1{fill:#2B2A29;}
	.st2{fill:#FEFEFE;}
</style>
<g id="Vrstva_x0020_1">
	<g id="_310105328">
		<path class="st0" d="M5.9,120.4c0,1.2,1.1,2.6,3.4,2.6c1.9,0,2.8-0.9,2.8-1.8c0-1.3-1.8-1.5-3.5-1.7c-2.1-0.3-6.7-0.8-6.7-5.2
			c0-3.3,2.6-5.5,7-5.5c4.4,0,7,2.2,7.3,5.6h-4.3c-0.1-1-0.4-2.2-2.9-2.2c-1.6,0-2.6,0.5-2.6,1.4c0,1.4,2.3,1.6,4,1.9
			c3.4,0.6,6.4,1.5,6.4,5.3c0,3.9-3.2,5.6-7.6,5.6c-4.8,0-7.6-2.2-7.8-5.8H5.9z"/>
		<path class="st0" d="M33.9,122.1c-1.7,2.7-4.2,4.1-7.6,4.1c-5,0-8.9-4-8.9-8.8c0-4.9,4-8.8,8.9-8.8c3.3,0,5.9,1.4,7.6,4.1l-3.5,2
			c-1-1.4-2.3-2.2-4.1-2.2c-2.7,0-4.9,2.3-4.9,4.9c0,2.6,2.2,4.9,4.9,4.9c1.7,0,3.1-0.8,4.1-2.2L33.9,122.1z"/>
	</g>
	<path class="st0" d="M35.2,108.9h4.2v17h-4.2V108.9z M35.2,103.1L35.2,103.1h4.2v4.2h-4.2V103.1z"/>
	<g id="_310103928">
		<path class="st0" d="M54.3,115.6c-0.8-2-2.3-3-4.5-3c-2,0-3.8,1.3-4.6,3H54.3z M58.1,122.1L58.1,122.1c-1.8,2.7-4.3,4.1-8,4.1
			c-5.4,0-9.2-3.8-9.2-8.8c0-4.9,4-8.8,8.9-8.8c5.8,0,9.4,4.8,8.8,10.1H45.1c0.7,2.2,2.4,3.5,5,3.5c2.1,0,3.4-0.7,4.5-2.2
			L58.1,122.1L58.1,122.1z"/>
		<path class="st0" d="M60.2,108.9h4.2v1.4c1.1-1,2.7-1.5,4.6-1.5c5.1,0,7,3.2,7,8.2v8.9h-4.2V118c0-3.6-0.5-5.5-3.7-5.5
			c-2.3,0-3.7,1.5-3.7,3.9v9.4h-4.2L60.2,108.9L60.2,108.9z"/>
		<path class="st0" d="M79,112.8h-2v-3.9h2v-4.5h4.2v4.5H87v3.9h-3.8v6.2c0,2.2,0.5,3,4.3,3l0.3,4.1c-5.1,0.2-8.8-1-8.8-7.1V112.8z"
			/>
	</g>
	<path class="st0" d="M89.2,108.9h4.2v17h-4.2V108.9z M89.2,103.1L89.2,103.1h4.2v4.2h-4.2V103.1z"/>
	<g id="_310103232">
		<path class="st0" d="M96.7,114.6H95v-3.9h1.7V110c0-5.9,3.5-7.3,9-7.1l-0.3,4.1c-3.9,0-4.5,0.7-4.5,3v0.7h3.8v3.9h-3.8v11.3h-4.2
			V114.6z"/>
	</g>
	<path class="st0" d="M106.9,108.9h4.2v17h-4.2V108.9z M106.9,103.1L106.9,103.1h4.2v4.2h-4.2V103.1z"/>
	<g id="_310184024">
		<path class="st0" d="M129.1,122.1c-1.7,2.7-4.2,4.1-7.5,4.1c-5,0-8.9-4-8.9-8.8c0-4.9,4-8.8,8.9-8.8c3.3,0,5.9,1.4,7.6,4.1l-3.5,2
			c-1-1.4-2.3-2.2-4.1-2.2c-2.7,0-4.9,2.3-4.9,4.9c0,2.6,2.2,4.9,4.9,4.9c1.7,0,3.1-0.8,4.1-2.2L129.1,122.1z"/>
		<path class="st0" d="M152.8,122.1c-1.7,2.7-4.2,4.1-7.6,4.1c-5,0-8.9-4-8.9-8.8c0-4.9,4-8.8,8.9-8.8c3.3,0,5.9,1.4,7.6,4.1l-3.5,2
			c-1-1.4-2.3-2.2-4.1-2.2c-2.7,0-4.9,2.3-4.9,4.9c0,2.6,2.2,4.9,4.9,4.9c1.7,0,3.1-0.8,4.1-2.2L152.8,122.1z"/>
	</g>
	<polygon class="st0" points="154.1,103.1 158.3,103.1 158.3,125.9 154.1,125.9 	"/>
	<g id="_310182000">
		<path class="st0" d="M168.7,122.4c2.7,0,4.9-2.3,4.9-4.9c0-2.6-2.2-4.9-4.9-4.9c-2.7,0-4.9,2.3-4.9,4.9
			C163.8,120.1,166,122.4,168.7,122.4z M168.7,108.7L168.7,108.7c5,0,8.9,3.9,8.9,8.8c0,4.8-4,8.8-8.9,8.8s-8.9-4-8.9-8.8
			C159.8,112.6,163.7,108.7,168.7,108.7z"/>
		<path class="st0" d="M178.9,108.9h4.2v7.9c0,3.6,0.5,5.4,3.7,5.4c2.3,0,3.7-1.5,3.7-3.9v-9.4h4.2v17h-4.2v-1.4
			c-1.1,1-2.7,1.5-4.6,1.5c-5.1,0-7-3.2-7-8.2L178.9,108.9L178.9,108.9z"/>
		<path class="st0" d="M205,122.4c2.7,0,4.9-2.3,4.9-4.9c0-2.6-2.2-4.9-4.9-4.9s-4.9,2.3-4.9,4.9C200,120.1,202.3,122.4,205,122.4z
			 M209.9,124.7L209.9,124.7c-1.4,0.9-3.2,1.5-4.9,1.5c-5,0-8.9-4-8.9-8.8c0-4.9,4-8.8,8.9-8.8c1.7,0,3.5,0.5,4.9,1.5v-7.1h4.2v22.8
			h-4.2V124.7z"/>
		<path class="st1" d="M45.4,74.5c-2.8,4.9-8.1,8.2-14.1,8.2c-9,0-16.3-7.3-16.3-16.3s7.3-16.3,16.3-16.3c6,0,11.3,3.3,14.1,8.2
			L57,51.5c-5.2-8.9-14.8-14.9-25.8-14.9C14.8,36.6,1.5,50,1.5,66.4s13.3,29.8,29.8,29.8c11,0,20.6-6,25.8-14.9L45.4,74.5L45.4,74.5
			z"/>
		<path class="st1" d="M214.1,50.8V38h-32.6v12.8h7.1v19.8c0,14.1,11.4,25.5,25.5,25.5V81.9c-6.3,0-11.3-5.1-11.3-11.3V50.8H214.1z"
			/>
	</g>
	<polygon class="st1" points="174.4,94.7 160.2,94.7 160.2,38 174.4,38 	"/>
	<g id="_309940608">
		<path class="st1" d="M87.9,50.1c6.5,0,12,3.8,14.7,9.2H73.2C75.9,53.8,81.5,50.1,87.9,50.1z M117.4,70.6L117.4,70.6
			c0.2-1.4,0.3-2.8,0.3-4.3c0-16.4-13.3-29.8-29.8-29.8S58.2,49.9,58.2,66.4s13.3,29.8,29.8,29.8c11,0,20.6-6,25.8-14.9L102,74.5
			c-2.8,4.9-8.1,8.2-14.1,8.2c-7.5,0-13.9-5.1-15.7-12L117.4,70.6L117.4,70.6z"/>
		<path class="st1" d="M137.5,41.9V38h-14.2v56.7h14.2V64.2c0-7.1,5.7-12.8,12.8-12.8h4.3V36.6C148.2,36.6,142.4,38.6,137.5,41.9
			L137.5,41.9z"/>
		<path class="st0" d="M182.9,16.7c0,8.6-7,15.6-15.6,15.6c-8.6,0-15.6-7-15.6-15.6s7-15.6,15.6-15.6
			C175.9,1.2,182.9,8.1,182.9,16.7z"/>
		<path class="st2" d="M158.3,19c0,0.9,0.8,2,2.5,2c1.4,0,2.1-0.7,2.1-1.4c0-1-1.4-1.1-2.6-1.3c-1.6-0.2-5.1-0.6-5.1-3.9
			c0-2.5,1.9-4.2,5.3-4.2c3.3,0,5.2,1.6,5.4,4.2h-3.2c-0.1-0.7-0.3-1.6-2.2-1.6c-1.2,0-2,0.4-2,1c0,1,1.7,1.2,3,1.4
			c2.6,0.4,4.8,1.1,4.8,4c0,2.9-2.4,4.2-5.7,4.2c-3.7,0-5.7-1.6-5.8-4.4L158.3,19L158.3,19z"/>
		<path class="st2" d="M177,18.6c-0.6,1.1-1.8,1.8-3.1,1.8c-2,0-3.6-1.6-3.6-3.6c0-2,1.6-3.6,3.6-3.6c1.3,0,2.5,0.7,3.1,1.8l2.6-1.5
			c-1.1-2-3.3-3.3-5.7-3.3c-3.7,0-6.6,2.9-6.6,6.6s2.9,6.6,6.6,6.6c2.4,0,4.6-1.3,5.7-3.3L177,18.6L177,18.6z"/>
	</g>
</g>
</svg>
